<svg width="102" height="36" viewBox="0 0 102 36" fill="none" xmlns="http://www.w3.org/2000/svg">
<path d="M5.97869 15H4.34801L8.01207 4.81818H9.78693L13.451 15H11.8203L8.94176 6.66761H8.86222L5.97869 15ZM6.25213 11.0128H11.5419V12.3054H6.25213V11.0128ZM16.2885 4.81818V15H14.802V4.81818H16.2885ZM19.7749 4.81818V15H18.2884V4.81818H19.7749ZM25.5991 15V4.81818H31.9826V6.14062H27.1353V9.2429H31.6495V10.5604H27.1353V13.6776H32.0423V15H25.5991ZM33.9153 15V7.36364H35.3422V8.60653H35.4366C35.5957 8.18561 35.8559 7.85748 36.2172 7.62216C36.5784 7.38352 37.0109 7.2642 37.5147 7.2642C38.0252 7.2642 38.4527 7.38352 38.7974 7.62216C39.1454 7.8608 39.4023 8.18892 39.568 8.60653H39.6475C39.8298 8.19886 40.1199 7.87405 40.5176 7.6321C40.9153 7.38684 41.3893 7.2642 41.9395 7.2642C42.6322 7.2642 43.1973 7.4813 43.6348 7.91548C44.0756 8.34967 44.296 9.00426 44.296 9.87926V15H42.8095V10.0185C42.8095 9.50142 42.6686 9.12689 42.3869 8.89489C42.1052 8.66288 41.7688 8.54688 41.3777 8.54688C40.8938 8.54688 40.5176 8.69602 40.2491 8.99432C39.9806 9.2893 39.8464 9.6688 39.8464 10.1328V15H38.3649V9.92401C38.3649 9.50971 38.2356 9.17661 37.9771 8.92472C37.7186 8.67282 37.3822 8.54688 36.9679 8.54688C36.6861 8.54688 36.426 8.62145 36.1873 8.7706C35.952 8.91643 35.7614 9.12026 35.6156 9.3821C35.4731 9.64394 35.4018 9.94721 35.4018 10.2919V15H33.9153ZM46.2884 17.8636V7.36364H47.7401V8.60156H47.8643C47.9505 8.44247 48.0748 8.25852 48.2372 8.04972C48.3996 7.84091 48.625 7.65862 48.9134 7.50284C49.2017 7.34375 49.5829 7.2642 50.0568 7.2642C50.6733 7.2642 51.2235 7.41998 51.7074 7.73153C52.1913 8.04309 52.5708 8.49219 52.8459 9.07884C53.1243 9.66548 53.2635 10.3714 53.2635 11.1967C53.2635 12.022 53.1259 12.7296 52.8509 13.3196C52.5758 13.9062 52.1979 14.3587 51.7173 14.6768C51.2367 14.9917 50.6882 15.1491 50.0717 15.1491C49.6077 15.1491 49.2282 15.0713 48.9332 14.9155C48.6416 14.7597 48.4129 14.5774 48.2472 14.3686C48.0814 14.1598 47.9538 13.9742 47.8643 13.8118H47.7749V17.8636H46.2884ZM47.745 11.1818C47.745 11.7187 47.8229 12.1894 47.9787 12.5938C48.1345 12.9981 48.3598 13.3146 48.6548 13.5433C48.9498 13.7687 49.3111 13.8814 49.7386 13.8814C50.1828 13.8814 50.554 13.7637 50.8523 13.5284C51.1506 13.2898 51.3759 12.9666 51.5284 12.5589C51.6842 12.1513 51.7621 11.6922 51.7621 11.1818C51.7621 10.678 51.6858 10.2256 51.5334 9.82457C51.3842 9.42353 51.1589 9.10701 50.8572 8.875C50.5589 8.64299 50.1861 8.52699 49.7386 8.52699C49.3078 8.52699 48.9432 8.63802 48.6449 8.86009C48.3499 9.08215 48.1262 9.39205 47.9737 9.78977C47.8213 10.1875 47.745 10.6515 47.745 11.1818ZM56.4155 4.81818V15H54.929V4.81818H56.4155ZM61.6319 15.1541C60.916 15.1541 60.2913 14.9901 59.7576 14.6619C59.224 14.3338 58.8097 13.8748 58.5147 13.2848C58.2198 12.6948 58.0723 12.0054 58.0723 11.2166C58.0723 10.4245 58.2198 9.73177 58.5147 9.13849C58.8097 8.54522 59.224 8.08452 59.7576 7.75639C60.2913 7.42827 60.916 7.2642 61.6319 7.2642C62.3478 7.2642 62.9726 7.42827 63.5062 7.75639C64.0398 8.08452 64.4541 8.54522 64.7491 9.13849C65.0441 9.73177 65.1916 10.4245 65.1916 11.2166C65.1916 12.0054 65.0441 12.6948 64.7491 13.2848C64.4541 13.8748 64.0398 14.3338 63.5062 14.6619C62.9726 14.9901 62.3478 15.1541 61.6319 15.1541ZM61.6369 13.9062C62.1009 13.9062 62.4854 13.7836 62.7903 13.5384C63.0952 13.2931 63.3206 12.9666 63.4664 12.5589C63.6156 12.1513 63.6902 11.7022 63.6902 11.2116C63.6902 10.7244 63.6156 10.277 63.4664 9.86932C63.3206 9.45833 63.0952 9.12855 62.7903 8.87997C62.4854 8.63139 62.1009 8.5071 61.6369 8.5071C61.1696 8.5071 60.7818 8.63139 60.4735 8.87997C60.1686 9.12855 59.9416 9.45833 59.7924 9.86932C59.6466 10.277 59.5737 10.7244 59.5737 11.2116C59.5737 11.7022 59.6466 12.1513 59.7924 12.5589C59.9416 12.9666 60.1686 13.2931 60.4735 13.5384C60.7818 13.7836 61.1696 13.9062 61.6369 13.9062ZM67.5307 17.8636C67.3087 17.8636 67.1065 17.8454 66.9242 17.8089C66.7419 17.7758 66.606 17.7393 66.5165 17.6996L66.8745 16.4815C67.1462 16.5545 67.3882 16.5859 67.6003 16.576C67.8124 16.5661 67.9997 16.4865 68.1621 16.3374C68.3278 16.1882 68.4737 15.9446 68.5996 15.6065L68.7836 15.0994L65.9895 7.36364H67.5804L69.5144 13.2898H69.5939L71.5279 7.36364H73.1238L69.9767 16.0192C69.8309 16.4169 69.6453 16.7533 69.4199 17.0284C69.1945 17.3068 68.9261 17.5156 68.6145 17.6548C68.303 17.794 67.9417 17.8636 67.5307 17.8636ZM77.5522 15.1541C76.7998 15.1541 76.1519 14.9934 75.6083 14.6719C75.0681 14.3471 74.6504 13.8913 74.3555 13.3047C74.0638 12.7147 73.918 12.0237 73.918 11.2315C73.918 10.4493 74.0638 9.75994 74.3555 9.16335C74.6504 8.56676 75.0614 8.10109 75.5884 7.76633C76.1187 7.43158 76.7385 7.2642 77.4478 7.2642C77.8787 7.2642 78.2963 7.33546 78.7006 7.47798C79.105 7.6205 79.4679 7.84422 79.7894 8.14915C80.1109 8.45407 80.3645 8.85014 80.5501 9.33736C80.7357 9.82126 80.8285 10.4096 80.8285 11.1023V11.6293H74.7582V10.5156H79.3718C79.3718 10.1245 79.2923 9.77817 79.1332 9.47656C78.9741 9.17164 78.7504 8.93134 78.462 8.75568C78.177 8.58002 77.8422 8.49219 77.4577 8.49219C77.0401 8.49219 76.6755 8.59493 76.364 8.80043C76.0558 9.0026 75.8171 9.26776 75.6481 9.59588C75.4824 9.92069 75.3995 10.2737 75.3995 10.6548V11.5249C75.3995 12.0353 75.489 12.4695 75.668 12.8274C75.8503 13.1854 76.1038 13.4588 76.4286 13.6477C76.7534 13.8333 77.1329 13.9261 77.5671 13.9261C77.8488 13.9261 78.1057 13.8864 78.3377 13.8068C78.5697 13.724 78.7702 13.6013 78.9393 13.4389C79.1083 13.2765 79.2376 13.076 79.3271 12.8374L80.734 13.0909C80.6213 13.5052 80.4192 13.8681 80.1275 14.1797C79.8391 14.4879 79.4762 14.7282 79.0387 14.9006C78.6045 15.0696 78.109 15.1541 77.5522 15.1541ZM85.769 15.1541C85.0166 15.1541 84.3687 14.9934 83.8251 14.6719C83.2849 14.3471 82.8672 13.8913 82.5723 13.3047C82.2806 12.7147 82.1348 12.0237 82.1348 11.2315C82.1348 10.4493 82.2806 9.75994 82.5723 9.16335C82.8672 8.56676 83.2782 8.10109 83.8052 7.76633C84.3355 7.43158 84.9553 7.2642 85.6646 7.2642C86.0955 7.2642 86.5131 7.33546 86.9174 7.47798C87.3218 7.6205 87.6847 7.84422 88.0062 8.14915C88.3277 8.45407 88.5813 8.85014 88.7669 9.33736C88.9525 9.82126 89.0453 10.4096 89.0453 11.1023V11.6293H82.975V10.5156H87.5886C87.5886 10.1245 87.5091 9.77817 87.35 9.47656C87.1909 9.17164 86.9672 8.93134 86.6788 8.75568C86.3938 8.58002 86.059 8.49219 85.6745 8.49219C85.2569 8.49219 84.8923 8.59493 84.5808 8.80043C84.2725 9.0026 84.0339 9.26776 83.8649 9.59588C83.6992 9.92069 83.6163 10.2737 83.6163 10.6548V11.5249C83.6163 12.0353 83.7058 12.4695 83.8848 12.8274C84.0671 13.1854 84.3206 13.4588 84.6454 13.6477C84.9702 13.8333 85.3497 13.9261 85.7839 13.9261C86.0656 13.9261 86.3225 13.8864 86.5545 13.8068C86.7865 13.724 86.987 13.6013 87.1561 13.4389C87.3251 13.2765 87.4544 13.076 87.5439 12.8374L88.9508 13.0909C88.8381 13.5052 88.6359 13.8681 88.3443 14.1797C88.0559 14.4879 87.693 14.7282 87.2555 14.9006C86.8213 15.0696 86.3258 15.1541 85.769 15.1541ZM96.4169 9.22798L95.0696 9.46662C95.0133 9.29427 94.9238 9.13021 94.8011 8.97443C94.6818 8.81865 94.5194 8.69105 94.3139 8.59162C94.1084 8.49219 93.8516 8.44247 93.5433 8.44247C93.1224 8.44247 92.7711 8.53693 92.4893 8.72585C92.2076 8.91146 92.0668 9.15175 92.0668 9.44673C92.0668 9.70194 92.1612 9.90743 92.3501 10.0632C92.5391 10.219 92.844 10.3466 93.2649 10.446L94.478 10.7244C95.1806 10.8868 95.7043 11.1371 96.049 11.4751C96.3937 11.8132 96.5661 12.2524 96.5661 12.7926C96.5661 13.25 96.4335 13.6577 96.1683 14.0156C95.9065 14.3703 95.5402 14.6487 95.0696 14.8509C94.6023 15.053 94.0604 15.1541 93.4439 15.1541C92.5888 15.1541 91.8911 14.9718 91.3509 14.6072C90.8106 14.2393 90.4792 13.7173 90.3565 13.0412L91.7933 12.8224C91.8828 13.197 92.0668 13.4804 92.3452 13.6726C92.6236 13.8615 92.9865 13.956 93.4339 13.956C93.9212 13.956 94.3106 13.8549 94.6023 13.6527C94.8939 13.4472 95.0398 13.197 95.0398 12.902C95.0398 12.6634 94.9503 12.4628 94.7713 12.3004C94.5956 12.138 94.3255 12.0154 93.9609 11.9325L92.6683 11.6491C91.9557 11.4867 91.4287 11.2282 91.0874 10.8736C90.7493 10.5189 90.5803 10.0698 90.5803 9.52628C90.5803 9.07552 90.7062 8.68111 90.9581 8.34304C91.21 8.00497 91.558 7.74148 92.0021 7.55256C92.4463 7.36032 92.955 7.2642 93.5284 7.2642C94.3537 7.2642 95.0033 7.44318 95.4773 7.80114C95.9512 8.15578 96.2644 8.63139 96.4169 9.22798Z" fill="#6A1039"/>
</svg>
