<svg width="105" height="44" viewBox="0 0 105 44" fill="none" xmlns="http://www.w3.org/2000/svg">
<rect x="0.5" y="0.5" width="104" height="43" rx="7.5" fill="white"/>
<rect x="0.5" y="0.5" width="104" height="43" rx="7.5" stroke="#E6E7EC"/>
<rect x="16" y="12" width="20" height="20" rx="10" stroke="#D0D5DD" stroke-linecap="round" stroke-linejoin="round" stroke-dasharray="1 3"/>
<path d="M26 17.3333V26.6667M21.3334 22H30.6667" stroke="#A6AEBB" stroke-width="1.33333" stroke-linecap="round" stroke-linejoin="round"/>
<path d="M45.6506 27H44.358L48.0966 16.8182H49.3693L53.108 27H51.8153L48.7727 18.429H48.6932L45.6506 27ZM46.1278 23.0227H51.3381V24.1165H46.1278V23.0227ZM59.9439 21.0739L58.8899 21.3722C58.8236 21.1965 58.7259 21.0258 58.5966 20.8601C58.4706 20.6911 58.2983 20.5518 58.0795 20.4425C57.8608 20.3331 57.5807 20.2784 57.2393 20.2784C56.772 20.2784 56.3826 20.3861 56.071 20.6016C55.7628 20.8137 55.6087 21.0838 55.6087 21.4119C55.6087 21.7036 55.7147 21.9339 55.9268 22.103C56.139 22.272 56.4704 22.4129 56.9212 22.5256L58.0547 22.804C58.7375 22.9697 59.2462 23.2232 59.581 23.5646C59.9157 23.9027 60.0831 24.3385 60.0831 24.8722C60.0831 25.3097 59.9571 25.7008 59.7053 26.0455C59.4567 26.3902 59.1087 26.6619 58.6612 26.8608C58.2138 27.0597 57.6934 27.1591 57.1001 27.1591C56.3213 27.1591 55.6766 26.9901 55.1662 26.652C54.6558 26.3139 54.3326 25.8201 54.1967 25.1705L55.3104 24.892C55.4164 25.303 55.617 25.6113 55.9119 25.8168C56.2102 26.0223 56.5997 26.125 57.0803 26.125C57.6271 26.125 58.0613 26.009 58.3828 25.777C58.7076 25.5417 58.87 25.2599 58.87 24.9318C58.87 24.6667 58.7772 24.4446 58.5916 24.2656C58.406 24.0833 58.121 23.9474 57.7365 23.858L56.4638 23.5597C55.7644 23.3939 55.2507 23.1371 54.9226 22.7891C54.5978 22.4377 54.4354 21.9986 54.4354 21.4716C54.4354 21.0407 54.5563 20.6596 54.7983 20.3281C55.0436 19.9967 55.3767 19.7365 55.7976 19.5476C56.2218 19.3587 56.7024 19.2642 57.2393 19.2642C57.995 19.2642 58.5883 19.4299 59.0192 19.7614C59.4534 20.0928 59.7616 20.5303 59.9439 21.0739ZM67.2583 21.0739L66.2044 21.3722C66.1381 21.1965 66.0403 21.0258 65.911 20.8601C65.7851 20.6911 65.6127 20.5518 65.394 20.4425C65.1752 20.3331 64.8952 20.2784 64.5538 20.2784C64.0865 20.2784 63.697 20.3861 63.3855 20.6016C63.0772 20.8137 62.9231 21.0838 62.9231 21.4119C62.9231 21.7036 63.0292 21.9339 63.2413 22.103C63.4534 22.272 63.7849 22.4129 64.2356 22.5256L65.3691 22.804C66.0519 22.9697 66.5607 23.2232 66.8954 23.5646C67.2302 23.9027 67.3975 24.3385 67.3975 24.8722C67.3975 25.3097 67.2716 25.7008 67.0197 26.0455C66.7711 26.3902 66.4231 26.6619 65.9757 26.8608C65.5282 27.0597 65.0079 27.1591 64.4146 27.1591C63.6357 27.1591 62.9911 26.9901 62.4806 26.652C61.9702 26.3139 61.6471 25.8201 61.5112 25.1705L62.6248 24.892C62.7309 25.303 62.9314 25.6113 63.2264 25.8168C63.5247 26.0223 63.9141 26.125 64.3947 26.125C64.9416 26.125 65.3758 26.009 65.6973 25.777C66.0221 25.5417 66.1845 25.2599 66.1845 24.9318C66.1845 24.6667 66.0917 24.4446 65.9061 24.2656C65.7205 24.0833 65.4354 23.9474 65.051 23.858L63.7782 23.5597C63.0789 23.3939 62.5652 23.1371 62.237 22.7891C61.9122 22.4377 61.7498 21.9986 61.7498 21.4716C61.7498 21.0407 61.8708 20.6596 62.1127 20.3281C62.358 19.9967 62.6911 19.7365 63.112 19.5476C63.5363 19.3587 64.0169 19.2642 64.5538 19.2642C65.3095 19.2642 65.9028 19.4299 66.3336 19.7614C66.7678 20.0928 67.0761 20.5303 67.2583 21.0739ZM69.1637 27V19.3636H70.337V27H69.1637ZM69.7603 18.0909C69.5316 18.0909 69.3344 18.013 69.1687 17.8572C69.0063 17.7015 68.9251 17.5142 68.9251 17.2955C68.9251 17.0767 69.0063 16.8894 69.1687 16.7337C69.3344 16.5779 69.5316 16.5 69.7603 16.5C69.989 16.5 70.1845 16.5779 70.3469 16.7337C70.5127 16.8894 70.5955 17.0767 70.5955 17.2955C70.5955 17.5142 70.5127 17.7015 70.3469 17.8572C70.1845 18.013 69.989 18.0909 69.7603 18.0909ZM75.5684 30.0227C75.0016 30.0227 74.5144 29.9498 74.1067 29.804C73.699 29.6615 73.3593 29.4725 73.0875 29.2372C72.8191 29.0052 72.6053 28.7566 72.4462 28.4915L73.3809 27.8352C73.4869 27.9744 73.6212 28.1335 73.7836 28.3125C73.946 28.4948 74.168 28.6522 74.4498 28.7848C74.7348 28.9207 75.1077 28.9886 75.5684 28.9886C76.1848 28.9886 76.6936 28.8395 77.0946 28.5412C77.4957 28.2429 77.6962 27.7756 77.6962 27.1392V25.5881H77.5968C77.5106 25.7273 77.388 25.8996 77.2289 26.1051C77.0731 26.3073 76.8477 26.4879 76.5527 26.647C76.2611 26.8028 75.8667 26.8807 75.3695 26.8807C74.753 26.8807 74.1995 26.7348 73.709 26.4432C73.2218 26.1515 72.8356 25.7273 72.5506 25.1705C72.2689 24.6136 72.128 23.9375 72.128 23.142C72.128 22.3598 72.2656 21.6787 72.5407 21.0987C72.8158 20.5154 73.1986 20.0646 73.6891 19.7464C74.1796 19.425 74.7464 19.2642 75.3894 19.2642C75.8865 19.2642 76.281 19.3471 76.5726 19.5128C76.8676 19.6752 77.093 19.8608 77.2488 20.0696C77.4078 20.2751 77.5305 20.4441 77.6167 20.5767H77.736V19.3636H78.8695V27.2188C78.8695 27.875 78.7203 28.4086 78.4221 28.8196C78.1271 29.2339 77.7293 29.5372 77.2289 29.7294C76.7317 29.925 76.1782 30.0227 75.5684 30.0227ZM75.5286 25.8267C75.9992 25.8267 76.397 25.719 76.7218 25.5036C77.0466 25.2881 77.2935 24.9782 77.4625 24.5739C77.6316 24.1695 77.7161 23.6856 77.7161 23.1222C77.7161 22.572 77.6332 22.0864 77.4675 21.6655C77.3018 21.2446 77.0565 20.9148 76.7317 20.6761C76.4069 20.4375 76.0059 20.3182 75.5286 20.3182C75.0314 20.3182 74.6171 20.4441 74.2857 20.696C73.9576 20.9479 73.7106 21.286 73.5449 21.7102C73.3825 22.1345 73.3013 22.6051 73.3013 23.1222C73.3013 23.6525 73.3842 24.1214 73.5499 24.5291C73.7189 24.9335 73.9675 25.2517 74.2956 25.4837C74.6271 25.7124 75.0381 25.8267 75.5286 25.8267ZM82.1905 22.4062V27H81.0172V19.3636H82.1507V20.5568H82.2502C82.4292 20.169 82.7009 19.8575 83.0655 19.6222C83.4301 19.3835 83.9007 19.2642 84.4775 19.2642C84.9945 19.2642 85.4469 19.3703 85.8347 19.5824C86.2225 19.7912 86.5241 20.1094 86.7395 20.5369C86.955 20.9612 87.0627 21.4981 87.0627 22.1477V27H85.8894V22.2273C85.8894 21.6274 85.7336 21.16 85.4221 20.8253C85.1105 20.4872 84.6829 20.3182 84.1394 20.3182C83.7649 20.3182 83.4301 20.3994 83.1351 20.5618C82.8435 20.7242 82.6131 20.9612 82.4441 21.2727C82.275 21.5843 82.1905 21.9621 82.1905 22.4062Z" fill="#0E2354"/>
</svg>
