<svg width="446" height="76" viewBox="0 0 446 76" fill="none" xmlns="http://www.w3.org/2000/svg">
<path d="M0.42 21L4.452 6.3H8.841L12.873 21H10.269L9.387 17.64H3.906L3.024 21H0.42ZM4.494 15.33H8.799L6.825 7.875H6.468L4.494 15.33ZM19.1061 21.294C17.7621 21.294 16.6561 21 15.7881 20.412C14.9201 19.824 14.3951 18.963 14.2131 17.829L16.4391 17.262C16.5371 17.794 16.7121 18.214 16.9641 18.522C17.2161 18.83 17.5241 19.047 17.8881 19.173C18.2661 19.299 18.6721 19.362 19.1061 19.362C19.7641 19.362 20.2541 19.243 20.5761 19.005C20.9121 18.767 21.0801 18.466 21.0801 18.102C21.0801 17.724 20.9191 17.444 20.5971 17.262C20.2891 17.08 19.8131 16.926 19.1691 16.8L18.5181 16.695C17.8041 16.555 17.1531 16.366 16.5651 16.128C15.9771 15.876 15.5011 15.54 15.1371 15.12C14.7871 14.686 14.6121 14.14 14.6121 13.482C14.6121 12.474 14.9831 11.697 15.7251 11.151C16.4811 10.605 17.4681 10.332 18.6861 10.332C19.8481 10.332 20.8071 10.591 21.5631 11.109C22.3191 11.627 22.8091 12.32 23.0331 13.188L20.8071 13.86C20.6951 13.272 20.4501 12.859 20.0721 12.621C19.6941 12.369 19.2321 12.243 18.6861 12.243C18.1261 12.243 17.6921 12.341 17.3841 12.537C17.0901 12.733 16.9431 13.013 16.9431 13.377C16.9431 13.741 17.0971 14.014 17.4051 14.196C17.7131 14.378 18.1261 14.511 18.6441 14.595L19.2951 14.721C20.0651 14.861 20.7581 15.043 21.3741 15.267C22.0041 15.491 22.5011 15.813 22.8651 16.233C23.2291 16.653 23.4111 17.22 23.4111 17.934C23.4111 19.012 23.0191 19.845 22.2351 20.433C21.4651 21.007 20.4221 21.294 19.1061 21.294ZM30.1393 21.294C28.7953 21.294 27.6893 21 26.8213 20.412C25.9533 19.824 25.4283 18.963 25.2463 17.829L27.4723 17.262C27.5703 17.794 27.7453 18.214 27.9973 18.522C28.2493 18.83 28.5573 19.047 28.9213 19.173C29.2993 19.299 29.7053 19.362 30.1393 19.362C30.7973 19.362 31.2873 19.243 31.6093 19.005C31.9453 18.767 32.1133 18.466 32.1133 18.102C32.1133 17.724 31.9523 17.444 31.6303 17.262C31.3223 17.08 30.8463 16.926 30.2023 16.8L29.5513 16.695C28.8373 16.555 28.1863 16.366 27.5983 16.128C27.0103 15.876 26.5343 15.54 26.1703 15.12C25.8203 14.686 25.6453 14.14 25.6453 13.482C25.6453 12.474 26.0163 11.697 26.7583 11.151C27.5143 10.605 28.5013 10.332 29.7193 10.332C30.8813 10.332 31.8403 10.591 32.5963 11.109C33.3523 11.627 33.8423 12.32 34.0663 13.188L31.8403 13.86C31.7283 13.272 31.4833 12.859 31.1053 12.621C30.7273 12.369 30.2653 12.243 29.7193 12.243C29.1593 12.243 28.7253 12.341 28.4173 12.537C28.1233 12.733 27.9763 13.013 27.9763 13.377C27.9763 13.741 28.1303 14.014 28.4383 14.196C28.7463 14.378 29.1593 14.511 29.6773 14.595L30.3283 14.721C31.0983 14.861 31.7913 15.043 32.4073 15.267C33.0373 15.491 33.5343 15.813 33.8983 16.233C34.2623 16.653 34.4443 17.22 34.4443 17.934C34.4443 19.012 34.0523 19.845 33.2683 20.433C32.4983 21.007 31.4553 21.294 30.1393 21.294ZM36.8885 21V10.626H39.3035V21H36.8885ZM38.0855 9.303C37.6515 9.303 37.2735 9.163 36.9515 8.883C36.6435 8.589 36.4895 8.204 36.4895 7.728C36.4895 7.252 36.6435 6.874 36.9515 6.594C37.2735 6.3 37.6515 6.153 38.0855 6.153C38.5475 6.153 38.9255 6.3 39.2195 6.594C39.5275 6.874 39.6815 7.252 39.6815 7.728C39.6815 8.204 39.5275 8.589 39.2195 8.883C38.9255 9.163 38.5475 9.303 38.0855 9.303ZM41.8601 15.855V15.54C41.8601 14.448 42.0771 13.517 42.5111 12.747C42.9451 11.963 43.5261 11.368 44.2541 10.962C44.9821 10.542 45.7801 10.332 46.6481 10.332C47.6281 10.332 48.3701 10.507 48.8741 10.857C49.3921 11.207 49.7701 11.585 50.0081 11.991H50.3651V10.626H52.7171V22.974C52.7171 23.66 52.5211 24.199 52.1291 24.591C51.7371 24.997 51.2051 25.2 50.5331 25.2H43.5611V23.1H49.7141C50.1201 23.1 50.3231 22.89 50.3231 22.47V19.467H49.9661C49.8121 19.705 49.6021 19.95 49.3361 20.202C49.0701 20.44 48.7201 20.643 48.2861 20.811C47.8521 20.979 47.3061 21.063 46.6481 21.063C45.7801 21.063 44.9821 20.86 44.2541 20.454C43.5261 20.034 42.9451 19.439 42.5111 18.669C42.0771 17.885 41.8601 16.947 41.8601 15.855ZM47.3201 18.942C48.1881 18.942 48.9091 18.669 49.4831 18.123C50.0571 17.563 50.3441 16.786 50.3441 15.792V15.582C50.3441 14.574 50.0571 13.797 49.4831 13.251C48.9231 12.705 48.2021 12.432 47.3201 12.432C46.4521 12.432 45.7241 12.705 45.1361 13.251C44.5621 13.797 44.2751 14.574 44.2751 15.582V15.792C44.2751 16.786 44.5621 17.563 45.1361 18.123C45.7241 18.669 46.4521 18.942 47.3201 18.942ZM55.7762 21V10.626H58.1492V12.075H58.5062C58.6882 11.683 59.0172 11.312 59.4932 10.962C59.9692 10.612 60.6902 10.437 61.6562 10.437C62.4542 10.437 63.1612 10.619 63.7772 10.983C64.3932 11.347 64.8692 11.851 65.2052 12.495C65.5552 13.139 65.7302 13.902 65.7302 14.784V21H63.3152V14.973C63.3152 14.133 63.1052 13.51 62.6852 13.104C62.2792 12.684 61.6982 12.474 60.9422 12.474C60.0882 12.474 59.4162 12.761 58.9262 13.335C58.4362 13.895 58.1912 14.7 58.1912 15.75V21H55.7762ZM77.9966 21C77.3246 21 76.7856 20.804 76.3796 20.412C75.9876 20.006 75.7916 19.46 75.7916 18.774V12.621H73.0826V10.626H75.7916V7.287H78.2066V10.626H81.1886V12.621H78.2066V18.375C78.2066 18.795 78.4026 19.005 78.7946 19.005H80.8736V21H77.9966ZM83.6463 21V6.3H86.0613V11.991H86.4183C86.5303 11.753 86.7123 11.515 86.9643 11.277C87.2163 11.039 87.5453 10.843 87.9513 10.689C88.3713 10.535 88.8963 10.458 89.5263 10.458C90.3243 10.458 91.0313 10.64 91.6473 11.004C92.2633 11.354 92.7393 11.851 93.0753 12.495C93.4253 13.139 93.6003 13.902 93.6003 14.784V21H91.1853V14.973C91.1853 14.133 90.9753 13.51 90.5553 13.104C90.1493 12.684 89.5683 12.474 88.8123 12.474C87.9583 12.474 87.2863 12.761 86.7963 13.335C86.3063 13.895 86.0613 14.7 86.0613 15.75V21H83.6463ZM96.5662 21V10.626H98.9812V21H96.5662ZM97.7632 9.303C97.3292 9.303 96.9512 9.163 96.6292 8.883C96.3212 8.589 96.1672 8.204 96.1672 7.728C96.1672 7.252 96.3212 6.874 96.6292 6.594C96.9512 6.3 97.3292 6.153 97.7632 6.153C98.2252 6.153 98.6032 6.3 98.8972 6.594C99.2052 6.874 99.3592 7.252 99.3592 7.728C99.3592 8.204 99.2052 8.589 98.8972 8.883C98.6032 9.163 98.2252 9.303 97.7632 9.303ZM106.326 21.294C104.982 21.294 103.876 21 103.008 20.412C102.14 19.824 101.615 18.963 101.433 17.829L103.659 17.262C103.757 17.794 103.932 18.214 104.184 18.522C104.436 18.83 104.744 19.047 105.108 19.173C105.486 19.299 105.892 19.362 106.326 19.362C106.984 19.362 107.474 19.243 107.796 19.005C108.132 18.767 108.3 18.466 108.3 18.102C108.3 17.724 108.139 17.444 107.817 17.262C107.509 17.08 107.033 16.926 106.389 16.8L105.738 16.695C105.024 16.555 104.373 16.366 103.785 16.128C103.197 15.876 102.721 15.54 102.357 15.12C102.007 14.686 101.832 14.14 101.832 13.482C101.832 12.474 102.203 11.697 102.945 11.151C103.701 10.605 104.688 10.332 105.906 10.332C107.068 10.332 108.027 10.591 108.783 11.109C109.539 11.627 110.029 12.32 110.253 13.188L108.027 13.86C107.915 13.272 107.67 12.859 107.292 12.621C106.914 12.369 106.452 12.243 105.906 12.243C105.346 12.243 104.912 12.341 104.604 12.537C104.31 12.733 104.163 13.013 104.163 13.377C104.163 13.741 104.317 14.014 104.625 14.196C104.933 14.378 105.346 14.511 105.864 14.595L106.515 14.721C107.285 14.861 107.978 15.043 108.594 15.267C109.224 15.491 109.721 15.813 110.085 16.233C110.449 16.653 110.631 17.22 110.631 17.934C110.631 19.012 110.239 19.845 109.455 20.433C108.685 21.007 107.642 21.294 106.326 21.294ZM118.428 21V10.626H120.801V11.823H121.158C121.312 11.389 121.571 11.074 121.935 10.878C122.299 10.682 122.733 10.584 123.237 10.584H124.497V12.726H123.195C122.495 12.726 121.928 12.915 121.494 13.293C121.06 13.657 120.843 14.224 120.843 14.994V21H118.428ZM131.176 21.294C130.14 21.294 129.209 21.084 128.383 20.664C127.571 20.23 126.927 19.621 126.451 18.837C125.989 18.039 125.758 17.087 125.758 15.981V15.645C125.758 14.539 125.989 13.587 126.451 12.789C126.927 11.991 127.571 11.382 128.383 10.962C129.209 10.542 130.14 10.332 131.176 10.332C132.212 10.332 133.136 10.542 133.948 10.962C134.76 11.382 135.397 11.991 135.859 12.789C136.335 13.587 136.573 14.539 136.573 15.645V15.981C136.573 17.087 136.335 18.039 135.859 18.837C135.397 19.621 134.76 20.23 133.948 20.664C133.136 21.084 132.212 21.294 131.176 21.294ZM131.176 19.152C132.058 19.152 132.779 18.872 133.339 18.312C133.899 17.738 134.179 16.94 134.179 15.918V15.708C134.179 14.686 133.899 13.895 133.339 13.335C132.779 12.761 132.058 12.474 131.176 12.474C130.294 12.474 129.573 12.761 129.013 13.335C128.453 13.895 128.173 14.686 128.173 15.708V15.918C128.173 16.94 128.453 17.738 129.013 18.312C129.573 18.872 130.294 19.152 131.176 19.152ZM139.14 21V6.3H141.555V21H139.14ZM149.362 21.294C148.326 21.294 147.409 21.077 146.611 20.643C145.827 20.195 145.211 19.572 144.763 18.774C144.329 17.962 144.112 17.017 144.112 15.939V15.687C144.112 14.595 144.329 13.65 144.763 12.852C145.197 12.054 145.806 11.438 146.59 11.004C147.374 10.556 148.277 10.332 149.299 10.332C150.307 10.332 151.189 10.556 151.945 11.004C152.701 11.438 153.289 12.054 153.709 12.852C154.129 13.65 154.339 14.581 154.339 15.645V16.506H146.548C146.576 17.318 146.863 17.969 147.409 18.459C147.955 18.949 148.627 19.194 149.425 19.194C150.209 19.194 150.79 19.026 151.168 18.69C151.546 18.34 151.833 17.948 152.029 17.514L154.024 18.543C153.828 18.921 153.541 19.327 153.163 19.761C152.799 20.181 152.309 20.545 151.693 20.853C151.077 21.147 150.3 21.294 149.362 21.294ZM146.569 14.679H151.882C151.826 13.993 151.56 13.447 151.084 13.041C150.622 12.635 150.02 12.432 149.278 12.432C148.508 12.432 147.892 12.635 147.43 13.041C146.968 13.447 146.681 13.993 146.569 14.679Z" fill="#15294B"/>
<path d="M6.80114 43.3636C6.74148 42.8598 6.49953 42.4688 6.07528 42.1903C5.65104 41.9119 5.13068 41.7727 4.5142 41.7727C4.06345 41.7727 3.66903 41.8456 3.33097 41.9915C2.99621 42.1373 2.73438 42.3378 2.54545 42.593C2.35985 42.8482 2.26705 43.1383 2.26705 43.4631C2.26705 43.7348 2.33168 43.9685 2.46094 44.1641C2.59351 44.3563 2.76255 44.517 2.96804 44.6463C3.17353 44.7723 3.38897 44.8767 3.61435 44.9595C3.83973 45.0391 4.04688 45.1037 4.2358 45.1534L5.26989 45.4318C5.53504 45.5014 5.83002 45.5975 6.15483 45.7202C6.48295 45.8428 6.79616 46.0102 7.09446 46.2223C7.39607 46.4311 7.64465 46.6996 7.8402 47.0277C8.03575 47.3558 8.13352 47.7585 8.13352 48.2358C8.13352 48.786 7.98935 49.2831 7.70099 49.7273C7.41596 50.1714 6.99834 50.5244 6.44815 50.7862C5.90128 51.0481 5.23674 51.179 4.45455 51.179C3.72538 51.179 3.09399 51.0613 2.56037 50.826C2.03007 50.5907 1.61245 50.2625 1.30753 49.8416C1.00592 49.4207 0.835227 48.9318 0.795455 48.375H2.06818C2.10133 48.7595 2.23059 49.0777 2.45597 49.3295C2.68466 49.5781 2.97301 49.7637 3.32102 49.8864C3.67235 50.0057 4.05019 50.0653 4.45455 50.0653C4.92519 50.0653 5.34777 49.9891 5.7223 49.8366C6.09683 49.6809 6.39347 49.4654 6.61222 49.1903C6.83097 48.9119 6.94034 48.5871 6.94034 48.2159C6.94034 47.8778 6.84588 47.6027 6.65696 47.3906C6.46804 47.1785 6.21946 47.0062 5.91122 46.8736C5.60298 46.741 5.26989 46.625 4.91193 46.5256L3.65909 46.1676C2.86364 45.9389 2.2339 45.6125 1.76989 45.1882C1.30587 44.764 1.07386 44.2088 1.07386 43.5227C1.07386 42.9527 1.22798 42.4555 1.53622 42.0312C1.84777 41.6037 2.26539 41.2723 2.78906 41.0369C3.31605 40.7983 3.90436 40.679 4.55398 40.679C5.21023 40.679 5.79356 40.7966 6.30398 41.032C6.81439 41.264 7.21875 41.5821 7.51705 41.9865C7.81866 42.3909 7.97775 42.8499 7.99432 43.3636H6.80114ZM13.2033 51.1591C12.4675 51.1591 11.8328 50.9967 11.2992 50.6719C10.7689 50.3438 10.3596 49.8864 10.0712 49.2997C9.78616 48.7098 9.64364 48.0237 9.64364 47.2415C9.64364 46.4593 9.78616 45.7699 10.0712 45.1733C10.3596 44.5734 10.7606 44.1061 11.2743 43.7713C11.7914 43.4332 12.3946 43.2642 13.084 43.2642C13.4817 43.2642 13.8745 43.3305 14.2623 43.4631C14.65 43.5956 15.003 43.8111 15.3212 44.1094C15.6394 44.4044 15.8929 44.7955 16.0819 45.2827C16.2708 45.7699 16.3652 46.3698 16.3652 47.0824V47.5795H10.4789V46.5653H15.1721C15.1721 46.1345 15.0859 45.75 14.9135 45.4119C14.7445 45.0739 14.5025 44.8071 14.1877 44.6115C13.8761 44.416 13.5082 44.3182 13.084 44.3182C12.6167 44.3182 12.2123 44.4342 11.8709 44.6662C11.5328 44.8949 11.2727 45.1932 11.0904 45.5611C10.9081 45.929 10.8169 46.3234 10.8169 46.7443V47.4205C10.8169 47.9972 10.9164 48.486 11.1152 48.8871C11.3174 49.2848 11.5975 49.5881 11.9554 49.7969C12.3134 50.0024 12.7293 50.1051 13.2033 50.1051C13.5115 50.1051 13.79 50.062 14.0385 49.9759C14.2904 49.8864 14.5075 49.7538 14.6898 49.5781C14.8721 49.3991 15.013 49.1771 15.1124 48.9119L16.2459 49.2301C16.1266 49.6146 15.9261 49.9527 15.6444 50.2443C15.3626 50.5327 15.0146 50.758 14.6003 50.9205C14.186 51.0795 13.7203 51.1591 13.2033 51.1591ZM19.3233 40.8182V51H18.15V40.8182H19.3233ZM24.674 51.1591C23.9382 51.1591 23.3035 50.9967 22.7699 50.6719C22.2396 50.3438 21.8303 49.8864 21.5419 49.2997C21.2569 48.7098 21.1143 48.0237 21.1143 47.2415C21.1143 46.4593 21.2569 45.7699 21.5419 45.1733C21.8303 44.5734 22.2313 44.1061 22.745 43.7713C23.2621 43.4332 23.8653 43.2642 24.5547 43.2642C24.9524 43.2642 25.3452 43.3305 25.733 43.4631C26.1207 43.5956 26.4737 43.8111 26.7919 44.1094C27.1101 44.4044 27.3636 44.7955 27.5526 45.2827C27.7415 45.7699 27.8359 46.3698 27.8359 47.0824V47.5795H21.9496V46.5653H26.6428C26.6428 46.1345 26.5566 45.75 26.3842 45.4119C26.2152 45.0739 25.9732 44.8071 25.6584 44.6115C25.3468 44.416 24.9789 44.3182 24.5547 44.3182C24.0874 44.3182 23.683 44.4342 23.3416 44.6662C23.0036 44.8949 22.7434 45.1932 22.5611 45.5611C22.3788 45.929 22.2876 46.3234 22.2876 46.7443V47.4205C22.2876 47.9972 22.3871 48.486 22.5859 48.8871C22.7881 49.2848 23.0682 49.5881 23.4261 49.7969C23.7841 50.0024 24.2 50.1051 24.674 50.1051C24.9822 50.1051 25.2607 50.062 25.5092 49.9759C25.7611 49.8864 25.9782 49.7538 26.1605 49.5781C26.3428 49.3991 26.4837 49.1771 26.5831 48.9119L27.7166 49.2301C27.5973 49.6146 27.3968 49.9527 27.1151 50.2443C26.8333 50.5327 26.4853 50.758 26.071 50.9205C25.6567 51.0795 25.1911 51.1591 24.674 51.1591ZM32.723 51.1591C32.0071 51.1591 31.3906 50.9901 30.8736 50.652C30.3565 50.3139 29.9588 49.8482 29.6804 49.255C29.402 48.6617 29.2628 47.9839 29.2628 47.2216C29.2628 46.446 29.4053 45.7616 29.6903 45.1683C29.9787 44.5717 30.3797 44.1061 30.8935 43.7713C31.4105 43.4332 32.0137 43.2642 32.7031 43.2642C33.2401 43.2642 33.724 43.3636 34.1548 43.5625C34.5857 43.7614 34.9387 44.0398 35.2138 44.3977C35.4889 44.7557 35.6596 45.1733 35.7259 45.6506H34.5526C34.4631 45.3026 34.2642 44.9943 33.956 44.7259C33.651 44.4541 33.2401 44.3182 32.723 44.3182C32.2656 44.3182 31.8646 44.4375 31.5199 44.6761C31.1785 44.9115 30.9117 45.2446 30.7195 45.6754C30.5305 46.103 30.4361 46.6051 30.4361 47.1818C30.4361 47.7718 30.5289 48.2855 30.7145 48.723C30.9034 49.1605 31.1686 49.5002 31.5099 49.7422C31.8546 49.9841 32.259 50.1051 32.723 50.1051C33.0279 50.1051 33.3047 50.0521 33.5533 49.946C33.8018 49.84 34.0123 49.6875 34.1847 49.4886C34.357 49.2898 34.4796 49.0511 34.5526 48.7727H35.7259C35.6596 49.2235 35.4955 49.6295 35.2337 49.9908C34.9751 50.3487 34.6321 50.6338 34.2045 50.8459C33.7803 51.0547 33.2865 51.1591 32.723 51.1591ZM40.7621 43.3636V44.358H36.8047V43.3636H40.7621ZM37.9581 41.5341H39.1314V48.8125C39.1314 49.1439 39.1795 49.3925 39.2756 49.5582C39.375 49.7206 39.5009 49.83 39.6534 49.8864C39.8092 49.9394 39.9732 49.9659 40.1456 49.9659C40.2749 49.9659 40.3809 49.9593 40.4638 49.946C40.5466 49.9295 40.6129 49.9162 40.6626 49.9062L40.9013 50.9602C40.8217 50.9901 40.7107 51.0199 40.5682 51.0497C40.4257 51.0829 40.245 51.0994 40.0263 51.0994C39.6948 51.0994 39.37 51.0282 39.0518 50.8857C38.737 50.7431 38.4751 50.526 38.2663 50.2344C38.0608 49.9427 37.9581 49.5748 37.9581 49.1307V41.5341ZM49.5668 51.1591C48.8774 51.1591 48.2725 50.995 47.7521 50.6669C47.2351 50.3388 46.8307 49.8797 46.5391 49.2898C46.2507 48.6998 46.1065 48.0104 46.1065 47.2216C46.1065 46.4261 46.2507 45.7318 46.5391 45.1385C46.8307 44.5452 47.2351 44.0845 47.7521 43.7564C48.2725 43.4283 48.8774 43.2642 49.5668 43.2642C50.2562 43.2642 50.8594 43.4283 51.3764 43.7564C51.8968 44.0845 52.3011 44.5452 52.5895 45.1385C52.8812 45.7318 53.027 46.4261 53.027 47.2216C53.027 48.0104 52.8812 48.6998 52.5895 49.2898C52.3011 49.8797 51.8968 50.3388 51.3764 50.6669C50.8594 50.995 50.2562 51.1591 49.5668 51.1591ZM49.5668 50.1051C50.0904 50.1051 50.5213 49.9709 50.8594 49.7024C51.1974 49.4339 51.4477 49.081 51.6101 48.6435C51.7725 48.206 51.8537 47.732 51.8537 47.2216C51.8537 46.7112 51.7725 46.2356 51.6101 45.7947C51.4477 45.3539 51.1974 44.9976 50.8594 44.7259C50.5213 44.4541 50.0904 44.3182 49.5668 44.3182C49.0431 44.3182 48.6122 44.4541 48.2741 44.7259C47.9361 44.9976 47.6858 45.3539 47.5234 45.7947C47.361 46.2356 47.2798 46.7112 47.2798 47.2216C47.2798 47.732 47.361 48.206 47.5234 48.6435C47.6858 49.081 47.9361 49.4339 48.2741 49.7024C48.6122 49.9709 49.0431 50.1051 49.5668 50.1051ZM55.9913 46.4062V51H54.818V43.3636H55.9515V44.5568H56.051C56.2299 44.169 56.5017 43.8575 56.8663 43.6222C57.2309 43.3835 57.7015 43.2642 58.2782 43.2642C58.7953 43.2642 59.2477 43.3703 59.6355 43.5824C60.0233 43.7912 60.3249 44.1094 60.5403 44.5369C60.7557 44.9612 60.8635 45.4981 60.8635 46.1477V51H59.6902V46.2273C59.6902 45.6274 59.5344 45.16 59.2228 44.8253C58.9113 44.4872 58.4837 44.3182 57.9402 44.3182C57.5656 44.3182 57.2309 44.3994 56.9359 44.5618C56.6442 44.7242 56.4139 44.9612 56.2449 45.2727C56.0758 45.5843 55.9913 45.9621 55.9913 46.4062ZM66.2092 51.1591C65.4734 51.1591 64.8387 50.9967 64.305 50.6719C63.7747 50.3438 63.3654 49.8864 63.0771 49.2997C62.792 48.7098 62.6495 48.0237 62.6495 47.2415C62.6495 46.4593 62.792 45.7699 63.0771 45.1733C63.3654 44.5734 63.7665 44.1061 64.2802 43.7713C64.7972 43.4332 65.4004 43.2642 66.0898 43.2642C66.4876 43.2642 66.8803 43.3305 67.2681 43.4631C67.6559 43.5956 68.0089 43.8111 68.3271 44.1094C68.6452 44.4044 68.8988 44.7955 69.0877 45.2827C69.2766 45.7699 69.3711 46.3698 69.3711 47.0824V47.5795H63.4847V46.5653H68.1779C68.1779 46.1345 68.0917 45.75 67.9194 45.4119C67.7504 45.0739 67.5084 44.8071 67.1935 44.6115C66.882 44.416 66.5141 44.3182 66.0898 44.3182C65.6225 44.3182 65.2182 44.4342 64.8768 44.6662C64.5387 44.8949 64.2785 45.1932 64.0962 45.5611C63.9139 45.929 63.8228 46.3234 63.8228 46.7443V47.4205C63.8228 47.9972 63.9222 48.486 64.1211 48.8871C64.3233 49.2848 64.6033 49.5881 64.9613 49.7969C65.3192 50.0024 65.7352 50.1051 66.2092 50.1051C66.5174 50.1051 66.7958 50.062 67.0444 49.9759C67.2963 49.8864 67.5134 49.7538 67.6957 49.5781C67.878 49.3991 68.0188 49.1771 68.1183 48.9119L69.2518 49.2301C69.1325 49.6146 68.9319 49.9527 68.6502 50.2443C68.3685 50.5327 68.0205 50.758 67.6062 50.9205C67.1919 51.0795 66.7262 51.1591 66.2092 51.1591ZM78.1957 51.1591C77.5063 51.1591 76.9014 50.995 76.381 50.6669C75.864 50.3388 75.4596 49.8797 75.168 49.2898C74.8796 48.6998 74.7354 48.0104 74.7354 47.2216C74.7354 46.4261 74.8796 45.7318 75.168 45.1385C75.4596 44.5452 75.864 44.0845 76.381 43.7564C76.9014 43.4283 77.5063 43.2642 78.1957 43.2642C78.8851 43.2642 79.4883 43.4283 80.0053 43.7564C80.5257 44.0845 80.93 44.5452 81.2184 45.1385C81.5101 45.7318 81.6559 46.4261 81.6559 47.2216C81.6559 48.0104 81.5101 48.6998 81.2184 49.2898C80.93 49.8797 80.5257 50.3388 80.0053 50.6669C79.4883 50.995 78.8851 51.1591 78.1957 51.1591ZM78.1957 50.1051C78.7193 50.1051 79.1502 49.9709 79.4883 49.7024C79.8263 49.4339 80.0766 49.081 80.239 48.6435C80.4014 48.206 80.4826 47.732 80.4826 47.2216C80.4826 46.7112 80.4014 46.2356 80.239 45.7947C80.0766 45.3539 79.8263 44.9976 79.4883 44.7259C79.1502 44.4541 78.7193 44.3182 78.1957 44.3182C77.672 44.3182 77.2411 44.4541 76.9031 44.7259C76.565 44.9976 76.3147 45.3539 76.1523 45.7947C75.9899 46.2356 75.9087 46.7112 75.9087 47.2216C75.9087 47.732 75.9899 48.206 76.1523 48.6435C76.3147 49.081 76.565 49.4339 76.9031 49.7024C77.2411 49.9709 77.672 50.1051 78.1957 50.1051ZM83.4469 51V43.3636H84.5804V44.517H84.66C84.7992 44.1392 85.0511 43.8326 85.4157 43.5973C85.7802 43.362 86.1912 43.2443 86.6486 43.2443C86.7348 43.2443 86.8425 43.246 86.9718 43.2493C87.101 43.2526 87.1988 43.2576 87.2651 43.2642V44.4574C87.2253 44.4474 87.1342 44.4325 86.9917 44.4126C86.8525 44.3894 86.705 44.3778 86.5492 44.3778C86.178 44.3778 85.8465 44.4557 85.5549 44.6115C85.2665 44.764 85.0378 44.9761 84.8688 45.2479C84.7031 45.5163 84.6202 45.8229 84.6202 46.1676V51H83.4469ZM92.5934 51V43.3636H93.7269V44.5568H93.8263C93.9854 44.1491 94.2423 43.8326 94.5969 43.6072C94.9516 43.3786 95.3775 43.2642 95.8746 43.2642C96.3784 43.2642 96.7977 43.3786 97.1325 43.6072C97.4705 43.8326 97.734 44.1491 97.9229 44.5568H98.0025C98.198 44.1624 98.4914 43.8492 98.8825 43.6172C99.2736 43.3819 99.7425 43.2642 100.289 43.2642C100.972 43.2642 101.531 43.478 101.965 43.9055C102.399 44.3298 102.616 44.991 102.616 45.8892V51H101.443V45.8892C101.443 45.3258 101.289 44.9231 100.98 44.6811C100.672 44.4392 100.309 44.3182 99.8917 44.3182C99.3548 44.3182 98.9388 44.4806 98.6438 44.8054C98.3488 45.1269 98.2013 45.5346 98.2013 46.0284V51H97.0082V45.7699C97.0082 45.3357 96.8673 44.986 96.5856 44.7209C96.3039 44.4524 95.9409 44.3182 95.4968 44.3182C95.1919 44.3182 94.9068 44.3994 94.6417 44.5618C94.3799 44.7242 94.1677 44.9496 94.0053 45.2379C93.8462 45.523 93.7667 45.8527 93.7667 46.2273V51H92.5934ZM109.574 47.8778V43.3636H110.747V51H109.574V49.7074H109.494C109.315 50.0952 109.037 50.425 108.659 50.6967C108.281 50.9652 107.804 51.0994 107.227 51.0994C106.75 51.0994 106.326 50.995 105.955 50.7862C105.583 50.5741 105.292 50.2559 105.08 49.8317C104.867 49.4041 104.761 48.8655 104.761 48.2159V43.3636H105.935V48.1364C105.935 48.6932 106.09 49.1373 106.402 49.4688C106.717 49.8002 107.118 49.9659 107.605 49.9659C107.897 49.9659 108.193 49.8913 108.495 49.7422C108.8 49.593 109.055 49.3643 109.261 49.0561C109.469 48.7479 109.574 48.3551 109.574 47.8778ZM114.069 40.8182V51H112.896V40.8182H114.069ZM119.539 43.3636V44.358H115.582V43.3636H119.539ZM116.735 41.5341H117.909V48.8125C117.909 49.1439 117.957 49.3925 118.053 49.5582C118.152 49.7206 118.278 49.83 118.431 49.8864C118.587 49.9394 118.751 49.9659 118.923 49.9659C119.052 49.9659 119.158 49.9593 119.241 49.946C119.324 49.9295 119.39 49.9162 119.44 49.9062L119.679 50.9602C119.599 50.9901 119.488 51.0199 119.346 51.0497C119.203 51.0829 119.022 51.0994 118.804 51.0994C118.472 51.0994 118.147 51.0282 117.829 50.8857C117.514 50.7431 117.252 50.526 117.044 50.2344C116.838 49.9427 116.735 49.5748 116.735 49.1307V41.5341ZM121.304 51V43.3636H122.478V51H121.304ZM121.901 42.0909C121.672 42.0909 121.475 42.013 121.309 41.8572C121.147 41.7015 121.066 41.5142 121.066 41.2955C121.066 41.0767 121.147 40.8894 121.309 40.7337C121.475 40.5779 121.672 40.5 121.901 40.5C122.13 40.5 122.325 40.5779 122.488 40.7337C122.653 40.8894 122.736 41.0767 122.736 41.2955C122.736 41.5142 122.653 41.7015 122.488 41.8572C122.325 42.013 122.13 42.0909 121.901 42.0909ZM124.627 53.8636V43.3636H125.76V44.5767H125.899C125.985 44.4441 126.105 44.2751 126.257 44.0696C126.413 43.8608 126.635 43.6752 126.923 43.5128C127.215 43.3471 127.61 43.2642 128.107 43.2642C128.75 43.2642 129.316 43.425 129.807 43.7464C130.298 44.0679 130.68 44.5237 130.955 45.1136C131.231 45.7036 131.368 46.3996 131.368 47.2017C131.368 48.0104 131.231 48.7114 130.955 49.3047C130.68 49.8946 130.299 50.352 129.812 50.6768C129.325 50.9983 128.763 51.1591 128.127 51.1591C127.636 51.1591 127.243 51.0779 126.948 50.9155C126.653 50.7498 126.426 50.5625 126.267 50.3537C126.108 50.1416 125.985 49.9659 125.899 49.8267H125.8V53.8636H124.627ZM125.78 47.1818C125.78 47.7585 125.865 48.2673 126.034 48.7081C126.203 49.1456 126.45 49.4886 126.774 49.7372C127.099 49.9825 127.497 50.1051 127.968 50.1051C128.458 50.1051 128.867 49.9759 129.195 49.7173C129.527 49.4555 129.776 49.1042 129.941 48.6634C130.11 48.2192 130.195 47.7254 130.195 47.1818C130.195 46.6449 130.112 46.161 129.946 45.7301C129.784 45.2959 129.537 44.9529 129.205 44.701C128.877 44.4458 128.465 44.3182 127.968 44.3182C127.49 44.3182 127.089 44.4392 126.764 44.6811C126.44 44.9197 126.194 45.2545 126.029 45.6854C125.863 46.1129 125.78 46.6117 125.78 47.1818ZM134.331 40.8182V51H133.158V40.8182H134.331ZM139.682 51.1591C138.946 51.1591 138.311 50.9967 137.778 50.6719C137.247 50.3438 136.838 49.8864 136.55 49.2997C136.265 48.7098 136.122 48.0237 136.122 47.2415C136.122 46.4593 136.265 45.7699 136.55 45.1733C136.838 44.5734 137.239 44.1061 137.753 43.7713C138.27 43.4332 138.873 43.2642 139.562 43.2642C139.96 43.2642 140.353 43.3305 140.741 43.4631C141.129 43.5956 141.482 43.8111 141.8 44.1094C142.118 44.4044 142.371 44.7955 142.56 45.2827C142.749 45.7699 142.844 46.3698 142.844 47.0824V47.5795H136.957V46.5653H141.651C141.651 46.1345 141.564 45.75 141.392 45.4119C141.223 45.0739 140.981 44.8071 140.666 44.6115C140.355 44.416 139.987 44.3182 139.562 44.3182C139.095 44.3182 138.691 44.4342 138.349 44.6662C138.011 44.8949 137.751 45.1932 137.569 45.5611C137.387 45.929 137.295 46.3234 137.295 46.7443V47.4205C137.295 47.9972 137.395 48.486 137.594 48.8871C137.796 49.2848 138.076 49.5881 138.434 49.7969C138.792 50.0024 139.208 50.1051 139.682 50.1051C139.99 50.1051 140.268 50.062 140.517 49.9759C140.769 49.8864 140.986 49.7538 141.168 49.5781C141.351 49.3991 141.491 49.1771 141.591 48.9119L142.724 49.2301C142.605 49.6146 142.405 49.9527 142.123 50.2443C141.841 50.5327 141.493 50.758 141.079 50.9205C140.665 51.0795 140.199 51.1591 139.682 51.1591ZM151.768 51.1591C151.032 51.1591 150.397 50.9967 149.864 50.6719C149.333 50.3438 148.924 49.8864 148.636 49.2997C148.351 48.7098 148.208 48.0237 148.208 47.2415C148.208 46.4593 148.351 45.7699 148.636 45.1733C148.924 44.5734 149.325 44.1061 149.839 43.7713C150.356 43.4332 150.959 43.2642 151.648 43.2642C152.046 43.2642 152.439 43.3305 152.827 43.4631C153.214 43.5956 153.567 43.8111 153.886 44.1094C154.204 44.4044 154.457 44.7955 154.646 45.2827C154.835 45.7699 154.93 46.3698 154.93 47.0824V47.5795H149.043V46.5653H153.737C153.737 46.1345 153.65 45.75 153.478 45.4119C153.309 45.0739 153.067 44.8071 152.752 44.6115C152.441 44.416 152.073 44.3182 151.648 44.3182C151.181 44.3182 150.777 44.4342 150.435 44.6662C150.097 44.8949 149.837 45.1932 149.655 45.5611C149.473 45.929 149.381 46.3234 149.381 46.7443V47.4205C149.381 47.9972 149.481 48.486 149.68 48.8871C149.882 49.2848 150.162 49.5881 150.52 49.7969C150.878 50.0024 151.294 50.1051 151.768 50.1051C152.076 50.1051 152.354 50.062 152.603 49.9759C152.855 49.8864 153.072 49.7538 153.254 49.5781C153.437 49.3991 153.577 49.1771 153.677 48.9119L154.81 49.2301C154.691 49.6146 154.491 49.9527 154.209 50.2443C153.927 50.5327 153.579 50.758 153.165 50.9205C152.75 51.0795 152.285 51.1591 151.768 51.1591ZM156.714 51V43.3636H157.848V44.5568H157.947C158.107 44.1491 158.363 43.8326 158.718 43.6072C159.073 43.3786 159.499 43.2642 159.996 43.2642C160.5 43.2642 160.919 43.3786 161.254 43.6072C161.592 43.8326 161.855 44.1491 162.044 44.5568H162.124C162.319 44.1624 162.612 43.8492 163.004 43.6172C163.395 43.3819 163.864 43.2642 164.411 43.2642C165.093 43.2642 165.652 43.478 166.086 43.9055C166.52 44.3298 166.737 44.991 166.737 45.8892V51H165.564V45.8892C165.564 45.3258 165.41 44.9231 165.102 44.6811C164.793 44.4392 164.43 44.3182 164.013 44.3182C163.476 44.3182 163.06 44.4806 162.765 44.8054C162.47 45.1269 162.322 45.5346 162.322 46.0284V51H161.129V45.7699C161.129 45.3357 160.988 44.986 160.707 44.7209C160.425 44.4524 160.062 44.3182 159.618 44.3182C159.313 44.3182 159.028 44.3994 158.763 44.5618C158.501 44.7242 158.289 44.9496 158.126 45.2379C157.967 45.523 157.888 45.8527 157.888 46.2273V51H156.714ZM168.882 53.8636V43.3636H170.016V44.5767H170.155C170.241 44.4441 170.361 44.2751 170.513 44.0696C170.669 43.8608 170.891 43.6752 171.179 43.5128C171.471 43.3471 171.865 43.2642 172.363 43.2642C173.006 43.2642 173.572 43.425 174.063 43.7464C174.553 44.0679 174.936 44.5237 175.211 45.1136C175.486 45.7036 175.624 46.3996 175.624 47.2017C175.624 48.0104 175.486 48.7114 175.211 49.3047C174.936 49.8946 174.555 50.352 174.068 50.6768C173.581 50.9983 173.019 51.1591 172.382 51.1591C171.892 51.1591 171.499 51.0779 171.204 50.9155C170.909 50.7498 170.682 50.5625 170.523 50.3537C170.364 50.1416 170.241 49.9659 170.155 49.8267H170.056V53.8636H168.882ZM170.036 47.1818C170.036 47.7585 170.12 48.2673 170.289 48.7081C170.458 49.1456 170.705 49.4886 171.03 49.7372C171.355 49.9825 171.753 50.1051 172.223 50.1051C172.714 50.1051 173.123 49.9759 173.451 49.7173C173.783 49.4555 174.031 49.1042 174.197 48.6634C174.366 48.2192 174.451 47.7254 174.451 47.1818C174.451 46.6449 174.368 46.161 174.202 45.7301C174.04 45.2959 173.793 44.9529 173.461 44.701C173.133 44.4458 172.721 44.3182 172.223 44.3182C171.746 44.3182 171.345 44.4392 171.02 44.6811C170.695 44.9197 170.45 45.2545 170.284 45.6854C170.119 46.1129 170.036 46.6117 170.036 47.1818ZM178.587 40.8182V51H177.414V40.8182H178.587ZM183.838 51.1591C183.149 51.1591 182.544 50.995 182.024 50.6669C181.507 50.3388 181.102 49.8797 180.811 49.2898C180.522 48.6998 180.378 48.0104 180.378 47.2216C180.378 46.4261 180.522 45.7318 180.811 45.1385C181.102 44.5452 181.507 44.0845 182.024 43.7564C182.544 43.4283 183.149 43.2642 183.838 43.2642C184.528 43.2642 185.131 43.4283 185.648 43.7564C186.168 44.0845 186.573 44.5452 186.861 45.1385C187.153 45.7318 187.298 46.4261 187.298 47.2216C187.298 48.0104 187.153 48.6998 186.861 49.2898C186.573 49.8797 186.168 50.3388 185.648 50.6669C185.131 50.995 184.528 51.1591 183.838 51.1591ZM183.838 50.1051C184.362 50.1051 184.793 49.9709 185.131 49.7024C185.469 49.4339 185.719 49.081 185.882 48.6435C186.044 48.206 186.125 47.732 186.125 47.2216C186.125 46.7112 186.044 46.2356 185.882 45.7947C185.719 45.3539 185.469 44.9976 185.131 44.7259C184.793 44.4541 184.362 44.3182 183.838 44.3182C183.315 44.3182 182.884 44.4541 182.546 44.7259C182.208 44.9976 181.957 45.3539 181.795 45.7947C181.633 46.2356 181.551 46.7112 181.551 47.2216C181.551 47.732 181.633 48.206 181.795 48.6435C181.957 49.081 182.208 49.4339 182.546 49.7024C182.884 49.9709 183.315 50.1051 183.838 50.1051ZM189.572 53.8636C189.373 53.8636 189.196 53.8471 189.04 53.8139C188.884 53.7841 188.776 53.7543 188.717 53.7244L189.015 52.6903C189.3 52.7633 189.552 52.7898 189.771 52.7699C189.989 52.75 190.183 52.6522 190.352 52.4766C190.525 52.3042 190.682 52.0241 190.825 51.6364L191.043 51.0398L188.219 43.3636H189.492L191.6 49.4489H191.68L193.788 43.3636H195.06L191.819 52.1136C191.673 52.508 191.492 52.8345 191.277 53.093C191.062 53.3549 190.811 53.5488 190.526 53.6747C190.245 53.8007 189.926 53.8636 189.572 53.8636ZM199.537 51.1591C198.801 51.1591 198.167 50.9967 197.633 50.6719C197.103 50.3438 196.694 49.8864 196.405 49.2997C196.12 48.7098 195.978 48.0237 195.978 47.2415C195.978 46.4593 196.12 45.7699 196.405 45.1733C196.694 44.5734 197.095 44.1061 197.608 43.7713C198.125 43.4332 198.729 43.2642 199.418 43.2642C199.816 43.2642 200.208 43.3305 200.596 43.4631C200.984 43.5956 201.337 43.8111 201.655 44.1094C201.973 44.4044 202.227 44.7955 202.416 45.2827C202.605 45.7699 202.699 46.3698 202.699 47.0824V47.5795H196.813V46.5653H201.506C201.506 46.1345 201.42 45.75 201.248 45.4119C201.078 45.0739 200.837 44.8071 200.522 44.6115C200.21 44.416 199.842 44.3182 199.418 44.3182C198.951 44.3182 198.546 44.4342 198.205 44.6662C197.867 44.8949 197.607 45.1932 197.424 45.5611C197.242 45.929 197.151 46.3234 197.151 46.7443V47.4205C197.151 47.9972 197.25 48.486 197.449 48.8871C197.651 49.2848 197.931 49.5881 198.289 49.7969C198.647 50.0024 199.063 50.1051 199.537 50.1051C199.846 50.1051 200.124 50.062 200.373 49.9759C200.624 49.8864 200.842 49.7538 201.024 49.5781C201.206 49.3991 201.347 49.1771 201.446 48.9119L202.58 49.2301C202.461 49.6146 202.26 49.9527 201.978 50.2443C201.697 50.5327 201.349 50.758 200.934 50.9205C200.52 51.0795 200.054 51.1591 199.537 51.1591ZM207.686 51.1591C206.95 51.1591 206.315 50.9967 205.782 50.6719C205.251 50.3438 204.842 49.8864 204.554 49.2997C204.269 48.7098 204.126 48.0237 204.126 47.2415C204.126 46.4593 204.269 45.7699 204.554 45.1733C204.842 44.5734 205.243 44.1061 205.757 43.7713C206.274 43.4332 206.877 43.2642 207.566 43.2642C207.964 43.2642 208.357 43.3305 208.745 43.4631C209.132 43.5956 209.485 43.8111 209.804 44.1094C210.122 44.4044 210.375 44.7955 210.564 45.2827C210.753 45.7699 210.848 46.3698 210.848 47.0824V47.5795H204.961V46.5653H209.654C209.654 46.1345 209.568 45.75 209.396 45.4119C209.227 45.0739 208.985 44.8071 208.67 44.6115C208.359 44.416 207.991 44.3182 207.566 44.3182C207.099 44.3182 206.695 44.4342 206.353 44.6662C206.015 44.8949 205.755 45.1932 205.573 45.5611C205.391 45.929 205.299 46.3234 205.299 46.7443V47.4205C205.299 47.9972 205.399 48.486 205.598 48.8871C205.8 49.2848 206.08 49.5881 206.438 49.7969C206.796 50.0024 207.212 50.1051 207.686 50.1051C207.994 50.1051 208.272 50.062 208.521 49.9759C208.773 49.8864 208.99 49.7538 209.172 49.5781C209.355 49.3991 209.495 49.1771 209.595 48.9119L210.728 49.2301C210.609 49.6146 210.408 49.9527 210.127 50.2443C209.845 50.5327 209.497 50.758 209.083 50.9205C208.668 51.0795 208.203 51.1591 207.686 51.1591ZM218.042 45.0739L216.988 45.3722C216.921 45.1965 216.824 45.0258 216.694 44.8601C216.568 44.6911 216.396 44.5518 216.177 44.4425C215.958 44.3331 215.678 44.2784 215.337 44.2784C214.87 44.2784 214.48 44.3861 214.169 44.6016C213.86 44.8137 213.706 45.0838 213.706 45.4119C213.706 45.7036 213.812 45.9339 214.025 46.103C214.237 46.272 214.568 46.4129 215.019 46.5256L216.152 46.804C216.835 46.9697 217.344 47.2232 217.679 47.5646C218.013 47.9027 218.181 48.3385 218.181 48.8722C218.181 49.3097 218.055 49.7008 217.803 50.0455C217.554 50.3902 217.206 50.6619 216.759 50.8608C216.311 51.0597 215.791 51.1591 215.198 51.1591C214.419 51.1591 213.774 50.9901 213.264 50.652C212.753 50.3139 212.43 49.8201 212.294 49.1705L213.408 48.892C213.514 49.303 213.715 49.6113 214.01 49.8168C214.308 50.0223 214.697 50.125 215.178 50.125C215.725 50.125 216.159 50.009 216.48 49.777C216.805 49.5417 216.968 49.2599 216.968 48.9318C216.968 48.6667 216.875 48.4446 216.689 48.2656C216.504 48.0833 216.219 47.9474 215.834 47.858L214.561 47.5597C213.862 47.3939 213.348 47.1371 213.02 46.7891C212.695 46.4377 212.533 45.9986 212.533 45.4716C212.533 45.0407 212.654 44.6596 212.896 44.3281C213.141 43.9967 213.474 43.7365 213.895 43.5476C214.319 43.3587 214.8 43.2642 215.337 43.2642C216.093 43.2642 216.686 43.4299 217.117 43.7614C217.551 44.0928 217.859 44.5303 218.042 45.0739ZM227.205 43.3636V44.358H223.248V43.3636H227.205ZM224.401 41.5341H225.575V48.8125C225.575 49.1439 225.623 49.3925 225.719 49.5582C225.818 49.7206 225.944 49.83 226.097 49.8864C226.253 49.9394 226.417 49.9659 226.589 49.9659C226.718 49.9659 226.824 49.9593 226.907 49.946C226.99 49.9295 227.056 49.9162 227.106 49.9062L227.345 50.9602C227.265 50.9901 227.154 51.0199 227.012 51.0497C226.869 51.0829 226.688 51.0994 226.47 51.0994C226.138 51.0994 225.813 51.0282 225.495 50.8857C225.18 50.7431 224.919 50.526 224.71 50.2344C224.504 49.9427 224.401 49.5748 224.401 49.1307V41.5341ZM231.991 51.1591C231.301 51.1591 230.696 50.995 230.176 50.6669C229.659 50.3388 229.255 49.8797 228.963 49.2898C228.675 48.6998 228.53 48.0104 228.53 47.2216C228.53 46.4261 228.675 45.7318 228.963 45.1385C229.255 44.5452 229.659 44.0845 230.176 43.7564C230.696 43.4283 231.301 43.2642 231.991 43.2642C232.68 43.2642 233.283 43.4283 233.8 43.7564C234.321 44.0845 234.725 44.5452 235.013 45.1385C235.305 45.7318 235.451 46.4261 235.451 47.2216C235.451 48.0104 235.305 48.6998 235.013 49.2898C234.725 49.8797 234.321 50.3388 233.8 50.6669C233.283 50.995 232.68 51.1591 231.991 51.1591ZM231.991 50.1051C232.514 50.1051 232.945 49.9709 233.283 49.7024C233.621 49.4339 233.872 49.081 234.034 48.6435C234.196 48.206 234.278 47.732 234.278 47.2216C234.278 46.7112 234.196 46.2356 234.034 45.7947C233.872 45.3539 233.621 44.9976 233.283 44.7259C232.945 44.4541 232.514 44.3182 231.991 44.3182C231.467 44.3182 231.036 44.4541 230.698 44.7259C230.36 44.9976 230.11 45.3539 229.947 45.7947C229.785 46.2356 229.704 46.7112 229.704 47.2216C229.704 47.732 229.785 48.206 229.947 48.6435C230.11 49.081 230.36 49.4339 230.698 49.7024C231.036 49.9709 231.467 50.1051 231.991 50.1051ZM243.426 51.179C242.943 51.179 242.503 51.0878 242.109 50.9055C241.715 50.7199 241.401 50.4531 241.169 50.1051C240.937 49.7538 240.821 49.3295 240.821 48.8324C240.821 48.3949 240.908 48.0402 241.08 47.7685C241.252 47.4934 241.483 47.2779 241.771 47.1222C242.059 46.9664 242.377 46.8504 242.725 46.7741C243.077 46.6946 243.43 46.6316 243.784 46.5852C244.248 46.5256 244.625 46.4808 244.913 46.451C245.205 46.4179 245.417 46.3632 245.549 46.2869C245.685 46.2107 245.753 46.0781 245.753 45.8892V45.8494C245.753 45.3589 245.619 44.9777 245.35 44.706C245.085 44.4342 244.683 44.2983 244.142 44.2983C243.582 44.2983 243.143 44.4209 242.825 44.6662C242.507 44.9115 242.283 45.1733 242.154 45.4517L241.04 45.054C241.239 44.59 241.504 44.2287 241.836 43.9702C242.17 43.7083 242.535 43.526 242.929 43.4233C243.327 43.3172 243.718 43.2642 244.103 43.2642C244.348 43.2642 244.63 43.294 244.948 43.3537C245.269 43.41 245.579 43.5277 245.877 43.7067C246.179 43.8857 246.429 44.1558 246.628 44.517C246.827 44.8783 246.926 45.3622 246.926 45.9688V51H245.753V49.9659H245.694C245.614 50.1316 245.481 50.3089 245.296 50.4979C245.11 50.6868 244.863 50.8475 244.555 50.9801C244.247 51.1127 243.871 51.179 243.426 51.179ZM243.605 50.125C244.069 50.125 244.461 50.0339 244.779 49.8516C245.1 49.6693 245.342 49.4339 245.505 49.1456C245.67 48.8572 245.753 48.554 245.753 48.2358V47.1619C245.703 47.2216 245.594 47.2763 245.425 47.326C245.259 47.3724 245.067 47.4138 244.848 47.4503C244.633 47.4834 244.422 47.5133 244.217 47.5398C244.015 47.563 243.851 47.5829 243.725 47.5994C243.42 47.6392 243.135 47.7038 242.87 47.7933C242.608 47.8795 242.396 48.0104 242.233 48.1861C242.074 48.3584 241.995 48.5937 241.995 48.892C241.995 49.2997 242.145 49.608 242.447 49.8168C242.752 50.0223 243.138 50.125 243.605 50.125ZM254.477 45.0739L253.423 45.3722C253.357 45.1965 253.259 45.0258 253.13 44.8601C253.004 44.6911 252.831 44.5518 252.613 44.4425C252.394 44.3331 252.114 44.2784 251.773 44.2784C251.305 44.2784 250.916 44.3861 250.604 44.6016C250.296 44.8137 250.142 45.0838 250.142 45.4119C250.142 45.7036 250.248 45.9339 250.46 46.103C250.672 46.272 251.004 46.4129 251.454 46.5256L252.588 46.804C253.271 46.9697 253.779 47.2232 254.114 47.5646C254.449 47.9027 254.616 48.3385 254.616 48.8722C254.616 49.3097 254.49 49.7008 254.238 50.0455C253.99 50.3902 253.642 50.6619 253.194 50.8608C252.747 51.0597 252.227 51.1591 251.633 51.1591C250.854 51.1591 250.21 50.9901 249.699 50.652C249.189 50.3139 248.866 49.8201 248.73 49.1705L249.844 48.892C249.95 49.303 250.15 49.6113 250.445 49.8168C250.743 50.0223 251.133 50.125 251.613 50.125C252.16 50.125 252.595 50.009 252.916 49.777C253.241 49.5417 253.403 49.2599 253.403 48.9318C253.403 48.6667 253.31 48.4446 253.125 48.2656C252.939 48.0833 252.654 47.9474 252.27 47.858L250.997 47.5597C250.298 47.3939 249.784 47.1371 249.456 46.7891C249.131 46.4377 248.969 45.9986 248.969 45.4716C248.969 45.0407 249.09 44.6596 249.331 44.3281C249.577 43.9967 249.91 43.7365 250.331 43.5476C250.755 43.3587 251.236 43.2642 251.773 43.2642C252.528 43.2642 253.122 43.4299 253.552 43.7614C253.987 44.0928 254.295 44.5303 254.477 45.0739ZM261.792 45.0739L260.738 45.3722C260.671 45.1965 260.574 45.0258 260.444 44.8601C260.318 44.6911 260.146 44.5518 259.927 44.4425C259.708 44.3331 259.428 44.2784 259.087 44.2784C258.62 44.2784 258.23 44.3861 257.919 44.6016C257.61 44.8137 257.456 45.0838 257.456 45.4119C257.456 45.7036 257.562 45.9339 257.775 46.103C257.987 46.272 258.318 46.4129 258.769 46.5256L259.902 46.804C260.585 46.9697 261.094 47.2232 261.429 47.5646C261.763 47.9027 261.931 48.3385 261.931 48.8722C261.931 49.3097 261.805 49.7008 261.553 50.0455C261.304 50.3902 260.956 50.6619 260.509 50.8608C260.061 51.0597 259.541 51.1591 258.948 51.1591C258.169 51.1591 257.524 50.9901 257.014 50.652C256.503 50.3139 256.18 49.8201 256.044 49.1705L257.158 48.892C257.264 49.303 257.465 49.6113 257.76 49.8168C258.058 50.0223 258.447 50.125 258.928 50.125C259.475 50.125 259.909 50.009 260.23 49.777C260.555 49.5417 260.718 49.2599 260.718 48.9318C260.718 48.6667 260.625 48.4446 260.439 48.2656C260.254 48.0833 259.969 47.9474 259.584 47.858L258.311 47.5597C257.612 47.3939 257.098 47.1371 256.77 46.7891C256.445 46.4377 256.283 45.9986 256.283 45.4716C256.283 45.0407 256.404 44.6596 256.646 44.3281C256.891 43.9967 257.224 43.7365 257.645 43.5476C258.069 43.3587 258.55 43.2642 259.087 43.2642C259.843 43.2642 260.436 43.4299 260.867 43.7614C261.301 44.0928 261.609 44.5303 261.792 45.0739ZM263.697 51V43.3636H264.87V51H263.697ZM264.294 42.0909C264.065 42.0909 263.868 42.013 263.702 41.8572C263.539 41.7015 263.458 41.5142 263.458 41.2955C263.458 41.0767 263.539 40.8894 263.702 40.7337C263.868 40.5779 264.065 40.5 264.294 40.5C264.522 40.5 264.718 40.5779 264.88 40.7337C265.046 40.8894 265.129 41.0767 265.129 41.2955C265.129 41.5142 265.046 41.7015 264.88 41.8572C264.718 42.013 264.522 42.0909 264.294 42.0909ZM270.102 54.0227C269.535 54.0227 269.048 53.9498 268.64 53.804C268.232 53.6615 267.893 53.4725 267.621 53.2372C267.352 53.0052 267.138 52.7566 266.979 52.4915L267.914 51.8352C268.02 51.9744 268.154 52.1335 268.317 52.3125C268.479 52.4948 268.701 52.6522 268.983 52.7848C269.268 52.9207 269.641 52.9886 270.102 52.9886C270.718 52.9886 271.227 52.8395 271.628 52.5412C272.029 52.2429 272.229 51.7756 272.229 51.1392V49.5881H272.13C272.044 49.7273 271.921 49.8996 271.762 50.1051C271.606 50.3073 271.381 50.4879 271.086 50.647C270.794 50.8028 270.4 50.8807 269.903 50.8807C269.286 50.8807 268.733 50.7348 268.242 50.4432C267.755 50.1515 267.369 49.7273 267.084 49.1705C266.802 48.6136 266.661 47.9375 266.661 47.142C266.661 46.3598 266.799 45.6787 267.074 45.0987C267.349 44.5154 267.732 44.0646 268.222 43.7464C268.713 43.425 269.28 43.2642 269.923 43.2642C270.42 43.2642 270.814 43.3471 271.106 43.5128C271.401 43.6752 271.626 43.8608 271.782 44.0696C271.941 44.2751 272.064 44.4441 272.15 44.5767H272.269V43.3636H273.403V51.2188C273.403 51.875 273.254 52.4086 272.955 52.8196C272.66 53.2339 272.263 53.5372 271.762 53.7294C271.265 53.925 270.711 54.0227 270.102 54.0227ZM270.062 49.8267C270.532 49.8267 270.93 49.719 271.255 49.5036C271.58 49.2881 271.827 48.9782 271.996 48.5739C272.165 48.1695 272.249 47.6856 272.249 47.1222C272.249 46.572 272.166 46.0864 272.001 45.6655C271.835 45.2446 271.59 44.9148 271.265 44.6761C270.94 44.4375 270.539 44.3182 270.062 44.3182C269.565 44.3182 269.15 44.4441 268.819 44.696C268.491 44.9479 268.244 45.286 268.078 45.7102C267.916 46.1345 267.835 46.6051 267.835 47.1222C267.835 47.6525 267.917 48.1214 268.083 48.5291C268.252 48.9335 268.501 49.2517 268.829 49.4837C269.16 49.7124 269.571 49.8267 270.062 49.8267ZM276.724 46.4062V51H275.55V43.3636H276.684V44.5568H276.783C276.962 44.169 277.234 43.8575 277.599 43.6222C277.963 43.3835 278.434 43.2642 279.011 43.2642C279.528 43.2642 279.98 43.3703 280.368 43.5824C280.756 43.7912 281.057 44.1094 281.273 44.5369C281.488 44.9612 281.596 45.4981 281.596 46.1477V51H280.423V46.2273C280.423 45.6274 280.267 45.16 279.955 44.8253C279.644 44.4872 279.216 44.3182 278.673 44.3182C278.298 44.3182 277.963 44.3994 277.668 44.5618C277.377 44.7242 277.146 44.9612 276.977 45.2727C276.808 45.5843 276.724 45.9621 276.724 46.4062ZM290.998 43.3636V44.358H287.041V43.3636H290.998ZM288.194 41.5341H289.368V48.8125C289.368 49.1439 289.416 49.3925 289.512 49.5582C289.611 49.7206 289.737 49.83 289.89 49.8864C290.046 49.9394 290.21 49.9659 290.382 49.9659C290.511 49.9659 290.617 49.9593 290.7 49.946C290.783 49.9295 290.849 49.9162 290.899 49.9062L291.138 50.9602C291.058 50.9901 290.947 51.0199 290.805 51.0497C290.662 51.0829 290.481 51.0994 290.263 51.0994C289.931 51.0994 289.606 51.0282 289.288 50.8857C288.973 50.7431 288.711 50.526 288.503 50.2344C288.297 49.9427 288.194 49.5748 288.194 49.1307V41.5341ZM295.784 51.1591C295.094 51.1591 294.489 50.995 293.969 50.6669C293.452 50.3388 293.048 49.8797 292.756 49.2898C292.468 48.6998 292.323 48.0104 292.323 47.2216C292.323 46.4261 292.468 45.7318 292.756 45.1385C293.048 44.5452 293.452 44.0845 293.969 43.7564C294.489 43.4283 295.094 43.2642 295.784 43.2642C296.473 43.2642 297.076 43.4283 297.593 43.7564C298.114 44.0845 298.518 44.5452 298.806 45.1385C299.098 45.7318 299.244 46.4261 299.244 47.2216C299.244 48.0104 299.098 48.6998 298.806 49.2898C298.518 49.8797 298.114 50.3388 297.593 50.6669C297.076 50.995 296.473 51.1591 295.784 51.1591ZM295.784 50.1051C296.307 50.1051 296.738 49.9709 297.076 49.7024C297.414 49.4339 297.664 49.081 297.827 48.6435C297.989 48.206 298.07 47.732 298.07 47.2216C298.07 46.7112 297.989 46.2356 297.827 45.7947C297.664 45.3539 297.414 44.9976 297.076 44.7259C296.738 44.4541 296.307 44.3182 295.784 44.3182C295.26 44.3182 294.829 44.4541 294.491 44.7259C294.153 44.9976 293.903 45.3539 293.74 45.7947C293.578 46.2356 293.497 46.7112 293.497 47.2216C293.497 47.732 293.578 48.206 293.74 48.6435C293.903 49.081 294.153 49.4339 294.491 49.7024C294.829 49.9709 295.26 50.1051 295.784 50.1051ZM308.293 43.3636V44.358H304.336V43.3636H308.293ZM305.489 41.5341H306.663V48.8125C306.663 49.1439 306.711 49.3925 306.807 49.5582C306.906 49.7206 307.032 49.83 307.185 49.8864C307.34 49.9394 307.504 49.9659 307.677 49.9659C307.806 49.9659 307.912 49.9593 307.995 49.946C308.078 49.9295 308.144 49.9162 308.194 49.9062L308.433 50.9602C308.353 50.9901 308.242 51.0199 308.099 51.0497C307.957 51.0829 307.776 51.0994 307.558 51.0994C307.226 51.0994 306.901 51.0282 306.583 50.8857C306.268 50.7431 306.006 50.526 305.798 50.2344C305.592 49.9427 305.489 49.5748 305.489 49.1307V41.5341ZM311.396 46.4062V51H310.222V40.8182H311.396V44.5568H311.495C311.674 44.1624 311.942 43.8492 312.3 43.6172C312.662 43.3819 313.142 43.2642 313.742 43.2642C314.263 43.2642 314.718 43.3686 315.109 43.5774C315.5 43.7829 315.804 44.0994 316.019 44.527C316.238 44.9512 316.347 45.4915 316.347 46.1477V51H315.174V46.2273C315.174 45.6207 315.017 45.1518 314.702 44.8203C314.39 44.4856 313.958 44.3182 313.404 44.3182C313.02 44.3182 312.675 44.3994 312.37 44.5618C312.068 44.7242 311.83 44.9612 311.654 45.2727C311.482 45.5843 311.396 45.9621 311.396 46.4062ZM318.494 51V43.3636H319.667V51H318.494ZM319.09 42.0909C318.862 42.0909 318.664 42.013 318.499 41.8572C318.336 41.7015 318.255 41.5142 318.255 41.2955C318.255 41.0767 318.336 40.8894 318.499 40.7337C318.664 40.5779 318.862 40.5 319.09 40.5C319.319 40.5 319.515 40.5779 319.677 40.7337C319.843 40.8894 319.926 41.0767 319.926 41.2955C319.926 41.5142 319.843 41.7015 319.677 41.8572C319.515 42.013 319.319 42.0909 319.09 42.0909ZM327.225 45.0739L326.171 45.3722C326.105 45.1965 326.007 45.0258 325.878 44.8601C325.752 44.6911 325.58 44.5518 325.361 44.4425C325.142 44.3331 324.862 44.2784 324.521 44.2784C324.053 44.2784 323.664 44.3861 323.352 44.6016C323.044 44.8137 322.89 45.0838 322.89 45.4119C322.89 45.7036 322.996 45.9339 323.208 46.103C323.42 46.272 323.752 46.4129 324.202 46.5256L325.336 46.804C326.019 46.9697 326.527 47.2232 326.862 47.5646C327.197 47.9027 327.364 48.3385 327.364 48.8722C327.364 49.3097 327.238 49.7008 326.987 50.0455C326.738 50.3902 326.39 50.6619 325.942 50.8608C325.495 51.0597 324.975 51.1591 324.381 51.1591C323.603 51.1591 322.958 50.9901 322.447 50.652C321.937 50.3139 321.614 49.8201 321.478 49.1705L322.592 48.892C322.698 49.303 322.898 49.6113 323.193 49.8168C323.491 50.0223 323.881 50.125 324.362 50.125C324.908 50.125 325.343 50.009 325.664 49.777C325.989 49.5417 326.151 49.2599 326.151 48.9318C326.151 48.6667 326.058 48.4446 325.873 48.2656C325.687 48.0833 325.402 47.9474 325.018 47.858L323.745 47.5597C323.046 47.3939 322.532 47.1371 322.204 46.7891C321.879 46.4377 321.717 45.9986 321.717 45.4716C321.717 45.0407 321.838 44.6596 322.08 44.3281C322.325 43.9967 322.658 43.7365 323.079 43.5476C323.503 43.3587 323.984 43.2642 324.521 43.2642C325.276 43.2642 325.87 43.4299 326.3 43.7614C326.735 44.0928 327.043 44.5303 327.225 45.0739ZM333.068 51V43.3636H334.202V44.517H334.281C334.42 44.1392 334.672 43.8326 335.037 43.5973C335.401 43.362 335.812 43.2443 336.27 43.2443C336.356 43.2443 336.464 43.246 336.593 43.2493C336.722 43.2526 336.82 43.2576 336.886 43.2642V44.4574C336.846 44.4474 336.755 44.4325 336.613 44.4126C336.474 44.3894 336.326 44.3778 336.17 44.3778C335.799 44.3778 335.468 44.4557 335.176 44.6115C334.888 44.764 334.659 44.9761 334.49 45.2479C334.324 45.5163 334.241 45.8229 334.241 46.1676V51H333.068ZM341.147 51.1591C340.457 51.1591 339.853 50.995 339.332 50.6669C338.815 50.3388 338.411 49.8797 338.119 49.2898C337.831 48.6998 337.687 48.0104 337.687 47.2216C337.687 46.4261 337.831 45.7318 338.119 45.1385C338.411 44.5452 338.815 44.0845 339.332 43.7564C339.853 43.4283 340.457 43.2642 341.147 43.2642C341.836 43.2642 342.439 43.4283 342.956 43.7564C343.477 44.0845 343.881 44.5452 344.17 45.1385C344.461 45.7318 344.607 46.4261 344.607 47.2216C344.607 48.0104 344.461 48.6998 344.17 49.2898C343.881 49.8797 343.477 50.3388 342.956 50.6669C342.439 50.995 341.836 51.1591 341.147 51.1591ZM341.147 50.1051C341.671 50.1051 342.101 49.9709 342.439 49.7024C342.778 49.4339 343.028 49.081 343.19 48.6435C343.353 48.206 343.434 47.732 343.434 47.2216C343.434 46.7112 343.353 46.2356 343.19 45.7947C343.028 45.3539 342.778 44.9976 342.439 44.7259C342.101 44.4541 341.671 44.3182 341.147 44.3182C340.623 44.3182 340.192 44.4541 339.854 44.7259C339.516 44.9976 339.266 45.3539 339.104 45.7947C338.941 46.2356 338.86 46.7112 338.86 47.2216C338.86 47.732 338.941 48.206 339.104 48.6435C339.266 49.081 339.516 49.4339 339.854 49.7024C340.192 49.9709 340.623 50.1051 341.147 50.1051ZM347.571 40.8182V51H346.398V40.8182H347.571ZM352.922 51.1591C352.186 51.1591 351.552 50.9967 351.018 50.6719C350.488 50.3438 350.078 49.8864 349.79 49.2997C349.505 48.7098 349.362 48.0237 349.362 47.2415C349.362 46.4593 349.505 45.7699 349.79 45.1733C350.078 44.5734 350.479 44.1061 350.993 43.7713C351.51 43.4332 352.113 43.2642 352.803 43.2642C353.2 43.2642 353.593 43.3305 353.981 43.4631C354.369 43.5956 354.722 43.8111 355.04 44.1094C355.358 44.4044 355.612 44.7955 355.801 45.2827C355.99 45.7699 356.084 46.3698 356.084 47.0824V47.5795H350.198V46.5653H354.891C354.891 46.1345 354.805 45.75 354.632 45.4119C354.463 45.0739 354.221 44.8071 353.906 44.6115C353.595 44.416 353.227 44.3182 352.803 44.3182C352.335 44.3182 351.931 44.4342 351.59 44.6662C351.252 44.8949 350.991 45.1932 350.809 45.5611C350.627 45.929 350.536 46.3234 350.536 46.7443V47.4205C350.536 47.9972 350.635 48.486 350.834 48.8871C351.036 49.2848 351.316 49.5881 351.674 49.7969C352.032 50.0024 352.448 50.1051 352.922 50.1051C353.23 50.1051 353.509 50.062 353.757 49.9759C354.009 49.8864 354.226 49.7538 354.409 49.5781C354.591 49.3991 354.732 49.1771 354.831 48.9119L355.965 49.2301C355.845 49.6146 355.645 49.9527 355.363 50.2443C355.081 50.5327 354.733 50.758 354.319 50.9205C353.905 51.0795 353.439 51.1591 352.922 51.1591ZM365.346 44V43.1051C365.346 42.8333 365.394 42.545 365.49 42.2401C365.59 41.9318 365.732 41.6352 365.918 41.3501C366.107 41.0618 366.334 40.8116 366.599 40.5994L367.235 41.1165C367.026 41.4148 366.844 41.7263 366.688 42.0511C366.536 42.3726 366.46 42.7173 366.46 43.0852V44H365.346ZM367.892 44V43.1051C367.892 42.8333 367.94 42.545 368.036 42.2401C368.135 41.9318 368.278 41.6352 368.463 41.3501C368.652 41.0618 368.879 40.8116 369.144 40.5994L369.781 41.1165C369.572 41.4148 369.39 41.7263 369.234 42.0511C369.081 42.3726 369.005 42.7173 369.005 43.0852V44H367.892Z" fill="#667085"/>
<path d="M376.41 43.7464C376.371 43.3454 376.2 43.0339 375.898 42.8118C375.597 42.5897 375.187 42.4787 374.67 42.4787C374.319 42.4787 374.022 42.5284 373.78 42.6278C373.538 42.724 373.353 42.8582 373.224 43.0305C373.098 43.2029 373.035 43.3984 373.035 43.6172C373.028 43.7995 373.066 43.9586 373.149 44.0945C373.235 44.2304 373.353 44.348 373.502 44.4474C373.651 44.5436 373.823 44.6281 374.019 44.701C374.215 44.7706 374.423 44.8303 374.645 44.88L375.56 45.0987C376.004 45.1982 376.412 45.3307 376.783 45.4964C377.154 45.6622 377.476 45.866 377.748 46.108C378.019 46.3499 378.23 46.6349 378.379 46.9631C378.532 47.2912 378.609 47.6674 378.613 48.0916C378.609 48.7147 378.45 49.255 378.135 49.7124C377.824 50.1664 377.373 50.5194 376.783 50.7713C376.197 51.0199 375.489 51.1442 374.66 51.1442C373.838 51.1442 373.122 51.0182 372.513 50.7663C371.906 50.5144 371.432 50.1416 371.091 49.6477C370.753 49.1506 370.575 48.5357 370.559 47.8033H372.642C372.665 48.1446 372.763 48.4297 372.935 48.6584C373.111 48.8838 373.345 49.0545 373.636 49.1705C373.931 49.2831 374.264 49.3395 374.635 49.3395C375 49.3395 375.317 49.2865 375.585 49.1804C375.857 49.0743 376.067 48.9268 376.216 48.7379C376.366 48.549 376.44 48.3319 376.44 48.0866C376.44 47.858 376.372 47.6657 376.236 47.5099C376.104 47.3542 375.908 47.2216 375.65 47.1122C375.394 47.0028 375.081 46.9034 374.71 46.8139L373.601 46.5355C372.743 46.3267 372.065 46.0002 371.568 45.5561C371.071 45.112 370.824 44.5137 370.827 43.7614C370.824 43.1449 370.988 42.6063 371.319 42.1456C371.654 41.6849 372.113 41.3253 372.697 41.0668C373.28 40.8082 373.943 40.679 374.685 40.679C375.441 40.679 376.1 40.8082 376.664 41.0668C377.231 41.3253 377.671 41.6849 377.986 42.1456C378.301 42.6063 378.464 43.1399 378.474 43.7464H376.41ZM383.501 51.1491C382.716 51.1491 382.039 50.9901 381.473 50.6719C380.909 50.3504 380.475 49.8963 380.17 49.3097C379.865 48.7197 379.713 48.022 379.713 47.2166C379.713 46.4311 379.865 45.7417 380.17 45.1484C380.475 44.5552 380.904 44.0928 381.458 43.7614C382.015 43.4299 382.667 43.2642 383.417 43.2642C383.92 43.2642 384.389 43.3454 384.824 43.5078C385.261 43.6669 385.642 43.9072 385.967 44.2287C386.295 44.5502 386.55 44.9545 386.733 45.4418C386.915 45.9257 387.006 46.4924 387.006 47.142V47.7237H380.558V46.4112H385.012C385.012 46.1063 384.946 45.8362 384.814 45.6009C384.681 45.3655 384.497 45.1816 384.262 45.049C384.03 44.9131 383.76 44.8452 383.451 44.8452C383.13 44.8452 382.845 44.9197 382.596 45.0689C382.351 45.2147 382.159 45.4119 382.02 45.6605C381.88 45.9058 381.809 46.1792 381.806 46.4808V47.7287C381.806 48.1065 381.875 48.433 382.015 48.7081C382.157 48.9832 382.358 49.1953 382.616 49.3445C382.875 49.4936 383.181 49.5682 383.536 49.5682C383.771 49.5682 383.987 49.535 384.182 49.4688C384.378 49.4025 384.545 49.303 384.684 49.1705C384.824 49.0379 384.93 48.8755 385.002 48.6832L386.961 48.8125C386.862 49.2831 386.658 49.6941 386.35 50.0455C386.045 50.3935 385.65 50.6652 385.167 50.8608C384.686 51.053 384.131 51.1491 383.501 51.1491ZM390.506 46.5852V51H388.388V43.3636H390.407V44.7109H390.496C390.665 44.2668 390.949 43.9155 391.346 43.657C391.744 43.3951 392.226 43.2642 392.793 43.2642C393.323 43.2642 393.786 43.3802 394.18 43.6122C394.574 43.8442 394.881 44.1757 395.1 44.6065C395.319 45.0341 395.428 45.5445 395.428 46.1378V51H393.31V46.5156C393.313 46.0483 393.194 45.6837 392.952 45.4219C392.71 45.1567 392.377 45.0241 391.953 45.0241C391.668 45.0241 391.416 45.0855 391.197 45.2081C390.982 45.3307 390.813 45.5097 390.69 45.745C390.571 45.977 390.509 46.2571 390.506 46.5852ZM397.097 51V43.3636H399.215V51H397.097ZM398.161 42.3793C397.846 42.3793 397.576 42.2749 397.351 42.0661C397.129 41.8539 397.018 41.6004 397.018 41.3054C397.018 41.0137 397.129 40.7635 397.351 40.5547C397.576 40.3426 397.846 40.2365 398.161 40.2365C398.476 40.2365 398.744 40.3426 398.966 40.5547C399.192 40.7635 399.305 41.0137 399.305 41.3054C399.305 41.6004 399.192 41.8539 398.966 42.0661C398.744 42.2749 398.476 42.3793 398.161 42.3793ZM404.362 51.1491C403.59 51.1491 402.922 50.9851 402.358 50.657C401.798 50.3255 401.366 49.8648 401.061 49.2749C400.756 48.6816 400.603 47.9938 400.603 47.2116C400.603 46.4228 400.756 45.7334 401.061 45.1435C401.366 44.5502 401.798 44.0895 402.358 43.7614C402.922 43.4299 403.59 43.2642 404.362 43.2642C405.134 43.2642 405.8 43.4299 406.36 43.7614C406.924 44.0895 407.358 44.5502 407.663 45.1435C407.968 45.7334 408.12 46.4228 408.12 47.2116C408.12 47.9938 407.968 48.6816 407.663 49.2749C407.358 49.8648 406.924 50.3255 406.36 50.657C405.8 50.9851 405.134 51.1491 404.362 51.1491ZM404.372 49.5085C404.723 49.5085 405.016 49.4091 405.252 49.2102C405.487 49.008 405.664 48.733 405.784 48.3849C405.906 48.0369 405.968 47.6409 405.968 47.1967C405.968 46.7526 405.906 46.3565 405.784 46.0085C405.664 45.6605 405.487 45.3854 405.252 45.1832C405.016 44.9811 404.723 44.88 404.372 44.88C404.017 44.88 403.719 44.9811 403.477 45.1832C403.238 45.3854 403.058 45.6605 402.935 46.0085C402.816 46.3565 402.756 46.7526 402.756 47.1967C402.756 47.6409 402.816 48.0369 402.935 48.3849C403.058 48.733 403.238 49.008 403.477 49.2102C403.719 49.4091 404.017 49.5085 404.372 49.5085ZM409.498 51V43.3636H411.551V44.696H411.63C411.77 44.2221 412.003 43.8641 412.331 43.6222C412.659 43.3769 413.037 43.2543 413.465 43.2543C413.571 43.2543 413.685 43.2609 413.808 43.2741C413.931 43.2874 414.038 43.3056 414.131 43.3288V45.2081C414.032 45.1783 413.894 45.1518 413.718 45.1286C413.543 45.1054 413.382 45.0938 413.236 45.0938C412.925 45.0938 412.646 45.1617 412.401 45.2976C412.159 45.4302 411.967 45.6158 411.824 45.8544C411.685 46.093 411.615 46.3681 411.615 46.6797V51H409.498ZM4.49432 71H0.884943V60.8182H4.52415C5.5483 60.8182 6.42992 61.022 7.16903 61.4297C7.90814 61.834 8.47656 62.4157 8.87429 63.1747C9.27533 63.9337 9.47585 64.8419 9.47585 65.8991C9.47585 66.9598 9.27533 67.8712 8.87429 68.6335C8.47656 69.3958 7.90483 69.9808 7.15909 70.3885C6.41667 70.7962 5.52841 71 4.49432 71ZM3.03764 69.1555H4.40483C5.04119 69.1555 5.57647 69.0429 6.01065 68.8175C6.44815 68.5888 6.77628 68.2358 6.99503 67.7585C7.21709 67.2779 7.32812 66.6581 7.32812 65.8991C7.32812 65.1468 7.21709 64.532 6.99503 64.0547C6.77628 63.5774 6.44981 63.2261 6.01562 63.0007C5.58144 62.7753 5.04616 62.6626 4.4098 62.6626H3.03764V69.1555ZM14.5108 71.1491C13.7253 71.1491 13.0492 70.9901 12.4824 70.6719C11.919 70.3504 11.4848 69.8963 11.1799 69.3097C10.8749 68.7197 10.7225 68.022 10.7225 67.2166C10.7225 66.4311 10.8749 65.7417 11.1799 65.1484C11.4848 64.5552 11.914 64.0928 12.4675 63.7614C13.0243 63.4299 13.6773 63.2642 14.4263 63.2642C14.9301 63.2642 15.3991 63.3454 15.8333 63.5078C16.2708 63.6669 16.6519 63.9072 16.9767 64.2287C17.3049 64.5502 17.5601 64.9545 17.7424 65.4418C17.9247 65.9257 18.0158 66.4924 18.0158 67.142V67.7237H11.5676V66.4112H16.0222C16.0222 66.1063 15.9559 65.8362 15.8233 65.6009C15.6908 65.3655 15.5068 65.1816 15.2715 65.049C15.0395 64.9131 14.7694 64.8452 14.4611 64.8452C14.1396 64.8452 13.8546 64.9197 13.606 65.0689C13.3607 65.2147 13.1685 65.4119 13.0293 65.6605C12.8901 65.9058 12.8188 66.1792 12.8155 66.4808V67.7287C12.8155 68.1065 12.8851 68.433 13.0243 68.7081C13.1668 68.9832 13.3674 69.1953 13.6259 69.3445C13.8844 69.4936 14.191 69.5682 14.5456 69.5682C14.781 69.5682 14.9964 69.535 15.1919 69.4688C15.3875 69.4025 15.5549 69.303 15.6941 69.1705C15.8333 69.0379 15.9393 68.8755 16.0123 68.6832L17.9711 68.8125C17.8716 69.2831 17.6678 69.6941 17.3596 70.0455C17.0546 70.3935 16.6602 70.6652 16.1763 70.8608C15.6957 71.053 15.1406 71.1491 14.5108 71.1491ZM25.7516 65.5412L23.8127 65.6605C23.7795 65.4948 23.7083 65.3456 23.5989 65.2131C23.4895 65.0772 23.3453 64.9695 23.1664 64.8899C22.9907 64.8071 22.7802 64.7656 22.535 64.7656C22.2069 64.7656 21.9301 64.8352 21.7047 64.9744C21.4793 65.1103 21.3667 65.2926 21.3667 65.5213C21.3667 65.7036 21.4396 65.8577 21.5854 65.9837C21.7312 66.1096 21.9815 66.2107 22.3361 66.2869L23.7182 66.5653C24.4606 66.7178 25.0141 66.9631 25.3787 67.3011C25.7433 67.6392 25.9256 68.0833 25.9256 68.6335C25.9256 69.134 25.7781 69.5732 25.4831 69.951C25.1915 70.3288 24.7904 70.6238 24.28 70.8359C23.7729 71.0447 23.1879 71.1491 22.525 71.1491C21.5141 71.1491 20.7087 70.9387 20.1088 70.5178C19.5123 70.0935 19.1626 69.5168 19.0598 68.7876L21.1429 68.6783C21.2059 68.9865 21.3584 69.2218 21.6003 69.3842C21.8423 69.5433 22.1522 69.6229 22.53 69.6229C22.9012 69.6229 23.1995 69.5516 23.4249 69.4091C23.6536 69.2633 23.7696 69.076 23.7729 68.8473C23.7696 68.6551 23.6884 68.4976 23.5293 68.375C23.3702 68.2491 23.1249 68.1529 22.7935 68.0866L21.4711 67.8232C20.7253 67.674 20.1702 67.4155 19.8056 67.0476C19.4443 66.6797 19.2637 66.2107 19.2637 65.6406C19.2637 65.1501 19.3962 64.7275 19.6614 64.3729C19.9299 64.0182 20.306 63.7448 20.79 63.5526C21.2772 63.3603 21.8472 63.2642 22.5002 63.2642C23.4647 63.2642 24.2237 63.468 24.7772 63.8757C25.334 64.2834 25.6588 64.8385 25.7516 65.5412ZM27.2592 71V63.3636H29.3771V71H27.2592ZM28.3232 62.3793C28.0083 62.3793 27.7382 62.2749 27.5128 62.0661C27.2907 61.8539 27.1797 61.6004 27.1797 61.3054C27.1797 61.0137 27.2907 60.7635 27.5128 60.5547C27.7382 60.3426 28.0083 60.2365 28.3232 60.2365C28.638 60.2365 28.9065 60.3426 29.1286 60.5547C29.3539 60.7635 29.4666 61.0137 29.4666 61.3054C29.4666 61.6004 29.3539 61.8539 29.1286 62.0661C28.9065 62.2749 28.638 62.3793 28.3232 62.3793ZM34.514 74.0227C33.8279 74.0227 33.2396 73.9283 32.7491 73.7393C32.2619 73.5537 31.8741 73.3002 31.5858 72.9787C31.2974 72.6572 31.1101 72.2959 31.024 71.8949L32.9828 71.6314C33.0424 71.7839 33.1369 71.9264 33.2662 72.0589C33.3954 72.1915 33.5661 72.2976 33.7782 72.3771C33.9937 72.46 34.2555 72.5014 34.5637 72.5014C35.0244 72.5014 35.4039 72.3887 35.7022 72.1634C36.0038 71.9413 36.1547 71.5684 36.1547 71.0447V69.6477H36.0652C35.9724 69.8598 35.8332 70.0604 35.6475 70.2493C35.4619 70.4382 35.2233 70.5923 34.9316 70.7116C34.64 70.831 34.292 70.8906 33.8876 70.8906C33.3142 70.8906 32.7922 70.758 32.3216 70.4929C31.8542 70.2244 31.4814 69.8151 31.2029 69.2649C30.9279 68.7114 30.7903 68.0121 30.7903 67.1669C30.7903 66.3018 30.9312 65.5793 31.2129 64.9993C31.4946 64.4193 31.8691 63.9851 32.3365 63.6967C32.8071 63.4084 33.3225 63.2642 33.8826 63.2642C34.3102 63.2642 34.6681 63.3371 34.9565 63.483C35.2449 63.6255 35.4769 63.8045 35.6525 64.0199C35.8315 64.232 35.969 64.4408 36.0652 64.6463H36.1447V63.3636H38.2477V71.0746C38.2477 71.7242 38.0886 72.2678 37.7704 72.7053C37.4522 73.1428 37.0114 73.4709 36.448 73.6896C35.8878 73.9117 35.2432 74.0227 34.514 74.0227ZM34.5588 69.2997C34.9002 69.2997 35.1885 69.2152 35.4238 69.0462C35.6625 68.8738 35.8448 68.6286 35.9707 68.3104C36.1 67.9889 36.1646 67.6044 36.1646 67.157C36.1646 66.7095 36.1016 66.3217 35.9757 65.9936C35.8497 65.6622 35.6674 65.4053 35.4288 65.223C35.1902 65.0407 34.9002 64.9496 34.5588 64.9496C34.2108 64.9496 33.9174 65.044 33.6788 65.233C33.4402 65.4186 33.2595 65.6771 33.1369 66.0085C33.0143 66.34 32.9529 66.7228 32.9529 67.157C32.9529 67.5978 33.0143 67.9789 33.1369 68.3004C33.2628 68.6186 33.4435 68.8655 33.6788 69.0412C33.9174 69.2135 34.2108 69.2997 34.5588 69.2997ZM42.051 66.5852V71H39.9331V63.3636H41.9515V64.7109H42.041C42.21 64.2668 42.4934 63.9155 42.8912 63.657C43.2889 63.3951 43.7711 63.2642 44.3379 63.2642C44.8682 63.2642 45.3306 63.3802 45.725 63.6122C46.1194 63.8442 46.426 64.1757 46.6447 64.6065C46.8635 65.0341 46.9728 65.5445 46.9728 66.1378V71H44.8549V66.5156C44.8583 66.0483 44.7389 65.6837 44.497 65.4219C44.255 65.1567 43.9219 65.0241 43.4977 65.0241C43.2127 65.0241 42.9608 65.0855 42.742 65.2081C42.5266 65.3307 42.3575 65.5097 42.2349 65.745C42.1156 65.977 42.0543 66.2571 42.051 66.5852ZM51.9221 71V60.8182H54.0748V69.2251H58.4398V71H51.9221ZM63.3058 71.1491C62.5202 71.1491 61.8441 70.9901 61.2773 70.6719C60.7139 70.3504 60.2797 69.8963 59.9748 69.3097C59.6699 68.7197 59.5174 68.022 59.5174 67.2166C59.5174 66.4311 59.6699 65.7417 59.9748 65.1484C60.2797 64.5552 60.7089 64.0928 61.2624 63.7614C61.8192 63.4299 62.4722 63.2642 63.2212 63.2642C63.725 63.2642 64.194 63.3454 64.6282 63.5078C65.0657 63.6669 65.4469 63.9072 65.7717 64.2287C66.0998 64.5502 66.355 64.9545 66.5373 65.4418C66.7196 65.9257 66.8107 66.4924 66.8107 67.142V67.7237H60.3626V66.4112H64.8171C64.8171 66.1063 64.7508 65.8362 64.6183 65.6009C64.4857 65.3655 64.3017 65.1816 64.0664 65.049C63.8344 64.9131 63.5643 64.8452 63.256 64.8452C62.9345 64.8452 62.6495 64.9197 62.4009 65.0689C62.1557 65.2147 61.9634 65.4119 61.8242 65.6605C61.685 65.9058 61.6138 66.1792 61.6104 66.4808V67.7287C61.6104 68.1065 61.68 68.433 61.8192 68.7081C61.9618 68.9832 62.1623 69.1953 62.4208 69.3445C62.6793 69.4936 62.9859 69.5682 63.3406 69.5682C63.5759 69.5682 63.7913 69.535 63.9869 69.4688C64.1824 69.4025 64.3498 69.303 64.489 69.1705C64.6282 69.0379 64.7343 68.8755 64.8072 68.6832L66.766 68.8125C66.6665 69.2831 66.4627 69.6941 66.1545 70.0455C65.8496 70.3935 65.4551 70.6652 64.9712 70.8608C64.4906 71.053 63.9355 71.1491 63.3058 71.1491ZM70.3704 71.1442C69.8832 71.1442 69.449 71.0597 69.0678 70.8906C68.6867 70.7183 68.3851 70.4647 68.163 70.13C67.9442 69.7919 67.8349 69.371 67.8349 68.8672C67.8349 68.4429 67.9128 68.0866 68.0685 67.7983C68.2243 67.5099 68.4364 67.2779 68.7049 67.1023C68.9734 66.9266 69.2783 66.794 69.6197 66.7045C69.9644 66.6151 70.3256 66.5521 70.7035 66.5156C71.1476 66.4692 71.5056 66.4261 71.7773 66.3864C72.0491 66.3433 72.2463 66.2803 72.369 66.1974C72.4916 66.1146 72.5529 65.992 72.5529 65.8295V65.7997C72.5529 65.4848 72.4535 65.2412 72.2546 65.0689C72.0591 64.8965 71.7807 64.8104 71.4194 64.8104C71.0382 64.8104 70.735 64.8949 70.5096 65.0639C70.2842 65.2296 70.1351 65.4384 70.0621 65.6903L68.1033 65.5312C68.2028 65.0672 68.3983 64.6662 68.69 64.3281C68.9817 63.9867 69.3578 63.7249 69.8185 63.5426C70.2826 63.357 70.8195 63.2642 71.4293 63.2642C71.8536 63.2642 72.2596 63.3139 72.6474 63.4134C73.0385 63.5128 73.3848 63.6669 73.6864 63.8757C73.9914 64.0845 74.2317 64.353 74.4073 64.6811C74.583 65.0059 74.6708 65.3954 74.6708 65.8494V71H72.6623V69.9411H72.6026C72.48 70.1797 72.3159 70.3902 72.1104 70.5724C71.9049 70.7514 71.658 70.8923 71.3697 70.995C71.0813 71.0945 70.7482 71.1442 70.3704 71.1442ZM70.9769 69.6825C71.2885 69.6825 71.5636 69.6212 71.8022 69.4986C72.0408 69.3726 72.2281 69.2036 72.364 68.9915C72.4999 68.7794 72.5678 68.5391 72.5678 68.2706V67.4602C72.5015 67.5033 72.4104 67.5431 72.2944 67.5795C72.1817 67.6127 72.0541 67.6442 71.9116 67.674C71.7691 67.7005 71.6265 67.7254 71.484 67.7486C71.3415 67.7685 71.2122 67.7867 71.0962 67.8033C70.8477 67.8397 70.6306 67.8977 70.445 67.9773C70.2594 68.0568 70.1152 68.1645 70.0124 68.3004C69.9097 68.433 69.8583 68.5987 69.8583 68.7976C69.8583 69.0859 69.9627 69.3063 70.1715 69.4588C70.3836 69.608 70.6521 69.6825 70.9769 69.6825ZM79.1278 71.1243C78.5478 71.1243 78.0225 70.9751 77.5518 70.6768C77.0845 70.3752 76.7133 69.9328 76.4382 69.3494C76.1664 68.7628 76.0305 68.0436 76.0305 67.1918C76.0305 66.3168 76.1714 65.5893 76.4531 65.0092C76.7348 64.4259 77.1094 63.9901 77.5767 63.7017C78.0473 63.41 78.5627 63.2642 79.1229 63.2642C79.5504 63.2642 79.9067 63.3371 80.1918 63.483C80.4801 63.6255 80.7121 63.8045 80.8878 64.0199C81.0668 64.232 81.2027 64.4408 81.2955 64.6463H81.3601V60.8182H83.473V71H81.3849V69.777H81.2955C81.196 69.9891 81.0552 70.1996 80.8729 70.4084C80.6939 70.6139 80.4602 70.7846 80.1719 70.9205C79.8868 71.0563 79.5388 71.1243 79.1278 71.1243ZM79.799 69.4389C80.1404 69.4389 80.4287 69.3461 80.6641 69.1605C80.9027 68.9716 81.085 68.7081 81.2109 68.37C81.3402 68.032 81.4048 67.6359 81.4048 67.1818C81.4048 66.7277 81.3419 66.3333 81.2159 65.9986C81.09 65.6638 80.9077 65.4053 80.669 65.223C80.4304 65.0407 80.1404 64.9496 79.799 64.9496C79.451 64.9496 79.1577 65.044 78.919 65.233C78.6804 65.4219 78.4998 65.6837 78.3771 66.0185C78.2545 66.3532 78.1932 66.741 78.1932 67.1818C78.1932 67.6259 78.2545 68.0187 78.3771 68.3601C78.5031 68.6982 78.6837 68.9633 78.919 69.1555C79.1577 69.3445 79.451 69.4389 79.799 69.4389ZM88.38 64V62.9261C88.38 62.6212 88.4396 62.3097 88.5589 61.9915C88.6783 61.6733 88.8357 61.3733 89.0312 61.0916C89.2268 60.8099 89.4389 60.5746 89.6676 60.3857L90.6023 60.9375C90.4167 61.2292 90.2642 61.5341 90.1449 61.8523C90.0289 62.1705 89.9709 62.5251 89.9709 62.9162V64H88.38ZM90.8906 64V62.9261C90.8906 62.6212 90.9503 62.3097 91.0696 61.9915C91.1889 61.6733 91.3464 61.3733 91.5419 61.0916C91.7375 60.8099 91.9496 60.5746 92.1783 60.3857L93.1129 60.9375C92.9273 61.2292 92.7749 61.5341 92.6555 61.8523C92.5395 62.1705 92.4815 62.5251 92.4815 62.9162V64H90.8906Z" fill="#6A1039"/>
</svg>
