<svg width="159" height="44" viewBox="0 0 159 44" fill="none" xmlns="http://www.w3.org/2000/svg">
<rect width="159" height="44" rx="8" fill="#6A1039"/>
<rect x="16" y="12" width="20" height="20" rx="10" stroke="#D0D5DD" stroke-linecap="round" stroke-linejoin="round" stroke-dasharray="1 3"/>
<path d="M26 17.3333V26.6667M21.3333 22H30.6667" stroke="#F5F6F7" stroke-width="1.33333" stroke-linecap="round" stroke-linejoin="round"/>
<path d="M53.3068 16.8182V27H52.1136L46.5653 19.0057H46.4659V27H45.233V16.8182H46.4261L51.9943 24.8324H52.0938V16.8182H53.3068ZM58.8166 27.1591C58.0808 27.1591 57.4461 26.9967 56.9125 26.6719C56.3822 26.3438 55.9728 25.8864 55.6845 25.2997C55.3994 24.7098 55.2569 24.0237 55.2569 23.2415C55.2569 22.4593 55.3994 21.7699 55.6845 21.1733C55.9728 20.5734 56.3739 20.1061 56.8876 19.7713C57.4047 19.4332 58.0079 19.2642 58.6973 19.2642C59.095 19.2642 59.4877 19.3305 59.8755 19.4631C60.2633 19.5956 60.6163 19.8111 60.9345 20.1094C61.2527 20.4044 61.5062 20.7955 61.6951 21.2827C61.8841 21.7699 61.9785 22.3698 61.9785 23.0824V23.5795H56.0922V22.5653H60.7853C60.7853 22.1345 60.6992 21.75 60.5268 21.4119C60.3578 21.0739 60.1158 20.8071 59.801 20.6115C59.4894 20.416 59.1215 20.3182 58.6973 20.3182C58.2299 20.3182 57.8256 20.4342 57.4842 20.6662C57.1461 20.8949 56.8859 21.1932 56.7037 21.5611C56.5214 21.929 56.4302 22.3234 56.4302 22.7443V23.4205C56.4302 23.9972 56.5297 24.486 56.7285 24.8871C56.9307 25.2848 57.2108 25.5881 57.5687 25.7969C57.9267 26.0024 58.3426 26.1051 58.8166 26.1051C59.1248 26.1051 59.4032 26.062 59.6518 25.9759C59.9037 25.8864 60.1208 25.7538 60.3031 25.5781C60.4854 25.3991 60.6262 25.1771 60.7257 24.9119L61.8592 25.2301C61.7399 25.6146 61.5394 25.9527 61.2576 26.2443C60.9759 26.5327 60.6279 26.758 60.2136 26.9205C59.7993 27.0795 59.3336 27.1591 58.8166 27.1591ZM65.4934 27L63.1667 19.3636H64.3997L66.0502 25.2102H66.1298L67.7605 19.3636H69.0133L70.6241 25.1903H70.7037L72.3542 19.3636H73.5872L71.2605 27H70.1071L68.4366 21.1335H68.3173L66.6468 27H65.4934ZM79.2349 27V16.8182H85.3798V17.9119H80.4679V21.3523H85.0616V22.446H80.4679V25.9062H85.4593V27H79.2349ZM87.443 27V19.3636H88.5765V20.5568H88.676C88.835 20.1491 89.0919 19.8326 89.4466 19.6072C89.8012 19.3786 90.2271 19.2642 90.7243 19.2642C91.228 19.2642 91.6473 19.3786 91.9821 19.6072C92.3201 19.8326 92.5836 20.1491 92.7725 20.5568H92.8521C93.0476 20.1624 93.341 19.8492 93.7321 19.6172C94.1232 19.3819 94.5922 19.2642 95.139 19.2642C95.8218 19.2642 96.3803 19.478 96.8145 19.9055C97.2486 20.3298 97.4657 20.991 97.4657 21.8892V27H96.2924V21.8892C96.2924 21.3258 96.1383 20.9231 95.8301 20.6811C95.5218 20.4392 95.1589 20.3182 94.7413 20.3182C94.2044 20.3182 93.7884 20.4806 93.4934 20.8054C93.1984 21.1269 93.051 21.5346 93.051 22.0284V27H91.8578V21.7699C91.8578 21.3357 91.7169 20.986 91.4352 20.7209C91.1535 20.4524 90.7905 20.3182 90.3464 20.3182C90.0415 20.3182 89.7565 20.3994 89.4913 20.5618C89.2295 20.7242 89.0173 20.9496 88.8549 21.2379C88.6958 21.523 88.6163 21.8527 88.6163 22.2273V27H87.443ZM99.611 29.8636V19.3636H100.744V20.5767H100.884C100.97 20.4441 101.089 20.2751 101.242 20.0696C101.397 19.8608 101.619 19.6752 101.908 19.5128C102.2 19.3471 102.594 19.2642 103.091 19.2642C103.734 19.2642 104.301 19.425 104.791 19.7464C105.282 20.0679 105.665 20.5237 105.94 21.1136C106.215 21.7036 106.352 22.3996 106.352 23.2017C106.352 24.0104 106.215 24.7114 105.94 25.3047C105.665 25.8946 105.284 26.352 104.796 26.6768C104.309 26.9983 103.747 27.1591 103.111 27.1591C102.62 27.1591 102.228 27.0779 101.933 26.9155C101.638 26.7498 101.411 26.5625 101.252 26.3537C101.093 26.1416 100.97 25.9659 100.884 25.8267H100.784V29.8636H99.611ZM100.764 23.1818C100.764 23.7585 100.849 24.2673 101.018 24.7081C101.187 25.1456 101.434 25.4886 101.759 25.7372C102.084 25.9825 102.481 26.1051 102.952 26.1051C103.442 26.1051 103.852 25.9759 104.18 25.7173C104.511 25.4555 104.76 25.1042 104.926 24.6634C105.095 24.2192 105.179 23.7254 105.179 23.1818C105.179 22.6449 105.096 22.161 104.931 21.7301C104.768 21.2959 104.521 20.9529 104.19 20.701C103.862 20.4458 103.449 20.3182 102.952 20.3182C102.475 20.3182 102.074 20.4392 101.749 20.6811C101.424 20.9197 101.179 21.2545 101.013 21.6854C100.847 22.1129 100.764 22.6117 100.764 23.1818ZM109.316 16.8182V27H108.142V16.8182H109.316ZM114.567 27.1591C113.877 27.1591 113.272 26.995 112.752 26.6669C112.235 26.3388 111.831 25.8797 111.539 25.2898C111.251 24.6998 111.107 24.0104 111.107 23.2216C111.107 22.4261 111.251 21.7318 111.539 21.1385C111.831 20.5452 112.235 20.0845 112.752 19.7564C113.272 19.4283 113.877 19.2642 114.567 19.2642C115.256 19.2642 115.859 19.4283 116.376 19.7564C116.897 20.0845 117.301 20.5452 117.589 21.1385C117.881 21.7318 118.027 22.4261 118.027 23.2216C118.027 24.0104 117.881 24.6998 117.589 25.2898C117.301 25.8797 116.897 26.3388 116.376 26.6669C115.859 26.995 115.256 27.1591 114.567 27.1591ZM114.567 26.1051C115.09 26.1051 115.521 25.9709 115.859 25.7024C116.197 25.4339 116.448 25.081 116.61 24.6435C116.772 24.206 116.854 23.732 116.854 23.2216C116.854 22.7112 116.772 22.2356 116.61 21.7947C116.448 21.3539 116.197 20.9976 115.859 20.7259C115.521 20.4541 115.09 20.3182 114.567 20.3182C114.043 20.3182 113.612 20.4541 113.274 20.7259C112.936 20.9976 112.686 21.3539 112.523 21.7947C112.361 22.2356 112.28 22.7112 112.28 23.2216C112.28 23.732 112.361 24.206 112.523 24.6435C112.686 25.081 112.936 25.4339 113.274 25.7024C113.612 25.9709 114.043 26.1051 114.567 26.1051ZM120.3 29.8636C120.101 29.8636 119.924 29.8471 119.768 29.8139C119.613 29.7841 119.505 29.7543 119.445 29.7244L119.743 28.6903C120.028 28.7633 120.28 28.7898 120.499 28.7699C120.718 28.75 120.912 28.6522 121.081 28.4766C121.253 28.3042 121.411 28.0241 121.553 27.6364L121.772 27.0398L118.948 19.3636H120.221L122.329 25.4489H122.408L124.516 19.3636H125.789L122.547 28.1136C122.402 28.508 122.221 28.8345 122.006 29.093C121.79 29.3549 121.54 29.5488 121.255 29.6747C120.973 29.8007 120.655 29.8636 120.3 29.8636ZM130.266 27.1591C129.53 27.1591 128.895 26.9967 128.362 26.6719C127.831 26.3438 127.422 25.8864 127.134 25.2997C126.849 24.7098 126.706 24.0237 126.706 23.2415C126.706 22.4593 126.849 21.7699 127.134 21.1733C127.422 20.5734 127.823 20.1061 128.337 19.7713C128.854 19.4332 129.457 19.2642 130.146 19.2642C130.544 19.2642 130.937 19.3305 131.325 19.4631C131.713 19.5956 132.066 19.8111 132.384 20.1094C132.702 20.4044 132.955 20.7955 133.144 21.2827C133.333 21.7699 133.428 22.3698 133.428 23.0824V23.5795H127.541V22.5653H132.235C132.235 22.1345 132.148 21.75 131.976 21.4119C131.807 21.0739 131.565 20.8071 131.25 20.6115C130.939 20.416 130.571 20.3182 130.146 20.3182C129.679 20.3182 129.275 20.4342 128.933 20.6662C128.595 20.8949 128.335 21.1932 128.153 21.5611C127.971 21.929 127.879 22.3234 127.879 22.7443V23.4205C127.879 23.9972 127.979 24.486 128.178 24.8871C128.38 25.2848 128.66 25.5881 129.018 25.7969C129.376 26.0024 129.792 26.1051 130.266 26.1051C130.574 26.1051 130.852 26.062 131.101 25.9759C131.353 25.8864 131.57 25.7538 131.752 25.5781C131.935 25.3991 132.075 25.1771 132.175 24.9119L133.308 25.2301C133.189 25.6146 132.989 25.9527 132.707 26.2443C132.425 26.5327 132.077 26.758 131.663 26.9205C131.249 27.0795 130.783 27.1591 130.266 27.1591ZM138.414 27.1591C137.678 27.1591 137.044 26.9967 136.51 26.6719C135.98 26.3438 135.57 25.8864 135.282 25.2997C134.997 24.7098 134.855 24.0237 134.855 23.2415C134.855 22.4593 134.997 21.7699 135.282 21.1733C135.57 20.5734 135.972 20.1061 136.485 19.7713C137.002 19.4332 137.606 19.2642 138.295 19.2642C138.693 19.2642 139.085 19.3305 139.473 19.4631C139.861 19.5956 140.214 19.8111 140.532 20.1094C140.85 20.4044 141.104 20.7955 141.293 21.2827C141.482 21.7699 141.576 22.3698 141.576 23.0824V23.5795H135.69V22.5653H140.383C140.383 22.1345 140.297 21.75 140.124 21.4119C139.955 21.0739 139.713 20.8071 139.399 20.6115C139.087 20.416 138.719 20.3182 138.295 20.3182C137.828 20.3182 137.423 20.4342 137.082 20.6662C136.744 20.8949 136.484 21.1932 136.301 21.5611C136.119 21.929 136.028 22.3234 136.028 22.7443V23.4205C136.028 23.9972 136.127 24.486 136.326 24.8871C136.528 25.2848 136.808 25.5881 137.166 25.7969C137.524 26.0024 137.94 26.1051 138.414 26.1051C138.722 26.1051 139.001 26.062 139.249 25.9759C139.501 25.8864 139.718 25.7538 139.901 25.5781C140.083 25.3991 140.224 25.1771 140.323 24.9119L141.457 25.2301C141.338 25.6146 141.137 25.9527 140.855 26.2443C140.574 26.5327 140.226 26.758 139.811 26.9205C139.397 27.0795 138.931 27.1591 138.414 27.1591Z" fill="white"/>
</svg>
