<svg width="100" height="44" viewBox="0 0 100 44" fill="none" xmlns="http://www.w3.org/2000/svg">
<rect x="0.5" y="0.5" width="99" height="43" rx="7.5" fill="white"/>
<rect x="0.5" y="0.5" width="99" height="43" rx="7.5" stroke="#E6E7EC"/>
<path d="M24.0815 24.2908V16.2634" stroke="#0E2354" stroke-width="1.2" stroke-linecap="round" stroke-linejoin="round"/>
<path d="M26.0255 22.339L24.0815 24.291L22.1375 22.339" stroke="#0E2354" stroke-width="1.2" stroke-linecap="round" stroke-linejoin="round"/>
<path d="M27.5061 19.0002H28.2121C29.7521 19.0002 31 20.2123 31 21.7089V25.2989C31 26.7911 29.7551 28.0002 28.2189 28.0002H19.7886C18.2486 28.0002 17 26.7874 17 25.2916V21.7008C17 20.2094 18.2456 19.0002 19.7811 19.0002H20.4939" stroke="#0E2354" stroke-width="1.2" stroke-linecap="round" stroke-linejoin="round"/>
<path d="M41.233 27V16.8182H47.3778V17.9119H42.4659V21.3523H47.0597V22.446H42.4659V25.9062H47.4574V27H41.233ZM50.3161 19.3636L52.1456 22.4858L53.9751 19.3636H55.3274L52.8615 23.1818L55.3274 27H53.9751L52.1456 24.0369L50.3161 27H48.9638L51.3899 23.1818L48.9638 19.3636H50.3161ZM57.0016 29.8636V19.3636H58.1351V20.5767H58.2743C58.3605 20.4441 58.4798 20.2751 58.6323 20.0696C58.7881 19.8608 59.0101 19.6752 59.2985 19.5128C59.5901 19.3471 59.9846 19.2642 60.4817 19.2642C61.1247 19.2642 61.6915 19.425 62.182 19.7464C62.6725 20.0679 63.0553 20.5237 63.3304 21.1136C63.6055 21.7036 63.7431 22.3996 63.7431 23.2017C63.7431 24.0104 63.6055 24.7114 63.3304 25.3047C63.0553 25.8946 62.6742 26.352 62.187 26.6768C61.6998 26.9983 61.138 27.1591 60.5016 27.1591C60.0111 27.1591 59.6183 27.0779 59.3233 26.9155C59.0283 26.7498 58.8013 26.5625 58.6422 26.3537C58.4831 26.1416 58.3605 25.9659 58.2743 25.8267H58.1749V29.8636H57.0016ZM58.155 23.1818C58.155 23.7585 58.2395 24.2673 58.4086 24.7081C58.5776 25.1456 58.8245 25.4886 59.1493 25.7372C59.4741 25.9825 59.8719 26.1051 60.3425 26.1051C60.833 26.1051 61.2424 25.9759 61.5705 25.7173C61.9019 25.4555 62.1505 25.1042 62.3162 24.6634C62.4853 24.2192 62.5698 23.7254 62.5698 23.1818C62.5698 22.6449 62.4869 22.161 62.3212 21.7301C62.1588 21.2959 61.9119 20.9529 61.5804 20.701C61.2523 20.4458 60.8397 20.3182 60.3425 20.3182C59.8652 20.3182 59.4642 20.4392 59.1394 20.6811C58.8146 20.9197 58.5693 21.2545 58.4036 21.6854C58.2379 22.1129 58.155 22.6117 58.155 23.1818ZM68.6351 27.1591C67.9457 27.1591 67.3409 26.995 66.8205 26.6669C66.3034 26.3388 65.8991 25.8797 65.6074 25.2898C65.3191 24.6998 65.1749 24.0104 65.1749 23.2216C65.1749 22.4261 65.3191 21.7318 65.6074 21.1385C65.8991 20.5452 66.3034 20.0845 66.8205 19.7564C67.3409 19.4283 67.9457 19.2642 68.6351 19.2642C69.3245 19.2642 69.9277 19.4283 70.4448 19.7564C70.9651 20.0845 71.3695 20.5452 71.6578 21.1385C71.9495 21.7318 72.0953 22.4261 72.0953 23.2216C72.0953 24.0104 71.9495 24.6998 71.6578 25.2898C71.3695 25.8797 70.9651 26.3388 70.4448 26.6669C69.9277 26.995 69.3245 27.1591 68.6351 27.1591ZM68.6351 26.1051C69.1588 26.1051 69.5897 25.9709 69.9277 25.7024C70.2658 25.4339 70.516 25.081 70.6784 24.6435C70.8409 24.206 70.9221 23.732 70.9221 23.2216C70.9221 22.7112 70.8409 22.2356 70.6784 21.7947C70.516 21.3539 70.2658 20.9976 69.9277 20.7259C69.5897 20.4541 69.1588 20.3182 68.6351 20.3182C68.1114 20.3182 67.6806 20.4541 67.3425 20.7259C67.0044 20.9976 66.7542 21.3539 66.5918 21.7947C66.4294 22.2356 66.3482 22.7112 66.3482 23.2216C66.3482 23.732 66.4294 24.206 66.5918 24.6435C66.7542 25.081 67.0044 25.4339 67.3425 25.7024C67.6806 25.9709 68.1114 26.1051 68.6351 26.1051ZM73.8864 27V19.3636H75.0199V20.517H75.0994C75.2386 20.1392 75.4905 19.8326 75.8551 19.5973C76.2197 19.362 76.6307 19.2443 77.0881 19.2443C77.1742 19.2443 77.282 19.246 77.4112 19.2493C77.5405 19.2526 77.6383 19.2576 77.7045 19.2642V20.4574C77.6648 20.4474 77.5736 20.4325 77.4311 20.4126C77.2919 20.3894 77.1444 20.3778 76.9886 20.3778C76.6174 20.3778 76.286 20.4557 75.9943 20.6115C75.706 20.764 75.4773 20.9761 75.3082 21.2479C75.1425 21.5163 75.0597 21.8229 75.0597 22.1676V27H73.8864ZM82.8949 19.3636V20.358H78.9375V19.3636H82.8949ZM80.0909 17.5341H81.2642V24.8125C81.2642 25.1439 81.3123 25.3925 81.4084 25.5582C81.5078 25.7206 81.6338 25.83 81.7862 25.8864C81.942 25.9394 82.1061 25.9659 82.2784 25.9659C82.4077 25.9659 82.5137 25.9593 82.5966 25.946C82.6795 25.9295 82.7457 25.9162 82.7955 25.9062L83.0341 26.9602C82.9545 26.9901 82.8435 27.0199 82.701 27.0497C82.5585 27.0829 82.3778 27.0994 82.1591 27.0994C81.8277 27.0994 81.5028 27.0282 81.1847 26.8857C80.8698 26.7431 80.608 26.526 80.3991 26.2344C80.1937 25.9427 80.0909 25.5748 80.0909 25.1307V17.5341Z" fill="#0E2354"/>
</svg>
