<svg width="194" height="44" viewBox="0 0 194 44" fill="none" xmlns="http://www.w3.org/2000/svg">
<mask id="path-1-inside-1_1_6371" fill="white">
<path d="M0 0H194V44H0V0Z"/>
</mask>
<path d="M0 0H194V44H0V0Z" fill="#FAFBFB"/>
<path d="M194 43H0V45H194V43Z" fill="#EAECF0" mask="url(#path-1-inside-1_1_6371)"/>
<path d="M24.9588 26V17.2727H30.4304V18.4062H26.2756V21.0653H30.1449V22.1946H26.2756V24.8665H30.4815V26H24.9588ZM32.087 26V19.4545H33.31V20.5199H33.391C33.5273 20.1591 33.7504 19.8778 34.06 19.6761C34.3697 19.4716 34.7404 19.3693 35.1722 19.3693C35.6097 19.3693 35.9762 19.4716 36.2717 19.6761C36.57 19.8807 36.7901 20.1619 36.9322 20.5199H37.0004C37.1566 20.1705 37.4052 19.892 37.7461 19.6847C38.087 19.4744 38.4933 19.3693 38.9648 19.3693C39.5586 19.3693 40.043 19.5554 40.418 19.9276C40.7958 20.2997 40.9847 20.8608 40.9847 21.6108V26H39.7106V21.7301C39.7106 21.2869 39.5898 20.9659 39.3484 20.767C39.1069 20.5682 38.8185 20.4688 38.4833 20.4688C38.0685 20.4688 37.7461 20.5966 37.516 20.8523C37.2859 21.1051 37.1708 21.4304 37.1708 21.8281V26H35.9009V21.6491C35.9009 21.294 35.7901 21.0085 35.5685 20.7926C35.3469 20.5767 35.0586 20.4688 34.7035 20.4688C34.462 20.4688 34.239 20.5327 34.0344 20.6605C33.8327 20.7855 33.6694 20.9602 33.5444 21.1847C33.4222 21.4091 33.3612 21.669 33.3612 21.9645V26H32.087ZM42.6925 28.4545V19.4545H43.9368V20.5156H44.0433C44.1172 20.3793 44.2237 20.2216 44.3629 20.0426C44.5021 19.8636 44.6953 19.7074 44.9425 19.5739C45.1896 19.4375 45.5163 19.3693 45.9226 19.3693C46.451 19.3693 46.9226 19.5028 47.3374 19.7699C47.7521 20.0369 48.0774 20.4219 48.3132 20.9247C48.5518 21.4276 48.6712 22.0327 48.6712 22.7401C48.6712 23.4474 48.5533 24.054 48.3175 24.5597C48.0817 25.0625 47.7578 25.4503 47.3459 25.723C46.9339 25.9929 46.4638 26.1278 45.9354 26.1278C45.5376 26.1278 45.2124 26.0611 44.9595 25.9276C44.7095 25.794 44.5135 25.6378 44.3714 25.4588C44.2294 25.2798 44.12 25.1207 44.0433 24.9815H43.9666V28.4545H42.6925ZM43.9411 22.7273C43.9411 23.1875 44.0078 23.5909 44.1413 23.9375C44.2749 24.2841 44.468 24.5554 44.7209 24.7514C44.9737 24.9446 45.2834 25.0412 45.6499 25.0412C46.0305 25.0412 46.3487 24.9403 46.6044 24.7386C46.8601 24.5341 47.0533 24.2571 47.1839 23.9077C47.3175 23.5582 47.3842 23.1648 47.3842 22.7273C47.3842 22.2955 47.3189 21.9077 47.1882 21.5639C47.0604 21.2202 46.8672 20.9489 46.6087 20.75C46.353 20.5511 46.0334 20.4517 45.6499 20.4517C45.2805 20.4517 44.968 20.5469 44.7124 20.7372C44.4595 20.9276 44.2678 21.1932 44.1371 21.5341C44.0064 21.875 43.9411 22.2727 43.9411 22.7273ZM51.3729 17.2727V26H50.0987V17.2727H51.3729ZM55.8441 26.1321C55.2305 26.1321 54.695 25.9915 54.2376 25.7102C53.7802 25.429 53.4251 25.0355 53.1722 24.5298C52.9194 24.0241 52.793 23.4332 52.793 22.7571C52.793 22.0781 52.9194 21.4844 53.1722 20.9759C53.4251 20.4673 53.7802 20.0724 54.2376 19.7912C54.695 19.5099 55.2305 19.3693 55.8441 19.3693C56.4577 19.3693 56.9933 19.5099 57.4506 19.7912C57.908 20.0724 58.2631 20.4673 58.516 20.9759C58.7688 21.4844 58.8952 22.0781 58.8952 22.7571C58.8952 23.4332 58.7688 24.0241 58.516 24.5298C58.2631 25.0355 57.908 25.429 57.4506 25.7102C56.9933 25.9915 56.4577 26.1321 55.8441 26.1321ZM55.8484 25.0625C56.2461 25.0625 56.5756 24.9574 56.837 24.7472C57.0984 24.5369 57.2915 24.2571 57.4165 23.9077C57.5444 23.5582 57.6083 23.1733 57.6083 22.7528C57.6083 22.3352 57.5444 21.9517 57.4165 21.6023C57.2915 21.25 57.0984 20.9673 56.837 20.7543C56.5756 20.5412 56.2461 20.4347 55.8484 20.4347C55.4478 20.4347 55.1154 20.5412 54.8512 20.7543C54.5898 20.9673 54.3952 21.25 54.2674 21.6023C54.1424 21.9517 54.0799 22.3352 54.0799 22.7528C54.0799 23.1733 54.1424 23.5582 54.2674 23.9077C54.3952 24.2571 54.5898 24.5369 54.8512 24.7472C55.1154 24.9574 55.4478 25.0625 55.8484 25.0625ZM60.9002 28.4545C60.7099 28.4545 60.5366 28.4389 60.3803 28.4077C60.2241 28.3793 60.1076 28.348 60.0309 28.3139L60.3377 27.2699C60.5707 27.3324 60.7781 27.3594 60.9599 27.3509C61.1417 27.3423 61.3022 27.2741 61.4414 27.1463C61.5835 27.0185 61.7085 26.8097 61.8164 26.5199L61.9741 26.0852L59.5792 19.4545H60.9428L62.6005 24.5341H62.6687L64.3263 19.4545H65.6942L62.9968 26.8736C62.8718 27.2145 62.7127 27.5028 62.5195 27.7386C62.3263 27.9773 62.0962 28.1563 61.8292 28.2756C61.5621 28.3949 61.2525 28.4545 60.9002 28.4545ZM69.4901 26.1321C68.8452 26.1321 68.2898 25.9943 67.8239 25.7188C67.3608 25.4403 67.0028 25.0497 66.75 24.5469C66.5 24.0412 66.375 23.4489 66.375 22.7699C66.375 22.0994 66.5 21.5085 66.75 20.9972C67.0028 20.4858 67.3551 20.0866 67.8068 19.7997C68.2614 19.5128 68.7926 19.3693 69.4006 19.3693C69.7699 19.3693 70.1278 19.4304 70.4744 19.5526C70.821 19.6747 71.1321 19.8665 71.4077 20.1278C71.6832 20.3892 71.9006 20.7287 72.0597 21.1463C72.2188 21.5611 72.2983 22.0653 72.2983 22.6591V23.1108H67.0952V22.1562H71.0497C71.0497 21.821 70.9815 21.5241 70.8452 21.2656C70.7088 21.0043 70.517 20.7983 70.2699 20.6477C70.0256 20.4972 69.7386 20.4219 69.4091 20.4219C69.0511 20.4219 68.7386 20.5099 68.4716 20.6861C68.2074 20.8594 68.0028 21.0866 67.858 21.3679C67.7159 21.6463 67.6449 21.9489 67.6449 22.2756V23.0213C67.6449 23.4588 67.7216 23.831 67.875 24.1378C68.0312 24.4446 68.2486 24.679 68.527 24.8409C68.8054 25 69.1307 25.0795 69.5028 25.0795C69.7443 25.0795 69.9645 25.0455 70.1634 24.9773C70.3622 24.9062 70.5341 24.8011 70.679 24.6619C70.8239 24.5227 70.9347 24.3509 71.0114 24.1463L72.2173 24.3636C72.1207 24.7187 71.9474 25.0298 71.6974 25.2969C71.4503 25.5611 71.1392 25.767 70.7642 25.9148C70.392 26.0597 69.9673 26.1321 69.4901 26.1321ZM76.533 26.1321C75.8881 26.1321 75.3327 25.9943 74.8668 25.7188C74.4038 25.4403 74.0458 25.0497 73.793 24.5469C73.543 24.0412 73.418 23.4489 73.418 22.7699C73.418 22.0994 73.543 21.5085 73.793 20.9972C74.0458 20.4858 74.3981 20.0866 74.8498 19.7997C75.3043 19.5128 75.8356 19.3693 76.4435 19.3693C76.8129 19.3693 77.1708 19.4304 77.5174 19.5526C77.864 19.6747 78.1751 19.8665 78.4506 20.1278C78.7262 20.3892 78.9435 20.7287 79.1026 21.1463C79.2617 21.5611 79.3413 22.0653 79.3413 22.6591V23.1108H74.1381V22.1562H78.0927C78.0927 21.821 78.0245 21.5241 77.8881 21.2656C77.7518 21.0043 77.56 20.7983 77.3129 20.6477C77.0685 20.4972 76.7816 20.4219 76.4521 20.4219C76.0941 20.4219 75.7816 20.5099 75.5146 20.6861C75.2504 20.8594 75.0458 21.0866 74.9009 21.3679C74.7589 21.6463 74.6879 21.9489 74.6879 22.2756V23.0213C74.6879 23.4588 74.7646 23.831 74.918 24.1378C75.0742 24.4446 75.2915 24.679 75.57 24.8409C75.8484 25 76.1737 25.0795 76.5458 25.0795C76.7873 25.0795 77.0075 25.0455 77.2063 24.9773C77.4052 24.9062 77.5771 24.8011 77.7219 24.6619C77.8668 24.5227 77.9776 24.3509 78.0543 24.1463L79.2603 24.3636C79.1637 24.7187 78.9904 25.0298 78.7404 25.2969C78.4933 25.5611 78.1822 25.767 77.8072 25.9148C77.435 26.0597 77.0103 26.1321 76.533 26.1321ZM85.3498 17.2727V26H84.033V17.2727H85.3498ZM90.0927 26H87.2674V17.2727H90.1822C91.0373 17.2727 91.7717 17.4474 92.3853 17.7969C92.9989 18.1435 93.4691 18.642 93.7958 19.2926C94.1254 19.9403 94.2901 20.7173 94.2901 21.6236C94.2901 22.5327 94.1239 23.3139 93.7915 23.9673C93.462 24.6207 92.9847 25.1236 92.3597 25.4759C91.7347 25.8253 90.979 26 90.0927 26ZM88.5842 24.8494H90.0202C90.685 24.8494 91.2376 24.7244 91.6779 24.4744C92.1183 24.2216 92.4478 23.8565 92.6665 23.3793C92.8853 22.8991 92.9947 22.3139 92.9947 21.6236C92.9947 20.9389 92.8853 20.358 92.6665 19.8807C92.4506 19.4034 92.1282 19.0412 91.6992 18.794C91.2702 18.5469 90.7376 18.4233 90.1012 18.4233H88.5842V24.8494Z" fill="#42526D"/>
</svg>
