<svg width="184" height="37" viewBox="0 0 184 37" fill="none" xmlns="http://www.w3.org/2000/svg">
<rect y="0.989746" width="184" height="36" rx="18" fill="#9A4C1E"/>
<path d="M32.6624 18.0996C33.9976 18.0996 35.0808 17.0172 35.0808 15.6819C35.0808 14.3467 33.9976 13.2642 32.6624 13.2642" stroke="#DFE2E6" stroke-width="1.5" stroke-linecap="round" stroke-linejoin="round"/>
<path d="M33.7743 20.7271C34.173 20.7546 34.5695 20.8111 34.9598 20.8989C35.5022 21.0051 36.1546 21.2274 36.3868 21.714C36.535 22.0257 36.535 22.3885 36.3868 22.7009C36.1553 23.1875 35.5022 23.4091 34.9598 23.5206" stroke="#F5F6F7" stroke-width="1.5" stroke-linecap="round" stroke-linejoin="round"/>
<path d="M23.2417 18.0996C21.9064 18.0996 20.8232 17.0172 20.8232 15.6819C20.8232 14.3467 21.9064 13.2642 23.2417 13.2642" stroke="#DFE2E6" stroke-width="1.5" stroke-linecap="round" stroke-linejoin="round"/>
<path d="M22.1298 20.7271C21.7311 20.7546 21.3346 20.8111 20.9443 20.8989C20.4019 21.0051 19.7495 21.2274 19.5181 21.714C19.3691 22.0257 19.3691 22.3885 19.5181 22.7009C19.7488 23.1875 20.4019 23.4091 20.9443 23.5206" stroke="#F5F6F7" stroke-width="1.5" stroke-linecap="round" stroke-linejoin="round"/>
<path fill-rule="evenodd" clip-rule="evenodd" d="M27.9481 21.2477C30.6538 21.2477 32.9654 21.6572 32.9654 23.2957C32.9654 24.9335 30.6691 25.3582 27.9481 25.3582C25.2417 25.3582 22.9309 24.9488 22.9309 23.3102C22.9309 21.6717 25.2272 21.2477 27.9481 21.2477Z" stroke="#F5F6F7" stroke-width="1.5" stroke-linecap="round" stroke-linejoin="round"/>
<path fill-rule="evenodd" clip-rule="evenodd" d="M27.9481 18.9105C26.1637 18.9105 24.7329 17.4798 24.7329 15.6945C24.7329 13.9101 26.1637 12.4793 27.9481 12.4793C29.7326 12.4793 31.1633 13.9101 31.1633 15.6945C31.1633 17.4798 29.7326 18.9105 27.9481 18.9105Z" stroke="#DFE2E6" stroke-width="1.5" stroke-linecap="round" stroke-linejoin="round"/>
<path d="M51.092 13.0777H57.826V15.0937H53.276V16.9417H57.574V18.9577H53.276V20.9737H58.078V22.9897H51.092V13.0777ZM59.5604 16.1857H61.5764V17.1097H61.6044C61.6697 16.9791 61.763 16.8484 61.8844 16.7177C62.0057 16.5871 62.1504 16.4704 62.3184 16.3677C62.4864 16.2651 62.6777 16.1811 62.8924 16.1157C63.107 16.0504 63.3404 16.0177 63.5924 16.0177C64.0684 16.0177 64.4884 16.1157 64.8524 16.3117C65.2257 16.5077 65.5057 16.8157 65.6924 17.2357C65.935 16.7971 66.229 16.4844 66.5744 16.2977C66.9197 16.1111 67.3444 16.0177 67.8484 16.0177C68.3057 16.0177 68.6884 16.0971 68.9964 16.2557C69.3137 16.4051 69.561 16.6151 69.7384 16.8857C69.925 17.1471 70.0557 17.4597 70.1304 17.8237C70.2144 18.1784 70.2564 18.5611 70.2564 18.9717V22.9897H68.1564V19.0277C68.1564 18.7104 68.0864 18.4397 67.9464 18.2157C67.8157 17.9824 67.5777 17.8657 67.2324 17.8657C66.9897 17.8657 66.7844 17.9077 66.6164 17.9917C66.4577 18.0664 66.327 18.1737 66.2244 18.3137C66.131 18.4537 66.061 18.6171 66.0144 18.8037C65.977 18.9904 65.9584 19.1864 65.9584 19.3917V22.9897H63.8584V19.3917C63.8584 19.2704 63.8537 19.1211 63.8444 18.9437C63.835 18.7664 63.8024 18.5984 63.7464 18.4397C63.6904 18.2811 63.597 18.1457 63.4664 18.0337C63.345 17.9217 63.163 17.8657 62.9204 17.8657C62.6497 17.8657 62.4304 17.9171 62.2624 18.0197C62.0944 18.1131 61.9637 18.2437 61.8704 18.4117C61.7864 18.5704 61.7304 18.7524 61.7024 18.9577C61.6744 19.1631 61.6604 19.3777 61.6604 19.6017V22.9897H59.5604V16.1857ZM71.938 16.1857H73.87V17.0817H73.898C73.982 16.9604 74.0893 16.8391 74.22 16.7177C74.36 16.5871 74.5187 16.4704 74.696 16.3677C74.8827 16.2651 75.0833 16.1811 75.298 16.1157C75.5127 16.0504 75.7413 16.0177 75.984 16.0177C76.488 16.0177 76.9453 16.1064 77.356 16.2837C77.7667 16.4517 78.1167 16.6944 78.406 17.0117C78.7047 17.3197 78.9333 17.6884 79.092 18.1177C79.2507 18.5471 79.33 19.0184 79.33 19.5317C79.33 20.0077 79.2553 20.4651 79.106 20.9037C78.966 21.3331 78.7607 21.7157 78.49 22.0517C78.2287 22.3877 77.9067 22.6584 77.524 22.8637C77.1413 23.0597 76.7073 23.1577 76.222 23.1577C75.7833 23.1577 75.3727 23.0924 74.99 22.9617C74.6167 22.8217 74.3087 22.5884 74.066 22.2617H74.038V26.1817H71.938V16.1857ZM73.87 19.5877C73.87 20.1011 74.0147 20.5164 74.304 20.8337C74.6027 21.1511 75.018 21.3097 75.55 21.3097C76.082 21.3097 76.4927 21.1511 76.782 20.8337C77.0807 20.5164 77.23 20.1011 77.23 19.5877C77.23 19.0744 77.0807 18.6591 76.782 18.3417C76.4927 18.0244 76.082 17.8657 75.55 17.8657C75.018 17.8657 74.6027 18.0244 74.304 18.3417C74.0147 18.6591 73.87 19.0744 73.87 19.5877ZM80.5884 12.4057H82.6884V22.9897H80.5884V12.4057ZM83.9451 19.5877C83.9451 19.0464 84.0431 18.5564 84.2391 18.1177C84.4351 17.6791 84.7011 17.3057 85.0371 16.9977C85.3824 16.6804 85.7837 16.4377 86.2411 16.2697C86.7077 16.1017 87.2024 16.0177 87.7251 16.0177C88.2477 16.0177 88.7377 16.1017 89.1951 16.2697C89.6617 16.4377 90.0631 16.6804 90.3991 16.9977C90.7444 17.3057 91.0151 17.6791 91.2111 18.1177C91.4071 18.5564 91.5051 19.0464 91.5051 19.5877C91.5051 20.1291 91.4071 20.6191 91.2111 21.0577C91.0151 21.4964 90.7444 21.8744 90.3991 22.1917C90.0631 22.4997 89.6617 22.7377 89.1951 22.9057C88.7377 23.0737 88.2477 23.1577 87.7251 23.1577C87.2024 23.1577 86.7077 23.0737 86.2411 22.9057C85.7837 22.7377 85.3824 22.4997 85.0371 22.1917C84.7011 21.8744 84.4351 21.4964 84.2391 21.0577C84.0431 20.6191 83.9451 20.1291 83.9451 19.5877ZM86.0451 19.5877C86.0451 20.1011 86.1897 20.5164 86.4791 20.8337C86.7777 21.1511 87.1931 21.3097 87.7251 21.3097C88.2571 21.3097 88.6677 21.1511 88.9571 20.8337C89.2557 20.5164 89.4051 20.1011 89.4051 19.5877C89.4051 19.0744 89.2557 18.6591 88.9571 18.3417C88.6677 18.0244 88.2571 17.8657 87.7251 17.8657C87.1931 17.8657 86.7777 18.0244 86.4791 18.3417C86.1897 18.6591 86.0451 19.0744 86.0451 19.5877ZM96.662 24.0957C96.522 24.4597 96.3867 24.7817 96.256 25.0617C96.1253 25.3417 95.9573 25.5751 95.752 25.7617C95.556 25.9577 95.304 26.1024 94.996 26.1957C94.688 26.2984 94.282 26.3497 93.778 26.3497C93.2367 26.3497 92.714 26.2657 92.21 26.0977L92.49 24.3757C92.8073 24.5157 93.134 24.5857 93.47 24.5857C93.7033 24.5857 93.8947 24.5577 94.044 24.5017C94.1933 24.4551 94.3147 24.3804 94.408 24.2777C94.5107 24.1844 94.5947 24.0677 94.66 23.9277C94.7253 23.7877 94.7953 23.6244 94.87 23.4377L95.024 23.0457L92.042 16.1857H94.31L96.06 20.6797H96.088L97.586 16.1857H99.742L96.662 24.0957ZM106.961 21.8137C106.625 22.2431 106.201 22.5744 105.687 22.8077C105.174 23.0411 104.642 23.1577 104.091 23.1577C103.569 23.1577 103.074 23.0737 102.607 22.9057C102.15 22.7377 101.749 22.4997 101.403 22.1917C101.067 21.8744 100.801 21.4964 100.605 21.0577C100.409 20.6191 100.311 20.1291 100.311 19.5877C100.311 19.0464 100.409 18.5564 100.605 18.1177C100.801 17.6791 101.067 17.3057 101.403 16.9977C101.749 16.6804 102.15 16.4377 102.607 16.2697C103.074 16.1017 103.569 16.0177 104.091 16.0177C104.577 16.0177 105.015 16.1017 105.407 16.2697C105.809 16.4377 106.145 16.6804 106.415 16.9977C106.695 17.3057 106.91 17.6791 107.059 18.1177C107.209 18.5564 107.283 19.0464 107.283 19.5877V20.2457H102.411C102.495 20.6471 102.677 20.9691 102.957 21.2117C103.237 21.4451 103.583 21.5617 103.993 21.5617C104.339 21.5617 104.628 21.4871 104.861 21.3377C105.104 21.1791 105.314 20.9784 105.491 20.7357L106.961 21.8137ZM105.183 18.8177C105.193 18.4631 105.076 18.1597 104.833 17.9077C104.591 17.6557 104.278 17.5297 103.895 17.5297C103.662 17.5297 103.457 17.5671 103.279 17.6417C103.102 17.7164 102.948 17.8144 102.817 17.9357C102.696 18.0477 102.598 18.1831 102.523 18.3417C102.458 18.4911 102.421 18.6497 102.411 18.8177H105.183ZM115 21.8137C114.664 22.2431 114.24 22.5744 113.726 22.8077C113.213 23.0411 112.681 23.1577 112.13 23.1577C111.608 23.1577 111.113 23.0737 110.646 22.9057C110.189 22.7377 109.788 22.4997 109.442 22.1917C109.106 21.8744 108.84 21.4964 108.644 21.0577C108.448 20.6191 108.35 20.1291 108.35 19.5877C108.35 19.0464 108.448 18.5564 108.644 18.1177C108.84 17.6791 109.106 17.3057 109.442 16.9977C109.788 16.6804 110.189 16.4377 110.646 16.2697C111.113 16.1017 111.608 16.0177 112.13 16.0177C112.616 16.0177 113.054 16.1017 113.446 16.2697C113.848 16.4377 114.184 16.6804 114.454 16.9977C114.734 17.3057 114.949 17.6791 115.098 18.1177C115.248 18.5564 115.322 19.0464 115.322 19.5877V20.2457H110.45C110.534 20.6471 110.716 20.9691 110.996 21.2117C111.276 21.4451 111.622 21.5617 112.032 21.5617C112.378 21.5617 112.667 21.4871 112.9 21.3377C113.143 21.1791 113.353 20.9784 113.53 20.7357L115 21.8137ZM113.222 18.8177C113.232 18.4631 113.115 18.1597 112.872 17.9077C112.63 17.6557 112.317 17.5297 111.934 17.5297C111.701 17.5297 111.496 17.5671 111.318 17.6417C111.141 17.7164 110.987 17.8144 110.856 17.9357C110.735 18.0477 110.637 18.1831 110.562 18.3417C110.497 18.4911 110.46 18.6497 110.45 18.8177H113.222ZM120.449 18.1877C120.141 17.8051 119.735 17.6137 119.231 17.6137C119.054 17.6137 118.881 17.6557 118.713 17.7397C118.545 17.8237 118.461 17.9684 118.461 18.1737C118.461 18.3417 118.545 18.4677 118.713 18.5517C118.891 18.6264 119.11 18.6964 119.371 18.7617C119.642 18.8177 119.927 18.8831 120.225 18.9577C120.533 19.0231 120.818 19.1304 121.079 19.2797C121.35 19.4291 121.569 19.6344 121.737 19.8957C121.915 20.1477 122.003 20.4884 122.003 20.9177C122.003 21.3564 121.905 21.7204 121.709 22.0097C121.523 22.2897 121.28 22.5184 120.981 22.6957C120.683 22.8637 120.347 22.9804 119.973 23.0457C119.6 23.1204 119.231 23.1577 118.867 23.1577C118.391 23.1577 117.911 23.0924 117.425 22.9617C116.94 22.8217 116.529 22.5791 116.193 22.2337L117.467 20.8197C117.663 21.0624 117.878 21.2491 118.111 21.3797C118.354 21.5011 118.634 21.5617 118.951 21.5617C119.194 21.5617 119.413 21.5291 119.609 21.4637C119.805 21.3891 119.903 21.2584 119.903 21.0717C119.903 20.8944 119.815 20.7637 119.637 20.6797C119.469 20.5864 119.25 20.5117 118.979 20.4557C118.718 20.3904 118.433 20.3251 118.125 20.2597C117.827 20.1851 117.542 20.0777 117.271 19.9377C117.01 19.7977 116.791 19.6017 116.613 19.3497C116.445 19.0884 116.361 18.7431 116.361 18.3137C116.361 17.9124 116.441 17.5671 116.599 17.2777C116.767 16.9884 116.982 16.7504 117.243 16.5637C117.514 16.3771 117.822 16.2417 118.167 16.1577C118.513 16.0644 118.863 16.0177 119.217 16.0177C119.665 16.0177 120.118 16.0831 120.575 16.2137C121.033 16.3444 121.42 16.5777 121.737 16.9137L120.449 18.1877Z" fill="#F7E8EF"/>
<path d="M166 14.3231V23.6564M166 23.6564L170.667 18.9898M166 23.6564L161.333 18.9898" stroke="#F7E8EF" stroke-width="1.33333" stroke-linecap="round" stroke-linejoin="round"/>
</svg>
