<svg width="118" height="40" viewBox="0 0 118 40" fill="none" xmlns="http://www.w3.org/2000/svg">
<g filter="url(#filter0_d_1_6593)">
<rect x="2" y="1" width="114" height="36" rx="8" fill="white"/>
<rect x="2.5" y="1.5" width="113" height="35" rx="7.5" stroke="#D0D5DD"/>
<path d="M31.8333 19H20.1666M20.1666 19L26 24.8333M20.1666 19L26 13.1667" stroke="#344054" stroke-width="1.67" stroke-linecap="round" stroke-linejoin="round"/>
<path d="M45.1186 24V13.8182H48.7479C49.54 13.8182 50.1963 13.9624 50.7166 14.2507C51.237 14.5391 51.6264 14.9335 51.8849 15.4339C52.1435 15.9311 52.2727 16.4912 52.2727 17.1143C52.2727 17.7408 52.1418 18.3042 51.88 18.8047C51.6214 19.3018 51.2304 19.6963 50.7067 19.9879C50.1863 20.2763 49.5317 20.4205 48.7429 20.4205H46.2472V19.1179H48.6037C49.1042 19.1179 49.5102 19.0317 49.8217 18.8594C50.1333 18.6837 50.362 18.4451 50.5078 18.1435C50.6536 17.8419 50.7266 17.4988 50.7266 17.1143C50.7266 16.7299 50.6536 16.3885 50.5078 16.0902C50.362 15.7919 50.1316 15.5582 49.8168 15.3892C49.5052 15.2202 49.0942 15.1357 48.5838 15.1357H46.6548V24H45.1186ZM53.9544 24V16.3636H55.3912V17.5767H55.4707C55.6099 17.1657 55.8552 16.8426 56.2065 16.6072C56.5611 16.3686 56.9622 16.2493 57.4096 16.2493C57.5024 16.2493 57.6118 16.2526 57.7377 16.2592C57.867 16.2659 57.9681 16.2741 58.041 16.2841V17.706C57.9814 17.6894 57.8753 17.6712 57.7228 17.6513C57.5704 17.6281 57.4179 17.6165 57.2654 17.6165C56.9141 17.6165 56.6009 17.6911 56.3258 17.8402C56.054 17.986 55.8386 18.1899 55.6795 18.4517C55.5204 18.7102 55.4409 19.0052 55.4409 19.3366V24H53.9544ZM62.3452 24.1541C61.5928 24.1541 60.9448 23.9934 60.4013 23.6719C59.861 23.3471 59.4434 22.8913 59.1484 22.3047C58.8568 21.7147 58.7109 21.0237 58.7109 20.2315C58.7109 19.4493 58.8568 18.7599 59.1484 18.1634C59.4434 17.5668 59.8544 17.1011 60.3814 16.7663C60.9117 16.4316 61.5315 16.2642 62.2408 16.2642C62.6716 16.2642 63.0893 16.3355 63.4936 16.478C63.898 16.6205 64.2609 16.8442 64.5824 17.1491C64.9039 17.4541 65.1574 17.8501 65.343 18.3374C65.5286 18.8213 65.6214 19.4096 65.6214 20.1023V20.6293H59.5511V19.5156H64.1648C64.1648 19.1245 64.0852 18.7782 63.9261 18.4766C63.767 18.1716 63.5433 17.9313 63.255 17.7557C62.9699 17.58 62.6352 17.4922 62.2507 17.4922C61.8331 17.4922 61.4685 17.5949 61.157 17.8004C60.8487 18.0026 60.6101 18.2678 60.4411 18.5959C60.2753 18.9207 60.1925 19.2737 60.1925 19.6548V20.5249C60.1925 21.0353 60.282 21.4695 60.4609 21.8274C60.6432 22.1854 60.8968 22.4588 61.2216 22.6477C61.5464 22.8333 61.9259 22.9261 62.3601 22.9261C62.6418 22.9261 62.8987 22.8864 63.1307 22.8068C63.3627 22.724 63.5632 22.6013 63.7322 22.4389C63.9013 22.2765 64.0305 22.076 64.12 21.8374L65.527 22.0909C65.4143 22.5052 65.2121 22.8681 64.9205 23.1797C64.6321 23.4879 64.2692 23.7282 63.8317 23.9006C63.3975 24.0696 62.902 24.1541 62.3452 24.1541ZM73.5847 16.3636L70.8155 24H69.2246L66.4505 16.3636H68.0463L69.9803 22.2401H70.0598L71.9888 16.3636H73.5847ZM74.9817 24V16.3636H76.4682V24H74.9817ZM75.7324 15.1854C75.4739 15.1854 75.2518 15.0992 75.0662 14.9268C74.8839 14.7512 74.7928 14.5424 74.7928 14.3004C74.7928 14.0552 74.8839 13.8464 75.0662 13.674C75.2518 13.4983 75.4739 13.4105 75.7324 13.4105C75.9909 13.4105 76.2114 13.4983 76.3936 13.674C76.5792 13.8464 76.6721 14.0552 76.6721 14.3004C76.6721 14.5424 76.5792 14.7512 76.3936 14.9268C76.2114 15.0992 75.9909 15.1854 75.7324 15.1854ZM81.6847 24.1541C80.9688 24.1541 80.344 23.9901 79.8104 23.6619C79.2768 23.3338 78.8625 22.8748 78.5675 22.2848C78.2725 21.6948 78.125 21.0054 78.125 20.2166C78.125 19.4245 78.2725 18.7318 78.5675 18.1385C78.8625 17.5452 79.2768 17.0845 79.8104 16.7564C80.344 16.4283 80.9688 16.2642 81.6847 16.2642C82.4006 16.2642 83.0253 16.4283 83.5589 16.7564C84.0926 17.0845 84.5069 17.5452 84.8018 18.1385C85.0968 18.7318 85.2443 19.4245 85.2443 20.2166C85.2443 21.0054 85.0968 21.6948 84.8018 22.2848C84.5069 22.8748 84.0926 23.3338 83.5589 23.6619C83.0253 23.9901 82.4006 24.1541 81.6847 24.1541ZM81.6896 22.9062C82.1536 22.9062 82.5381 22.7836 82.843 22.5384C83.148 22.2931 83.3733 21.9666 83.5192 21.5589C83.6683 21.1513 83.7429 20.7022 83.7429 20.2116C83.7429 19.7244 83.6683 19.277 83.5192 18.8693C83.3733 18.4583 83.148 18.1286 82.843 17.88C82.5381 17.6314 82.1536 17.5071 81.6896 17.5071C81.2223 17.5071 80.8345 17.6314 80.5263 17.88C80.2214 18.1286 79.9943 18.4583 79.8452 18.8693C79.6993 19.277 79.6264 19.7244 79.6264 20.2116C79.6264 20.7022 79.6993 21.1513 79.8452 21.5589C79.9943 21.9666 80.2214 22.2931 80.5263 22.5384C80.8345 22.7836 81.2223 22.9062 81.6896 22.9062ZM91.7409 20.8331V16.3636H93.2324V24H91.7708V22.6776H91.6912C91.5156 23.0852 91.2338 23.425 90.8461 23.6967C90.4616 23.9652 89.9827 24.0994 89.4093 24.0994C88.9187 24.0994 88.4846 23.9917 88.1067 23.7763C87.7322 23.5575 87.4372 23.2344 87.2218 22.8068C87.0096 22.3793 86.9036 21.8506 86.9036 21.2209V16.3636H88.3901V21.0419C88.3901 21.5623 88.5343 21.9766 88.8226 22.2848C89.111 22.593 89.4855 22.7472 89.9462 22.7472C90.2246 22.7472 90.5014 22.6776 90.7765 22.5384C91.0549 22.3991 91.2852 22.1887 91.4675 21.907C91.6531 21.6252 91.7443 21.2673 91.7409 20.8331ZM100.952 18.228L99.6048 18.4666C99.5484 18.2943 99.4589 18.1302 99.3363 17.9744C99.217 17.8187 99.0546 17.6911 98.8491 17.5916C98.6436 17.4922 98.3867 17.4425 98.0785 17.4425C97.6576 17.4425 97.3062 17.5369 97.0245 17.7259C96.7428 17.9115 96.6019 18.1518 96.6019 18.4467C96.6019 18.7019 96.6964 18.9074 96.8853 19.0632C97.0742 19.219 97.3791 19.3466 97.8001 19.446L99.0131 19.7244C99.7158 19.8868 100.239 20.1371 100.584 20.4751C100.929 20.8132 101.101 21.2524 101.101 21.7926C101.101 22.25 100.969 22.6577 100.703 23.0156C100.442 23.3703 100.075 23.6487 99.6048 23.8509C99.1374 24.053 98.5955 24.1541 97.979 24.1541C97.1239 24.1541 96.4263 23.9718 95.886 23.6072C95.3458 23.2393 95.0143 22.7173 94.8917 22.0412L96.3285 21.8224C96.418 22.197 96.6019 22.4804 96.8803 22.6726C97.1587 22.8615 97.5217 22.956 97.9691 22.956C98.4563 22.956 98.8458 22.8549 99.1374 22.6527C99.4291 22.4472 99.5749 22.197 99.5749 21.902C99.5749 21.6634 99.4854 21.4628 99.3065 21.3004C99.1308 21.138 98.8607 21.0154 98.4961 20.9325L97.2035 20.6491C96.4909 20.4867 95.9639 20.2282 95.6225 19.8736C95.2844 19.5189 95.1154 19.0698 95.1154 18.5263C95.1154 18.0755 95.2414 17.6811 95.4933 17.343C95.7451 17.005 96.0932 16.7415 96.5373 16.5526C96.9814 16.3603 97.4902 16.2642 98.0636 16.2642C98.8888 16.2642 99.5385 16.4432 100.012 16.8011C100.486 17.1558 100.8 17.6314 100.952 18.228Z" fill="#344054"/>
</g>
<defs>
<filter id="filter0_d_1_6593" x="0" y="0" width="118" height="40" filterUnits="userSpaceOnUse" color-interpolation-filters="sRGB">
<feFlood flood-opacity="0" result="BackgroundImageFix"/>
<feColorMatrix in="SourceAlpha" type="matrix" values="0 0 0 0 0 0 0 0 0 0 0 0 0 0 0 0 0 0 127 0" result="hardAlpha"/>
<feOffset dy="1"/>
<feGaussianBlur stdDeviation="1"/>
<feColorMatrix type="matrix" values="0 0 0 0 0.0627451 0 0 0 0 0.0941176 0 0 0 0 0.156863 0 0 0 0.05 0"/>
<feBlend mode="normal" in2="BackgroundImageFix" result="effect1_dropShadow_1_6593"/>
<feBlend mode="normal" in="SourceGraphic" in2="effect1_dropShadow_1_6593" result="shape"/>
</filter>
</defs>
</svg>
