<svg width="194" height="72" viewBox="0 0 194 72" fill="none" xmlns="http://www.w3.org/2000/svg">
<mask id="path-1-inside-1_1_6375" fill="white">
<path d="M0 0H194V72H0V0Z"/>
</mask>
<path d="M194 71H0V73H194V71Z" fill="#EAECF0" mask="url(#path-1-inside-1_1_6375)"/>
<g style="mix-blend-mode:multiply">
<rect x="24" y="25" width="124" height="22" rx="11" fill="#F5F6F7"/>
<path d="M34.5375 40L35.9693 31.2727H36.992L35.5602 40H34.5375ZM30.5872 37.6648L30.7534 36.642H37.367L37.2008 37.6648H30.5872ZM31.4693 40L32.9011 31.2727H33.9238L32.492 40H31.4693ZM31.0943 34.6307L31.2605 33.608H37.8741L37.7079 34.6307H31.0943ZM38.8883 40V39.0455L41.8414 35.9858C42.1568 35.6534 42.4167 35.3622 42.6213 35.1122C42.8287 34.8594 42.9835 34.6193 43.0858 34.392C43.188 34.1648 43.2392 33.9233 43.2392 33.6676C43.2392 33.3778 43.171 33.1278 43.0346 32.9176C42.8983 32.7045 42.7122 32.5412 42.4764 32.4276C42.2406 32.3111 41.975 32.2528 41.6795 32.2528C41.367 32.2528 41.0943 32.3168 40.8613 32.4446C40.6284 32.5724 40.4494 32.7528 40.3244 32.9858C40.1994 33.2187 40.1369 33.4915 40.1369 33.804H38.8798C38.8798 33.2727 39.002 32.8082 39.2463 32.4105C39.4906 32.0128 39.8258 31.7045 40.252 31.4858C40.6781 31.2642 41.1625 31.1534 41.7051 31.1534C42.2534 31.1534 42.7363 31.2628 43.1539 31.4815C43.5744 31.6974 43.9025 31.9929 44.1383 32.3679C44.3741 32.7401 44.492 33.1605 44.492 33.6293C44.492 33.9531 44.4309 34.2699 44.3088 34.5795C44.1895 34.8892 43.9806 35.2344 43.6824 35.6151C43.3841 35.9929 42.9693 36.4517 42.438 36.9915L40.7037 38.8068V38.8707H44.6326V40H38.8883ZM49.286 40.1193C48.7008 40.1193 48.1781 40.0185 47.7179 39.8168C47.2605 39.6151 46.8983 39.3352 46.6312 38.9773C46.367 38.6165 46.225 38.1989 46.2051 37.7244H47.5431C47.5602 37.983 47.6468 38.2074 47.8031 38.3977C47.9622 38.5852 48.1696 38.7301 48.4252 38.8324C48.6809 38.9347 48.965 38.9858 49.2775 38.9858C49.6213 38.9858 49.9252 38.9261 50.1895 38.8068C50.4565 38.6875 50.6653 38.5213 50.8159 38.3082C50.9664 38.0923 51.0417 37.8438 51.0417 37.5625C51.0417 37.2699 50.9664 37.0128 50.8159 36.7912C50.6681 36.5668 50.4508 36.3906 50.1639 36.2628C49.8798 36.1349 49.536 36.071 49.1326 36.071H48.3954V34.9972H49.1326C49.4565 34.9972 49.7406 34.9389 49.9849 34.8224C50.2321 34.706 50.4252 34.544 50.5645 34.3366C50.7037 34.1264 50.7733 33.8807 50.7733 33.5994C50.7733 33.3295 50.7122 33.0952 50.59 32.8963C50.4707 32.6946 50.3002 32.5369 50.0787 32.4233C49.8599 32.3097 49.6014 32.2528 49.3031 32.2528C49.019 32.2528 48.7534 32.3054 48.5062 32.4105C48.2619 32.5128 48.063 32.6605 47.9096 32.8537C47.7562 33.044 47.6738 33.2727 47.6625 33.5398H46.3883C46.4025 33.0682 46.5417 32.6534 46.8059 32.2955C47.073 31.9375 47.4252 31.6577 47.8627 31.456C48.3002 31.2543 48.786 31.1534 49.3201 31.1534C49.8798 31.1534 50.3627 31.2628 50.769 31.4815C51.1781 31.6974 51.4934 31.9858 51.715 32.3466C51.9395 32.7074 52.0502 33.1023 52.0474 33.5312C52.0502 34.0199 51.9139 34.4347 51.6383 34.7756C51.3656 35.1165 51.002 35.3452 50.5474 35.4616V35.5298C51.127 35.6179 51.5758 35.848 51.894 36.2202C52.215 36.5923 52.3741 37.054 52.3713 37.6051C52.3741 38.0852 52.2406 38.5156 51.9707 38.8963C51.7037 39.277 51.3386 39.5767 50.8755 39.7955C50.4125 40.0114 49.8826 40.1193 49.286 40.1193ZM53.7988 38.2955V37.2301L57.5701 31.2727H58.4096V32.8409H57.877L55.1795 37.1108V37.179H60.3485V38.2955H53.7988ZM57.9366 40V37.9716L57.9451 37.4858V31.2727H59.1937V40H57.9366ZM64.7143 40.1193C64.1802 40.1193 63.7001 40.017 63.274 39.8125C62.8507 39.6051 62.5126 39.321 62.2598 38.9602C62.0069 38.5994 61.872 38.1875 61.8549 37.7244H63.1333C63.1646 38.0994 63.3308 38.4077 63.6319 38.6491C63.9331 38.8906 64.2939 39.0114 64.7143 39.0114C65.0495 39.0114 65.3464 38.9347 65.6049 38.7812C65.8663 38.625 66.0708 38.4105 66.2186 38.1378C66.3691 37.8651 66.4444 37.554 66.4444 37.2045C66.4444 36.8494 66.3677 36.5327 66.2143 36.2543C66.0609 35.9759 65.8493 35.7571 65.5794 35.598C65.3123 35.4389 65.0055 35.358 64.6589 35.3551C64.3947 35.3551 64.1291 35.4006 63.862 35.4915C63.595 35.5824 63.3791 35.7017 63.2143 35.8494L62.0083 35.6705L62.4984 31.2727H67.2967V32.402H63.5936L63.3166 34.8438H63.3677C63.5382 34.679 63.764 34.5412 64.0453 34.4304C64.3294 34.3196 64.6333 34.2642 64.9572 34.2642C65.4885 34.2642 65.9615 34.3906 66.3762 34.6435C66.7939 34.8963 67.122 35.2415 67.3606 35.679C67.6021 36.1136 67.7214 36.6136 67.7186 37.179C67.7214 37.7443 67.5936 38.2486 67.3351 38.6918C67.0794 39.1349 66.7243 39.4844 66.2697 39.7401C65.818 39.9929 65.2995 40.1193 64.7143 40.1193ZM69.0918 38.2955V37.2301L72.8631 31.2727H73.7026V32.8409H73.1699L70.4725 37.1108V37.179H75.6415V38.2955H69.0918ZM73.2296 40V37.9716L73.2381 37.4858V31.2727H74.4867V40H73.2296ZM83.1522 34.0298C83.0698 33.7713 82.959 33.5398 82.8198 33.3352C82.6834 33.1278 82.5201 32.9517 82.3297 32.8068C82.1394 32.6591 81.9221 32.5469 81.6777 32.4702C81.4363 32.3935 81.1706 32.3551 80.8809 32.3551C80.3894 32.3551 79.9462 32.4815 79.5513 32.7344C79.1564 32.9872 78.8439 33.358 78.6138 33.8466C78.3865 34.3324 78.2729 34.9276 78.2729 35.6321C78.2729 36.3395 78.388 36.9375 78.6181 37.4261C78.8482 37.9148 79.1635 38.2855 79.5641 38.5384C79.9647 38.7912 80.4206 38.9176 80.932 38.9176C81.4064 38.9176 81.8198 38.821 82.1721 38.6278C82.5272 38.4347 82.8013 38.1619 82.9945 37.8097C83.1905 37.4545 83.2885 37.0369 83.2885 36.5568L83.6294 36.6207H81.1323V35.5341H84.5627V36.527C84.5627 37.2599 84.4064 37.8963 84.0939 38.4361C83.7843 38.973 83.3553 39.3878 82.807 39.6804C82.2615 39.973 81.6365 40.1193 80.932 40.1193C80.1422 40.1193 79.449 39.9375 78.8525 39.5739C78.2587 39.2102 77.7956 38.6946 77.4632 38.027C77.1309 37.3565 76.9647 36.5611 76.9647 35.6406C76.9647 34.9446 77.0613 34.3196 77.2544 33.7656C77.4476 33.2116 77.7189 32.7415 78.0684 32.3551C78.4206 31.9659 78.834 31.669 79.3084 31.4645C79.7857 31.2571 80.307 31.1534 80.8723 31.1534C81.3439 31.1534 81.7828 31.223 82.1891 31.3622C82.5982 31.5014 82.9618 31.6989 83.28 31.9545C83.601 32.2102 83.8667 32.5142 84.0769 32.8665C84.2871 33.2159 84.4292 33.6037 84.503 34.0298H83.1522ZM86.2342 40V31.2727H87.551V35.0653H91.9018V31.2727H93.2228V40H91.9018V36.1946H87.551V40H86.2342ZM98.068 40.1193C97.6788 40.1136 97.2953 40.0426 96.9174 39.9062C96.5424 39.7699 96.2015 39.5426 95.8947 39.2244C95.5879 38.9062 95.3422 38.4787 95.1575 37.9418C94.9757 37.4048 94.8848 36.7344 94.8848 35.9304C94.8848 35.169 94.96 34.4929 95.1106 33.902C95.264 33.3111 95.4842 32.8125 95.7711 32.4062C96.0581 31.9972 96.4047 31.6861 96.8109 31.473C97.2172 31.2599 97.6731 31.1534 98.1788 31.1534C98.6987 31.1534 99.1603 31.2557 99.5637 31.4602C99.9672 31.6648 100.294 31.9474 100.544 32.3082C100.797 32.669 100.957 33.0795 101.025 33.5398H99.7257C99.6376 33.1761 99.4629 32.8793 99.2015 32.6491C98.9402 32.419 98.5993 32.304 98.1788 32.304C97.5396 32.304 97.041 32.5824 96.6831 33.1392C96.3279 33.696 96.149 34.4702 96.1461 35.4616H96.21C96.3606 35.2145 96.5453 35.0043 96.764 34.831C96.9856 34.6548 97.2328 34.5199 97.5055 34.4261C97.7811 34.3295 98.0708 34.2812 98.3748 34.2812C98.8805 34.2812 99.3379 34.4048 99.747 34.652C100.159 34.8963 100.487 35.2344 100.731 35.6662C100.976 36.098 101.098 36.5923 101.098 37.1491C101.098 37.706 100.971 38.2102 100.719 38.6619C100.469 39.1136 100.116 39.4716 99.6618 39.7358C99.2072 39.9972 98.676 40.125 98.068 40.1193ZM98.0637 39.0114C98.399 39.0114 98.6987 38.929 98.9629 38.7642C99.2271 38.5994 99.4359 38.3778 99.5893 38.0994C99.7427 37.821 99.8194 37.5099 99.8194 37.1662C99.8194 36.831 99.7441 36.5256 99.5936 36.25C99.4458 35.9744 99.2413 35.7557 98.9799 35.5938C98.7214 35.4318 98.426 35.3509 98.0936 35.3509C97.8407 35.3509 97.6064 35.3991 97.3904 35.4957C97.1774 35.5923 96.9899 35.7259 96.8279 35.8963C96.666 36.0668 96.5382 36.2628 96.4444 36.4844C96.3535 36.7031 96.3081 36.9347 96.3081 37.179C96.3081 37.5057 96.3833 37.8082 96.5339 38.0866C96.6873 38.3651 96.8961 38.5895 97.1603 38.7599C97.4274 38.9276 97.7285 39.0114 98.0637 39.0114ZM106.161 31.2727H107.474V37.4602C107.474 38.0199 107.363 38.4986 107.142 38.8963C106.923 39.294 106.615 39.598 106.217 39.8082C105.819 40.0156 105.353 40.1193 104.819 40.1193C104.328 40.1193 103.886 40.0298 103.494 39.8509C103.105 39.6719 102.796 39.4119 102.569 39.071C102.345 38.7273 102.232 38.3097 102.232 37.8182H103.541C103.541 38.0597 103.596 38.2685 103.707 38.4446C103.82 38.6207 103.975 38.7585 104.171 38.858C104.37 38.9545 104.597 39.0028 104.853 39.0028C105.132 39.0028 105.367 38.9446 105.561 38.8281C105.757 38.7088 105.906 38.5341 106.008 38.304C106.11 38.0739 106.161 37.7926 106.161 37.4602V31.2727ZM109.565 40L113.375 32.4659V32.402H108.969V31.2727H114.738V32.4403L110.942 40H109.565ZM115.666 31.2727H117.162L119.442 35.2401H119.536L121.816 31.2727H123.311L120.145 36.5739V40H118.833V36.5739L115.666 31.2727ZM124.675 32.4062V31.2727H131.429V32.4062H128.706V40H127.394V32.4062H124.675ZM135.849 40.1193C135.46 40.1136 135.077 40.0426 134.699 39.9062C134.324 39.7699 133.983 39.5426 133.676 39.2244C133.369 38.9062 133.123 38.4787 132.939 37.9418C132.757 37.4048 132.666 36.7344 132.666 35.9304C132.666 35.169 132.741 34.4929 132.892 33.902C133.045 33.3111 133.265 32.8125 133.552 32.4062C133.839 31.9972 134.186 31.6861 134.592 31.473C134.998 31.2599 135.454 31.1534 135.96 31.1534C136.48 31.1534 136.942 31.2557 137.345 31.4602C137.748 31.6648 138.075 31.9474 138.325 32.3082C138.578 32.669 138.738 33.0795 138.807 33.5398H137.507C137.419 33.1761 137.244 32.8793 136.983 32.6491C136.721 32.419 136.381 32.304 135.96 32.304C135.321 32.304 134.822 32.5824 134.464 33.1392C134.109 33.696 133.93 34.4702 133.927 35.4616H133.991C134.142 35.2145 134.327 35.0043 134.545 34.831C134.767 34.6548 135.014 34.5199 135.287 34.4261C135.562 34.3295 135.852 34.2812 136.156 34.2812C136.662 34.2812 137.119 34.4048 137.528 34.652C137.94 34.8963 138.268 35.2344 138.513 35.6662C138.757 36.098 138.879 36.5923 138.879 37.1491C138.879 37.706 138.753 38.2102 138.5 38.6619C138.25 39.1136 137.898 39.4716 137.443 39.7358C136.988 39.9972 136.457 40.125 135.849 40.1193ZM135.845 39.0114C136.18 39.0114 136.48 38.929 136.744 38.7642C137.008 38.5994 137.217 38.3778 137.371 38.0994C137.524 37.821 137.601 37.5099 137.601 37.1662C137.601 36.831 137.525 36.5256 137.375 36.25C137.227 35.9744 137.023 35.7557 136.761 35.5938C136.503 35.4318 136.207 35.3509 135.875 35.3509C135.622 35.3509 135.388 35.3991 135.172 35.4957C134.959 35.5923 134.771 35.7259 134.609 35.8963C134.447 36.0668 134.319 36.2628 134.226 36.4844C134.135 36.7031 134.089 36.9347 134.089 37.179C134.089 37.5057 134.165 37.8082 134.315 38.0866C134.469 38.3651 134.677 38.5895 134.942 38.7599C135.209 38.9276 135.51 39.0114 135.845 39.0114Z" fill="#091E42"/>
</g>
</svg>
