<svg width="208" height="37" viewBox="0 0 208 37" fill="none" xmlns="http://www.w3.org/2000/svg">
<path fill-rule="evenodd" clip-rule="evenodd" d="M18.3334 20.289C18.3334 20.5582 18.1094 20.7767 17.8335 20.7767C17.5575 20.7767 17.3335 20.5582 17.3335 20.289V15.466C17.3335 13.9168 18.6256 12.6564 20.2144 12.6564H23.3784C24.9704 12.6564 26.2657 13.92 26.2657 15.4729V16.0626C26.2657 16.3311 26.0417 16.5497 25.7658 16.5497C25.4898 16.5497 25.2658 16.3311 25.2658 16.0626V15.4729C25.2658 14.457 24.4192 13.6318 23.3784 13.6318H20.2144C19.1769 13.6318 18.3334 14.4551 18.3334 15.466V20.289ZM25.2657 21.9175C25.2657 21.6483 25.4897 21.4298 25.7656 21.4298C26.0415 21.4298 26.2655 21.6483 26.2655 21.9175V22.5135C26.2655 24.0627 24.9735 25.3231 23.3847 25.3231H20.2201C18.6287 25.3231 17.3333 24.0595 17.3333 22.5065C17.3333 22.2373 17.5573 22.0195 17.8333 22.0195C18.1092 22.0195 18.3332 22.2373 18.3332 22.5065C18.3332 23.5224 19.1799 24.3477 20.2201 24.3477H23.3847C24.4222 24.3477 25.2657 23.525 25.2657 22.5135V21.9175ZM30.6289 18.8037C30.5516 18.6206 30.3692 18.5015 30.1666 18.5015H22.3661C22.0901 18.5015 21.8655 18.7207 21.8655 18.9899C21.8655 19.259 22.0901 19.4775 22.3661 19.4775H28.9563L27.9168 20.4871C27.7207 20.6771 27.7207 20.9856 27.9155 21.1769C28.0129 21.2725 28.1415 21.3206 28.2694 21.3206C28.3973 21.3206 28.5245 21.2725 28.6226 21.1781L30.5198 19.3357C30.6626 19.1963 30.7061 18.9861 30.6289 18.8037ZM28.7479 18.0969C28.6206 18.0969 28.4934 18.0494 28.396 17.9557L27.9175 17.4939C27.7214 17.3046 27.7201 16.9955 27.9142 16.8048C28.109 16.6123 28.4245 16.611 28.6213 16.801L29.0992 17.2621C29.2959 17.4521 29.2972 17.7606 29.1031 17.9519C29.005 18.0481 28.8765 18.0969 28.7479 18.0969Z" fill="#091E42"/>
<path d="M45.1449 23.9897V14.5352H46.2898V22.9741H50.6847V23.9897H45.1449ZM55.1903 24.1375C54.5502 24.1375 53.9885 23.9851 53.5053 23.6804C53.0252 23.3758 52.6497 22.9495 52.3789 22.4017C52.1112 21.8539 51.9773 21.2137 51.9773 20.4812C51.9773 19.7426 52.1112 19.0978 52.3789 18.5469C52.6497 17.996 53.0252 17.5682 53.5053 17.2635C53.9885 16.9589 54.5502 16.8065 55.1903 16.8065C55.8305 16.8065 56.3906 16.9589 56.8707 17.2635C57.3539 17.5682 57.7294 17.996 57.9972 18.5469C58.268 19.0978 58.4034 19.7426 58.4034 20.4812C58.4034 21.2137 58.268 21.8539 57.9972 22.4017C57.7294 22.9495 57.3539 23.3758 56.8707 23.6804C56.3906 23.9851 55.8305 24.1375 55.1903 24.1375ZM55.1903 23.1588C55.6766 23.1588 56.0767 23.0341 56.3906 22.7848C56.7045 22.5356 56.9369 22.2078 57.0877 21.8015C57.2385 21.3953 57.3139 20.9552 57.3139 20.4812C57.3139 20.0073 57.2385 19.5656 57.0877 19.1563C56.9369 18.747 56.7045 18.4161 56.3906 18.1638C56.0767 17.9114 55.6766 17.7852 55.1903 17.7852C54.7041 17.7852 54.304 17.9114 53.9901 18.1638C53.6761 18.4161 53.4438 18.747 53.293 19.1563C53.1422 19.5656 53.0668 20.0073 53.0668 20.4812C53.0668 20.9552 53.1422 21.3953 53.293 21.8015C53.4438 22.2078 53.6761 22.5356 53.9901 22.7848C54.304 23.0341 54.7041 23.1588 55.1903 23.1588ZM62.9287 26.7966C62.4024 26.7966 61.95 26.7289 61.5715 26.5934C61.1929 26.4611 60.8775 26.2857 60.6251 26.0672C60.3758 25.8517 60.1773 25.6209 60.0296 25.3747L60.8975 24.7653C60.9959 24.8946 61.1206 25.0423 61.2714 25.2085C61.4222 25.3778 61.6284 25.524 61.89 25.6471C62.1547 25.7732 62.5009 25.8363 62.9287 25.8363C63.5012 25.8363 63.9736 25.6978 64.346 25.4209C64.7184 25.1439 64.9046 24.7099 64.9046 24.119V22.6787H64.8122C64.7322 22.8079 64.6183 22.968 64.4706 23.1588C64.326 23.3465 64.1167 23.5142 63.8428 23.662C63.5719 23.8066 63.2057 23.879 62.7441 23.879C62.1716 23.879 61.6576 23.7435 61.2021 23.4727C60.7497 23.2019 60.3912 22.8079 60.1265 22.2909C59.8649 21.7738 59.7341 21.146 59.7341 20.4074C59.7341 19.681 59.8618 19.0486 60.1173 18.51C60.3727 17.9683 60.7282 17.5498 61.1837 17.2543C61.6392 16.9558 62.1655 16.8065 62.7625 16.8065C63.2242 16.8065 63.5904 16.8834 63.8612 17.0373C64.1352 17.1881 64.3444 17.3605 64.4891 17.5544C64.6368 17.7452 64.7507 17.9022 64.8307 18.0253H64.9415V16.8988H65.9941V24.1929C65.9941 24.8022 65.8556 25.2977 65.5786 25.6794C65.3047 26.0641 64.9353 26.3457 64.4706 26.5242C64.009 26.7058 63.495 26.7966 62.9287 26.7966ZM62.8918 22.9003C63.3288 22.9003 63.6981 22.8002 63.9997 22.6002C64.3013 22.4001 64.5306 22.1124 64.6876 21.7369C64.8445 21.3614 64.923 20.9121 64.923 20.3889C64.923 19.878 64.8461 19.4271 64.6922 19.0363C64.5383 18.6454 64.3106 18.3392 64.009 18.1176C63.7074 17.896 63.335 17.7852 62.8918 17.7852C62.4301 17.7852 62.0454 17.9022 61.7377 18.1361C61.433 18.37 61.2037 18.6839 61.0498 19.0778C60.899 19.4718 60.8236 19.9088 60.8236 20.3889C60.8236 20.8813 60.9005 21.3168 61.0544 21.6954C61.2114 22.0708 61.4422 22.3663 61.7469 22.5817C62.0547 22.7941 62.4363 22.9003 62.8918 22.9003ZM74.5253 24.1375C73.8852 24.1375 73.3235 23.9851 72.8403 23.6804C72.3602 23.3758 71.9847 22.9495 71.7139 22.4017C71.4461 21.8539 71.3122 21.2137 71.3122 20.4812C71.3122 19.7426 71.4461 19.0978 71.7139 18.5469C71.9847 17.996 72.3602 17.5682 72.8403 17.2635C73.3235 16.9589 73.8852 16.8065 74.5253 16.8065C75.1655 16.8065 75.7256 16.9589 76.2057 17.2635C76.6889 17.5682 77.0644 17.996 77.3321 18.5469C77.603 19.0978 77.7384 19.7426 77.7384 20.4812C77.7384 21.2137 77.603 21.8539 77.3321 22.4017C77.0644 22.9495 76.6889 23.3758 76.2057 23.6804C75.7256 23.9851 75.1655 24.1375 74.5253 24.1375ZM74.5253 23.1588C75.0116 23.1588 75.4117 23.0341 75.7256 22.7848C76.0395 22.5356 76.2719 22.2078 76.4227 21.8015C76.5735 21.3953 76.6489 20.9552 76.6489 20.4812C76.6489 20.0073 76.5735 19.5656 76.4227 19.1563C76.2719 18.747 76.0395 18.4161 75.7256 18.1638C75.4117 17.9114 75.0116 17.7852 74.5253 17.7852C74.039 17.7852 73.6389 17.9114 73.325 18.1638C73.0111 18.4161 72.7787 18.747 72.6279 19.1563C72.4771 19.5656 72.4017 20.0073 72.4017 20.4812C72.4017 20.9552 72.4771 21.3953 72.6279 21.8015C72.7787 22.2078 73.0111 22.5356 73.325 22.7848C73.6389 23.0341 74.039 23.1588 74.5253 23.1588ZM83.8702 21.0906V16.8988H84.9597V23.9897H83.8702V22.7895H83.7963C83.6301 23.1495 83.3716 23.4558 83.0208 23.7081C82.6699 23.9574 82.2267 24.0821 81.6912 24.0821C81.248 24.0821 80.8541 23.9851 80.5094 23.7912C80.1647 23.5943 79.8939 23.2988 79.6969 22.9049C79.4999 22.5079 79.4015 22.0077 79.4015 21.4045V16.8988H80.4909V21.3307C80.4909 21.8477 80.6356 22.2601 80.9249 22.5679C81.2173 22.8756 81.5897 23.0295 82.0421 23.0295C82.3129 23.0295 82.5884 22.9603 82.8684 22.8218C83.1516 22.6833 83.3886 22.4709 83.5794 22.1847C83.7733 21.8985 83.8702 21.5338 83.8702 21.0906ZM90.039 16.8988V17.8221H86.3643V16.8988H90.039ZM87.4353 15.2H88.5248V21.9585C88.5248 22.2663 88.5694 22.4971 88.6586 22.651C88.751 22.8018 88.8679 22.9033 89.0095 22.9557C89.1541 23.0049 89.3065 23.0295 89.4665 23.0295C89.5866 23.0295 89.685 23.0234 89.762 23.0111C89.8389 22.9957 89.9005 22.9834 89.9466 22.9741L90.1682 23.9528C90.0944 23.9805 89.9913 24.0082 89.8589 24.0359C89.7266 24.0667 89.5589 24.0821 89.3557 24.0821C89.048 24.0821 88.7464 24.0159 88.4509 23.8836C88.1585 23.7512 87.9154 23.5496 87.7215 23.2788C87.5307 23.008 87.4353 22.6664 87.4353 22.254V15.2Z" fill="#091E42"/>
</svg>
