<svg width="345" height="72" viewBox="0 0 345 72" fill="none" xmlns="http://www.w3.org/2000/svg">
<mask id="path-1-inside-1_1_6330" fill="white">
<path d="M0 0H345V72H0V0Z"/>
</mask>
<path d="M345 71H0V73H345V71Z" fill="#EAECF0" mask="url(#path-1-inside-1_1_6330)"/>
<rect x="24.5" y="26.5" width="19" height="19" rx="5.5" fill="white"/>
<rect x="24.5" y="26.5" width="19" height="19" rx="5.5" stroke="#D0D5DD"/>
<rect x="56" y="16" width="40" height="40" rx="20" fill="#FFF2EA"/>
<path d="M70.7537 30.8182H72.5833V37.9773C72.58 38.6335 72.4408 39.1986 72.1657 39.6726C71.8906 40.1432 71.5061 40.5062 71.0123 40.7614C70.5217 41.0133 69.95 41.1392 69.2971 41.1392C68.7005 41.1392 68.1635 41.0331 67.6863 40.821C67.2123 40.6056 66.8361 40.2874 66.5577 39.8665C66.2793 39.4455 66.1401 38.9219 66.1401 38.2955H67.9746C67.9779 38.5705 68.0376 38.8075 68.1536 39.0064C68.2729 39.2053 68.437 39.3577 68.6458 39.4638C68.8546 39.5698 69.0949 39.6229 69.3667 39.6229C69.6616 39.6229 69.9119 39.5616 70.1174 39.4389C70.3229 39.313 70.4786 39.1274 70.5847 38.8821C70.6941 38.6368 70.7504 38.3352 70.7537 37.9773V30.8182ZM74.5843 30.8182H76.8414L79.8642 38.196H79.9835L83.0062 30.8182H85.2633V41H83.4934V34.005H83.399L80.585 40.9702H79.2626L76.4487 33.9901H76.3542V41H74.5843V30.8182Z" fill="#93312B"/>
<path d="M113.076 20.8182H114.607V28.0369C114.607 28.6899 114.478 29.2483 114.219 29.7124C113.964 30.1764 113.605 30.531 113.141 30.7763C112.677 31.0182 112.133 31.1392 111.51 31.1392C110.937 31.1392 110.421 31.0348 109.964 30.826C109.51 30.6172 109.15 30.3139 108.885 29.9162C108.623 29.5152 108.492 29.0279 108.492 28.4545H110.018C110.018 28.7363 110.083 28.9799 110.212 29.1854C110.345 29.3909 110.526 29.5516 110.754 29.6676C110.986 29.7803 111.251 29.8366 111.55 29.8366C111.875 29.8366 112.15 29.7687 112.375 29.6328C112.604 29.4936 112.778 29.2898 112.897 29.0213C113.016 28.7528 113.076 28.4247 113.076 28.0369V20.8182ZM118.946 31.169C118.462 31.169 118.025 31.0795 117.634 30.9006C117.243 30.7183 116.933 30.4548 116.704 30.1101C116.479 29.7654 116.366 29.3428 116.366 28.8423C116.366 28.4115 116.449 28.0568 116.615 27.7784C116.78 27.5 117.004 27.2796 117.286 27.1172C117.567 26.9548 117.882 26.8321 118.23 26.7493C118.578 26.6664 118.933 26.6035 119.294 26.5604C119.752 26.5073 120.123 26.4643 120.408 26.4311C120.693 26.3946 120.9 26.3366 121.029 26.2571C121.159 26.1776 121.223 26.0483 121.223 25.8693V25.8345C121.223 25.4003 121.101 25.0639 120.855 24.8253C120.613 24.5866 120.252 24.4673 119.771 24.4673C119.271 24.4673 118.877 24.5784 118.588 24.8004C118.303 25.0192 118.106 25.2628 117.997 25.5312L116.6 25.2131C116.765 24.7491 117.007 24.3745 117.325 24.0895C117.647 23.8011 118.017 23.5923 118.434 23.4631C118.852 23.3305 119.291 23.2642 119.752 23.2642C120.057 23.2642 120.38 23.3007 120.721 23.3736C121.066 23.4432 121.387 23.5724 121.686 23.7614C121.987 23.9503 122.234 24.2204 122.426 24.5717C122.619 24.9197 122.715 25.3722 122.715 25.929V31H121.263V29.956H121.203C121.107 30.1482 120.963 30.3371 120.771 30.5227C120.579 30.7083 120.332 30.8625 120.03 30.9851C119.728 31.1077 119.367 31.169 118.946 31.169ZM119.269 29.9759C119.68 29.9759 120.032 29.8946 120.323 29.7322C120.618 29.5698 120.842 29.3577 120.994 29.0959C121.15 28.8307 121.228 28.5473 121.228 28.2457V27.2614C121.175 27.3144 121.072 27.3641 120.92 27.4105C120.771 27.4536 120.6 27.4917 120.408 27.5249C120.216 27.5547 120.028 27.5829 119.846 27.6094C119.664 27.6326 119.511 27.6525 119.389 27.669C119.1 27.7055 118.837 27.7668 118.598 27.853C118.363 27.9392 118.174 28.0634 118.031 28.2259C117.892 28.3849 117.823 28.5971 117.823 28.8622C117.823 29.2301 117.959 29.5085 118.23 29.6974C118.502 29.883 118.848 29.9759 119.269 29.9759ZM124.695 31V23.3636H126.121V24.6065H126.216C126.375 24.1856 126.635 23.8575 126.996 23.6222C127.358 23.3835 127.79 23.2642 128.294 23.2642C128.804 23.2642 129.232 23.3835 129.577 23.6222C129.925 23.8608 130.182 24.1889 130.347 24.6065H130.427C130.609 24.1989 130.899 23.8741 131.297 23.6321C131.695 23.3868 132.169 23.2642 132.719 23.2642C133.411 23.2642 133.977 23.4813 134.414 23.9155C134.855 24.3497 135.075 25.0043 135.075 25.8793V31H133.589V26.0185C133.589 25.5014 133.448 25.1269 133.166 24.8949C132.884 24.6629 132.548 24.5469 132.157 24.5469C131.673 24.5469 131.297 24.696 131.028 24.9943C130.76 25.2893 130.626 25.6688 130.626 26.1328V31H129.144V25.924C129.144 25.5097 129.015 25.1766 128.756 24.9247C128.498 24.6728 128.161 24.5469 127.747 24.5469C127.465 24.5469 127.205 24.6214 126.967 24.7706C126.731 24.9164 126.541 25.1203 126.395 25.3821C126.252 25.6439 126.181 25.9472 126.181 26.2919V31H124.695ZM140.359 31.1541C139.606 31.1541 138.959 30.9934 138.415 30.6719C137.875 30.3471 137.457 29.8913 137.162 29.3047C136.87 28.7147 136.725 28.0237 136.725 27.2315C136.725 26.4493 136.87 25.7599 137.162 25.1634C137.457 24.5668 137.868 24.1011 138.395 23.7663C138.925 23.4316 139.545 23.2642 140.254 23.2642C140.685 23.2642 141.103 23.3355 141.507 23.478C141.912 23.6205 142.275 23.8442 142.596 24.1491C142.918 24.4541 143.171 24.8501 143.357 25.3374C143.542 25.8213 143.635 26.4096 143.635 27.1023V27.6293H137.565V26.5156H142.178C142.178 26.1245 142.099 25.7782 141.94 25.4766C141.781 25.1716 141.557 24.9313 141.269 24.7557C140.984 24.58 140.649 24.4922 140.264 24.4922C139.847 24.4922 139.482 24.5949 139.171 24.8004C138.862 25.0026 138.624 25.2678 138.455 25.5959C138.289 25.9207 138.206 26.2737 138.206 26.6548V27.5249C138.206 28.0353 138.296 28.4695 138.475 28.8274C138.657 29.1854 138.91 29.4588 139.235 29.6477C139.56 29.8333 139.94 29.9261 140.374 29.9261C140.655 29.9261 140.912 29.8864 141.144 29.8068C141.376 29.724 141.577 29.6013 141.746 29.4389C141.915 29.2765 142.044 29.076 142.134 28.8374L143.541 29.0909C143.428 29.5052 143.226 29.8681 142.934 30.1797C142.646 30.4879 142.283 30.7282 141.845 30.9006C141.411 31.0696 140.916 31.1541 140.359 31.1541ZM151.007 25.228L149.659 25.4666C149.603 25.2943 149.514 25.1302 149.391 24.9744C149.272 24.8187 149.109 24.6911 148.904 24.5916C148.698 24.4922 148.441 24.4425 148.133 24.4425C147.712 24.4425 147.361 24.5369 147.079 24.7259C146.797 24.9115 146.657 25.1518 146.657 25.4467C146.657 25.7019 146.751 25.9074 146.94 26.0632C147.129 26.219 147.434 26.3466 147.855 26.446L149.068 26.7244C149.77 26.8868 150.294 27.1371 150.639 27.4751C150.984 27.8132 151.156 28.2524 151.156 28.7926C151.156 29.25 151.023 29.6577 150.758 30.0156C150.496 30.3703 150.13 30.6487 149.659 30.8509C149.192 31.053 148.65 31.1541 148.034 31.1541C147.179 31.1541 146.481 30.9718 145.941 30.6072C145.4 30.2393 145.069 29.7173 144.946 29.0412L146.383 28.8224C146.473 29.197 146.657 29.4804 146.935 29.6726C147.213 29.8615 147.576 29.956 148.024 29.956C148.511 29.956 148.9 29.8549 149.192 29.6527C149.484 29.4472 149.63 29.197 149.63 28.902C149.63 28.6634 149.54 28.4628 149.361 28.3004C149.185 28.138 148.915 28.0154 148.551 27.9325L147.258 27.6491C146.546 27.4867 146.019 27.2282 145.677 26.8736C145.339 26.5189 145.17 26.0698 145.17 25.5263C145.17 25.0755 145.296 24.6811 145.548 24.343C145.8 24.005 146.148 23.7415 146.592 23.5526C147.036 23.3603 147.545 23.2642 148.118 23.2642C148.944 23.2642 149.593 23.4432 150.067 23.8011C150.541 24.1558 150.854 24.6314 151.007 25.228ZM156.615 20.8182H158.479L161.721 28.733H161.84L165.081 20.8182H166.946V31H165.484V23.6321H165.39L162.387 30.9851H161.174L158.171 23.6271H158.076V31H156.615V20.8182ZM173.897 27.8331V23.3636H175.389V31H173.927V29.6776H173.847C173.672 30.0852 173.39 30.425 173.002 30.6967C172.618 30.9652 172.139 31.0994 171.566 31.0994C171.075 31.0994 170.641 30.9917 170.263 30.7763C169.888 30.5575 169.593 30.2344 169.378 29.8068C169.166 29.3793 169.06 28.8506 169.06 28.2209V23.3636H170.546V28.0419C170.546 28.5623 170.691 28.9766 170.979 29.2848C171.267 29.593 171.642 29.7472 172.102 29.7472C172.381 29.7472 172.658 29.6776 172.933 29.5384C173.211 29.3991 173.441 29.1887 173.624 28.907C173.809 28.6252 173.901 28.2673 173.897 27.8331ZM177.386 31V23.3636H178.823V24.5767H178.902C179.042 24.1657 179.287 23.8426 179.638 23.6072C179.993 23.3686 180.394 23.2493 180.841 23.2493C180.934 23.2493 181.043 23.2526 181.169 23.2592C181.299 23.2659 181.4 23.2741 181.473 23.2841V24.706C181.413 24.6894 181.307 24.6712 181.154 24.6513C181.002 24.6281 180.85 24.6165 180.697 24.6165C180.346 24.6165 180.033 24.6911 179.757 24.8402C179.486 24.986 179.27 25.1899 179.111 25.4517C178.952 25.7102 178.873 26.0052 178.873 26.3366V31H177.386ZM182.759 31V23.3636H184.246V31H182.759ZM183.51 22.1854C183.251 22.1854 183.029 22.0992 182.844 21.9268C182.661 21.7512 182.57 21.5424 182.57 21.3004C182.57 21.0552 182.661 20.8464 182.844 20.674C183.029 20.4983 183.251 20.4105 183.51 20.4105C183.768 20.4105 183.989 20.4983 184.171 20.674C184.357 20.8464 184.449 21.0552 184.449 21.3004C184.449 21.5424 184.357 21.7512 184.171 21.9268C183.989 22.0992 183.768 22.1854 183.51 22.1854ZM189.537 31.1541C188.784 31.1541 188.136 30.9934 187.593 30.6719C187.052 30.3471 186.635 29.8913 186.34 29.3047C186.048 28.7147 185.902 28.0237 185.902 27.2315C185.902 26.4493 186.048 25.7599 186.34 25.1634C186.635 24.5668 187.046 24.1011 187.573 23.7663C188.103 23.4316 188.723 23.2642 189.432 23.2642C189.863 23.2642 190.281 23.3355 190.685 23.478C191.089 23.6205 191.452 23.8442 191.774 24.1491C192.095 24.4541 192.349 24.8501 192.534 25.3374C192.72 25.8213 192.813 26.4096 192.813 27.1023V27.6293H186.743V26.5156H191.356C191.356 26.1245 191.277 25.7782 191.118 25.4766C190.958 25.1716 190.735 24.9313 190.446 24.7557C190.161 24.58 189.827 24.4922 189.442 24.4922C189.025 24.4922 188.66 24.5949 188.348 24.8004C188.04 25.0026 187.801 25.2678 187.632 25.5959C187.467 25.9207 187.384 26.2737 187.384 26.6548V27.5249C187.384 28.0353 187.473 28.4695 187.652 28.8274C187.835 29.1854 188.088 29.4588 188.413 29.6477C188.738 29.8333 189.117 29.9261 189.551 29.9261C189.833 29.9261 190.09 29.8864 190.322 29.8068C190.554 29.724 190.755 29.6013 190.924 29.4389C191.093 29.2765 191.222 29.076 191.311 28.8374L192.718 29.0909C192.606 29.5052 192.404 29.8681 192.112 30.1797C191.824 30.4879 191.461 30.7282 191.023 30.9006C190.589 31.0696 190.093 31.1541 189.537 31.1541ZM195.949 20.8182V31H194.462V20.8182H195.949Z" fill="#101828"/>
<path d="M113.131 40.8182H114.364V48.0966C114.364 48.7462 114.244 49.2981 114.006 49.7521C113.767 50.2062 113.431 50.5509 112.996 50.7862C112.562 51.0215 112.05 51.1392 111.46 51.1392C110.903 51.1392 110.408 51.0381 109.974 50.8359C109.54 50.6304 109.198 50.3388 108.95 49.9609C108.701 49.5831 108.577 49.134 108.577 48.6136H109.79C109.79 48.902 109.861 49.1539 110.004 49.3693C110.149 49.5814 110.348 49.7472 110.6 49.8665C110.852 49.9858 111.139 50.0455 111.46 50.0455C111.815 50.0455 112.116 49.9709 112.365 49.8217C112.614 49.6726 112.803 49.4538 112.932 49.1655C113.064 48.8738 113.131 48.5175 113.131 48.0966V40.8182ZM118.923 51.179C118.439 51.179 118 51.0878 117.605 50.9055C117.211 50.7199 116.897 50.4531 116.665 50.1051C116.433 49.7538 116.317 49.3295 116.317 48.8324C116.317 48.3949 116.404 48.0402 116.576 47.7685C116.748 47.4934 116.979 47.2779 117.267 47.1222C117.555 46.9664 117.874 46.8504 118.222 46.7741C118.573 46.6946 118.926 46.6316 119.281 46.5852C119.745 46.5256 120.121 46.4808 120.409 46.451C120.701 46.4179 120.913 46.3632 121.045 46.2869C121.181 46.2107 121.249 46.0781 121.249 45.8892V45.8494C121.249 45.3589 121.115 44.9777 120.847 44.706C120.581 44.4342 120.179 44.2983 119.638 44.2983C119.078 44.2983 118.639 44.4209 118.321 44.6662C118.003 44.9115 117.779 45.1733 117.65 45.4517L116.536 45.054C116.735 44.59 117 44.2287 117.332 43.9702C117.666 43.7083 118.031 43.526 118.425 43.4233C118.823 43.3172 119.214 43.2642 119.599 43.2642C119.844 43.2642 120.126 43.294 120.444 43.3537C120.765 43.41 121.075 43.5277 121.374 43.7067C121.675 43.8857 121.925 44.1558 122.124 44.517C122.323 44.8783 122.423 45.3622 122.423 45.9688V51H121.249V49.9659H121.19C121.11 50.1316 120.978 50.3089 120.792 50.4979C120.606 50.6868 120.359 50.8475 120.051 50.9801C119.743 51.1127 119.367 51.179 118.923 51.179ZM119.102 50.125C119.566 50.125 119.957 50.0339 120.275 49.8516C120.596 49.6693 120.838 49.4339 121.001 49.1456C121.166 48.8572 121.249 48.554 121.249 48.2358V47.1619C121.2 47.2216 121.09 47.2763 120.921 47.326C120.755 47.3724 120.563 47.4138 120.344 47.4503C120.129 47.4834 119.919 47.5133 119.713 47.5398C119.511 47.563 119.347 47.5829 119.221 47.5994C118.916 47.6392 118.631 47.7038 118.366 47.7933C118.104 47.8795 117.892 48.0104 117.729 48.1861C117.57 48.3584 117.491 48.5937 117.491 48.892C117.491 49.2997 117.642 49.608 117.943 49.8168C118.248 50.0223 118.634 50.125 119.102 50.125ZM124.564 51V43.3636H125.698V44.5568H125.797C125.956 44.1491 126.213 43.8326 126.568 43.6072C126.922 43.3786 127.348 43.2642 127.845 43.2642C128.349 43.2642 128.768 43.3786 129.103 43.6072C129.441 43.8326 129.705 44.1491 129.894 44.5568H129.973C130.169 44.1624 130.462 43.8492 130.853 43.6172C131.244 43.3819 131.713 43.2642 132.26 43.2642C132.943 43.2642 133.501 43.478 133.936 43.9055C134.37 44.3298 134.587 44.991 134.587 45.8892V51H133.414V45.8892C133.414 45.3258 133.259 44.9231 132.951 44.6811C132.643 44.4392 132.28 44.3182 131.862 44.3182C131.325 44.3182 130.91 44.4806 130.615 44.8054C130.32 45.1269 130.172 45.5346 130.172 46.0284V51H128.979V45.7699C128.979 45.3357 128.838 44.986 128.556 44.7209C128.275 44.4524 127.912 44.3182 127.468 44.3182C127.163 44.3182 126.878 44.3994 126.612 44.5618C126.351 44.7242 126.138 44.9496 125.976 45.2379C125.817 45.523 125.737 45.8527 125.737 46.2273V51H124.564ZM139.934 51.1591C139.198 51.1591 138.563 50.9967 138.03 50.6719C137.499 50.3438 137.09 49.8864 136.802 49.2997C136.517 48.7098 136.374 48.0237 136.374 47.2415C136.374 46.4593 136.517 45.7699 136.802 45.1733C137.09 44.5734 137.491 44.1061 138.005 43.7713C138.522 43.4332 139.125 43.2642 139.814 43.2642C140.212 43.2642 140.605 43.3305 140.993 43.4631C141.381 43.5956 141.733 43.8111 142.052 44.1094C142.37 44.4044 142.623 44.7955 142.812 45.2827C143.001 45.7699 143.096 46.3698 143.096 47.0824V47.5795H137.209V46.5653H141.903C141.903 46.1345 141.816 45.75 141.644 45.4119C141.475 45.0739 141.233 44.8071 140.918 44.6115C140.607 44.416 140.239 44.3182 139.814 44.3182C139.347 44.3182 138.943 44.4342 138.601 44.6662C138.263 44.8949 138.003 45.1932 137.821 45.5611C137.639 45.929 137.547 46.3234 137.547 46.7443V47.4205C137.547 47.9972 137.647 48.486 137.846 48.8871C138.048 49.2848 138.328 49.5881 138.686 49.7969C139.044 50.0024 139.46 50.1051 139.934 50.1051C140.242 50.1051 140.52 50.062 140.769 49.9759C141.021 49.8864 141.238 49.7538 141.42 49.5781C141.603 49.3991 141.743 49.1771 141.843 48.9119L142.976 49.2301C142.857 49.6146 142.657 49.9527 142.375 50.2443C142.093 50.5327 141.745 50.758 141.331 50.9205C140.916 51.0795 140.451 51.1591 139.934 51.1591ZM150.29 45.0739L149.236 45.3722C149.169 45.1965 149.072 45.0258 148.942 44.8601C148.816 44.6911 148.644 44.5518 148.425 44.4425C148.206 44.3331 147.926 44.2784 147.585 44.2784C147.118 44.2784 146.728 44.3861 146.417 44.6016C146.108 44.8137 145.954 45.0838 145.954 45.4119C145.954 45.7036 146.06 45.9339 146.273 46.103C146.485 46.272 146.816 46.4129 147.267 46.5256L148.4 46.804C149.083 46.9697 149.592 47.2232 149.927 47.5646C150.261 47.9027 150.429 48.3385 150.429 48.8722C150.429 49.3097 150.303 49.7008 150.051 50.0455C149.802 50.3902 149.454 50.6619 149.007 50.8608C148.559 51.0597 148.039 51.1591 147.446 51.1591C146.667 51.1591 146.022 50.9901 145.512 50.652C145.001 50.3139 144.678 49.8201 144.542 49.1705L145.656 48.892C145.762 49.303 145.963 49.6113 146.258 49.8168C146.556 50.0223 146.945 50.125 147.426 50.125C147.973 50.125 148.407 50.009 148.729 49.777C149.053 49.5417 149.216 49.2599 149.216 48.9318C149.216 48.6667 149.123 48.4446 148.937 48.2656C148.752 48.0833 148.467 47.9474 148.082 47.858L146.809 47.5597C146.11 47.3939 145.596 47.1371 145.268 46.7891C144.943 46.4377 144.781 45.9986 144.781 45.4716C144.781 45.0407 144.902 44.6596 145.144 44.3281C145.389 43.9967 145.722 43.7365 146.143 43.5476C146.568 43.3587 147.048 43.2642 147.585 43.2642C148.341 43.2642 148.934 43.4299 149.365 43.7614C149.799 44.0928 150.107 44.5303 150.29 45.0739ZM152.354 40.8182H153.826L157.286 49.2699H157.405L160.865 40.8182H162.337V51H161.184V43.2642H161.084L157.902 51H156.789L153.607 43.2642H153.507V51H152.354V40.8182ZM169.463 47.8778V43.3636H170.636V51H169.463V49.7074H169.383C169.204 50.0952 168.926 50.425 168.548 50.6967C168.17 50.9652 167.693 51.0994 167.116 51.0994C166.639 51.0994 166.214 50.995 165.843 50.7862C165.472 50.5741 165.18 50.2559 164.968 49.8317C164.756 49.4041 164.65 48.8655 164.65 48.2159V43.3636H165.823V48.1364C165.823 48.6932 165.979 49.1373 166.291 49.4688C166.606 49.8002 167.007 49.9659 167.494 49.9659C167.785 49.9659 168.082 49.8913 168.384 49.7422C168.689 49.593 168.944 49.3643 169.149 49.0561C169.358 48.7479 169.463 48.3551 169.463 47.8778ZM172.785 51V43.3636H173.918V44.517H173.998C174.137 44.1392 174.389 43.8326 174.754 43.5973C175.118 43.362 175.529 43.2443 175.987 43.2443C176.073 43.2443 176.18 43.246 176.31 43.2493C176.439 43.2526 176.537 43.2576 176.603 43.2642V44.4574C176.563 44.4474 176.472 44.4325 176.33 44.4126C176.19 44.3894 176.043 44.3778 175.887 44.3778C175.516 44.3778 175.184 44.4557 174.893 44.6115C174.604 44.764 174.376 44.9761 174.207 45.2479C174.041 45.5163 173.958 45.8229 173.958 46.1676V51H172.785ZM177.994 51V43.3636H179.167V51H177.994ZM178.59 42.0909C178.362 42.0909 178.164 42.013 177.999 41.8572C177.836 41.7015 177.755 41.5142 177.755 41.2955C177.755 41.0767 177.836 40.8894 177.999 40.7337C178.164 40.5779 178.362 40.5 178.59 40.5C178.819 40.5 179.015 40.5779 179.177 40.7337C179.343 40.8894 179.426 41.0767 179.426 41.2955C179.426 41.5142 179.343 41.7015 179.177 41.8572C179.015 42.013 178.819 42.0909 178.59 42.0909ZM184.518 51.1591C183.782 51.1591 183.147 50.9967 182.614 50.6719C182.083 50.3438 181.674 49.8864 181.386 49.2997C181.101 48.7098 180.958 48.0237 180.958 47.2415C180.958 46.4593 181.101 45.7699 181.386 45.1733C181.674 44.5734 182.075 44.1061 182.589 43.7713C183.106 43.4332 183.709 43.2642 184.398 43.2642C184.796 43.2642 185.189 43.3305 185.577 43.4631C185.964 43.5956 186.317 43.8111 186.636 44.1094C186.954 44.4044 187.207 44.7955 187.396 45.2827C187.585 45.7699 187.68 46.3698 187.68 47.0824V47.5795H181.793V46.5653H186.487C186.487 46.1345 186.4 45.75 186.228 45.4119C186.059 45.0739 185.817 44.8071 185.502 44.6115C185.191 44.416 184.823 44.3182 184.398 44.3182C183.931 44.3182 183.527 44.4342 183.185 44.6662C182.847 44.8949 182.587 45.1932 182.405 45.5611C182.223 45.929 182.131 46.3234 182.131 46.7443V47.4205C182.131 47.9972 182.231 48.486 182.43 48.8871C182.632 49.2848 182.912 49.5881 183.27 49.7969C183.628 50.0024 184.044 50.1051 184.518 50.1051C184.826 50.1051 185.104 50.062 185.353 49.9759C185.605 49.8864 185.822 49.7538 186.004 49.5781C186.187 49.3991 186.327 49.1771 186.427 48.9119L187.56 49.2301C187.441 49.6146 187.241 49.9527 186.959 50.2443C186.677 50.5327 186.329 50.758 185.915 50.9205C185.5 51.0795 185.035 51.1591 184.518 51.1591ZM190.638 40.8182V51H189.464V40.8182H190.638ZM198.653 53.6847C197.639 53.6847 196.742 53.5455 195.964 53.267C195.185 52.992 194.53 52.5859 194 52.049C193.47 51.5121 193.068 50.8542 192.797 50.0753C192.525 49.2964 192.389 48.4048 192.389 47.4006C192.389 46.4295 192.527 45.5611 192.802 44.7955C193.08 44.0298 193.483 43.3802 194.01 42.8466C194.54 42.3097 195.183 41.9003 195.939 41.6186C196.698 41.3369 197.556 41.196 198.514 41.196C199.445 41.196 200.261 41.3485 200.96 41.6534C201.663 41.955 202.249 42.3643 202.72 42.8814C203.194 43.3951 203.549 43.9735 203.784 44.6165C204.023 45.2595 204.142 45.9223 204.142 46.6051C204.142 47.0857 204.119 47.5729 204.072 48.0668C204.026 48.5606 203.928 49.0147 203.779 49.429C203.63 49.84 203.399 50.1714 203.088 50.4233C202.78 50.6752 202.362 50.8011 201.835 50.8011C201.603 50.8011 201.348 50.7647 201.069 50.6918C200.791 50.6188 200.544 50.4979 200.329 50.3288C200.113 50.1598 199.986 49.9328 199.946 49.6477H199.886C199.807 49.84 199.684 50.0223 199.518 50.1946C199.356 50.367 199.142 50.5045 198.877 50.6072C198.615 50.71 198.295 50.7547 197.917 50.7415C197.487 50.7249 197.107 50.6288 196.779 50.4531C196.451 50.2741 196.176 50.0322 195.954 49.7273C195.735 49.419 195.569 49.0627 195.456 48.6584C195.347 48.2507 195.292 47.8116 195.292 47.3409C195.292 46.8935 195.359 46.4841 195.491 46.1129C195.624 45.7417 195.808 45.4169 196.043 45.1385C196.282 44.8601 196.56 44.638 196.878 44.4723C197.2 44.3033 197.546 44.1989 197.917 44.1591C198.249 44.1259 198.55 44.1409 198.822 44.2038C199.094 44.2635 199.318 44.3546 199.493 44.4773C199.669 44.5966 199.78 44.7292 199.827 44.875H199.886V44.3182H200.94V48.8125C200.94 49.0909 201.018 49.3362 201.174 49.5483C201.33 49.7604 201.557 49.8665 201.855 49.8665C202.193 49.8665 202.452 49.7505 202.631 49.5185C202.813 49.2865 202.937 48.9285 203.003 48.4446C203.073 47.9607 203.108 47.3409 203.108 46.5852C203.108 46.1411 203.046 45.7036 202.924 45.2727C202.805 44.8385 202.622 44.4325 202.377 44.0547C202.135 43.6768 201.828 43.3437 201.457 43.0554C201.086 42.767 200.65 42.5417 200.15 42.3793C199.653 42.2135 199.087 42.1307 198.454 42.1307C197.675 42.1307 196.978 42.2517 196.361 42.4936C195.748 42.7322 195.226 43.0819 194.795 43.5426C194.368 44 194.041 44.5568 193.816 45.2131C193.594 45.866 193.483 46.6084 193.483 47.4403C193.483 48.2855 193.594 49.0362 193.816 49.6925C194.041 50.3487 194.373 50.9022 194.81 51.353C195.251 51.8037 195.796 52.1451 196.446 52.3771C197.095 52.6125 197.845 52.7301 198.693 52.7301C199.058 52.7301 199.417 52.6953 199.772 52.6257C200.126 52.5561 200.44 52.4799 200.711 52.397C200.983 52.3142 201.179 52.2528 201.298 52.2131L201.577 53.1278C201.371 53.214 201.103 53.3002 200.771 53.3864C200.443 53.4725 200.092 53.5438 199.717 53.6001C199.346 53.6565 198.991 53.6847 198.653 53.6847ZM198.077 49.7273C198.521 49.7273 198.88 49.6378 199.155 49.4588C199.43 49.2798 199.631 49.0097 199.757 48.6484C199.883 48.2872 199.946 47.8314 199.946 47.2812C199.946 46.7244 199.876 46.2902 199.737 45.9787C199.598 45.6671 199.392 45.4484 199.121 45.3224C198.849 45.1965 198.514 45.1335 198.116 45.1335C197.738 45.1335 197.415 45.233 197.147 45.4318C196.882 45.6274 196.678 45.8892 196.535 46.2173C196.396 46.5421 196.327 46.8968 196.327 47.2812C196.327 47.7055 196.383 48.1049 196.496 48.4794C196.608 48.8506 196.792 49.1522 197.047 49.3842C197.303 49.6129 197.646 49.7273 198.077 49.7273ZM206.475 51H205.182L208.921 40.8182H210.194L213.932 51H212.64L209.597 42.429H209.517L206.475 51ZM206.952 47.0227H212.162V48.1165H206.952V47.0227ZM218.561 51.1591C217.825 51.1591 217.19 50.9967 216.657 50.6719C216.126 50.3438 215.717 49.8864 215.429 49.2997C215.144 48.7098 215.001 48.0237 215.001 47.2415C215.001 46.4593 215.144 45.7699 215.429 45.1733C215.717 44.5734 216.118 44.1061 216.632 43.7713C217.149 43.4332 217.752 43.2642 218.441 43.2642C218.839 43.2642 219.232 43.3305 219.62 43.4631C220.007 43.5956 220.36 43.8111 220.679 44.1094C220.997 44.4044 221.25 44.7955 221.439 45.2827C221.628 45.7699 221.723 46.3698 221.723 47.0824V47.5795H215.836V46.5653H220.529C220.529 46.1345 220.443 45.75 220.271 45.4119C220.102 45.0739 219.86 44.8071 219.545 44.6115C219.234 44.416 218.866 44.3182 218.441 44.3182C217.974 44.3182 217.57 44.4342 217.228 44.6662C216.89 44.8949 216.63 45.1932 216.448 45.5611C216.266 45.929 216.174 46.3234 216.174 46.7443V47.4205C216.174 47.9972 216.274 48.486 216.473 48.8871C216.675 49.2848 216.955 49.5881 217.313 49.7969C217.671 50.0024 218.087 50.1051 218.561 50.1051C218.869 50.1051 219.147 50.062 219.396 49.9759C219.648 49.8864 219.865 49.7538 220.047 49.5781C220.23 49.3991 220.37 49.1771 220.47 48.9119L221.603 49.2301C221.484 49.6146 221.283 49.9527 221.002 50.2443C220.72 50.5327 220.372 50.758 219.958 50.9205C219.543 51.0795 219.078 51.1591 218.561 51.1591ZM223.507 51V43.3636H224.641V44.517H224.721C224.86 44.1392 225.112 43.8326 225.476 43.5973C225.841 43.362 226.252 43.2443 226.709 43.2443C226.795 43.2443 226.903 43.246 227.032 43.2493C227.162 43.2526 227.259 43.2576 227.326 43.2642V44.4574C227.286 44.4474 227.195 44.4325 227.052 44.4126C226.913 44.3894 226.766 44.3778 226.61 44.3778C226.239 44.3778 225.907 44.4557 225.615 44.6115C225.327 44.764 225.098 44.9761 224.929 45.2479C224.764 45.5163 224.681 45.8229 224.681 46.1676V51H223.507ZM232.516 43.3636V44.358H228.559V43.3636H232.516ZM229.712 41.5341H230.885V48.8125C230.885 49.1439 230.933 49.3925 231.029 49.5582C231.129 49.7206 231.255 49.83 231.407 49.8864C231.563 49.9394 231.727 49.9659 231.9 49.9659C232.029 49.9659 232.135 49.9593 232.218 49.946C232.301 49.9295 232.367 49.9162 232.417 49.9062L232.655 50.9602C232.576 50.9901 232.465 51.0199 232.322 51.0497C232.18 51.0829 231.999 51.0994 231.78 51.0994C231.449 51.0994 231.124 51.0282 230.806 50.8857C230.491 50.7431 230.229 50.526 230.02 50.2344C229.815 49.9427 229.712 49.5748 229.712 49.1307V41.5341ZM237.401 51.1591C236.665 51.1591 236.03 50.9967 235.496 50.6719C234.966 50.3438 234.557 49.8864 234.268 49.2997C233.983 48.7098 233.841 48.0237 233.841 47.2415C233.841 46.4593 233.983 45.7699 234.268 45.1733C234.557 44.5734 234.958 44.1061 235.472 43.7713C235.989 43.4332 236.592 43.2642 237.281 43.2642C237.679 43.2642 238.072 43.3305 238.46 43.4631C238.847 43.5956 239.2 43.8111 239.518 44.1094C239.837 44.4044 240.09 44.7955 240.279 45.2827C240.468 45.7699 240.562 46.3698 240.562 47.0824V47.5795H234.676V46.5653H239.369C239.369 46.1345 239.283 45.75 239.111 45.4119C238.942 45.0739 238.7 44.8071 238.385 44.6115C238.073 44.416 237.705 44.3182 237.281 44.3182C236.814 44.3182 236.41 44.4342 236.068 44.6662C235.73 44.8949 235.47 45.1932 235.288 45.5611C235.105 45.929 235.014 46.3234 235.014 46.7443V47.4205C235.014 47.9972 235.114 48.486 235.312 48.8871C235.515 49.2848 235.795 49.5881 236.153 49.7969C236.511 50.0024 236.927 50.1051 237.401 50.1051C237.709 50.1051 237.987 50.062 238.236 49.9759C238.488 49.8864 238.705 49.7538 238.887 49.5781C239.069 49.3991 239.21 49.1771 239.31 48.9119L240.443 49.2301C240.324 49.6146 240.123 49.9527 239.842 50.2443C239.56 50.5327 239.212 50.758 238.798 50.9205C238.383 51.0795 237.918 51.1591 237.401 51.1591ZM243.521 46.4062V51H242.347V43.3636H243.481V44.5568H243.58C243.759 44.169 244.031 43.8575 244.396 43.6222C244.76 43.3835 245.231 43.2642 245.808 43.2642C246.325 43.2642 246.777 43.3703 247.165 43.5824C247.553 43.7912 247.854 44.1094 248.07 44.5369C248.285 44.9612 248.393 45.4981 248.393 46.1477V51H247.219V46.2273C247.219 45.6274 247.064 45.16 246.752 44.8253C246.441 44.4872 246.013 44.3182 245.469 44.3182C245.095 44.3182 244.76 44.3994 244.465 44.5618C244.174 44.7242 243.943 44.9612 243.774 45.2727C243.605 45.5843 243.521 45.9621 243.521 46.4062ZM251.392 51.0795C251.147 51.0795 250.936 50.9917 250.76 50.8161C250.585 50.6404 250.497 50.4299 250.497 50.1847C250.497 49.9394 250.585 49.7289 250.76 49.5533C250.936 49.3776 251.147 49.2898 251.392 49.2898C251.637 49.2898 251.848 49.3776 252.023 49.5533C252.199 49.7289 252.287 49.9394 252.287 50.1847C252.287 50.3471 252.245 50.4962 252.162 50.6321C252.083 50.768 251.975 50.8774 251.839 50.9602C251.707 51.0398 251.558 51.0795 251.392 51.0795ZM257.793 43.3636V44.358H253.676V43.3636H257.793ZM254.909 51V42.3097C254.909 41.8722 255.012 41.5076 255.218 41.2159C255.423 40.9242 255.69 40.7055 256.018 40.5597C256.346 40.4138 256.692 40.3409 257.057 40.3409C257.345 40.3409 257.581 40.3641 257.763 40.4105C257.945 40.4569 258.081 40.5 258.171 40.5398L257.833 41.554C257.773 41.5341 257.69 41.5092 257.584 41.4794C257.481 41.4496 257.345 41.4347 257.176 41.4347C256.789 41.4347 256.508 41.5324 256.336 41.728C256.167 41.9235 256.083 42.2102 256.083 42.5881V51H254.909ZM259.437 51V43.3636H260.61V51H259.437ZM260.034 42.0909C259.805 42.0909 259.608 42.013 259.442 41.8572C259.28 41.7015 259.199 41.5142 259.199 41.2955C259.199 41.0767 259.28 40.8894 259.442 40.7337C259.608 40.5779 259.805 40.5 260.034 40.5C260.262 40.5 260.458 40.5779 260.62 40.7337C260.786 40.8894 260.869 41.0767 260.869 41.2955C260.869 41.5142 260.786 41.7015 260.62 41.8572C260.458 42.013 260.262 42.0909 260.034 42.0909ZM263.933 46.4062V51H262.759V43.3636H263.893V44.5568H263.992C264.171 44.169 264.443 43.8575 264.808 43.6222C265.172 43.3835 265.643 43.2642 266.22 43.2642C266.737 43.2642 267.189 43.3703 267.577 43.5824C267.965 43.7912 268.266 44.1094 268.482 44.5369C268.697 44.9612 268.805 45.4981 268.805 46.1477V51H267.632V46.2273C267.632 45.6274 267.476 45.16 267.164 44.8253C266.853 44.4872 266.425 44.3182 265.882 44.3182C265.507 44.3182 265.172 44.3994 264.877 44.5618C264.586 44.7242 264.355 44.9612 264.186 45.2727C264.017 45.5843 263.933 45.9621 263.933 46.4062ZM273.196 51.179C272.712 51.179 272.273 51.0878 271.879 50.9055C271.484 50.7199 271.171 50.4531 270.939 50.1051C270.707 49.7538 270.591 49.3295 270.591 48.8324C270.591 48.3949 270.677 48.0402 270.849 47.7685C271.022 47.4934 271.252 47.2779 271.54 47.1222C271.829 46.9664 272.147 46.8504 272.495 46.7741C272.846 46.6946 273.199 46.6316 273.554 46.5852C274.018 46.5256 274.394 46.4808 274.683 46.451C274.974 46.4179 275.186 46.3632 275.319 46.2869C275.455 46.2107 275.523 46.0781 275.523 45.8892V45.8494C275.523 45.3589 275.388 44.9777 275.12 44.706C274.855 44.4342 274.452 44.2983 273.912 44.2983C273.352 44.2983 272.913 44.4209 272.594 44.6662C272.276 44.9115 272.053 45.1733 271.923 45.4517L270.81 45.054C271.009 44.59 271.274 44.2287 271.605 43.9702C271.94 43.7083 272.304 43.526 272.699 43.4233C273.097 43.3172 273.488 43.2642 273.872 43.2642C274.117 43.2642 274.399 43.294 274.717 43.3537C275.039 43.41 275.349 43.5277 275.647 43.7067C275.949 43.8857 276.199 44.1558 276.398 44.517C276.597 44.8783 276.696 45.3622 276.696 45.9688V51H275.523V49.9659H275.463C275.384 50.1316 275.251 50.3089 275.065 50.4979C274.88 50.6868 274.633 50.8475 274.325 50.9801C274.016 51.1127 273.64 51.179 273.196 51.179ZM273.375 50.125C273.839 50.125 274.23 50.0339 274.548 49.8516C274.87 49.6693 275.112 49.4339 275.274 49.1456C275.44 48.8572 275.523 48.554 275.523 48.2358V47.1619C275.473 47.2216 275.364 47.2763 275.195 47.326C275.029 47.3724 274.837 47.4138 274.618 47.4503C274.402 47.4834 274.192 47.5133 273.987 47.5398C273.784 47.563 273.62 47.5829 273.494 47.5994C273.189 47.6392 272.904 47.7038 272.639 47.7933C272.377 47.8795 272.165 48.0104 272.003 48.1861C271.844 48.3584 271.764 48.5937 271.764 48.892C271.764 49.2997 271.915 49.608 272.217 49.8168C272.522 50.0223 272.908 50.125 273.375 50.125ZM280.011 46.4062V51H278.838V43.3636H279.971V44.5568H280.07C280.249 44.169 280.521 43.8575 280.886 43.6222C281.25 43.3835 281.721 43.2642 282.298 43.2642C282.815 43.2642 283.267 43.3703 283.655 43.5824C284.043 43.7912 284.344 44.1094 284.56 44.5369C284.775 44.9612 284.883 45.4981 284.883 46.1477V51H283.71V46.2273C283.71 45.6274 283.554 45.16 283.242 44.8253C282.931 44.4872 282.503 44.3182 281.96 44.3182C281.585 44.3182 281.25 44.3994 280.955 44.5618C280.664 44.7242 280.433 44.9612 280.264 45.2727C280.095 45.5843 280.011 45.9621 280.011 46.4062ZM290.129 51.1591C289.413 51.1591 288.797 50.9901 288.28 50.652C287.763 50.3139 287.365 49.8482 287.087 49.255C286.808 48.6617 286.669 47.9839 286.669 47.2216C286.669 46.446 286.812 45.7616 287.097 45.1683C287.385 44.5717 287.786 44.1061 288.3 43.7713C288.817 43.4332 289.42 43.2642 290.109 43.2642C290.646 43.2642 291.13 43.3636 291.561 43.5625C291.992 43.7614 292.345 44.0398 292.62 44.3977C292.895 44.7557 293.066 45.1733 293.132 45.6506H291.959C291.869 45.3026 291.67 44.9943 291.362 44.7259C291.057 44.4541 290.646 44.3182 290.129 44.3182C289.672 44.3182 289.271 44.4375 288.926 44.6761C288.585 44.9115 288.318 45.2446 288.126 45.6754C287.937 46.103 287.842 46.6051 287.842 47.1818C287.842 47.7718 287.935 48.2855 288.121 48.723C288.31 49.1605 288.575 49.5002 288.916 49.7422C289.261 49.9841 289.665 50.1051 290.129 50.1051C290.434 50.1051 290.711 50.0521 290.96 49.946C291.208 49.84 291.419 49.6875 291.591 49.4886C291.763 49.2898 291.886 49.0511 291.959 48.7727H293.132C293.066 49.2235 292.902 49.6295 292.64 49.9908C292.381 50.3487 292.038 50.6338 291.611 50.8459C291.187 51.0547 290.693 51.1591 290.129 51.1591ZM298.049 51.1591C297.313 51.1591 296.679 50.9967 296.145 50.6719C295.615 50.3438 295.205 49.8864 294.917 49.2997C294.632 48.7098 294.489 48.0237 294.489 47.2415C294.489 46.4593 294.632 45.7699 294.917 45.1733C295.205 44.5734 295.606 44.1061 296.12 43.7713C296.637 43.4332 297.24 43.2642 297.93 43.2642C298.327 43.2642 298.72 43.3305 299.108 43.4631C299.496 43.5956 299.849 43.8111 300.167 44.1094C300.485 44.4044 300.739 44.7955 300.928 45.2827C301.116 45.7699 301.211 46.3698 301.211 47.0824V47.5795H295.325V46.5653H300.018C300.018 46.1345 299.932 45.75 299.759 45.4119C299.59 45.0739 299.348 44.8071 299.033 44.6115C298.722 44.416 298.354 44.3182 297.93 44.3182C297.462 44.3182 297.058 44.4342 296.717 44.6662C296.379 44.8949 296.118 45.1932 295.936 45.5611C295.754 45.929 295.663 46.3234 295.663 46.7443V47.4205C295.663 47.9972 295.762 48.486 295.961 48.8871C296.163 49.2848 296.443 49.5881 296.801 49.7969C297.159 50.0024 297.575 50.1051 298.049 50.1051C298.357 50.1051 298.636 50.062 298.884 49.9759C299.136 49.8864 299.353 49.7538 299.536 49.5781C299.718 49.3991 299.859 49.1771 299.958 48.9119L301.092 49.2301C300.972 49.6146 300.772 49.9527 300.49 50.2443C300.208 50.5327 299.86 50.758 299.446 50.9205C299.032 51.0795 298.566 51.1591 298.049 51.1591Z" fill="#6B788E"/>
</svg>
