<svg width="345" height="72" viewBox="0 0 345 72" fill="none" xmlns="http://www.w3.org/2000/svg">
<mask id="path-1-inside-1_1_6346" fill="white">
<path d="M0 0H345V72H0V0Z"/>
</mask>
<path d="M345 71H0V73H345V71Z" fill="#EAECF0" mask="url(#path-1-inside-1_1_6346)"/>
<rect x="24.5" y="26.5" width="19" height="19" rx="5.5" fill="white"/>
<rect x="24.5" y="26.5" width="19" height="19" rx="5.5" stroke="#D0D5DD"/>
<rect x="56" y="16" width="40" height="40" rx="20" fill="#FFF2EA"/>
<path d="M66.7404 32.3643V30.8182H74.864V32.3643H71.717V41H69.8874V32.3643H66.7404ZM85.0769 35.9091C85.0769 37.0062 84.8714 37.9458 84.4604 38.728C84.0527 39.5069 83.4959 40.1035 82.79 40.5178C82.0873 40.9321 81.2902 41.1392 80.3986 41.1392C79.507 41.1392 78.7083 40.9321 78.0023 40.5178C77.2997 40.1001 76.7428 39.5019 76.3319 38.723C75.9242 37.9408 75.7203 37.0028 75.7203 35.9091C75.7203 34.812 75.9242 33.8741 76.3319 33.0952C76.7428 32.313 77.2997 31.7147 78.0023 31.3004C78.7083 30.8861 79.507 30.679 80.3986 30.679C81.2902 30.679 82.0873 30.8861 82.79 31.3004C83.4959 31.7147 84.0527 32.313 84.4604 33.0952C84.8714 33.8741 85.0769 34.812 85.0769 35.9091ZM83.2225 35.9091C83.2225 35.1368 83.1015 34.4856 82.8596 33.9553C82.6209 33.4216 82.2895 33.0189 81.8652 32.7472C81.441 32.4721 80.9521 32.3345 80.3986 32.3345C79.8451 32.3345 79.3562 32.4721 78.932 32.7472C78.5078 33.0189 78.1747 33.4216 77.9327 33.9553C77.6941 34.4856 77.5748 35.1368 77.5748 35.9091C77.5748 36.6813 77.6941 37.3343 77.9327 37.8679C78.1747 38.3982 78.5078 38.8009 78.932 39.076C79.3562 39.3478 79.8451 39.4837 80.3986 39.4837C80.9521 39.4837 81.441 39.3478 81.8652 39.076C82.2895 38.8009 82.6209 38.3982 82.8596 37.8679C83.1015 37.3343 83.2225 36.6813 83.2225 35.9091Z" fill="#93312B"/>
<path d="M108.616 22.1406V20.8182H116.496V22.1406H113.32V31H111.788V22.1406H108.616ZM119.302 31.169C118.818 31.169 118.38 31.0795 117.989 30.9006C117.598 30.7183 117.288 30.4548 117.059 30.1101C116.834 29.7654 116.721 29.3428 116.721 28.8423C116.721 28.4115 116.804 28.0568 116.97 27.7784C117.136 27.5 117.359 27.2796 117.641 27.1172C117.923 26.9548 118.238 26.8321 118.586 26.7493C118.934 26.6664 119.288 26.6035 119.65 26.5604C120.107 26.5073 120.478 26.4643 120.763 26.4311C121.048 26.3946 121.256 26.3366 121.385 26.2571C121.514 26.1776 121.579 26.0483 121.579 25.8693V25.8345C121.579 25.4003 121.456 25.0639 121.211 24.8253C120.969 24.5866 120.608 24.4673 120.127 24.4673C119.626 24.4673 119.232 24.5784 118.944 24.8004C118.659 25.0192 118.461 25.2628 118.352 25.5312L116.955 25.2131C117.121 24.7491 117.363 24.3745 117.681 24.0895C118.002 23.8011 118.372 23.5923 118.79 23.4631C119.207 23.3305 119.646 23.2642 120.107 23.2642C120.412 23.2642 120.735 23.3007 121.077 23.3736C121.421 23.4432 121.743 23.5724 122.041 23.7614C122.343 23.9503 122.59 24.2204 122.782 24.5717C122.974 24.9197 123.07 25.3722 123.07 25.929V31H121.618V29.956H121.559C121.463 30.1482 121.318 30.3371 121.126 30.5227C120.934 30.7083 120.687 30.8625 120.385 30.9851C120.084 31.1077 119.723 31.169 119.302 31.169ZM119.625 29.9759C120.036 29.9759 120.387 29.8946 120.679 29.7322C120.974 29.5698 121.198 29.3577 121.35 29.0959C121.506 28.8307 121.584 28.5473 121.584 28.2457V27.2614C121.531 27.3144 121.428 27.3641 121.275 27.4105C121.126 27.4536 120.956 27.4917 120.763 27.5249C120.571 27.5547 120.384 27.5829 120.202 27.6094C120.019 27.6326 119.867 27.6525 119.744 27.669C119.456 27.7055 119.192 27.7668 118.954 27.853C118.718 27.9392 118.529 28.0634 118.387 28.2259C118.248 28.3849 118.178 28.5971 118.178 28.8622C118.178 29.2301 118.314 29.5085 118.586 29.6974C118.858 29.883 119.204 29.9759 119.625 29.9759ZM130.772 25.228L129.425 25.4666C129.369 25.2943 129.279 25.1302 129.157 24.9744C129.037 24.8187 128.875 24.6911 128.669 24.5916C128.464 24.4922 128.207 24.4425 127.899 24.4425C127.478 24.4425 127.127 24.5369 126.845 24.7259C126.563 24.9115 126.422 25.1518 126.422 25.4467C126.422 25.7019 126.517 25.9074 126.706 26.0632C126.895 26.219 127.199 26.3466 127.62 26.446L128.833 26.7244C129.536 26.8868 130.06 27.1371 130.404 27.4751C130.749 27.8132 130.922 28.2524 130.922 28.7926C130.922 29.25 130.789 29.6577 130.524 30.0156C130.262 30.3703 129.896 30.6487 129.425 30.8509C128.958 31.053 128.416 31.1541 127.799 31.1541C126.944 31.1541 126.247 30.9718 125.706 30.6072C125.166 30.2393 124.835 29.7173 124.712 29.0412L126.149 28.8224C126.238 29.197 126.422 29.4804 126.701 29.6726C126.979 29.8615 127.342 29.956 127.789 29.956C128.277 29.956 128.666 29.8549 128.958 29.6527C129.249 29.4472 129.395 29.197 129.395 28.902C129.395 28.6634 129.306 28.4628 129.127 28.3004C128.951 28.138 128.681 28.0154 128.316 27.9325L127.024 27.6491C126.311 27.4867 125.784 27.2282 125.443 26.8736C125.105 26.5189 124.936 26.0698 124.936 25.5263C124.936 25.0755 125.062 24.6811 125.314 24.343C125.565 24.005 125.913 23.7415 126.358 23.5526C126.802 23.3603 127.31 23.2642 127.884 23.2642C128.709 23.2642 129.359 23.4432 129.833 23.8011C130.307 24.1558 130.62 24.6314 130.772 25.228ZM138.278 25.228L136.931 25.4666C136.875 25.2943 136.785 25.1302 136.662 24.9744C136.543 24.8187 136.381 24.6911 136.175 24.5916C135.97 24.4922 135.713 24.4425 135.405 24.4425C134.984 24.4425 134.632 24.5369 134.351 24.7259C134.069 24.9115 133.928 25.1518 133.928 25.4467C133.928 25.7019 134.023 25.9074 134.211 26.0632C134.4 26.219 134.705 26.3466 135.126 26.446L136.339 26.7244C137.042 26.8868 137.566 27.1371 137.91 27.4751C138.255 27.8132 138.427 28.2524 138.427 28.7926C138.427 29.25 138.295 29.6577 138.03 30.0156C137.768 30.3703 137.402 30.6487 136.931 30.8509C136.464 31.053 135.922 31.1541 135.305 31.1541C134.45 31.1541 133.752 30.9718 133.212 30.6072C132.672 30.2393 132.34 29.7173 132.218 29.0412L133.655 28.8224C133.744 29.197 133.928 29.4804 134.206 29.6726C134.485 29.8615 134.848 29.956 135.295 29.956C135.782 29.956 136.172 29.8549 136.464 29.6527C136.755 29.4472 136.901 29.197 136.901 28.902C136.901 28.6634 136.812 28.4628 136.633 28.3004C136.457 28.138 136.187 28.0154 135.822 27.9325L134.53 27.6491C133.817 27.4867 133.29 27.2282 132.949 26.8736C132.611 26.5189 132.442 26.0698 132.442 25.5263C132.442 25.0755 132.568 24.6811 132.819 24.343C133.071 24.005 133.419 23.7415 133.863 23.5526C134.308 23.3603 134.816 23.2642 135.39 23.2642C136.215 23.2642 136.865 23.4432 137.339 23.8011C137.813 24.1558 138.126 24.6314 138.278 25.228ZM141.001 33.8636C140.779 33.8636 140.577 33.8454 140.395 33.8089C140.213 33.7758 140.077 33.7393 139.987 33.6996L140.345 32.4815C140.617 32.5545 140.859 32.5859 141.071 32.576C141.283 32.5661 141.47 32.4865 141.633 32.3374C141.799 32.1882 141.944 31.9446 142.07 31.6065L142.254 31.0994L139.46 23.3636H141.051L142.985 29.2898H143.065L144.999 23.3636H146.594L143.447 32.0192C143.302 32.4169 143.116 32.7533 142.891 33.0284C142.665 33.3068 142.397 33.5156 142.085 33.6548C141.774 33.794 141.412 33.8636 141.001 33.8636ZM160.66 25.9091C160.66 26.9962 160.461 27.9309 160.064 28.7131C159.666 29.492 159.121 30.0919 158.428 30.5128C157.739 30.9304 156.955 31.1392 156.077 31.1392C155.195 31.1392 154.408 30.9304 153.715 30.5128C153.026 30.0919 152.482 29.4903 152.084 28.7081C151.687 27.9259 151.488 26.9929 151.488 25.9091C151.488 24.822 151.687 23.889 152.084 23.1101C152.482 22.3279 153.026 21.728 153.715 21.3104C154.408 20.8894 155.195 20.679 156.077 20.679C156.955 20.679 157.739 20.8894 158.428 21.3104C159.121 21.728 159.666 22.3279 160.064 23.1101C160.461 23.889 160.66 24.822 160.66 25.9091ZM159.139 25.9091C159.139 25.0805 159.005 24.3828 158.736 23.8161C158.471 23.246 158.107 22.8151 157.643 22.5234C157.182 22.2285 156.66 22.081 156.077 22.081C155.49 22.081 154.966 22.2285 154.506 22.5234C154.045 22.8151 153.68 23.246 153.412 23.8161C153.147 24.3828 153.014 25.0805 153.014 25.9091C153.014 26.7377 153.147 27.437 153.412 28.0071C153.68 28.5739 154.045 29.0047 154.506 29.2997C154.966 29.5914 155.49 29.7372 156.077 29.7372C156.66 29.7372 157.182 29.5914 157.643 29.2997C158.107 29.0047 158.471 28.5739 158.736 28.0071C159.005 27.437 159.139 26.7377 159.139 25.9091ZM162.456 31V23.3636H163.883V24.6065H163.978C164.137 24.1856 164.397 23.8575 164.758 23.6222C165.119 23.3835 165.552 23.2642 166.056 23.2642C166.566 23.2642 166.994 23.3835 167.338 23.6222C167.686 23.8608 167.943 24.1889 168.109 24.6065H168.189C168.371 24.1989 168.661 23.8741 169.059 23.6321C169.456 23.3868 169.93 23.2642 170.48 23.2642C171.173 23.2642 171.738 23.4813 172.176 23.9155C172.617 24.3497 172.837 25.0043 172.837 25.8793V31H171.35V26.0185C171.35 25.5014 171.21 25.1269 170.928 24.8949C170.646 24.6629 170.31 24.5469 169.919 24.5469C169.435 24.5469 169.059 24.696 168.79 24.9943C168.522 25.2893 168.387 25.6688 168.387 26.1328V31H166.906V25.924C166.906 25.5097 166.777 25.1766 166.518 24.9247C166.26 24.6728 165.923 24.5469 165.509 24.5469C165.227 24.5469 164.967 24.6214 164.728 24.7706C164.493 24.9164 164.302 25.1203 164.157 25.3821C164.014 25.6439 163.943 25.9472 163.943 26.2919V31H162.456ZM177.052 31.169C176.568 31.169 176.13 31.0795 175.739 30.9006C175.348 30.7183 175.038 30.4548 174.809 30.1101C174.584 29.7654 174.471 29.3428 174.471 28.8423C174.471 28.4115 174.554 28.0568 174.72 27.7784C174.886 27.5 175.109 27.2796 175.391 27.1172C175.673 26.9548 175.988 26.8321 176.336 26.7493C176.684 26.6664 177.038 26.6035 177.4 26.5604C177.857 26.5073 178.228 26.4643 178.513 26.4311C178.798 26.3946 179.006 26.3366 179.135 26.2571C179.264 26.1776 179.329 26.0483 179.329 25.8693V25.8345C179.329 25.4003 179.206 25.0639 178.961 24.8253C178.719 24.5866 178.358 24.4673 177.877 24.4673C177.376 24.4673 176.982 24.5784 176.694 24.8004C176.409 25.0192 176.211 25.2628 176.102 25.5312L174.705 25.2131C174.871 24.7491 175.113 24.3745 175.431 24.0895C175.752 23.8011 176.122 23.5923 176.54 23.4631C176.957 23.3305 177.396 23.2642 177.857 23.2642C178.162 23.2642 178.485 23.3007 178.827 23.3736C179.171 23.4432 179.493 23.5724 179.791 23.7614C180.093 23.9503 180.34 24.2204 180.532 24.5717C180.724 24.9197 180.82 25.3722 180.82 25.929V31H179.368V29.956H179.309C179.213 30.1482 179.068 30.3371 178.876 30.5227C178.684 30.7083 178.437 30.8625 178.135 30.9851C177.834 31.1077 177.473 31.169 177.052 31.169ZM177.375 29.9759C177.786 29.9759 178.137 29.8946 178.429 29.7322C178.724 29.5698 178.948 29.3577 179.1 29.0959C179.256 28.8307 179.334 28.5473 179.334 28.2457V27.2614C179.281 27.3144 179.178 27.3641 179.025 27.4105C178.876 27.4536 178.706 27.4917 178.513 27.5249C178.321 27.5547 178.134 27.5829 177.952 27.6094C177.769 27.6326 177.617 27.6525 177.494 27.669C177.206 27.7055 176.942 27.7668 176.704 27.853C176.468 27.9392 176.279 28.0634 176.137 28.2259C175.998 28.3849 175.928 28.5971 175.928 28.8622C175.928 29.2301 176.064 29.5085 176.336 29.6974C176.608 29.883 176.954 29.9759 177.375 29.9759ZM184.287 26.4659V31H182.8V20.8182H184.267V24.6065H184.361C184.54 24.1955 184.814 23.8691 185.181 23.6271C185.549 23.3852 186.03 23.2642 186.623 23.2642C187.147 23.2642 187.604 23.3719 187.995 23.5874C188.39 23.8028 188.695 24.1243 188.91 24.5518C189.129 24.9761 189.238 25.5064 189.238 26.1428V31H187.752V26.3217C187.752 25.7616 187.608 25.3274 187.319 25.0192C187.031 24.7076 186.63 24.5518 186.116 24.5518C185.765 24.5518 185.45 24.6264 185.172 24.7756C184.896 24.9247 184.679 25.1435 184.52 25.4318C184.364 25.7169 184.287 26.0616 184.287 26.4659Z" fill="#101828"/>
<path d="M108.676 41.9119V40.8182H116.312V41.9119H113.111V51H111.878V41.9119H108.676ZM119.264 51.179C118.78 51.179 118.341 51.0878 117.947 50.9055C117.552 50.7199 117.239 50.4531 117.007 50.1051C116.775 49.7538 116.659 49.3295 116.659 48.8324C116.659 48.3949 116.745 48.0402 116.918 47.7685C117.09 47.4934 117.32 47.2779 117.609 47.1222C117.897 46.9664 118.215 46.8504 118.563 46.7741C118.915 46.6946 119.268 46.6316 119.622 46.5852C120.086 46.5256 120.463 46.4808 120.751 46.451C121.043 46.4179 121.255 46.3632 121.387 46.2869C121.523 46.2107 121.591 46.0781 121.591 45.8892V45.8494C121.591 45.3589 121.457 44.9777 121.188 44.706C120.923 44.4342 120.521 44.2983 119.98 44.2983C119.42 44.2983 118.981 44.4209 118.663 44.6662C118.345 44.9115 118.121 45.1733 117.992 45.4517L116.878 45.054C117.077 44.59 117.342 44.2287 117.673 43.9702C118.008 43.7083 118.373 43.526 118.767 43.4233C119.165 43.3172 119.556 43.2642 119.941 43.2642C120.186 43.2642 120.468 43.294 120.786 43.3537C121.107 43.41 121.417 43.5277 121.715 43.7067C122.017 43.8857 122.267 44.1558 122.466 44.517C122.665 44.8783 122.764 45.3622 122.764 45.9688V51H121.591V49.9659H121.531C121.452 50.1316 121.319 50.3089 121.134 50.4979C120.948 50.6868 120.701 50.8475 120.393 50.9801C120.085 51.1127 119.709 51.179 119.264 51.179ZM119.443 50.125C119.907 50.125 120.298 50.0339 120.617 49.8516C120.938 49.6693 121.18 49.4339 121.343 49.1456C121.508 48.8572 121.591 48.554 121.591 48.2358V47.1619C121.541 47.2216 121.432 47.2763 121.263 47.326C121.097 47.3724 120.905 47.4138 120.686 47.4503C120.471 47.4834 120.26 47.5133 120.055 47.5398C119.853 47.563 119.689 47.5829 119.563 47.5994C119.258 47.6392 118.973 47.7038 118.708 47.7933C118.446 47.8795 118.234 48.0104 118.071 48.1861C117.912 48.3584 117.833 48.5937 117.833 48.892C117.833 49.2997 117.983 49.608 118.285 49.8168C118.59 50.0223 118.976 50.125 119.443 50.125ZM130.315 45.0739L129.261 45.3722C129.195 45.1965 129.097 45.0258 128.968 44.8601C128.842 44.6911 128.669 44.5518 128.451 44.4425C128.232 44.3331 127.952 44.2784 127.61 44.2784C127.143 44.2784 126.754 44.3861 126.442 44.6016C126.134 44.8137 125.98 45.0838 125.98 45.4119C125.98 45.7036 126.086 45.9339 126.298 46.103C126.51 46.272 126.842 46.4129 127.292 46.5256L128.426 46.804C129.109 46.9697 129.617 47.2232 129.952 47.5646C130.287 47.9027 130.454 48.3385 130.454 48.8722C130.454 49.3097 130.328 49.7008 130.076 50.0455C129.828 50.3902 129.48 50.6619 129.032 50.8608C128.585 51.0597 128.065 51.1591 127.471 51.1591C126.692 51.1591 126.048 50.9901 125.537 50.652C125.027 50.3139 124.704 49.8201 124.568 49.1705L125.681 48.892C125.788 49.303 125.988 49.6113 126.283 49.8168C126.581 50.0223 126.971 50.125 127.451 50.125C127.998 50.125 128.432 50.009 128.754 49.777C129.079 49.5417 129.241 49.2599 129.241 48.9318C129.241 48.6667 129.148 48.4446 128.963 48.2656C128.777 48.0833 128.492 47.9474 128.108 47.858L126.835 47.5597C126.136 47.3939 125.622 47.1371 125.294 46.7891C124.969 46.4377 124.806 45.9986 124.806 45.4716C124.806 45.0407 124.927 44.6596 125.169 44.3281C125.415 43.9967 125.748 43.7365 126.169 43.5476C126.593 43.3587 127.074 43.2642 127.61 43.2642C128.366 43.2642 128.959 43.4299 129.39 43.7614C129.824 44.0928 130.133 44.5303 130.315 45.0739ZM137.629 45.0739L136.575 45.3722C136.509 45.1965 136.411 45.0258 136.282 44.8601C136.156 44.6911 135.984 44.5518 135.765 44.4425C135.546 44.3331 135.266 44.2784 134.925 44.2784C134.458 44.2784 134.068 44.3861 133.757 44.6016C133.448 44.8137 133.294 45.0838 133.294 45.4119C133.294 45.7036 133.4 45.9339 133.612 46.103C133.825 46.272 134.156 46.4129 134.607 46.5256L135.74 46.804C136.423 46.9697 136.932 47.2232 137.267 47.5646C137.601 47.9027 137.769 48.3385 137.769 48.8722C137.769 49.3097 137.643 49.7008 137.391 50.0455C137.142 50.3902 136.794 50.6619 136.347 50.8608C135.899 51.0597 135.379 51.1591 134.786 51.1591C134.007 51.1591 133.362 50.9901 132.852 50.652C132.341 50.3139 132.018 49.8201 131.882 49.1705L132.996 48.892C133.102 49.303 133.302 49.6113 133.597 49.8168C133.896 50.0223 134.285 50.125 134.766 50.125C135.313 50.125 135.747 50.009 136.068 49.777C136.393 49.5417 136.556 49.2599 136.556 48.9318C136.556 48.6667 136.463 48.4446 136.277 48.2656C136.092 48.0833 135.807 47.9474 135.422 47.858L134.149 47.5597C133.45 47.3939 132.936 47.1371 132.608 46.7891C132.283 46.4377 132.121 45.9986 132.121 45.4716C132.121 45.0407 132.242 44.6596 132.484 44.3281C132.729 43.9967 133.062 43.7365 133.483 43.5476C133.907 43.3587 134.388 43.2642 134.925 43.2642C135.681 43.2642 136.274 43.4299 136.705 43.7614C137.139 44.0928 137.447 44.5303 137.629 45.0739ZM140.29 53.8636C140.092 53.8636 139.914 53.8471 139.759 53.8139C139.603 53.7841 139.495 53.7543 139.435 53.7244L139.734 52.6903C140.019 52.7633 140.271 52.7898 140.489 52.7699C140.708 52.75 140.902 52.6522 141.071 52.4766C141.243 52.3042 141.401 52.0241 141.543 51.6364L141.762 51.0398L138.938 43.3636H140.211L142.319 49.4489H142.398L144.506 43.3636H145.779L142.538 52.1136C142.392 52.508 142.211 52.8345 141.996 53.093C141.78 53.3549 141.53 53.5488 141.245 53.6747C140.963 53.8007 140.645 53.8636 140.29 53.8636ZM150.157 51.1591C149.467 51.1591 148.862 50.995 148.342 50.6669C147.825 50.3388 147.421 49.8797 147.129 49.2898C146.841 48.6998 146.696 48.0104 146.696 47.2216C146.696 46.4261 146.841 45.7318 147.129 45.1385C147.421 44.5452 147.825 44.0845 148.342 43.7564C148.862 43.4283 149.467 43.2642 150.157 43.2642C150.846 43.2642 151.449 43.4283 151.966 43.7564C152.487 44.0845 152.891 44.5452 153.179 45.1385C153.471 45.7318 153.617 46.4261 153.617 47.2216C153.617 48.0104 153.471 48.6998 153.179 49.2898C152.891 49.8797 152.487 50.3388 151.966 50.6669C151.449 50.995 150.846 51.1591 150.157 51.1591ZM150.157 50.1051C150.68 50.1051 151.111 49.9709 151.449 49.7024C151.787 49.4339 152.038 49.081 152.2 48.6435C152.362 48.206 152.444 47.732 152.444 47.2216C152.444 46.7112 152.362 46.2356 152.2 45.7947C152.038 45.3539 151.787 44.9976 151.449 44.7259C151.111 44.4541 150.68 44.3182 150.157 44.3182C149.633 44.3182 149.202 44.4541 148.864 44.7259C148.526 44.9976 148.276 45.3539 148.113 45.7947C147.951 46.2356 147.87 46.7112 147.87 47.2216C147.87 47.732 147.951 48.206 148.113 48.6435C148.276 49.081 148.526 49.4339 148.864 49.7024C149.202 49.9709 149.633 50.1051 150.157 50.1051ZM155.408 51V43.3636H156.541V44.5568H156.641C156.8 44.1491 157.057 43.8326 157.411 43.6072C157.766 43.3786 158.192 43.2642 158.689 43.2642C159.193 43.2642 159.612 43.3786 159.947 43.6072C160.285 43.8326 160.548 44.1491 160.737 44.5568H160.817C161.012 44.1624 161.306 43.8492 161.697 43.6172C162.088 43.3819 162.557 43.2642 163.104 43.2642C163.787 43.2642 164.345 43.478 164.779 43.9055C165.213 44.3298 165.431 44.991 165.431 45.8892V51H164.257V45.8892C164.257 45.3258 164.103 44.9231 163.795 44.6811C163.487 44.4392 163.124 44.3182 162.706 44.3182C162.169 44.3182 161.753 44.4806 161.458 44.8054C161.163 45.1269 161.016 45.5346 161.016 46.0284V51H159.823V45.7699C159.823 45.3357 159.682 44.986 159.4 44.7209C159.118 44.4524 158.755 44.3182 158.311 44.3182C158.006 44.3182 157.721 44.3994 157.456 44.5618C157.194 44.7242 156.982 44.9496 156.82 45.2379C156.661 45.523 156.581 45.8527 156.581 46.2273V51H155.408ZM169.823 51.179C169.339 51.179 168.9 51.0878 168.506 50.9055C168.111 50.7199 167.798 50.4531 167.566 50.1051C167.334 49.7538 167.218 49.3295 167.218 48.8324C167.218 48.3949 167.304 48.0402 167.476 47.7685C167.649 47.4934 167.879 47.2779 168.167 47.1222C168.456 46.9664 168.774 46.8504 169.122 46.7741C169.473 46.6946 169.826 46.6316 170.181 46.5852C170.645 46.5256 171.021 46.4808 171.309 46.451C171.601 46.4179 171.813 46.3632 171.946 46.2869C172.082 46.2107 172.15 46.0781 172.15 45.8892V45.8494C172.15 45.3589 172.015 44.9777 171.747 44.706C171.482 44.4342 171.079 44.2983 170.539 44.2983C169.979 44.2983 169.54 44.4209 169.221 44.6662C168.903 44.9115 168.68 45.1733 168.55 45.4517L167.437 45.054C167.635 44.59 167.901 44.2287 168.232 43.9702C168.567 43.7083 168.931 43.526 169.326 43.4233C169.724 43.3172 170.115 43.2642 170.499 43.2642C170.744 43.2642 171.026 43.294 171.344 43.3537C171.666 43.41 171.976 43.5277 172.274 43.7067C172.576 43.8857 172.826 44.1558 173.025 44.517C173.224 44.8783 173.323 45.3622 173.323 45.9688V51H172.15V49.9659H172.09C172.01 50.1316 171.878 50.3089 171.692 50.4979C171.507 50.6868 171.26 50.8475 170.952 50.9801C170.643 51.1127 170.267 51.179 169.823 51.179ZM170.002 50.125C170.466 50.125 170.857 50.0339 171.175 49.8516C171.497 49.6693 171.739 49.4339 171.901 49.1456C172.067 48.8572 172.15 48.554 172.15 48.2358V47.1619C172.1 47.2216 171.991 47.2763 171.822 47.326C171.656 47.3724 171.464 47.4138 171.245 47.4503C171.029 47.4834 170.819 47.5133 170.613 47.5398C170.411 47.563 170.247 47.5829 170.121 47.5994C169.816 47.6392 169.531 47.7038 169.266 47.7933C169.004 47.8795 168.792 48.0104 168.63 48.1861C168.471 48.3584 168.391 48.5937 168.391 48.892C168.391 49.2997 168.542 49.608 168.844 49.8168C169.148 50.0223 169.535 50.125 170.002 50.125ZM176.638 46.4062V51H175.464V40.8182H176.638V44.5568H176.737C176.916 44.1624 177.185 43.8492 177.543 43.6172C177.904 43.3819 178.384 43.2642 178.984 43.2642C179.505 43.2642 179.96 43.3686 180.352 43.5774C180.743 43.7829 181.046 44.0994 181.261 44.527C181.48 44.9512 181.589 45.4915 181.589 46.1477V51H180.416V46.2273C180.416 45.6207 180.259 45.1518 179.944 44.8203C179.632 44.4856 179.2 44.3182 178.646 44.3182C178.262 44.3182 177.917 44.3994 177.612 44.5618C177.311 44.7242 177.072 44.9612 176.896 45.2727C176.724 45.5843 176.638 45.9621 176.638 46.4062ZM189.602 53.6847C188.588 53.6847 187.692 53.5455 186.913 53.267C186.134 52.992 185.479 52.5859 184.949 52.049C184.419 51.5121 184.018 50.8542 183.746 50.0753C183.474 49.2964 183.338 48.4048 183.338 47.4006C183.338 46.4295 183.476 45.5611 183.751 44.7955C184.029 44.0298 184.432 43.3802 184.959 42.8466C185.489 42.3097 186.132 41.9003 186.888 41.6186C187.647 41.3369 188.505 41.196 189.463 41.196C190.395 41.196 191.21 41.3485 191.909 41.6534C192.612 41.955 193.199 42.3643 193.669 42.8814C194.143 43.3951 194.498 43.9735 194.733 44.6165C194.972 45.2595 195.091 45.9223 195.091 46.6051C195.091 47.0857 195.068 47.5729 195.021 48.0668C194.975 48.5606 194.877 49.0147 194.728 49.429C194.579 49.84 194.349 50.1714 194.037 50.4233C193.729 50.6752 193.311 50.8011 192.784 50.8011C192.552 50.8011 192.297 50.7647 192.019 50.6918C191.74 50.6188 191.493 50.4979 191.278 50.3288C191.062 50.1598 190.935 49.9328 190.895 49.6477H190.835C190.756 49.84 190.633 50.0223 190.468 50.1946C190.305 50.367 190.091 50.5045 189.826 50.6072C189.564 50.71 189.244 50.7547 188.867 50.7415C188.436 50.7249 188.056 50.6288 187.728 50.4531C187.4 50.2741 187.125 50.0322 186.903 49.7273C186.684 49.419 186.518 49.0627 186.406 48.6584C186.296 48.2507 186.242 47.8116 186.242 47.3409C186.242 46.8935 186.308 46.4841 186.441 46.1129C186.573 45.7417 186.757 45.4169 186.992 45.1385C187.231 44.8601 187.509 44.638 187.828 44.4723C188.149 44.3033 188.495 44.1989 188.867 44.1591C189.198 44.1259 189.5 44.1409 189.771 44.2038C190.043 44.2635 190.267 44.3546 190.443 44.4773C190.618 44.5966 190.729 44.7292 190.776 44.875H190.835V44.3182H191.889V48.8125C191.889 49.0909 191.967 49.3362 192.123 49.5483C192.279 49.7604 192.506 49.8665 192.804 49.8665C193.142 49.8665 193.401 49.7505 193.58 49.5185C193.762 49.2865 193.886 48.9285 193.953 48.4446C194.022 47.9607 194.057 47.3409 194.057 46.5852C194.057 46.1411 193.996 45.7036 193.873 45.2727C193.754 44.8385 193.571 44.4325 193.326 44.0547C193.084 43.6768 192.778 43.3437 192.406 43.0554C192.035 42.767 191.599 42.5417 191.099 42.3793C190.602 42.2135 190.037 42.1307 189.404 42.1307C188.625 42.1307 187.927 42.2517 187.311 42.4936C186.697 42.7322 186.175 43.0819 185.744 43.5426C185.317 44 184.99 44.5568 184.765 45.2131C184.543 45.866 184.432 46.6084 184.432 47.4403C184.432 48.2855 184.543 49.0362 184.765 49.6925C184.99 50.3487 185.322 50.9022 185.759 51.353C186.2 51.8037 186.745 52.1451 187.395 52.3771C188.045 52.6125 188.794 52.7301 189.642 52.7301C190.007 52.7301 190.366 52.6953 190.721 52.6257C191.076 52.5561 191.389 52.4799 191.661 52.397C191.932 52.3142 192.128 52.2528 192.247 52.2131L192.526 53.1278C192.32 53.214 192.052 53.3002 191.72 53.3864C191.392 53.4725 191.041 53.5438 190.666 53.6001C190.295 53.6565 189.941 53.6847 189.602 53.6847ZM189.026 49.7273C189.47 49.7273 189.829 49.6378 190.105 49.4588C190.38 49.2798 190.58 49.0097 190.706 48.6484C190.832 48.2872 190.895 47.8314 190.895 47.2812C190.895 46.7244 190.825 46.2902 190.686 45.9787C190.547 45.6671 190.342 45.4484 190.07 45.3224C189.798 45.1965 189.463 45.1335 189.066 45.1335C188.688 45.1335 188.365 45.233 188.096 45.4318C187.831 45.6274 187.627 45.8892 187.485 46.2173C187.345 46.5421 187.276 46.8968 187.276 47.2812C187.276 47.7055 187.332 48.1049 187.445 48.4794C187.557 48.8506 187.741 49.1522 187.997 49.3842C188.252 49.6129 188.595 49.7273 189.026 49.7273ZM199.93 54.0227C199.363 54.0227 198.876 53.9498 198.468 53.804C198.06 53.6615 197.721 53.4725 197.449 53.2372C197.18 53.0052 196.967 52.7566 196.808 52.4915L197.742 51.8352C197.848 51.9744 197.982 52.1335 198.145 52.3125C198.307 52.4948 198.529 52.6522 198.811 52.7848C199.096 52.9207 199.469 52.9886 199.93 52.9886C200.546 52.9886 201.055 52.8395 201.456 52.5412C201.857 52.2429 202.058 51.7756 202.058 51.1392V49.5881H201.958C201.872 49.7273 201.749 49.8996 201.59 50.1051C201.434 50.3073 201.209 50.4879 200.914 50.647C200.622 50.8028 200.228 50.8807 199.731 50.8807C199.114 50.8807 198.561 50.7348 198.07 50.4432C197.583 50.1515 197.197 49.7273 196.912 49.1705C196.63 48.6136 196.489 47.9375 196.489 47.142C196.489 46.3598 196.627 45.6787 196.902 45.0987C197.177 44.5154 197.56 44.0646 198.05 43.7464C198.541 43.425 199.108 43.2642 199.751 43.2642C200.248 43.2642 200.642 43.3471 200.934 43.5128C201.229 43.6752 201.454 43.8608 201.61 44.0696C201.769 44.2751 201.892 44.4441 201.978 44.5767H202.097V43.3636H203.231V51.2188C203.231 51.875 203.082 52.4086 202.783 52.8196C202.488 53.2339 202.091 53.5372 201.59 53.7294C201.093 53.925 200.54 54.0227 199.93 54.0227ZM199.89 49.8267C200.361 49.8267 200.758 49.719 201.083 49.5036C201.408 49.2881 201.655 48.9782 201.824 48.5739C201.993 48.1695 202.077 47.6856 202.077 47.1222C202.077 46.572 201.995 46.0864 201.829 45.6655C201.663 45.2446 201.418 44.9148 201.093 44.6761C200.768 44.4375 200.367 44.3182 199.89 44.3182C199.393 44.3182 198.978 44.4441 198.647 44.696C198.319 44.9479 198.072 45.286 197.906 45.7102C197.744 46.1345 197.663 46.6051 197.663 47.1222C197.663 47.6525 197.746 48.1214 197.911 48.5291C198.08 48.9335 198.329 49.2517 198.657 49.4837C198.988 49.7124 199.399 49.8267 199.89 49.8267ZM205.379 51V43.3636H206.512V44.5568H206.612C206.771 44.1491 207.027 43.8326 207.382 43.6072C207.737 43.3786 208.163 43.2642 208.66 43.2642C209.164 43.2642 209.583 43.3786 209.918 43.6072C210.256 43.8326 210.519 44.1491 210.708 44.5568H210.788C210.983 44.1624 211.277 43.8492 211.668 43.6172C212.059 43.3819 212.528 43.2642 213.075 43.2642C213.757 43.2642 214.316 43.478 214.75 43.9055C215.184 44.3298 215.401 44.991 215.401 45.8892V51H214.228V45.8892C214.228 45.3258 214.074 44.9231 213.766 44.6811C213.457 44.4392 213.094 44.3182 212.677 44.3182C212.14 44.3182 211.724 44.4806 211.429 44.8054C211.134 45.1269 210.987 45.5346 210.987 46.0284V51H209.793V45.7699C209.793 45.3357 209.652 44.986 209.371 44.7209C209.089 44.4524 208.726 44.3182 208.282 44.3182C207.977 44.3182 207.692 44.3994 207.427 44.5618C207.165 44.7242 206.953 44.9496 206.79 45.2379C206.631 45.523 206.552 45.8527 206.552 46.2273V51H205.379ZM219.794 51.179C219.31 51.179 218.871 51.0878 218.476 50.9055C218.082 50.7199 217.769 50.4531 217.537 50.1051C217.305 49.7538 217.189 49.3295 217.189 48.8324C217.189 48.3949 217.275 48.0402 217.447 47.7685C217.619 47.4934 217.85 47.2779 218.138 47.1222C218.426 46.9664 218.745 46.8504 219.093 46.7741C219.444 46.6946 219.797 46.6316 220.152 46.5852C220.616 46.5256 220.992 46.4808 221.28 46.451C221.572 46.4179 221.784 46.3632 221.917 46.2869C222.052 46.2107 222.12 46.0781 222.12 45.8892V45.8494C222.12 45.3589 221.986 44.9777 221.718 44.706C221.453 44.4342 221.05 44.2983 220.51 44.2983C219.949 44.2983 219.51 44.4209 219.192 44.6662C218.874 44.9115 218.65 45.1733 218.521 45.4517L217.407 45.054C217.606 44.59 217.871 44.2287 218.203 43.9702C218.538 43.7083 218.902 43.526 219.297 43.4233C219.694 43.3172 220.085 43.2642 220.47 43.2642C220.715 43.2642 220.997 43.294 221.315 43.3537C221.636 43.41 221.946 43.5277 222.245 43.7067C222.546 43.8857 222.797 44.1558 222.995 44.517C223.194 44.8783 223.294 45.3622 223.294 45.9688V51H222.12V49.9659H222.061C221.981 50.1316 221.849 50.3089 221.663 50.4979C221.477 50.6868 221.23 50.8475 220.922 50.9801C220.614 51.1127 220.238 51.179 219.794 51.179ZM219.973 50.125C220.437 50.125 220.828 50.0339 221.146 49.8516C221.467 49.6693 221.709 49.4339 221.872 49.1456C222.038 48.8572 222.12 48.554 222.12 48.2358V47.1619C222.071 47.2216 221.961 47.2763 221.792 47.326C221.627 47.3724 221.434 47.4138 221.216 47.4503C221 47.4834 220.79 47.5133 220.584 47.5398C220.382 47.563 220.218 47.5829 220.092 47.5994C219.787 47.6392 219.502 47.7038 219.237 47.7933C218.975 47.8795 218.763 48.0104 218.6 48.1861C218.441 48.3584 218.362 48.5937 218.362 48.892C218.362 49.2997 218.513 49.608 218.814 49.8168C219.119 50.0223 219.505 50.125 219.973 50.125ZM225.435 51V43.3636H226.608V51H225.435ZM226.032 42.0909C225.803 42.0909 225.606 42.013 225.44 41.8572C225.278 41.7015 225.197 41.5142 225.197 41.2955C225.197 41.0767 225.278 40.8894 225.44 40.7337C225.606 40.5779 225.803 40.5 226.032 40.5C226.26 40.5 226.456 40.5779 226.618 40.7337C226.784 40.8894 226.867 41.0767 226.867 41.2955C226.867 41.5142 226.784 41.7015 226.618 41.8572C226.456 42.013 226.26 42.0909 226.032 42.0909ZM229.931 40.8182V51H228.757V40.8182H229.931ZM232.935 51.0795C232.69 51.0795 232.479 50.9917 232.303 50.8161C232.128 50.6404 232.04 50.4299 232.04 50.1847C232.04 49.9394 232.128 49.7289 232.303 49.5533C232.479 49.3776 232.69 49.2898 232.935 49.2898C233.18 49.2898 233.391 49.3776 233.566 49.5533C233.742 49.7289 233.83 49.9394 233.83 50.1847C233.83 50.3471 233.788 50.4962 233.705 50.6321C233.626 50.768 233.518 50.8774 233.382 50.9602C233.25 51.0398 233.101 51.0795 232.935 51.0795ZM239.037 51.1591C238.322 51.1591 237.705 50.9901 237.188 50.652C236.671 50.3139 236.273 49.8482 235.995 49.255C235.716 48.6617 235.577 47.9839 235.577 47.2216C235.577 46.446 235.72 45.7616 236.005 45.1683C236.293 44.5717 236.694 44.1061 237.208 43.7713C237.725 43.4332 238.328 43.2642 239.018 43.2642C239.555 43.2642 240.038 43.3636 240.469 43.5625C240.9 43.7614 241.253 44.0398 241.528 44.3977C241.803 44.7557 241.974 45.1733 242.04 45.6506H240.867C240.778 45.3026 240.579 44.9943 240.27 44.7259C239.965 44.4541 239.555 44.3182 239.037 44.3182C238.58 44.3182 238.179 44.4375 237.834 44.6761C237.493 44.9115 237.226 45.2446 237.034 45.6754C236.845 46.103 236.751 46.6051 236.751 47.1818C236.751 47.7718 236.843 48.2855 237.029 48.723C237.218 49.1605 237.483 49.5002 237.824 49.7422C238.169 49.9841 238.573 50.1051 239.037 50.1051C239.342 50.1051 239.619 50.0521 239.868 49.946C240.116 49.84 240.327 49.6875 240.499 49.4886C240.671 49.2898 240.794 49.0511 240.867 48.7727H242.04C241.974 49.2235 241.81 49.6295 241.548 49.9908C241.29 50.3487 240.947 50.6338 240.519 50.8459C240.095 51.0547 239.601 51.1591 239.037 51.1591ZM246.858 51.1591C246.168 51.1591 245.564 50.995 245.043 50.6669C244.526 50.3388 244.122 49.8797 243.83 49.2898C243.542 48.6998 243.398 48.0104 243.398 47.2216C243.398 46.4261 243.542 45.7318 243.83 45.1385C244.122 44.5452 244.526 44.0845 245.043 43.7564C245.564 43.4283 246.168 43.2642 246.858 43.2642C247.547 43.2642 248.15 43.4283 248.667 43.7564C249.188 44.0845 249.592 44.5452 249.881 45.1385C250.172 45.7318 250.318 46.4261 250.318 47.2216C250.318 48.0104 250.172 48.6998 249.881 49.2898C249.592 49.8797 249.188 50.3388 248.667 50.6669C248.15 50.995 247.547 51.1591 246.858 51.1591ZM246.858 50.1051C247.381 50.1051 247.812 49.9709 248.15 49.7024C248.488 49.4339 248.739 49.081 248.901 48.6435C249.064 48.206 249.145 47.732 249.145 47.2216C249.145 46.7112 249.064 46.2356 248.901 45.7947C248.739 45.3539 248.488 44.9976 248.15 44.7259C247.812 44.4541 247.381 44.3182 246.858 44.3182C246.334 44.3182 245.903 44.4541 245.565 44.7259C245.227 44.9976 244.977 45.3539 244.814 45.7947C244.652 46.2356 244.571 46.7112 244.571 47.2216C244.571 47.732 244.652 48.206 244.814 48.6435C244.977 49.081 245.227 49.4339 245.565 49.7024C245.903 49.9709 246.334 50.1051 246.858 50.1051ZM252.109 51V43.3636H253.243V44.5568H253.342C253.501 44.1491 253.758 43.8326 254.113 43.6072C254.467 43.3786 254.893 43.2642 255.39 43.2642C255.894 43.2642 256.313 43.3786 256.648 43.6072C256.986 43.8326 257.25 44.1491 257.439 44.5568H257.518C257.714 44.1624 258.007 43.8492 258.398 43.6172C258.789 43.3819 259.258 43.2642 259.805 43.2642C260.488 43.2642 261.046 43.478 261.48 43.9055C261.915 44.3298 262.132 44.991 262.132 45.8892V51H260.958V45.8892C260.958 45.3258 260.804 44.9231 260.496 44.6811C260.188 44.4392 259.825 44.3182 259.407 44.3182C258.87 44.3182 258.454 44.4806 258.159 44.8054C257.864 45.1269 257.717 45.5346 257.717 46.0284V51H256.524V45.7699C256.524 45.3357 256.383 44.986 256.101 44.7209C255.819 44.4524 255.457 44.3182 255.012 44.3182C254.708 44.3182 254.422 44.3994 254.157 44.5618C253.895 44.7242 253.683 44.9496 253.521 45.2379C253.362 45.523 253.282 45.8527 253.282 46.2273V51H252.109Z" fill="#6B788E"/>
</svg>
