<svg width="345" height="72" viewBox="0 0 345 72" fill="none" xmlns="http://www.w3.org/2000/svg">
<mask id="path-1-inside-1_1_6338" fill="white">
<path d="M0 0H345V72H0V0Z"/>
</mask>
<path d="M345 71H0V73H345V71Z" fill="#EAECF0" mask="url(#path-1-inside-1_1_6338)"/>
<rect x="24.5" y="26.5" width="19" height="19" rx="5.5" fill="white"/>
<rect x="24.5" y="26.5" width="19" height="19" rx="5.5" stroke="#D0D5DD"/>
<rect x="56" y="16" width="40" height="40" rx="20" fill="#FFF2EA"/>
<path d="M65.7045 41V30.8182H72.3266V32.3643H67.5489V35.1286H71.9836V36.6747H67.5489V39.4538H72.3664V41H65.7045ZM76.3511 41L73.4775 30.8182H75.4612L77.2957 38.3004H77.3902L79.349 30.8182H81.1537L83.1175 38.3054H83.2069L85.0415 30.8182H87.0251L84.1515 41H82.3319L80.2936 33.8558H80.214L78.1707 41H76.3511Z" fill="#93312B"/>
<path d="M109.119 31V20.8182H115.502V22.1406H110.655V25.2429H115.169V26.5604H110.655V29.6776H115.562V31H109.119ZM117.435 31V23.3636H118.862V24.6065H118.956C119.115 24.1856 119.375 23.8575 119.737 23.6222C120.098 23.3835 120.53 23.2642 121.034 23.2642C121.545 23.2642 121.972 23.3835 122.317 23.6222C122.665 23.8608 122.922 24.1889 123.088 24.6065H123.167C123.349 24.1989 123.639 23.8741 124.037 23.6321C124.435 23.3868 124.909 23.2642 125.459 23.2642C126.152 23.2642 126.717 23.4813 127.154 23.9155C127.595 24.3497 127.816 25.0043 127.816 25.8793V31H126.329V26.0185C126.329 25.5014 126.188 25.1269 125.906 24.8949C125.625 24.6629 125.288 24.5469 124.897 24.5469C124.413 24.5469 124.037 24.696 123.769 24.9943C123.5 25.2893 123.366 25.6688 123.366 26.1328V31H121.884V25.924C121.884 25.5097 121.755 25.1766 121.497 24.9247C121.238 24.6728 120.902 24.5469 120.487 24.5469C120.206 24.5469 119.945 24.6214 119.707 24.7706C119.472 24.9164 119.281 25.1203 119.135 25.3821C118.993 25.6439 118.921 25.9472 118.921 26.2919V31H117.435ZM133.099 31.1541C132.347 31.1541 131.699 30.9934 131.155 30.6719C130.615 30.3471 130.197 29.8913 129.902 29.3047C129.611 28.7147 129.465 28.0237 129.465 27.2315C129.465 26.4493 129.611 25.7599 129.902 25.1634C130.197 24.5668 130.608 24.1011 131.135 23.7663C131.666 23.4316 132.285 23.2642 132.995 23.2642C133.426 23.2642 133.843 23.3355 134.248 23.478C134.652 23.6205 135.015 23.8442 135.336 24.1491C135.658 24.4541 135.911 24.8501 136.097 25.3374C136.283 25.8213 136.375 26.4096 136.375 27.1023V27.6293H130.305V26.5156H134.919C134.919 26.1245 134.839 25.7782 134.68 25.4766C134.521 25.1716 134.297 24.9313 134.009 24.7557C133.724 24.58 133.389 24.4922 133.005 24.4922C132.587 24.4922 132.222 24.5949 131.911 24.8004C131.603 25.0026 131.364 25.2678 131.195 25.5959C131.029 25.9207 130.946 26.2737 130.946 26.6548V27.5249C130.946 28.0353 131.036 28.4695 131.215 28.8274C131.397 29.1854 131.651 29.4588 131.975 29.6477C132.3 29.8333 132.68 29.9261 133.114 29.9261C133.396 29.9261 133.653 29.8864 133.885 29.8068C134.117 29.724 134.317 29.6013 134.486 29.4389C134.655 29.2765 134.784 29.076 134.874 28.8374L136.281 29.0909C136.168 29.5052 135.966 29.8681 135.674 30.1797C135.386 30.4879 135.023 30.7282 134.586 30.9006C134.151 31.0696 133.656 31.1541 133.099 31.1541ZM141.589 23.3636V24.5568H137.418V23.3636H141.589ZM138.537 21.5341H140.023V28.7578C140.023 29.0462 140.066 29.2633 140.153 29.4091C140.239 29.5516 140.35 29.6494 140.486 29.7024C140.625 29.7521 140.776 29.777 140.938 29.777C141.057 29.777 141.162 29.7687 141.251 29.7521C141.341 29.7356 141.41 29.7223 141.46 29.7124L141.729 30.9403C141.642 30.9735 141.52 31.0066 141.361 31.0398C141.202 31.0762 141.003 31.0961 140.764 31.0994C140.373 31.1061 140.008 31.0365 139.67 30.8906C139.332 30.7448 139.059 30.5194 138.85 30.2145C138.641 29.9096 138.537 29.5268 138.537 29.0661V21.5341ZM146.368 31.1541C145.652 31.1541 145.028 30.9901 144.494 30.6619C143.96 30.3338 143.546 29.8748 143.251 29.2848C142.956 28.6948 142.809 28.0054 142.809 27.2166C142.809 26.4245 142.956 25.7318 143.251 25.1385C143.546 24.5452 143.96 24.0845 144.494 23.7564C145.028 23.4283 145.652 23.2642 146.368 23.2642C147.084 23.2642 147.709 23.4283 148.243 23.7564C148.776 24.0845 149.19 24.5452 149.485 25.1385C149.78 25.7318 149.928 26.4245 149.928 27.2166C149.928 28.0054 149.78 28.6948 149.485 29.2848C149.19 29.8748 148.776 30.3338 148.243 30.6619C147.709 30.9901 147.084 31.1541 146.368 31.1541ZM146.373 29.9062C146.837 29.9062 147.222 29.7836 147.527 29.5384C147.832 29.2931 148.057 28.9666 148.203 28.5589C148.352 28.1513 148.426 27.7022 148.426 27.2116C148.426 26.7244 148.352 26.277 148.203 25.8693C148.057 25.4583 147.832 25.1286 147.527 24.88C147.222 24.6314 146.837 24.5071 146.373 24.5071C145.906 24.5071 145.518 24.6314 145.21 24.88C144.905 25.1286 144.678 25.4583 144.529 25.8693C144.383 26.277 144.31 26.7244 144.31 27.2116C144.31 27.7022 144.383 28.1513 144.529 28.5589C144.678 28.9666 144.905 29.2931 145.21 29.5384C145.518 29.7836 145.906 29.9062 146.373 29.9062ZM161.11 31L158.286 20.8182H159.902L161.886 28.7031H161.98L164.044 20.8182H165.644L167.708 28.7081H167.802L169.781 20.8182H171.401L168.573 31H167.026L164.884 23.3736H164.804L162.661 31H161.11ZM172.683 31V23.3636H174.169V31H172.683ZM173.434 22.1854C173.175 22.1854 172.953 22.0992 172.767 21.9268C172.585 21.7512 172.494 21.5424 172.494 21.3004C172.494 21.0552 172.585 20.8464 172.767 20.674C172.953 20.4983 173.175 20.4105 173.434 20.4105C173.692 20.4105 173.913 20.4983 174.095 20.674C174.28 20.8464 174.373 21.0552 174.373 21.3004C174.373 21.5424 174.28 21.7512 174.095 21.9268C173.913 22.0992 173.692 22.1854 173.434 22.1854ZM177.656 26.4659V31H176.169V23.3636H177.596V24.6065H177.691C177.866 24.2022 178.141 23.8774 178.516 23.6321C178.894 23.3868 179.369 23.2642 179.943 23.2642C180.463 23.2642 180.919 23.3736 181.31 23.5923C181.701 23.8078 182.004 24.1293 182.22 24.5568C182.435 24.9844 182.543 25.513 182.543 26.1428V31H181.056V26.3217C181.056 25.7682 180.912 25.3357 180.624 25.0241C180.335 24.7093 179.939 24.5518 179.436 24.5518C179.091 24.5518 178.784 24.6264 178.516 24.7756C178.251 24.9247 178.04 25.1435 177.884 25.4318C177.732 25.7169 177.656 26.0616 177.656 26.4659ZM186.023 26.4659V31H184.536V23.3636H185.963V24.6065H186.058C186.233 24.2022 186.508 23.8774 186.883 23.6321C187.261 23.3868 187.736 23.2642 188.31 23.2642C188.83 23.2642 189.286 23.3736 189.677 23.5923C190.068 23.8078 190.371 24.1293 190.587 24.5568C190.802 24.9844 190.91 25.513 190.91 26.1428V31H189.423V26.3217C189.423 25.7682 189.279 25.3357 188.991 25.0241C188.703 24.7093 188.307 24.5518 187.803 24.5518C187.458 24.5518 187.151 24.6264 186.883 24.7756C186.618 24.9247 186.407 25.1435 186.252 25.4318C186.099 25.7169 186.023 26.0616 186.023 26.4659ZM196.195 31.1541C195.442 31.1541 194.794 30.9934 194.251 30.6719C193.711 30.3471 193.293 29.8913 192.998 29.3047C192.706 28.7147 192.561 28.0237 192.561 27.2315C192.561 26.4493 192.706 25.7599 192.998 25.1634C193.293 24.5668 193.704 24.1011 194.231 23.7663C194.761 23.4316 195.381 23.2642 196.09 23.2642C196.521 23.2642 196.939 23.3355 197.343 23.478C197.748 23.6205 198.11 23.8442 198.432 24.1491C198.753 24.4541 199.007 24.8501 199.193 25.3374C199.378 25.8213 199.471 26.4096 199.471 27.1023V27.6293H193.401V26.5156H198.014C198.014 26.1245 197.935 25.7782 197.776 25.4766C197.617 25.1716 197.393 24.9313 197.105 24.7557C196.82 24.58 196.485 24.4922 196.1 24.4922C195.683 24.4922 195.318 24.5949 195.007 24.8004C194.698 25.0026 194.46 25.2678 194.291 25.5959C194.125 25.9207 194.042 26.2737 194.042 26.6548V27.5249C194.042 28.0353 194.132 28.4695 194.311 28.8274C194.493 29.1854 194.746 29.4588 195.071 29.6477C195.396 29.8333 195.776 29.9261 196.21 29.9261C196.491 29.9261 196.748 29.8864 196.98 29.8068C197.212 29.724 197.413 29.6013 197.582 29.4389C197.751 29.2765 197.88 29.076 197.97 28.8374L199.377 29.0909C199.264 29.5052 199.062 29.8681 198.77 30.1797C198.482 30.4879 198.119 30.7282 197.681 30.9006C197.247 31.0696 196.752 31.1541 196.195 31.1541ZM201.12 31V23.3636H202.557V24.5767H202.637C202.776 24.1657 203.021 23.8426 203.373 23.6072C203.727 23.3686 204.128 23.2493 204.576 23.2493C204.668 23.2493 204.778 23.2526 204.904 23.2592C205.033 23.2659 205.134 23.2741 205.207 23.2841V24.706C205.147 24.6894 205.041 24.6712 204.889 24.6513C204.736 24.6281 204.584 24.6165 204.431 24.6165C204.08 24.6165 203.767 24.6911 203.492 24.8402C203.22 24.986 203.005 25.1899 202.846 25.4517C202.686 25.7102 202.607 26.0052 202.607 26.3366V31H201.12Z" fill="#101828"/>
<path d="M109.233 51V40.8182H115.378V41.9119H110.466V45.3523H115.06V46.446H110.466V49.9062H115.457V51H109.233ZM117.441 51V43.3636H118.575V44.5568H118.674C118.833 44.1491 119.09 43.8326 119.445 43.6072C119.799 43.3786 120.225 43.2642 120.722 43.2642C121.226 43.2642 121.645 43.3786 121.98 43.6072C122.318 43.8326 122.582 44.1491 122.771 44.5568H122.85C123.046 44.1624 123.339 43.8492 123.73 43.6172C124.121 43.3819 124.59 43.2642 125.137 43.2642C125.82 43.2642 126.378 43.478 126.812 43.9055C127.247 44.3298 127.464 44.991 127.464 45.8892V51H126.29V45.8892C126.29 45.3258 126.136 44.9231 125.828 44.6811C125.52 44.4392 125.157 44.3182 124.739 44.3182C124.202 44.3182 123.786 44.4806 123.491 44.8054C123.196 45.1269 123.049 45.5346 123.049 46.0284V51H121.856V45.7699C121.856 45.3357 121.715 44.986 121.433 44.7209C121.152 44.4524 120.789 44.3182 120.344 44.3182C120.04 44.3182 119.754 44.3994 119.489 44.5618C119.228 44.7242 119.015 44.9496 118.853 45.2379C118.694 45.523 118.614 45.8527 118.614 46.2273V51H117.441ZM132.811 51.1591C132.075 51.1591 131.44 50.9967 130.907 50.6719C130.376 50.3438 129.967 49.8864 129.679 49.2997C129.394 48.7098 129.251 48.0237 129.251 47.2415C129.251 46.4593 129.394 45.7699 129.679 45.1733C129.967 44.5734 130.368 44.1061 130.882 43.7713C131.399 43.4332 132.002 43.2642 132.691 43.2642C133.089 43.2642 133.482 43.3305 133.87 43.4631C134.257 43.5956 134.61 43.8111 134.929 44.1094C135.247 44.4044 135.5 44.7955 135.689 45.2827C135.878 45.7699 135.973 46.3698 135.973 47.0824V47.5795H130.086V46.5653H134.779C134.779 46.1345 134.693 45.75 134.521 45.4119C134.352 45.0739 134.11 44.8071 133.795 44.6115C133.484 44.416 133.116 44.3182 132.691 44.3182C132.224 44.3182 131.82 44.4342 131.478 44.6662C131.14 44.8949 130.88 45.1932 130.698 45.5611C130.516 45.929 130.424 46.3234 130.424 46.7443V47.4205C130.424 47.9972 130.524 48.486 130.723 48.8871C130.925 49.2848 131.205 49.5881 131.563 49.7969C131.921 50.0024 132.337 50.1051 132.811 50.1051C133.119 50.1051 133.397 50.062 133.646 49.9759C133.898 49.8864 134.115 49.7538 134.297 49.5781C134.48 49.3991 134.62 49.1771 134.72 48.9119L135.853 49.2301C135.734 49.6146 135.533 49.9527 135.252 50.2443C134.97 50.5327 134.622 50.758 134.208 50.9205C133.793 51.0795 133.328 51.1591 132.811 51.1591ZM141.078 43.3636V44.358H137.121V43.3636H141.078ZM138.275 41.5341H139.448V48.8125C139.448 49.1439 139.496 49.3925 139.592 49.5582C139.691 49.7206 139.817 49.83 139.97 49.8864C140.126 49.9394 140.29 49.9659 140.462 49.9659C140.591 49.9659 140.697 49.9593 140.78 49.946C140.863 49.9295 140.929 49.9162 140.979 49.9062L141.218 50.9602C141.138 50.9901 141.027 51.0199 140.885 51.0497C140.742 51.0829 140.561 51.0994 140.343 51.0994C140.011 51.0994 139.686 51.0282 139.368 50.8857C139.053 50.7431 138.792 50.526 138.583 50.2344C138.377 49.9427 138.275 49.5748 138.275 49.1307V41.5341ZM145.864 51.1591C145.174 51.1591 144.569 50.995 144.049 50.6669C143.532 50.3388 143.128 49.8797 142.836 49.2898C142.548 48.6998 142.403 48.0104 142.403 47.2216C142.403 46.4261 142.548 45.7318 142.836 45.1385C143.128 44.5452 143.532 44.0845 144.049 43.7564C144.569 43.4283 145.174 43.2642 145.864 43.2642C146.553 43.2642 147.156 43.4283 147.673 43.7564C148.194 44.0845 148.598 44.5452 148.886 45.1385C149.178 45.7318 149.324 46.4261 149.324 47.2216C149.324 48.0104 149.178 48.6998 148.886 49.2898C148.598 49.8797 148.194 50.3388 147.673 50.6669C147.156 50.995 146.553 51.1591 145.864 51.1591ZM145.864 50.1051C146.387 50.1051 146.818 49.9709 147.156 49.7024C147.494 49.4339 147.745 49.081 147.907 48.6435C148.069 48.206 148.151 47.732 148.151 47.2216C148.151 46.7112 148.069 46.2356 147.907 45.7947C147.745 45.3539 147.494 44.9976 147.156 44.7259C146.818 44.4541 146.387 44.3182 145.864 44.3182C145.34 44.3182 144.909 44.4541 144.571 44.7259C144.233 44.9976 143.983 45.3539 143.82 45.7947C143.658 46.2356 143.577 46.7112 143.577 47.2216C143.577 47.732 143.658 48.206 143.82 48.6435C143.983 49.081 144.233 49.4339 144.571 49.7024C144.909 49.9709 145.34 50.1051 145.864 50.1051ZM152.585 51L150.259 43.3636H151.491L153.142 49.2102H153.222L154.852 43.3636H156.105L157.716 49.1903H157.795L159.446 43.3636H160.679L158.352 51H157.199L155.528 45.1335H155.409L153.739 51H152.585ZM162.23 51V43.3636H163.403V51H162.23ZM162.827 42.0909C162.598 42.0909 162.401 42.013 162.235 41.8572C162.073 41.7015 161.991 41.5142 161.991 41.2955C161.991 41.0767 162.073 40.8894 162.235 40.7337C162.401 40.5779 162.598 40.5 162.827 40.5C163.055 40.5 163.251 40.5779 163.413 40.7337C163.579 40.8894 163.662 41.0767 163.662 41.2955C163.662 41.5142 163.579 41.7015 163.413 41.8572C163.251 42.013 163.055 42.0909 162.827 42.0909ZM166.726 46.4062V51H165.552V43.3636H166.686V44.5568H166.785C166.964 44.169 167.236 43.8575 167.601 43.6222C167.965 43.3835 168.436 43.2642 169.013 43.2642C169.53 43.2642 169.982 43.3703 170.37 43.5824C170.758 43.7912 171.059 44.1094 171.275 44.5369C171.49 44.9612 171.598 45.4981 171.598 46.1477V51H170.425V46.2273C170.425 45.6274 170.269 45.16 169.957 44.8253C169.646 44.4872 169.218 44.3182 168.675 44.3182C168.3 44.3182 167.965 44.3994 167.67 44.5618C167.379 44.7242 167.148 44.9612 166.979 45.2727C166.81 45.5843 166.726 45.9621 166.726 46.4062ZM174.915 46.4062V51H173.742V43.3636H174.875V44.5568H174.975C175.154 44.169 175.426 43.8575 175.79 43.6222C176.155 43.3835 176.625 43.2642 177.202 43.2642C177.719 43.2642 178.172 43.3703 178.559 43.5824C178.947 43.7912 179.249 44.1094 179.464 44.5369C179.68 44.9612 179.787 45.4981 179.787 46.1477V51H178.614V46.2273C178.614 45.6274 178.458 45.16 178.147 44.8253C177.835 44.4872 177.408 44.3182 176.864 44.3182C176.489 44.3182 176.155 44.3994 175.86 44.5618C175.568 44.7242 175.338 44.9612 175.169 45.2727C175 45.5843 174.915 45.9621 174.915 46.4062ZM185.133 51.1591C184.397 51.1591 183.762 50.9967 183.229 50.6719C182.699 50.3438 182.289 49.8864 182.001 49.2997C181.716 48.7098 181.573 48.0237 181.573 47.2415C181.573 46.4593 181.716 45.7699 182.001 45.1733C182.289 44.5734 182.69 44.1061 183.204 43.7713C183.721 43.4332 184.324 43.2642 185.014 43.2642C185.411 43.2642 185.804 43.3305 186.192 43.4631C186.58 43.5956 186.933 43.8111 187.251 44.1094C187.569 44.4044 187.823 44.7955 188.012 45.2827C188.2 45.7699 188.295 46.3698 188.295 47.0824V47.5795H182.409V46.5653H187.102C187.102 46.1345 187.016 45.75 186.843 45.4119C186.674 45.0739 186.432 44.8071 186.117 44.6115C185.806 44.416 185.438 44.3182 185.014 44.3182C184.546 44.3182 184.142 44.4342 183.801 44.6662C183.463 44.8949 183.202 45.1932 183.02 45.5611C182.838 45.929 182.747 46.3234 182.747 46.7443V47.4205C182.747 47.9972 182.846 48.486 183.045 48.8871C183.247 49.2848 183.527 49.5881 183.885 49.7969C184.243 50.0024 184.659 50.1051 185.133 50.1051C185.441 50.1051 185.72 50.062 185.968 49.9759C186.22 49.8864 186.437 49.7538 186.619 49.5781C186.802 49.3991 186.943 49.1771 187.042 48.9119L188.176 49.2301C188.056 49.6146 187.856 49.9527 187.574 50.2443C187.292 50.5327 186.944 50.758 186.53 50.9205C186.116 51.0795 185.65 51.1591 185.133 51.1591ZM190.08 51V43.3636H191.213V44.517H191.293C191.432 44.1392 191.684 43.8326 192.048 43.5973C192.413 43.362 192.824 43.2443 193.281 43.2443C193.368 43.2443 193.475 43.246 193.605 43.2493C193.734 43.2526 193.832 43.2576 193.898 43.2642V44.4574C193.858 44.4474 193.767 44.4325 193.624 44.4126C193.485 44.3894 193.338 44.3778 193.182 44.3778C192.811 44.3778 192.479 44.4557 192.188 44.6115C191.899 44.764 191.671 44.9761 191.502 45.2479C191.336 45.5163 191.253 45.8229 191.253 46.1676V51H190.08ZM201.155 53.6847C200.141 53.6847 199.244 53.5455 198.466 53.267C197.687 52.992 197.032 52.5859 196.502 52.049C195.971 51.5121 195.57 50.8542 195.299 50.0753C195.027 49.2964 194.891 48.4048 194.891 47.4006C194.891 46.4295 195.029 45.5611 195.304 44.7955C195.582 44.0298 195.985 43.3802 196.512 42.8466C197.042 42.3097 197.685 41.9003 198.441 41.6186C199.2 41.3369 200.058 41.196 201.016 41.196C201.947 41.196 202.763 41.3485 203.462 41.6534C204.165 41.955 204.751 42.3643 205.222 42.8814C205.696 43.3951 206.051 43.9735 206.286 44.6165C206.525 45.2595 206.644 45.9223 206.644 46.6051C206.644 47.0857 206.621 47.5729 206.574 48.0668C206.528 48.5606 206.43 49.0147 206.281 49.429C206.132 49.84 205.901 50.1714 205.59 50.4233C205.282 50.6752 204.864 50.8011 204.337 50.8011C204.105 50.8011 203.85 50.7647 203.571 50.6918C203.293 50.6188 203.046 50.4979 202.831 50.3288C202.615 50.1598 202.488 49.9328 202.448 49.6477H202.388C202.309 49.84 202.186 50.0223 202.02 50.1946C201.858 50.367 201.644 50.5045 201.379 50.6072C201.117 50.71 200.797 50.7547 200.419 50.7415C199.989 50.7249 199.609 50.6288 199.281 50.4531C198.953 50.2741 198.678 50.0322 198.456 49.7273C198.237 49.419 198.071 49.0627 197.958 48.6584C197.849 48.2507 197.794 47.8116 197.794 47.3409C197.794 46.8935 197.861 46.4841 197.993 46.1129C198.126 45.7417 198.31 45.4169 198.545 45.1385C198.784 44.8601 199.062 44.638 199.38 44.4723C199.702 44.3033 200.048 44.1989 200.419 44.1591C200.751 44.1259 201.052 44.1409 201.324 44.2038C201.596 44.2635 201.82 44.3546 201.995 44.4773C202.171 44.5966 202.282 44.7292 202.328 44.875H202.388V44.3182H203.442V48.8125C203.442 49.0909 203.52 49.3362 203.676 49.5483C203.832 49.7604 204.059 49.8665 204.357 49.8665C204.695 49.8665 204.953 49.7505 205.132 49.5185C205.315 49.2865 205.439 48.9285 205.505 48.4446C205.575 47.9607 205.61 47.3409 205.61 46.5852C205.61 46.1411 205.548 45.7036 205.426 45.2727C205.306 44.8385 205.124 44.4325 204.879 44.0547C204.637 43.6768 204.33 43.3437 203.959 43.0554C203.588 42.767 203.152 42.5417 202.652 42.3793C202.154 42.2135 201.589 42.1307 200.956 42.1307C200.177 42.1307 199.48 42.2517 198.863 42.4936C198.25 42.7322 197.728 43.0819 197.297 43.5426C196.87 44 196.543 44.5568 196.318 45.2131C196.096 45.866 195.985 46.6084 195.985 47.4403C195.985 48.2855 196.096 49.0362 196.318 49.6925C196.543 50.3487 196.875 50.9022 197.312 51.353C197.753 51.8037 198.298 52.1451 198.948 52.3771C199.597 52.6125 200.346 52.7301 201.195 52.7301C201.56 52.7301 201.919 52.6953 202.274 52.6257C202.628 52.5561 202.942 52.4799 203.213 52.397C203.485 52.3142 203.681 52.2528 203.8 52.2131L204.078 53.1278C203.873 53.214 203.605 53.3002 203.273 53.3864C202.945 53.4725 202.594 53.5438 202.219 53.6001C201.848 53.6565 201.493 53.6847 201.155 53.6847ZM200.578 49.7273C201.023 49.7273 201.382 49.6378 201.657 49.4588C201.932 49.2798 202.133 49.0097 202.259 48.6484C202.385 48.2872 202.448 47.8314 202.448 47.2812C202.448 46.7244 202.378 46.2902 202.239 45.9787C202.1 45.6671 201.894 45.4484 201.623 45.3224C201.351 45.1965 201.016 45.1335 200.618 45.1335C200.24 45.1335 199.917 45.233 199.649 45.4318C199.384 45.6274 199.18 45.8892 199.037 46.2173C198.898 46.5421 198.828 46.8968 198.828 47.2812C198.828 47.7055 198.885 48.1049 198.998 48.4794C199.11 48.8506 199.294 49.1522 199.549 49.3842C199.805 49.6129 200.148 49.7273 200.578 49.7273ZM211.482 54.0227C210.916 54.0227 210.428 53.9498 210.021 53.804C209.613 53.6615 209.273 53.4725 209.002 53.2372C208.733 53.0052 208.519 52.7566 208.36 52.4915L209.295 51.8352C209.401 51.9744 209.535 52.1335 209.698 52.3125C209.86 52.4948 210.082 52.6522 210.364 52.7848C210.649 52.9207 211.022 52.9886 211.482 52.9886C212.099 52.9886 212.608 52.8395 213.009 52.5412C213.41 52.2429 213.61 51.7756 213.61 51.1392V49.5881H213.511C213.425 49.7273 213.302 49.8996 213.143 50.1051C212.987 50.3073 212.762 50.4879 212.467 50.647C212.175 50.8028 211.781 50.8807 211.284 50.8807C210.667 50.8807 210.114 50.7348 209.623 50.4432C209.136 50.1515 208.75 49.7273 208.465 49.1705C208.183 48.6136 208.042 47.9375 208.042 47.142C208.042 46.3598 208.18 45.6787 208.455 45.0987C208.73 44.5154 209.113 44.0646 209.603 43.7464C210.094 43.425 210.66 43.2642 211.303 43.2642C211.801 43.2642 212.195 43.3471 212.487 43.5128C212.782 43.6752 213.007 43.8608 213.163 44.0696C213.322 44.2751 213.445 44.4441 213.531 44.5767H213.65V43.3636H214.784V51.2188C214.784 51.875 214.634 52.4086 214.336 52.8196C214.041 53.2339 213.643 53.5372 213.143 53.7294C212.646 53.925 212.092 54.0227 211.482 54.0227ZM211.443 49.8267C211.913 49.8267 212.311 49.719 212.636 49.5036C212.961 49.2881 213.208 48.9782 213.377 48.5739C213.546 48.1695 213.63 47.6856 213.63 47.1222C213.63 46.572 213.547 46.0864 213.382 45.6655C213.216 45.2446 212.971 44.9148 212.646 44.6761C212.321 44.4375 211.92 44.3182 211.443 44.3182C210.945 44.3182 210.531 44.4441 210.2 44.696C209.872 44.9479 209.625 45.286 209.459 45.7102C209.297 46.1345 209.215 46.6051 209.215 47.1222C209.215 47.6525 209.298 48.1214 209.464 48.5291C209.633 48.9335 209.882 49.2517 210.21 49.4837C210.541 49.7124 210.952 49.8267 211.443 49.8267ZM216.931 51V43.3636H218.065V44.5568H218.164C218.323 44.1491 218.58 43.8326 218.935 43.6072C219.289 43.3786 219.715 43.2642 220.213 43.2642C220.716 43.2642 221.136 43.3786 221.47 43.6072C221.808 43.8326 222.072 44.1491 222.261 44.5568H222.34C222.536 44.1624 222.829 43.8492 223.22 43.6172C223.611 43.3819 224.08 43.2642 224.627 43.2642C225.31 43.2642 225.869 43.478 226.303 43.9055C226.737 44.3298 226.954 44.991 226.954 45.8892V51H225.781V45.8892C225.781 45.3258 225.627 44.9231 225.318 44.6811C225.01 44.4392 224.647 44.3182 224.23 44.3182C223.693 44.3182 223.277 44.4806 222.982 44.8054C222.687 45.1269 222.539 45.5346 222.539 46.0284V51H221.346V45.7699C221.346 45.3357 221.205 44.986 220.923 44.7209C220.642 44.4524 220.279 44.3182 219.835 44.3182C219.53 44.3182 219.245 44.3994 218.98 44.5618C218.718 44.7242 218.506 44.9496 218.343 45.2379C218.184 45.523 218.105 45.8527 218.105 46.2273V51H216.931ZM231.346 51.179C230.863 51.179 230.423 51.0878 230.029 50.9055C229.635 50.7199 229.321 50.4531 229.089 50.1051C228.857 49.7538 228.741 49.3295 228.741 48.8324C228.741 48.3949 228.827 48.0402 229 47.7685C229.172 47.4934 229.403 47.2779 229.691 47.1222C229.979 46.9664 230.297 46.8504 230.645 46.7741C230.997 46.6946 231.35 46.6316 231.704 46.5852C232.168 46.5256 232.545 46.4808 232.833 46.451C233.125 46.4179 233.337 46.3632 233.469 46.2869C233.605 46.2107 233.673 46.0781 233.673 45.8892V45.8494C233.673 45.3589 233.539 44.9777 233.27 44.706C233.005 44.4342 232.603 44.2983 232.062 44.2983C231.502 44.2983 231.063 44.4209 230.745 44.6662C230.427 44.9115 230.203 45.1733 230.074 45.4517L228.96 45.054C229.159 44.59 229.424 44.2287 229.756 43.9702C230.09 43.7083 230.455 43.526 230.849 43.4233C231.247 43.3172 231.638 43.2642 232.023 43.2642C232.268 43.2642 232.55 43.294 232.868 43.3537C233.189 43.41 233.499 43.5277 233.797 43.7067C234.099 43.8857 234.349 44.1558 234.548 44.517C234.747 44.8783 234.846 45.3622 234.846 45.9688V51H233.673V49.9659H233.613C233.534 50.1316 233.401 50.3089 233.216 50.4979C233.03 50.6868 232.783 50.8475 232.475 50.9801C232.167 51.1127 231.791 51.179 231.346 51.179ZM231.525 50.125C231.989 50.125 232.381 50.0339 232.699 49.8516C233.02 49.6693 233.262 49.4339 233.425 49.1456C233.59 48.8572 233.673 48.554 233.673 48.2358V47.1619C233.623 47.2216 233.514 47.2763 233.345 47.326C233.179 47.3724 232.987 47.4138 232.768 47.4503C232.553 47.4834 232.342 47.5133 232.137 47.5398C231.935 47.563 231.771 47.5829 231.645 47.5994C231.34 47.6392 231.055 47.7038 230.79 47.7933C230.528 47.8795 230.316 48.0104 230.153 48.1861C229.994 48.3584 229.915 48.5937 229.915 48.892C229.915 49.2997 230.065 49.608 230.367 49.8168C230.672 50.0223 231.058 50.125 231.525 50.125ZM236.988 51V43.3636H238.161V51H236.988ZM237.585 42.0909C237.356 42.0909 237.159 42.013 236.993 41.8572C236.83 41.7015 236.749 41.5142 236.749 41.2955C236.749 41.0767 236.83 40.8894 236.993 40.7337C237.159 40.5779 237.356 40.5 237.585 40.5C237.813 40.5 238.009 40.5779 238.171 40.7337C238.337 40.8894 238.42 41.0767 238.42 41.2955C238.42 41.5142 238.337 41.7015 238.171 41.8572C238.009 42.013 237.813 42.0909 237.585 42.0909ZM241.483 40.8182V51H240.31V40.8182H241.483ZM244.488 51.0795C244.242 51.0795 244.032 50.9917 243.856 50.8161C243.681 50.6404 243.593 50.4299 243.593 50.1847C243.593 49.9394 243.681 49.7289 243.856 49.5533C244.032 49.3776 244.242 49.2898 244.488 49.2898C244.733 49.2898 244.943 49.3776 245.119 49.5533C245.295 49.7289 245.382 49.9394 245.382 50.1847C245.382 50.3471 245.341 50.4962 245.258 50.6321C245.179 50.768 245.071 50.8774 244.935 50.9602C244.802 51.0398 244.653 51.0795 244.488 51.0795ZM250.59 51.1591C249.874 51.1591 249.258 50.9901 248.741 50.652C248.224 50.3139 247.826 49.8482 247.548 49.255C247.269 48.6617 247.13 47.9839 247.13 47.2216C247.13 46.446 247.272 45.7616 247.558 45.1683C247.846 44.5717 248.247 44.1061 248.761 43.7713C249.278 43.4332 249.881 43.2642 250.57 43.2642C251.107 43.2642 251.591 43.3636 252.022 43.5625C252.453 43.7614 252.806 44.0398 253.081 44.3977C253.356 44.7557 253.527 45.1733 253.593 45.6506H252.42C252.33 45.3026 252.131 44.9943 251.823 44.7259C251.518 44.4541 251.107 44.3182 250.59 44.3182C250.133 44.3182 249.732 44.4375 249.387 44.6761C249.046 44.9115 248.779 45.2446 248.587 45.6754C248.398 46.103 248.303 46.6051 248.303 47.1818C248.303 47.7718 248.396 48.2855 248.582 48.723C248.771 49.1605 249.036 49.5002 249.377 49.7422C249.722 49.9841 250.126 50.1051 250.59 50.1051C250.895 50.1051 251.172 50.0521 251.42 49.946C251.669 49.84 251.879 49.6875 252.052 49.4886C252.224 49.2898 252.347 49.0511 252.42 48.7727H253.593C253.527 49.2235 253.363 49.6295 253.101 49.9908C252.842 50.3487 252.499 50.6338 252.072 50.8459C251.647 51.0547 251.154 51.1591 250.59 51.1591ZM258.411 51.1591C257.721 51.1591 257.116 50.995 256.596 50.6669C256.079 50.3388 255.674 49.8797 255.383 49.2898C255.094 48.6998 254.95 48.0104 254.95 47.2216C254.95 46.4261 255.094 45.7318 255.383 45.1385C255.674 44.5452 256.079 44.0845 256.596 43.7564C257.116 43.4283 257.721 43.2642 258.411 43.2642C259.1 43.2642 259.703 43.4283 260.22 43.7564C260.741 44.0845 261.145 44.5452 261.433 45.1385C261.725 45.7318 261.871 46.4261 261.871 47.2216C261.871 48.0104 261.725 48.6998 261.433 49.2898C261.145 49.8797 260.741 50.3388 260.22 50.6669C259.703 50.995 259.1 51.1591 258.411 51.1591ZM258.411 50.1051C258.934 50.1051 259.365 49.9709 259.703 49.7024C260.041 49.4339 260.291 49.081 260.454 48.6435C260.616 48.206 260.697 47.732 260.697 47.2216C260.697 46.7112 260.616 46.2356 260.454 45.7947C260.291 45.3539 260.041 44.9976 259.703 44.7259C259.365 44.4541 258.934 44.3182 258.411 44.3182C257.887 44.3182 257.456 44.4541 257.118 44.7259C256.78 44.9976 256.53 45.3539 256.367 45.7947C256.205 46.2356 256.124 46.7112 256.124 47.2216C256.124 47.732 256.205 48.206 256.367 48.6435C256.53 49.081 256.78 49.4339 257.118 49.7024C257.456 49.9709 257.887 50.1051 258.411 50.1051ZM263.662 51V43.3636H264.795V44.5568H264.895C265.054 44.1491 265.311 43.8326 265.665 43.6072C266.02 43.3786 266.446 43.2642 266.943 43.2642C267.447 43.2642 267.866 43.3786 268.201 43.6072C268.539 43.8326 268.802 44.1491 268.991 44.5568H269.071C269.266 44.1624 269.56 43.8492 269.951 43.6172C270.342 43.3819 270.811 43.2642 271.358 43.2642C272.041 43.2642 272.599 43.478 273.033 43.9055C273.467 44.3298 273.684 44.991 273.684 45.8892V51H272.511V45.8892C272.511 45.3258 272.357 44.9231 272.049 44.6811C271.741 44.4392 271.378 44.3182 270.96 44.3182C270.423 44.3182 270.007 44.4806 269.712 44.8054C269.417 45.1269 269.27 45.5346 269.27 46.0284V51H268.077V45.7699C268.077 45.3357 267.936 44.986 267.654 44.7209C267.372 44.4524 267.009 44.3182 266.565 44.3182C266.26 44.3182 265.975 44.3994 265.71 44.5618C265.448 44.7242 265.236 44.9496 265.074 45.2379C264.915 45.523 264.835 45.8527 264.835 46.2273V51H263.662Z" fill="#6B788E"/>
</svg>
