<svg width="123" height="44" viewBox="0 0 123 44" fill="none" xmlns="http://www.w3.org/2000/svg">
<rect width="123" height="44" rx="8" fill="#6A1039"/>
<rect x="16" y="12" width="20" height="20" rx="10" stroke="#D0D5DD" stroke-linecap="round" stroke-linejoin="round" stroke-dasharray="1 3"/>
<path d="M26 17.3333V26.6667M21.3334 22H30.6667" stroke="#F5F6F7" stroke-width="1.33333" stroke-linecap="round" stroke-linejoin="round"/>
<path d="M53.3068 16.8182V27H52.1136L46.5653 19.0057H46.4659V27H45.233V16.8182H46.4261L51.9943 24.8324H52.0938V16.8182H53.3068ZM58.8166 27.1591C58.0808 27.1591 57.4461 26.9967 56.9125 26.6719C56.3822 26.3438 55.9728 25.8864 55.6845 25.2997C55.3994 24.7098 55.2569 24.0237 55.2569 23.2415C55.2569 22.4593 55.3994 21.7699 55.6845 21.1733C55.9728 20.5734 56.3739 20.1061 56.8876 19.7713C57.4047 19.4332 58.0079 19.2642 58.6973 19.2642C59.095 19.2642 59.4877 19.3305 59.8755 19.4631C60.2633 19.5956 60.6163 19.8111 60.9345 20.1094C61.2527 20.4044 61.5062 20.7955 61.6951 21.2827C61.8841 21.7699 61.9785 22.3698 61.9785 23.0824V23.5795H56.0922V22.5653H60.7853C60.7853 22.1345 60.6992 21.75 60.5268 21.4119C60.3578 21.0739 60.1158 20.8071 59.801 20.6115C59.4894 20.416 59.1215 20.3182 58.6973 20.3182C58.2299 20.3182 57.8256 20.4342 57.4842 20.6662C57.1461 20.8949 56.8859 21.1932 56.7037 21.5611C56.5214 21.929 56.4302 22.3234 56.4302 22.7443V23.4205C56.4302 23.9972 56.5297 24.486 56.7285 24.8871C56.9307 25.2848 57.2108 25.5881 57.5687 25.7969C57.9267 26.0024 58.3426 26.1051 58.8166 26.1051C59.1248 26.1051 59.4032 26.062 59.6518 25.9759C59.9037 25.8864 60.1208 25.7538 60.3031 25.5781C60.4854 25.3991 60.6262 25.1771 60.7257 24.9119L61.8592 25.2301C61.7399 25.6146 61.5394 25.9527 61.2576 26.2443C60.9759 26.5327 60.6279 26.758 60.2136 26.9205C59.7993 27.0795 59.3336 27.1591 58.8166 27.1591ZM65.4934 27L63.1667 19.3636H64.3997L66.0502 25.2102H66.1298L67.7605 19.3636H69.0133L70.6241 25.1903H70.7037L72.3542 19.3636H73.5872L71.2605 27H70.1071L68.4366 21.1335H68.3173L66.6468 27H65.4934ZM79.2349 27V16.8182H82.6752C83.4707 16.8182 84.1236 16.9541 84.6341 17.2259C85.1445 17.4943 85.5223 17.8639 85.7676 18.3345C86.0128 18.8052 86.1355 19.3404 86.1355 19.9403C86.1355 20.5402 86.0128 21.0722 85.7676 21.5362C85.5223 22.0002 85.1461 22.3648 84.639 22.63C84.1319 22.8918 83.484 23.0227 82.6951 23.0227H79.911V21.9091H82.6554C83.1989 21.9091 83.6364 21.8295 83.9679 21.6705C84.3026 21.5114 84.5446 21.286 84.6937 20.9943C84.8462 20.6993 84.9224 20.348 84.9224 19.9403C84.9224 19.5327 84.8462 19.1764 84.6937 18.8714C84.5413 18.5665 84.2976 18.3312 83.9629 18.1655C83.6281 17.9964 83.1857 17.9119 82.6355 17.9119H80.4679V27H79.2349ZM84.0275 22.4261L86.5332 27H85.1014L82.6355 22.4261H84.0275ZM91.0511 27.1591C90.3617 27.1591 89.7569 26.995 89.2365 26.6669C88.7195 26.3388 88.3151 25.8797 88.0234 25.2898C87.7351 24.6998 87.5909 24.0104 87.5909 23.2216C87.5909 22.4261 87.7351 21.7318 88.0234 21.1385C88.3151 20.5452 88.7195 20.0845 89.2365 19.7564C89.7569 19.4283 90.3617 19.2642 91.0511 19.2642C91.7405 19.2642 92.3438 19.4283 92.8608 19.7564C93.3812 20.0845 93.7855 20.5452 94.0739 21.1385C94.3655 21.7318 94.5114 22.4261 94.5114 23.2216C94.5114 24.0104 94.3655 24.6998 94.0739 25.2898C93.7855 25.8797 93.3812 26.3388 92.8608 26.6669C92.3438 26.995 91.7405 27.1591 91.0511 27.1591ZM91.0511 26.1051C91.5748 26.1051 92.0057 25.9709 92.3438 25.7024C92.6818 25.4339 92.9321 25.081 93.0945 24.6435C93.2569 24.206 93.3381 23.732 93.3381 23.2216C93.3381 22.7112 93.2569 22.2356 93.0945 21.7947C92.9321 21.3539 92.6818 20.9976 92.3438 20.7259C92.0057 20.4541 91.5748 20.3182 91.0511 20.3182C90.5275 20.3182 90.0966 20.4541 89.7585 20.7259C89.4205 20.9976 89.1702 21.3539 89.0078 21.7947C88.8454 22.2356 88.7642 22.7112 88.7642 23.2216C88.7642 23.732 88.8454 24.206 89.0078 24.6435C89.1702 25.081 89.4205 25.4339 89.7585 25.7024C90.0966 25.9709 90.5275 26.1051 91.0511 26.1051ZM97.4757 16.8182V27H96.3024V16.8182H97.4757ZM102.826 27.1591C102.091 27.1591 101.456 26.9967 100.922 26.6719C100.392 26.3438 99.9826 25.8864 99.6942 25.2997C99.4092 24.7098 99.2667 24.0237 99.2667 23.2415C99.2667 22.4593 99.4092 21.7699 99.6942 21.1733C99.9826 20.5734 100.384 20.1061 100.897 19.7713C101.414 19.4332 102.018 19.2642 102.707 19.2642C103.105 19.2642 103.498 19.3305 103.885 19.4631C104.273 19.5956 104.626 19.8111 104.944 20.1094C105.262 20.4044 105.516 20.7955 105.705 21.2827C105.894 21.7699 105.988 22.3698 105.988 23.0824V23.5795H100.102V22.5653H104.795C104.795 22.1345 104.709 21.75 104.537 21.4119C104.368 21.0739 104.126 20.8071 103.811 20.6115C103.499 20.416 103.131 20.3182 102.707 20.3182C102.24 20.3182 101.835 20.4342 101.494 20.6662C101.156 20.8949 100.896 21.1932 100.713 21.5611C100.531 21.929 100.44 22.3234 100.44 22.7443V23.4205C100.44 23.9972 100.539 24.486 100.738 24.8871C100.94 25.2848 101.221 25.5881 101.578 25.7969C101.936 26.0024 102.352 26.1051 102.826 26.1051C103.135 26.1051 103.413 26.062 103.662 25.9759C103.913 25.8864 104.131 25.7538 104.313 25.5781C104.495 25.3991 104.636 25.1771 104.735 24.9119L105.869 25.2301C105.75 25.6146 105.549 25.9527 105.267 26.2443C104.986 26.5327 104.638 26.758 104.223 26.9205C103.809 27.0795 103.343 27.1591 102.826 27.1591Z" fill="white"/>
</svg>
