<svg width="293" height="40" viewBox="0 0 293 40" fill="none" xmlns="http://www.w3.org/2000/svg">
<g clip-path="url(#clip0_1_6597)">
<rect x="0.5" width="40" height="40" rx="8" fill="#EFF1F4"/>
<path d="M21.8423 14.8182V25H20.3011V16.3594H20.2415L17.8054 17.9503V16.4787L20.3459 14.8182H21.8423Z" fill="#091E42"/>
</g>
<g clip-path="url(#clip1_1_6597)">
<path d="M58.9794 25V23.8864L62.4247 20.3168C62.7926 19.929 63.0959 19.5893 63.3345 19.2976C63.5765 19.0026 63.7571 18.7225 63.8764 18.4574C63.9957 18.1922 64.0554 17.9105 64.0554 17.6122C64.0554 17.2741 63.9759 16.9825 63.8168 16.7372C63.6577 16.4886 63.4406 16.2981 63.1655 16.1655C62.8904 16.0296 62.5805 15.9616 62.2358 15.9616C61.8712 15.9616 61.553 16.0362 61.2812 16.1854C61.0095 16.3345 60.8007 16.545 60.6548 16.8168C60.509 17.0885 60.4361 17.4067 60.4361 17.7713H58.9695C58.9695 17.1515 59.112 16.6096 59.397 16.1456C59.6821 15.6816 60.0732 15.322 60.5703 15.0668C61.0675 14.8082 61.6326 14.679 62.2656 14.679C62.9053 14.679 63.4688 14.8066 63.956 15.0618C64.4465 15.3137 64.8293 15.6584 65.1044 16.0959C65.3795 16.5301 65.517 17.0206 65.517 17.5675C65.517 17.9453 65.4458 18.3149 65.3033 18.6761C65.1641 19.0374 64.9205 19.4401 64.5724 19.8842C64.2244 20.325 63.7405 20.8603 63.1207 21.4901L61.0973 23.608V23.6825H65.6811V25H58.9794Z" fill="#667085"/>
</g>
<g clip-path="url(#clip2_1_6597)">
<path d="M104.024 25.1392C103.341 25.1392 102.732 25.0215 102.195 24.7862C101.661 24.5509 101.238 24.2244 100.927 23.8068C100.619 23.3859 100.453 22.8987 100.43 22.3452H101.991C102.011 22.6468 102.112 22.9086 102.294 23.1307C102.48 23.3494 102.722 23.5185 103.02 23.6378C103.318 23.7571 103.65 23.8168 104.014 23.8168C104.415 23.8168 104.77 23.7472 105.078 23.608C105.39 23.4687 105.633 23.2749 105.809 23.0263C105.985 22.7744 106.072 22.4844 106.072 22.1562C106.072 21.8149 105.985 21.5149 105.809 21.2564C105.637 20.9946 105.383 20.7891 105.048 20.6399C104.717 20.4908 104.316 20.4162 103.845 20.4162H102.985V19.1634H103.845C104.223 19.1634 104.554 19.0954 104.839 18.9595C105.128 18.8236 105.353 18.6347 105.516 18.3928C105.678 18.1475 105.759 17.8608 105.759 17.5327C105.759 17.2178 105.688 16.9444 105.545 16.7124C105.406 16.477 105.207 16.2931 104.949 16.1605C104.694 16.0279 104.392 15.9616 104.044 15.9616C103.713 15.9616 103.403 16.023 103.114 16.1456C102.829 16.2649 102.597 16.4373 102.418 16.6626C102.239 16.8847 102.143 17.1515 102.13 17.4631H100.643C100.66 16.9129 100.822 16.429 101.131 16.0114C101.442 15.5937 101.853 15.2673 102.364 15.032C102.874 14.7966 103.441 14.679 104.064 14.679C104.717 14.679 105.28 14.8066 105.754 15.0618C106.232 15.3137 106.599 15.6501 106.858 16.071C107.12 16.492 107.249 16.9527 107.246 17.4531C107.249 18.0232 107.09 18.5071 106.768 18.9048C106.45 19.3026 106.026 19.5694 105.496 19.7053V19.7848C106.172 19.8875 106.696 20.156 107.067 20.5902C107.441 21.0244 107.627 21.563 107.624 22.206C107.627 22.7661 107.471 23.2682 107.156 23.7124C106.845 24.1565 106.419 24.5062 105.879 24.7614C105.338 25.0133 104.72 25.1392 104.024 25.1392Z" fill="#667085"/>
</g>
<g clip-path="url(#clip3_1_6597)">
<path d="M142.479 25.0945C142.207 25.0945 141.973 24.9983 141.778 24.8061C141.582 24.6106 141.484 24.3752 141.484 24.1001C141.484 23.8284 141.582 23.5964 141.778 23.4041C141.973 23.2086 142.207 23.1108 142.479 23.1108C142.75 23.1108 142.984 23.2086 143.18 23.4041C143.375 23.5964 143.473 23.8284 143.473 24.1001C143.473 24.2824 143.427 24.4498 143.334 24.6023C143.244 24.7514 143.125 24.8707 142.976 24.9602C142.827 25.0497 142.661 25.0945 142.479 25.0945ZM146.444 25.0945C146.172 25.0945 145.938 24.9983 145.743 24.8061C145.547 24.6106 145.449 24.3752 145.449 24.1001C145.449 23.8284 145.547 23.5964 145.743 23.4041C145.938 23.2086 146.172 23.1108 146.444 23.1108C146.715 23.1108 146.949 23.2086 147.145 23.4041C147.34 23.5964 147.438 23.8284 147.438 24.1001C147.438 24.2824 147.391 24.4498 147.299 24.6023C147.209 24.7514 147.09 24.8707 146.941 24.9602C146.792 25.0497 146.626 25.0945 146.444 25.0945ZM150.408 25.0945C150.137 25.0945 149.903 24.9983 149.707 24.8061C149.512 24.6106 149.414 24.3752 149.414 24.1001C149.414 23.8284 149.512 23.5964 149.707 23.4041C149.903 23.2086 150.137 23.1108 150.408 23.1108C150.68 23.1108 150.914 23.2086 151.109 23.4041C151.305 23.5964 151.403 23.8284 151.403 24.1001C151.403 24.2824 151.356 24.4498 151.263 24.6023C151.174 24.7514 151.055 24.8707 150.906 24.9602C150.756 25.0497 150.591 25.0945 150.408 25.0945Z" fill="#667085"/>
</g>
<g clip-path="url(#clip4_1_6597)">
<path d="M188.42 25.1392C187.707 25.1392 187.077 25.0166 186.531 24.7713C185.987 24.526 185.561 24.188 185.253 23.7571C184.945 23.3262 184.792 22.8357 184.795 22.2855C184.792 21.8546 184.88 21.4586 185.059 21.0973C185.241 20.7327 185.488 20.4295 185.8 20.1875C186.111 19.9422 186.459 19.7865 186.844 19.7202V19.6605C186.337 19.5379 185.931 19.2661 185.626 18.8452C185.321 18.4242 185.17 17.9403 185.173 17.3935C185.17 16.8731 185.308 16.4091 185.586 16.0014C185.868 15.5904 186.254 15.2673 186.744 15.032C187.235 14.7966 187.793 14.679 188.42 14.679C189.04 14.679 189.593 14.7983 190.08 15.0369C190.571 15.2723 190.957 15.5954 191.239 16.0064C191.52 16.4141 191.663 16.8764 191.666 17.3935C191.663 17.9403 191.507 18.4242 191.199 18.8452C190.891 19.2661 190.49 19.5379 189.996 19.6605V19.7202C190.377 19.7865 190.72 19.9422 191.025 20.1875C191.333 20.4295 191.578 20.7327 191.761 21.0973C191.946 21.4586 192.041 21.8546 192.044 22.2855C192.041 22.8357 191.885 23.3262 191.577 23.7571C191.268 24.188 190.841 24.526 190.294 24.7713C189.75 25.0166 189.126 25.1392 188.42 25.1392ZM188.42 23.8814C188.841 23.8814 189.205 23.8118 189.513 23.6726C189.822 23.5301 190.06 23.3329 190.229 23.081C190.398 22.8258 190.485 22.5275 190.488 22.1861C190.485 21.8314 190.392 21.5182 190.21 21.2464C190.031 20.9747 189.787 20.7609 189.479 20.6051C189.17 20.4493 188.817 20.3714 188.42 20.3714C188.019 20.3714 187.662 20.4493 187.351 20.6051C187.039 20.7609 186.794 20.9747 186.615 21.2464C186.436 21.5182 186.348 21.8314 186.352 22.1861C186.348 22.5275 186.429 22.8258 186.595 23.081C186.764 23.3329 187.004 23.5301 187.316 23.6726C187.628 23.8118 187.996 23.8814 188.42 23.8814ZM188.42 19.1435C188.758 19.1435 189.058 19.0755 189.32 18.9396C189.581 18.8037 189.787 18.6148 189.936 18.3729C190.089 18.1309 190.166 17.8475 190.17 17.5227C190.166 17.2045 190.09 16.9261 189.941 16.6875C189.795 16.4489 189.591 16.2649 189.33 16.1357C189.068 16.0031 188.764 15.9368 188.42 15.9368C188.068 15.9368 187.76 16.0031 187.495 16.1357C187.233 16.2649 187.029 16.4489 186.884 16.6875C186.738 16.9261 186.666 17.2045 186.67 17.5227C186.666 17.8475 186.739 18.1309 186.888 18.3729C187.038 18.6148 187.243 18.8037 187.505 18.9396C187.77 19.0755 188.075 19.1435 188.42 19.1435Z" fill="#667085"/>
</g>
<g clip-path="url(#clip5_1_6597)">
<path d="M230.365 14.679C230.819 14.6823 231.267 14.7652 231.707 14.9276C232.148 15.09 232.546 15.3551 232.901 15.723C233.259 16.0909 233.544 16.5881 233.756 17.2145C233.971 17.8376 234.08 18.6132 234.084 19.5412C234.084 20.4328 233.994 21.2266 233.815 21.9226C233.636 22.6153 233.379 23.2003 233.045 23.6776C232.713 24.1548 232.311 24.5178 231.837 24.7663C231.363 25.0149 230.829 25.1392 230.236 25.1392C229.629 25.1392 229.091 25.0199 228.62 24.7812C228.149 24.5426 227.767 24.2128 227.472 23.7919C227.177 23.3677 226.993 22.8804 226.92 22.3303H228.436C228.536 22.7678 228.738 23.1224 229.043 23.3942C229.351 23.6626 229.749 23.7969 230.236 23.7969C230.982 23.7969 231.563 23.4721 231.981 22.8224C232.398 22.1695 232.609 21.258 232.612 20.0881H232.533C232.36 20.3731 232.145 20.6184 231.886 20.8239C231.631 21.0294 231.344 21.1884 231.026 21.3011C230.708 21.4138 230.368 21.4702 230.007 21.4702C229.42 21.4702 228.887 21.326 228.406 21.0376C227.926 20.7493 227.543 20.3532 227.258 19.8494C226.973 19.3456 226.83 18.7706 226.83 18.1243C226.83 17.4813 226.976 16.898 227.268 16.3743C227.563 15.8506 227.974 15.4363 228.501 15.1314C229.031 14.8232 229.652 14.6723 230.365 14.679ZM230.37 15.9716C229.982 15.9716 229.633 16.0677 229.321 16.2599C229.013 16.4489 228.769 16.7057 228.59 17.0305C228.411 17.352 228.322 17.71 228.322 18.1044C228.322 18.4988 228.408 18.8568 228.58 19.1783C228.756 19.4964 228.995 19.75 229.296 19.9389C229.601 20.1245 229.949 20.2173 230.34 20.2173C230.632 20.2173 230.904 20.161 231.156 20.0483C231.407 19.9356 231.628 19.7798 231.817 19.581C232.006 19.3788 232.153 19.1501 232.259 18.8949C232.365 18.6397 232.418 18.3712 232.418 18.0895C232.418 17.715 232.329 17.367 232.15 17.0455C231.974 16.724 231.732 16.4654 231.424 16.2699C231.116 16.071 230.764 15.9716 230.37 15.9716Z" fill="#667085"/>
</g>
<g clip-path="url(#clip6_1_6597)">
<path d="M269.342 14.8182V25H267.801V16.3594H267.741L265.305 17.9503V16.4787L267.846 14.8182H269.342ZM275.641 25.169C274.856 25.1657 274.185 24.9586 273.628 24.5476C273.071 24.1366 272.645 23.5384 272.35 22.7528C272.055 21.9673 271.908 21.0211 271.908 19.9141C271.908 18.8104 272.055 17.8674 272.35 17.0852C272.648 16.303 273.076 15.7064 273.633 15.2955C274.193 14.8845 274.862 14.679 275.641 14.679C276.42 14.679 277.088 14.8861 277.645 15.3004C278.202 15.7114 278.628 16.308 278.923 17.0902C279.221 17.8691 279.37 18.8104 279.37 19.9141C279.37 21.0244 279.223 21.9723 278.928 22.7578C278.633 23.54 278.207 24.1383 277.65 24.5526C277.093 24.9635 276.424 25.169 275.641 25.169ZM275.641 23.8416C276.331 23.8416 276.869 23.5052 277.257 22.8324C277.648 22.1596 277.844 21.1868 277.844 19.9141C277.844 19.0689 277.754 18.3546 277.575 17.7713C277.4 17.1847 277.146 16.7405 276.815 16.4389C276.487 16.134 276.095 15.9815 275.641 15.9815C274.955 15.9815 274.417 16.3196 274.026 16.9957C273.634 17.6719 273.437 18.6446 273.434 19.9141C273.434 20.7625 273.522 21.4801 273.697 22.0668C273.876 22.6501 274.13 23.0926 274.458 23.3942C274.786 23.6925 275.181 23.8416 275.641 23.8416Z" fill="#667085"/>
</g>
<defs>
<clipPath id="clip0_1_6597">
<rect x="0.5" width="40" height="40" rx="8" fill="white"/>
</clipPath>
<clipPath id="clip1_1_6597">
<rect x="42.5" width="40" height="40" rx="8" fill="white"/>
</clipPath>
<clipPath id="clip2_1_6597">
<rect x="84.5" width="40" height="40" rx="8" fill="white"/>
</clipPath>
<clipPath id="clip3_1_6597">
<rect x="126.5" width="40" height="40" rx="8" fill="white"/>
</clipPath>
<clipPath id="clip4_1_6597">
<rect x="168.5" width="40" height="40" rx="8" fill="white"/>
</clipPath>
<clipPath id="clip5_1_6597">
<rect x="210.5" width="40" height="40" rx="8" fill="white"/>
</clipPath>
<clipPath id="clip6_1_6597">
<rect x="252.5" width="40" height="40" rx="8" fill="white"/>
</clipPath>
</defs>
</svg>
