<svg width="825" height="28" viewBox="0 0 825 28" fill="none" xmlns="http://www.w3.org/2000/svg">
<path d="M1.752 22V5.2H8.808C9.848 5.2 10.76 5.384 11.544 5.752C12.344 6.104 12.96 6.616 13.392 7.288C13.84 7.96 14.064 8.76 14.064 9.688V9.952C14.064 11.008 13.808 11.856 13.296 12.496C12.8 13.12 12.192 13.56 11.472 13.816V14.2C12.08 14.232 12.568 14.44 12.936 14.824C13.304 15.192 13.488 15.728 13.488 16.432V22H10.872V16.792C10.872 16.36 10.76 16.016 10.536 15.76C10.312 15.504 9.952 15.376 9.456 15.376H4.344V22H1.752ZM4.344 13.024H8.52C9.448 13.024 10.168 12.792 10.68 12.328C11.192 11.848 11.448 11.2 11.448 10.384V10.192C11.448 9.376 11.192 8.736 10.68 8.272C10.184 7.792 9.464 7.552 8.52 7.552H4.344V13.024ZM22.5321 22.336C21.3481 22.336 20.2921 22.096 19.3641 21.616C18.4521 21.12 17.7321 20.416 17.2041 19.504C16.6761 18.592 16.4121 17.512 16.4121 16.264V15.904C16.4121 14.656 16.6761 13.584 17.2041 12.688C17.7321 11.776 18.4521 11.072 19.3641 10.576C20.2921 10.08 21.3481 9.832 22.5321 9.832C23.7161 9.832 24.7721 10.08 25.7001 10.576C26.6281 11.072 27.3561 11.776 27.8841 12.688C28.4121 13.584 28.6761 14.656 28.6761 15.904V16.264C28.6761 17.512 28.4121 18.592 27.8841 19.504C27.3561 20.416 26.6281 21.12 25.7001 21.616C24.7721 22.096 23.7161 22.336 22.5321 22.336ZM22.5321 20.128C23.6201 20.128 24.5001 19.784 25.1721 19.096C25.8601 18.392 26.2041 17.424 26.2041 16.192V15.976C26.2041 14.744 25.8681 13.784 25.1961 13.096C24.5241 12.392 23.6361 12.04 22.5321 12.04C21.4601 12.04 20.5801 12.392 19.8921 13.096C19.2201 13.784 18.8841 14.744 18.8841 15.976V16.192C18.8841 17.424 19.2201 18.392 19.8921 19.096C20.5801 19.784 21.4601 20.128 22.5321 20.128ZM31.7537 22V5.2H34.2257V22H31.7537ZM43.3183 22.336C42.1183 22.336 41.0703 22.088 40.1743 21.592C39.2783 21.08 38.5743 20.368 38.0623 19.456C37.5663 18.528 37.3183 17.456 37.3183 16.24V15.952C37.3183 14.72 37.5663 13.648 38.0623 12.736C38.5583 11.808 39.2463 11.096 40.1263 10.6C41.0223 10.088 42.0543 9.832 43.2223 9.832C44.3583 9.832 45.3503 10.088 46.1983 10.6C47.0623 11.096 47.7343 11.792 48.2143 12.688C48.6943 13.584 48.9343 14.632 48.9343 15.832V16.768H39.8383C39.8703 17.808 40.2143 18.64 40.8703 19.264C41.5423 19.872 42.3743 20.176 43.3663 20.176C44.2943 20.176 44.9903 19.968 45.4543 19.552C45.9343 19.136 46.3023 18.656 46.5583 18.112L48.5983 19.168C48.3743 19.616 48.0463 20.088 47.6143 20.584C47.1983 21.08 46.6463 21.496 45.9583 21.832C45.2703 22.168 44.3903 22.336 43.3183 22.336ZM39.8623 14.872H46.4143C46.3503 13.976 46.0303 13.28 45.4543 12.784C44.8783 12.272 44.1263 12.016 43.1983 12.016C42.2703 12.016 41.5103 12.272 40.9183 12.784C40.3423 13.28 39.9903 13.976 39.8623 14.872ZM56.7579 22.336C55.2539 22.336 54.0059 22 53.0139 21.328C52.0219 20.656 51.4139 19.64 51.1899 18.28L53.4939 17.728C53.6219 18.384 53.8379 18.904 54.1419 19.288C54.4459 19.672 54.8219 19.944 55.2699 20.104C55.7339 20.264 56.2299 20.344 56.7579 20.344C57.5419 20.344 58.1419 20.192 58.5579 19.888C58.9899 19.584 59.2059 19.192 59.2059 18.712C59.2059 18.232 59.0059 17.88 58.6059 17.656C58.2059 17.432 57.6139 17.248 56.8299 17.104L56.0139 16.96C55.2139 16.816 54.4859 16.608 53.8299 16.336C53.1739 16.064 52.6539 15.688 52.2699 15.208C51.8859 14.728 51.6939 14.112 51.6939 13.36C51.6939 12.24 52.1099 11.376 52.9419 10.768C53.7739 10.144 54.8779 9.832 56.2539 9.832C57.5819 9.832 58.6699 10.136 59.5179 10.744C60.3819 11.336 60.9419 12.144 61.1979 13.168L58.8939 13.816C58.7499 13.096 58.4459 12.592 57.9819 12.304C57.5179 12 56.9419 11.848 56.2539 11.848C55.5819 11.848 55.0539 11.976 54.6699 12.232C54.2859 12.472 54.0939 12.816 54.0939 13.264C54.0939 13.744 54.2779 14.096 54.6459 14.32C55.0299 14.544 55.5419 14.712 56.1819 14.824L57.0219 14.968C57.8699 15.112 58.6459 15.312 59.3499 15.568C60.0539 15.824 60.6059 16.192 61.0059 16.672C61.4219 17.152 61.6299 17.792 61.6299 18.592C61.6299 19.776 61.1899 20.696 60.3099 21.352C59.4299 22.008 58.2459 22.336 56.7579 22.336Z" fill="#101828"/>
<g clip-path="url(#clip0_1_16611)">
<path d="M72.06 12C72.2167 11.5545 72.5261 11.1787 72.9333 10.9394C73.3405 10.7001 73.8192 10.6126 74.2848 10.6925C74.7503 10.7723 75.1725 11.0144 75.4767 11.3757C75.7809 11.737 75.9474 12.1944 75.9466 12.6667C75.9466 14 73.9466 14.6667 73.9466 14.6667M74 17.3333H74.0066M80.6666 14C80.6666 17.6819 77.6819 20.6667 74 20.6667C70.3181 20.6667 67.3333 17.6819 67.3333 14C67.3333 10.3181 70.3181 7.33334 74 7.33334C77.6819 7.33334 80.6666 10.3181 80.6666 14Z" stroke="#98A2B3" stroke-width="1.33333" stroke-linecap="round" stroke-linejoin="round"/>
</g>
<g style="mix-blend-mode:multiply">
<rect x="85" y="3" width="37" height="22" rx="11" fill="#F9F5FF"/>
<path d="M97.2678 9.27273V18H95.9467V10.5938H95.8956L93.8075 11.9574V10.696L95.9851 9.27273H97.2678ZM99.6286 18V17.0455L102.582 13.9858C102.897 13.6534 103.157 13.3622 103.362 13.1122C103.569 12.8594 103.724 12.6193 103.826 12.392C103.928 12.1648 103.979 11.9233 103.979 11.6676C103.979 11.3778 103.911 11.1278 103.775 10.9176C103.638 10.7045 103.452 10.5412 103.217 10.4276C102.981 10.3111 102.715 10.2528 102.42 10.2528C102.107 10.2528 101.835 10.3168 101.602 10.4446C101.369 10.5724 101.19 10.7528 101.065 10.9858C100.94 11.2187 100.877 11.4915 100.877 11.804H99.62C99.62 11.2727 99.7422 10.8082 99.9865 10.4105C100.231 10.0128 100.566 9.70455 100.992 9.4858C101.418 9.2642 101.903 9.15341 102.445 9.15341C102.994 9.15341 103.477 9.26278 103.894 9.48153C104.315 9.69744 104.643 9.9929 104.879 10.3679C105.114 10.7401 105.232 11.1605 105.232 11.6293C105.232 11.9531 105.171 12.2699 105.049 12.5795C104.93 12.8892 104.721 13.2344 104.423 13.6151C104.124 13.9929 103.71 14.4517 103.178 14.9915L101.444 16.8068V16.8707H105.373V18H99.6286ZM110.026 18.1193C109.441 18.1193 108.918 18.0185 108.458 17.8168C108.001 17.6151 107.638 17.3352 107.371 16.9773C107.107 16.6165 106.965 16.1989 106.945 15.7244H108.283C108.3 15.983 108.387 16.2074 108.543 16.3977C108.702 16.5852 108.91 16.7301 109.165 16.8324C109.421 16.9347 109.705 16.9858 110.018 16.9858C110.362 16.9858 110.665 16.9261 110.93 16.8068C111.197 16.6875 111.406 16.5213 111.556 16.3082C111.707 16.0923 111.782 15.8438 111.782 15.5625C111.782 15.2699 111.707 15.0128 111.556 14.7912C111.408 14.5668 111.191 14.3906 110.904 14.2628C110.62 14.1349 110.276 14.071 109.873 14.071H109.136V12.9972H109.873C110.197 12.9972 110.481 12.9389 110.725 12.8224C110.972 12.706 111.165 12.544 111.305 12.3366C111.444 12.1264 111.513 11.8807 111.513 11.5994C111.513 11.3295 111.452 11.0952 111.33 10.8963C111.211 10.6946 111.04 10.5369 110.819 10.4233C110.6 10.3097 110.342 10.2528 110.043 10.2528C109.759 10.2528 109.494 10.3054 109.246 10.4105C109.002 10.5128 108.803 10.6605 108.65 10.8537C108.496 11.044 108.414 11.2727 108.403 11.5398H107.129C107.143 11.0682 107.282 10.6534 107.546 10.2955C107.813 9.9375 108.165 9.65767 108.603 9.45597C109.04 9.25426 109.526 9.15341 110.06 9.15341C110.62 9.15341 111.103 9.26278 111.509 9.48153C111.918 9.69744 112.234 9.9858 112.455 10.3466C112.68 10.7074 112.79 11.1023 112.788 11.5312C112.79 12.0199 112.654 12.4347 112.379 12.7756C112.106 13.1165 111.742 13.3452 111.288 13.4616V13.5298C111.867 13.6179 112.316 13.848 112.634 14.2202C112.955 14.5923 113.114 15.054 113.112 15.6051C113.114 16.0852 112.981 16.5156 112.711 16.8963C112.444 17.277 112.079 17.5767 111.616 17.7955C111.153 18.0114 110.623 18.1193 110.026 18.1193Z" fill="#93312B"/>
</g>
<defs>
<clipPath id="clip0_1_16611">
<rect width="16" height="16" fill="white" transform="translate(66 6)"/>
</clipPath>
</defs>
</svg>
