<svg width="176" height="72" viewBox="0 0 176 72" fill="none" xmlns="http://www.w3.org/2000/svg">
<mask id="path-1-inside-1_1_6406" fill="white">
<path d="M0 0H176V72H0V0Z"/>
</mask>
<path d="M176 71H0V73H176V71Z" fill="#EAECF0" mask="url(#path-1-inside-1_1_6406)"/>
<path d="M25.233 31V20.8182H31.3381V21.9119H26.4659V25.3523H30.8807V26.446H26.4659V31H25.233ZM33.2086 31V23.3636H34.3422V24.517H34.4217C34.5609 24.1392 34.8128 23.8326 35.1774 23.5973C35.542 23.362 35.9529 23.2443 36.4103 23.2443C36.4965 23.2443 36.6042 23.246 36.7335 23.2493C36.8627 23.2526 36.9605 23.2576 37.0268 23.2642V24.4574C36.987 24.4474 36.8959 24.4325 36.7534 24.4126C36.6142 24.3894 36.4667 24.3778 36.3109 24.3778C35.9397 24.3778 35.6083 24.4557 35.3166 24.6115C35.0282 24.764 34.7995 24.9761 34.6305 25.2479C34.4648 25.5163 34.3819 25.8229 34.3819 26.1676V31H33.2086ZM41.2875 31.1591C40.5981 31.1591 39.9932 30.995 39.4728 30.6669C38.9558 30.3388 38.5514 29.8797 38.2598 29.2898C37.9714 28.6998 37.8272 28.0104 37.8272 27.2216C37.8272 26.4261 37.9714 25.7318 38.2598 25.1385C38.5514 24.5452 38.9558 24.0845 39.4728 23.7564C39.9932 23.4283 40.5981 23.2642 41.2875 23.2642C41.9769 23.2642 42.5801 23.4283 43.0971 23.7564C43.6175 24.0845 44.0218 24.5452 44.3102 25.1385C44.6019 25.7318 44.7477 26.4261 44.7477 27.2216C44.7477 28.0104 44.6019 28.6998 44.3102 29.2898C44.0218 29.8797 43.6175 30.3388 43.0971 30.6669C42.5801 30.995 41.9769 31.1591 41.2875 31.1591ZM41.2875 30.1051C41.8111 30.1051 42.242 29.9709 42.5801 29.7024C42.9181 29.4339 43.1684 29.081 43.3308 28.6435C43.4932 28.206 43.5744 27.732 43.5744 27.2216C43.5744 26.7112 43.4932 26.2356 43.3308 25.7947C43.1684 25.3539 42.9181 24.9976 42.5801 24.7259C42.242 24.4541 41.8111 24.3182 41.2875 24.3182C40.7638 24.3182 40.3329 24.4541 39.9949 24.7259C39.6568 24.9976 39.4065 25.3539 39.2441 25.7947C39.0817 26.2356 39.0005 26.7112 39.0005 27.2216C39.0005 27.732 39.0817 28.206 39.2441 28.6435C39.4065 29.081 39.6568 29.4339 39.9949 29.7024C40.3329 29.9709 40.7638 30.1051 41.2875 30.1051ZM47.712 26.4062V31H46.5387V23.3636H47.6722V24.5568H47.7717C47.9506 24.169 48.2224 23.8575 48.587 23.6222C48.9516 23.3835 49.4222 23.2642 49.9989 23.2642C50.516 23.2642 50.9684 23.3703 51.3562 23.5824C51.744 23.7912 52.0456 24.1094 52.261 24.5369C52.4764 24.9612 52.5842 25.4981 52.5842 26.1477V31H51.4109V26.2273C51.4109 25.6274 51.2551 25.16 50.9435 24.8253C50.632 24.4872 50.2044 24.3182 49.6609 24.3182C49.2863 24.3182 48.9516 24.3994 48.6566 24.5618C48.3649 24.7242 48.1346 24.9612 47.9656 25.2727C47.7965 25.5843 47.712 25.9621 47.712 26.4062ZM58.0492 23.3636V24.358H54.0918V23.3636H58.0492ZM55.2452 21.5341H56.4185V28.8125C56.4185 29.1439 56.4666 29.3925 56.5627 29.5582C56.6621 29.7206 56.7881 29.83 56.9405 29.8864C57.0963 29.9394 57.2604 29.9659 57.4327 29.9659C57.562 29.9659 57.668 29.9593 57.7509 29.946C57.8337 29.9295 57.9 29.9162 57.9498 29.9062L58.1884 30.9602C58.1088 30.9901 57.9978 31.0199 57.8553 31.0497C57.7128 31.0829 57.5321 31.0994 57.3134 31.0994C56.9819 31.0994 56.6571 31.0282 56.339 30.8857C56.0241 30.7431 55.7623 30.526 55.5534 30.2344C55.348 29.9427 55.2452 29.5748 55.2452 29.1307V21.5341ZM62.9338 31.1591C62.198 31.1591 61.5633 30.9967 61.0297 30.6719C60.4993 30.3438 60.09 29.8864 59.8017 29.2997C59.5166 28.7098 59.3741 28.0237 59.3741 27.2415C59.3741 26.4593 59.5166 25.7699 59.8017 25.1733C60.09 24.5734 60.4911 24.1061 61.0048 23.7713C61.5218 23.4332 62.1251 23.2642 62.8145 23.2642C63.2122 23.2642 63.6049 23.3305 63.9927 23.4631C64.3805 23.5956 64.7335 23.8111 65.0517 24.1094C65.3699 24.4044 65.6234 24.7955 65.8123 25.2827C66.0012 25.7699 66.0957 26.3698 66.0957 27.0824V27.5795H60.2093V26.5653H64.9025C64.9025 26.1345 64.8163 25.75 64.644 25.4119C64.475 25.0739 64.233 24.8071 63.9181 24.6115C63.6066 24.416 63.2387 24.3182 62.8145 24.3182C62.3471 24.3182 61.9428 24.4342 61.6014 24.6662C61.2633 24.8949 61.0031 25.1932 60.8208 25.5611C60.6386 25.929 60.5474 26.3234 60.5474 26.7443V27.4205C60.5474 27.9972 60.6468 28.486 60.8457 28.8871C61.0479 29.2848 61.3279 29.5881 61.6859 29.7969C62.0439 30.0024 62.4598 30.1051 62.9338 30.1051C63.242 30.1051 63.5204 30.062 63.769 29.9759C64.0209 29.8864 64.238 29.7538 64.4203 29.5781C64.6026 29.3991 64.7434 29.1771 64.8429 28.9119L65.9764 29.2301C65.8571 29.6146 65.6565 29.9527 65.3748 30.2443C65.0931 30.5327 64.7451 30.758 64.3308 30.9205C63.9165 31.0795 63.4508 31.1591 62.9338 31.1591ZM69.0538 26.4062V31H67.8805V23.3636H69.014V24.5568H69.1135C69.2924 24.169 69.5642 23.8575 69.9288 23.6222C70.2934 23.3835 70.764 23.2642 71.3407 23.2642C71.8578 23.2642 72.3102 23.3703 72.698 23.5824C73.0858 23.7912 73.3874 24.1094 73.6028 24.5369C73.8182 24.9612 73.926 25.4981 73.926 26.1477V31H72.7527V26.2273C72.7527 25.6274 72.5969 25.16 72.2853 24.8253C71.9738 24.4872 71.5462 24.3182 71.0027 24.3182C70.6281 24.3182 70.2934 24.3994 69.9984 24.5618C69.7067 24.7242 69.4764 24.9612 69.3074 25.2727C69.1383 25.5843 69.0538 25.9621 69.0538 26.4062ZM78.9535 31.1591C78.3171 31.1591 77.7553 30.9983 77.2681 30.6768C76.7809 30.352 76.3997 29.8946 76.1246 29.3047C75.8496 28.7114 75.712 28.0104 75.712 27.2017C75.712 26.3996 75.8496 25.7036 76.1246 25.1136C76.3997 24.5237 76.7826 24.0679 77.2731 23.7464C77.7636 23.425 78.3304 23.2642 78.9734 23.2642C79.4705 23.2642 79.8633 23.3471 80.1516 23.5128C80.4433 23.6752 80.6654 23.8608 80.8178 24.0696C80.9736 24.2751 81.0946 24.4441 81.1808 24.5767H81.2802V20.8182H82.4535V31H81.32V29.8267H81.1808C81.0946 29.9659 80.9719 30.1416 80.8129 30.3537C80.6538 30.5625 80.4267 30.7498 80.1317 30.9155C79.8368 31.0779 79.444 31.1591 78.9535 31.1591ZM79.1126 30.1051C79.5832 30.1051 79.9809 29.9825 80.3058 29.7372C80.6306 29.4886 80.8775 29.1456 81.0465 28.7081C81.2156 28.2673 81.3001 27.7585 81.3001 27.1818C81.3001 26.6117 81.2172 26.1129 81.0515 25.6854C80.8858 25.2545 80.6405 24.9197 80.3157 24.6811C79.9909 24.4392 79.5898 24.3182 79.1126 24.3182C78.6154 24.3182 78.2011 24.4458 77.8697 24.701C77.5415 24.9529 77.2946 25.2959 77.1289 25.7301C76.9665 26.161 76.8853 26.6449 76.8853 27.1818C76.8853 27.7254 76.9682 28.2192 77.1339 28.6634C77.3029 29.1042 77.5515 29.4555 77.8796 29.7173C78.2111 29.9759 78.622 30.1051 79.1126 30.1051ZM88.8619 31V20.8182H95.0067V21.9119H90.0948V25.3523H94.6886V26.446H90.0948V29.9062H95.0863V31H88.8619ZM98.2433 26.4062V31H97.07V23.3636H98.2035V24.5568H98.3029C98.4819 24.169 98.7537 23.8575 99.1183 23.6222C99.4828 23.3835 99.9535 23.2642 100.53 23.2642C101.047 23.2642 101.5 23.3703 101.887 23.5824C102.275 23.7912 102.577 24.1094 102.792 24.5369C103.008 24.9612 103.115 25.4981 103.115 26.1477V31H101.942V26.2273C101.942 25.6274 101.786 25.16 101.475 24.8253C101.163 24.4872 100.736 24.3182 100.192 24.3182C99.8176 24.3182 99.4828 24.3994 99.1879 24.5618C98.8962 24.7242 98.6658 24.9612 98.4968 25.2727C98.3278 25.5843 98.2433 25.9621 98.2433 26.4062ZM108.342 34.0227C107.775 34.0227 107.288 33.9498 106.88 33.804C106.472 33.6615 106.133 33.4725 105.861 33.2372C105.593 33.0052 105.379 32.7566 105.22 32.4915L106.154 31.8352C106.26 31.9744 106.395 32.1335 106.557 32.3125C106.719 32.4948 106.941 32.6522 107.223 32.7848C107.508 32.9207 107.881 32.9886 108.342 32.9886C108.958 32.9886 109.467 32.8395 109.868 32.5412C110.269 32.2429 110.47 31.7756 110.47 31.1392V29.5881H110.37C110.284 29.7273 110.161 29.8996 110.002 30.1051C109.847 30.3073 109.621 30.4879 109.326 30.647C109.035 30.8028 108.64 30.8807 108.143 30.8807C107.526 30.8807 106.973 30.7348 106.482 30.4432C105.995 30.1515 105.609 29.7273 105.324 29.1705C105.042 28.6136 104.901 27.9375 104.901 27.142C104.901 26.3598 105.039 25.6787 105.314 25.0987C105.589 24.5154 105.972 24.0646 106.463 23.7464C106.953 23.425 107.52 23.2642 108.163 23.2642C108.66 23.2642 109.054 23.3471 109.346 23.5128C109.641 23.6752 109.866 23.8608 110.022 24.0696C110.181 24.2751 110.304 24.4441 110.39 24.5767H110.509V23.3636H111.643V31.2188C111.643 31.875 111.494 32.4086 111.195 32.8196C110.901 33.2339 110.503 33.5372 110.002 33.7294C109.505 33.925 108.952 34.0227 108.342 34.0227ZM108.302 29.8267C108.773 29.8267 109.17 29.719 109.495 29.5036C109.82 29.2881 110.067 28.9782 110.236 28.5739C110.405 28.1695 110.49 27.6856 110.49 27.1222C110.49 26.572 110.407 26.0864 110.241 25.6655C110.075 25.2446 109.83 24.9148 109.505 24.6761C109.18 24.4375 108.779 24.3182 108.302 24.3182C107.805 24.3182 107.391 24.4441 107.059 24.696C106.731 24.9479 106.484 25.286 106.318 25.7102C106.156 26.1345 106.075 26.6051 106.075 27.1222C106.075 27.6525 106.158 28.1214 106.323 28.5291C106.492 28.9335 106.741 29.2517 107.069 29.4837C107.401 29.7124 107.811 29.8267 108.302 29.8267ZM113.791 31V23.3636H114.964V31H113.791ZM114.387 22.0909C114.159 22.0909 113.961 22.013 113.796 21.8572C113.633 21.7015 113.552 21.5142 113.552 21.2955C113.552 21.0767 113.633 20.8894 113.796 20.7337C113.961 20.5779 114.159 20.5 114.387 20.5C114.616 20.5 114.811 20.5779 114.974 20.7337C115.14 20.8894 115.222 21.0767 115.222 21.2955C115.222 21.5142 115.14 21.7015 114.974 21.8572C114.811 22.013 114.616 22.0909 114.387 22.0909ZM118.286 26.4062V31H117.113V23.3636H118.246V24.5568H118.346C118.525 24.169 118.797 23.8575 119.161 23.6222C119.526 23.3835 119.996 23.2642 120.573 23.2642C121.09 23.2642 121.543 23.3703 121.93 23.5824C122.318 23.7912 122.62 24.1094 122.835 24.5369C123.051 24.9612 123.158 25.4981 123.158 26.1477V31H121.985V26.2273C121.985 25.6274 121.829 25.16 121.518 24.8253C121.206 24.4872 120.779 24.3182 120.235 24.3182C119.861 24.3182 119.526 24.3994 119.231 24.5618C118.939 24.7242 118.709 24.9612 118.54 25.2727C118.371 25.5843 118.286 25.9621 118.286 26.4062ZM128.504 31.1591C127.768 31.1591 127.134 30.9967 126.6 30.6719C126.07 30.3438 125.66 29.8864 125.372 29.2997C125.087 28.7098 124.944 28.0237 124.944 27.2415C124.944 26.4593 125.087 25.7699 125.372 25.1733C125.66 24.5734 126.061 24.1061 126.575 23.7713C127.092 23.4332 127.695 23.2642 128.385 23.2642C128.782 23.2642 129.175 23.3305 129.563 23.4631C129.951 23.5956 130.304 23.8111 130.622 24.1094C130.94 24.4044 131.194 24.7955 131.383 25.2827C131.572 25.7699 131.666 26.3698 131.666 27.0824V27.5795H125.78V26.5653H130.473C130.473 26.1345 130.387 25.75 130.214 25.4119C130.045 25.0739 129.803 24.8071 129.488 24.6115C129.177 24.416 128.809 24.3182 128.385 24.3182C127.917 24.3182 127.513 24.4342 127.172 24.6662C126.834 24.8949 126.573 25.1932 126.391 25.5611C126.209 25.929 126.118 26.3234 126.118 26.7443V27.4205C126.118 27.9972 126.217 28.486 126.416 28.8871C126.618 29.2848 126.898 29.5881 127.256 29.7969C127.614 30.0024 128.03 30.1051 128.504 30.1051C128.812 30.1051 129.091 30.062 129.339 29.9759C129.591 29.8864 129.808 29.7538 129.991 29.5781C130.173 29.3991 130.314 29.1771 130.413 28.9119L131.547 29.2301C131.427 29.6146 131.227 29.9527 130.945 30.2443C130.663 30.5327 130.315 30.758 129.901 30.9205C129.487 31.0795 129.021 31.1591 128.504 31.1591ZM136.653 31.1591C135.917 31.1591 135.282 30.9967 134.748 30.6719C134.218 30.3438 133.809 29.8864 133.52 29.2997C133.235 28.7098 133.093 28.0237 133.093 27.2415C133.093 26.4593 133.235 25.7699 133.52 25.1733C133.809 24.5734 134.21 24.1061 134.724 23.7713C135.241 23.4332 135.844 23.2642 136.533 23.2642C136.931 23.2642 137.324 23.3305 137.711 23.4631C138.099 23.5956 138.452 23.8111 138.77 24.1094C139.089 24.4044 139.342 24.7955 139.531 25.2827C139.72 25.7699 139.814 26.3698 139.814 27.0824V27.5795H133.928V26.5653H138.621C138.621 26.1345 138.535 25.75 138.363 25.4119C138.194 25.0739 137.952 24.8071 137.637 24.6115C137.325 24.416 136.957 24.3182 136.533 24.3182C136.066 24.3182 135.662 24.4342 135.32 24.6662C134.982 24.8949 134.722 25.1932 134.54 25.5611C134.357 25.929 134.266 26.3234 134.266 26.7443V27.4205C134.266 27.9972 134.366 28.486 134.564 28.8871C134.767 29.2848 135.047 29.5881 135.405 29.7969C135.763 30.0024 136.179 30.1051 136.653 30.1051C136.961 30.1051 137.239 30.062 137.488 29.9759C137.74 29.8864 137.957 29.7538 138.139 29.5781C138.321 29.3991 138.462 29.1771 138.562 28.9119L139.695 29.2301C139.576 29.6146 139.375 29.9527 139.094 30.2443C138.812 30.5327 138.464 30.758 138.05 30.9205C137.635 31.0795 137.17 31.1591 136.653 31.1591ZM141.599 31V23.3636H142.733V24.517H142.812C142.952 24.1392 143.203 23.8326 143.568 23.5973C143.933 23.362 144.344 23.2443 144.801 23.2443C144.887 23.2443 144.995 23.246 145.124 23.2493C145.253 23.2526 145.351 23.2576 145.417 23.2642V24.4574C145.378 24.4474 145.287 24.4325 145.144 24.4126C145.005 24.3894 144.857 24.3778 144.702 24.3778C144.33 24.3778 143.999 24.4557 143.707 24.6115C143.419 24.764 143.19 24.9761 143.021 25.2479C142.855 25.5163 142.773 25.8229 142.773 26.1676V31H141.599Z" fill="#42526D"/>
<path d="M25.056 41.504H30.324V42.44H26.064V45.248H30.024V46.184H26.064V50H25.056V41.504ZM36.452 48.668C36.452 48.924 36.46 49.164 36.476 49.388C36.492 49.612 36.5 49.816 36.5 50H35.612C35.612 49.848 35.608 49.696 35.6 49.544C35.592 49.392 35.588 49.236 35.588 49.076H35.564C35.5 49.212 35.408 49.344 35.288 49.472C35.176 49.6 35.04 49.716 34.88 49.82C34.72 49.916 34.54 49.992 34.34 50.048C34.14 50.112 33.924 50.144 33.692 50.144C33.324 50.144 33.004 50.088 32.732 49.976C32.468 49.864 32.248 49.708 32.072 49.508C31.896 49.308 31.764 49.068 31.676 48.788C31.596 48.5 31.556 48.188 31.556 47.852V44.384H32.492V47.756C32.492 48.228 32.596 48.6 32.804 48.872C33.012 49.144 33.336 49.28 33.776 49.28C34.08 49.28 34.34 49.228 34.556 49.124C34.78 49.02 34.96 48.872 35.096 48.68C35.24 48.488 35.344 48.26 35.408 47.996C35.48 47.732 35.516 47.44 35.516 47.12V44.384H36.452V48.668ZM38.3079 40.928H39.2439V50H38.3079V40.928ZM41.2025 40.928H42.1385V50H41.2025V40.928ZM50.4131 45.176H48.7571V47.984C48.7571 48.168 48.7611 48.34 48.7691 48.5C48.7771 48.652 48.8091 48.788 48.8651 48.908C48.9211 49.02 49.0051 49.112 49.1171 49.184C49.2291 49.248 49.3891 49.28 49.5971 49.28C49.7331 49.28 49.8731 49.264 50.0171 49.232C50.1611 49.2 50.2971 49.152 50.4251 49.088L50.4611 49.94C50.3011 50.012 50.1211 50.064 49.9211 50.096C49.7291 50.128 49.5451 50.144 49.3691 50.144C49.0331 50.144 48.7651 50.1 48.5651 50.012C48.3651 49.924 48.2091 49.8 48.0971 49.64C47.9851 49.48 47.9091 49.284 47.8691 49.052C47.8371 48.812 47.8211 48.548 47.8211 48.26V45.176H46.5971V44.384H47.8211V42.788H48.7571V44.384H50.4131V45.176ZM51.6556 44.384H52.5916V50H51.6556V44.384ZM51.4396 42.188C51.4396 42.004 51.5036 41.844 51.6316 41.708C51.7676 41.572 51.9316 41.504 52.1236 41.504C52.3156 41.504 52.4756 41.572 52.6036 41.708C52.7396 41.844 52.8076 42.004 52.8076 42.188C52.8076 42.388 52.7436 42.552 52.6156 42.68C52.4876 42.808 52.3236 42.872 52.1236 42.872C51.9236 42.872 51.7596 42.808 51.6316 42.68C51.5036 42.552 51.4396 42.388 51.4396 42.188ZM54.4544 45.716C54.4544 45.46 54.4464 45.22 54.4304 44.996C54.4144 44.772 54.4064 44.568 54.4064 44.384H55.2944C55.2944 44.536 55.2984 44.688 55.3064 44.84C55.3144 44.992 55.3184 45.148 55.3184 45.308H55.3424C55.4064 45.172 55.4944 45.04 55.6064 44.912C55.7264 44.784 55.8664 44.672 56.0264 44.576C56.1864 44.472 56.3664 44.392 56.5664 44.336C56.7664 44.272 56.9824 44.24 57.2144 44.24C57.5184 44.24 57.7704 44.28 57.9704 44.36C58.1784 44.432 58.3504 44.524 58.4864 44.636C58.6224 44.74 58.7264 44.856 58.7984 44.984C58.8784 45.104 58.9424 45.212 58.9904 45.308C59.1984 44.972 59.4384 44.712 59.7104 44.528C59.9824 44.336 60.3344 44.24 60.7664 44.24C61.1664 44.24 61.5024 44.296 61.7744 44.408C62.0464 44.512 62.2664 44.668 62.4344 44.876C62.6024 45.076 62.7224 45.324 62.7944 45.62C62.8664 45.908 62.9024 46.232 62.9024 46.592V50H61.9664V46.64C61.9664 46.448 61.9464 46.26 61.9064 46.076C61.8664 45.892 61.7944 45.728 61.6904 45.584C61.5864 45.44 61.4464 45.324 61.2704 45.236C61.0944 45.148 60.8704 45.104 60.5984 45.104C60.3984 45.104 60.2104 45.144 60.0344 45.224C59.8584 45.304 59.7024 45.416 59.5664 45.56C59.4384 45.704 59.3344 45.88 59.2544 46.088C59.1824 46.288 59.1464 46.512 59.1464 46.76V50H58.2104V46.82C58.2104 46.196 58.1264 45.756 57.9584 45.5C57.7904 45.236 57.5144 45.104 57.1304 45.104C56.8264 45.104 56.5624 45.156 56.3384 45.26C56.1224 45.364 55.9424 45.512 55.7984 45.704C55.6624 45.896 55.5584 46.124 55.4864 46.388C55.4224 46.652 55.3904 46.944 55.3904 47.264V50H54.4544V45.716ZM69.6892 48.98C69.3532 49.412 68.9852 49.716 68.5852 49.892C68.1852 50.06 67.7212 50.144 67.1932 50.144C66.7532 50.144 66.3572 50.068 66.0052 49.916C65.6532 49.756 65.3532 49.544 65.1052 49.28C64.8652 49.016 64.6772 48.704 64.5412 48.344C64.4132 47.984 64.3492 47.6 64.3492 47.192C64.3492 46.76 64.4212 46.364 64.5652 46.004C64.7092 45.636 64.9092 45.324 65.1652 45.068C65.4212 44.804 65.7252 44.6 66.0772 44.456C66.4292 44.312 66.8132 44.24 67.2292 44.24C67.6212 44.24 67.9812 44.308 68.3092 44.444C68.6372 44.572 68.9172 44.764 69.1492 45.02C69.3892 45.268 69.5732 45.576 69.7012 45.944C69.8292 46.304 69.8932 46.716 69.8932 47.18V47.48H65.3572C65.3732 47.72 65.4292 47.952 65.5252 48.176C65.6292 48.392 65.7612 48.584 65.9212 48.752C66.0812 48.912 66.2692 49.04 66.4852 49.136C66.7012 49.232 66.9372 49.28 67.1932 49.28C67.6012 49.28 67.9452 49.208 68.2252 49.064C68.5052 48.92 68.7572 48.708 68.9812 48.428L69.6892 48.98ZM68.8852 46.688C68.8692 46.208 68.7132 45.824 68.4172 45.536C68.1212 45.248 67.7132 45.104 67.1932 45.104C66.6732 45.104 66.2532 45.248 65.9332 45.536C65.6132 45.824 65.4212 46.208 65.3572 46.688H68.8852Z" fill="#8993A4"/>
</svg>
