<svg width="176" height="72" viewBox="0 0 176 72" fill="none" xmlns="http://www.w3.org/2000/svg">
<mask id="path-1-inside-1_1_6412" fill="white">
<path d="M0 0H176V72H0V0Z"/>
</mask>
<path d="M176 71H0V73H176V71Z" fill="#EAECF0" mask="url(#path-1-inside-1_1_6412)"/>
<path d="M25.233 31V20.8182H28.7926C29.5019 20.8182 30.0869 20.9408 30.5476 21.1861C31.0083 21.428 31.3513 21.7545 31.5767 22.1655C31.8021 22.5732 31.9148 23.0256 31.9148 23.5227C31.9148 23.9602 31.8369 24.3215 31.6811 24.6065C31.5286 24.8916 31.3265 25.117 31.0746 25.2827C30.826 25.4484 30.5559 25.571 30.2642 25.6506V25.75C30.5758 25.7699 30.889 25.8793 31.2038 26.0781C31.5187 26.277 31.7822 26.562 31.9943 26.9332C32.2064 27.3045 32.3125 27.7585 32.3125 28.2955C32.3125 28.8059 32.1965 29.2649 31.9645 29.6726C31.7325 30.0803 31.3662 30.4034 30.8658 30.642C30.3653 30.8807 29.714 31 28.9119 31H25.233ZM26.4659 29.9062H28.9119C29.7173 29.9062 30.2891 29.7505 30.6271 29.4389C30.9685 29.1241 31.1392 28.7429 31.1392 28.2955C31.1392 27.9508 31.0514 27.6326 30.8757 27.3409C30.7 27.0459 30.4498 26.8106 30.125 26.6349C29.8002 26.456 29.4157 26.3665 28.9716 26.3665H26.4659V29.9062ZM26.4659 25.2926H28.7528C29.1241 25.2926 29.4588 25.2197 29.7571 25.0739C30.0587 24.928 30.2973 24.7225 30.473 24.4574C30.652 24.1922 30.7415 23.8807 30.7415 23.5227C30.7415 23.0753 30.5857 22.6958 30.2741 22.3842C29.9626 22.0694 29.4688 21.9119 28.7926 21.9119H26.4659V25.2926ZM36.4265 31.179C35.9426 31.179 35.5034 31.0878 35.109 30.9055C34.7146 30.7199 34.4014 30.4531 34.1694 30.1051C33.9374 29.7538 33.8214 29.3295 33.8214 28.8324C33.8214 28.3949 33.9076 28.0402 34.0799 27.7685C34.2522 27.4934 34.4826 27.2779 34.771 27.1222C35.0593 26.9664 35.3775 26.8504 35.7255 26.7741C36.0768 26.6946 36.4298 26.6316 36.7844 26.5852C37.2485 26.5256 37.6246 26.4808 37.913 26.451C38.2047 26.4179 38.4168 26.3632 38.5494 26.2869C38.6853 26.2107 38.7532 26.0781 38.7532 25.8892V25.8494C38.7532 25.3589 38.619 24.9777 38.3505 24.706C38.0853 24.4342 37.6826 24.2983 37.1424 24.2983C36.5823 24.2983 36.1431 24.4209 35.8249 24.6662C35.5067 24.9115 35.283 25.1733 35.1538 25.4517L34.0401 25.054C34.239 24.59 34.5041 24.2287 34.8356 23.9702C35.1703 23.7083 35.5349 23.526 35.9293 23.4233C36.3271 23.3172 36.7182 23.2642 37.1026 23.2642C37.3479 23.2642 37.6296 23.294 37.9478 23.3537C38.2693 23.41 38.5792 23.5277 38.8775 23.7067C39.1791 23.8857 39.4293 24.1558 39.6282 24.517C39.8271 24.8783 39.9265 25.3622 39.9265 25.9688V31H38.7532V29.9659H38.6935C38.614 30.1316 38.4814 30.3089 38.2958 30.4979C38.1102 30.6868 37.8633 30.8475 37.555 30.9801C37.2468 31.1127 36.8706 31.179 36.4265 31.179ZM36.6055 30.125C37.0695 30.125 37.4606 30.0339 37.7788 29.8516C38.1003 29.6693 38.3422 29.4339 38.5046 29.1456C38.6703 28.8572 38.7532 28.554 38.7532 28.2358V27.1619C38.7035 27.2216 38.5941 27.2763 38.4251 27.326C38.2594 27.3724 38.0671 27.4138 37.8484 27.4503C37.6329 27.4834 37.4225 27.5133 37.217 27.5398C37.0148 27.563 36.8507 27.5829 36.7248 27.5994C36.4199 27.6392 36.1348 27.7038 35.8697 27.7933C35.6078 27.8795 35.3957 28.0104 35.2333 28.1861C35.0742 28.3584 34.9947 28.5937 34.9947 28.892C34.9947 29.2997 35.1455 29.608 35.4471 29.8168C35.752 30.0223 36.1381 30.125 36.6055 30.125ZM45.1703 31.1591C44.4544 31.1591 43.8379 30.9901 43.3208 30.652C42.8038 30.3139 42.4061 29.8482 42.1277 29.255C41.8493 28.6617 41.71 27.9839 41.71 27.2216C41.71 26.446 41.8526 25.7616 42.1376 25.1683C42.426 24.5717 42.827 24.1061 43.3407 23.7713C43.8578 23.4332 44.461 23.2642 45.1504 23.2642C45.6873 23.2642 46.1712 23.3636 46.6021 23.5625C47.033 23.7614 47.3859 24.0398 47.661 24.3977C47.9361 24.7557 48.1068 25.1733 48.1731 25.6506H46.9998C46.9103 25.3026 46.7115 24.9943 46.4032 24.7259C46.0983 24.4541 45.6873 24.3182 45.1703 24.3182C44.7129 24.3182 44.3118 24.4375 43.9672 24.6761C43.6258 24.9115 43.359 25.2446 43.1667 25.6754C42.9778 26.103 42.8833 26.6051 42.8833 27.1818C42.8833 27.7718 42.9761 28.2855 43.1618 28.723C43.3507 29.1605 43.6158 29.5002 43.9572 29.7422C44.3019 29.9841 44.7063 30.1051 45.1703 30.1051C45.4752 30.1051 45.752 30.0521 46.0005 29.946C46.2491 29.84 46.4596 29.6875 46.6319 29.4886C46.8043 29.2898 46.9269 29.0511 46.9998 28.7727H48.1731C48.1068 29.2235 47.9428 29.6295 47.6809 29.9908C47.4224 30.3487 47.0794 30.6338 46.6518 30.8459C46.2276 31.0547 45.7337 31.1591 45.1703 31.1591ZM50.9821 28.2159L50.9622 26.7642H51.2008L54.5417 23.3636H55.9934L52.4338 26.9631H52.3343L50.9821 28.2159ZM49.8883 31V20.8182H51.0616V31H49.8883ZM54.7406 31L51.7576 27.2216L52.5929 26.4062L56.2321 31H54.7406ZM60.3908 31.1591C59.655 31.1591 59.0203 30.9967 58.4867 30.6719C57.9564 30.3438 57.5471 29.8864 57.2587 29.2997C56.9737 28.7098 56.8311 28.0237 56.8311 27.2415C56.8311 26.4593 56.9737 25.7699 57.2587 25.1733C57.5471 24.5734 57.9481 24.1061 58.4618 23.7713C58.9789 23.4332 59.5821 23.2642 60.2715 23.2642C60.6692 23.2642 61.062 23.3305 61.4498 23.4631C61.8375 23.5956 62.1905 23.8111 62.5087 24.1094C62.8269 24.4044 63.0804 24.7955 63.2694 25.2827C63.4583 25.7699 63.5527 26.3698 63.5527 27.0824V27.5795H57.6664V26.5653H62.3596C62.3596 26.1345 62.2734 25.75 62.101 25.4119C61.932 25.0739 61.69 24.8071 61.3752 24.6115C61.0636 24.416 60.6957 24.3182 60.2715 24.3182C59.8042 24.3182 59.3998 24.4342 59.0584 24.6662C58.7203 24.8949 58.4602 25.1932 58.2779 25.5611C58.0956 25.929 58.0044 26.3234 58.0044 26.7443V27.4205C58.0044 27.9972 58.1039 28.486 58.3027 28.8871C58.5049 29.2848 58.785 29.5881 59.1429 29.7969C59.5009 30.0024 59.9168 30.1051 60.3908 30.1051C60.699 30.1051 60.9775 30.062 61.226 29.9759C61.4779 29.8864 61.695 29.7538 61.8773 29.5781C62.0596 29.3991 62.2005 29.1771 62.2999 28.9119L63.4334 29.2301C63.3141 29.6146 63.1136 29.9527 62.8319 30.2443C62.5501 30.5327 62.2021 30.758 61.7878 30.9205C61.3735 31.0795 60.9078 31.1591 60.3908 31.1591ZM66.5108 26.4062V31H65.3375V23.3636H66.4711V24.5568H66.5705C66.7495 24.169 67.0212 23.8575 67.3858 23.6222C67.7504 23.3835 68.2211 23.2642 68.7978 23.2642C69.3148 23.2642 69.7672 23.3703 70.155 23.5824C70.5428 23.7912 70.8444 24.1094 71.0598 24.5369C71.2753 24.9612 71.383 25.4981 71.383 26.1477V31H70.2097V26.2273C70.2097 25.6274 70.0539 25.16 69.7424 24.8253C69.4308 24.4872 69.0033 24.3182 68.4597 24.3182C68.0852 24.3182 67.7504 24.3994 67.4554 24.5618C67.1638 24.7242 66.9334 24.9612 66.7644 25.2727C66.5953 25.5843 66.5108 25.9621 66.5108 26.4062ZM76.4105 31.1591C75.7741 31.1591 75.2124 30.9983 74.7251 30.6768C74.2379 30.352 73.8568 29.8946 73.5817 29.3047C73.3066 28.7114 73.169 28.0104 73.169 27.2017C73.169 26.3996 73.3066 25.7036 73.5817 25.1136C73.8568 24.5237 74.2396 24.0679 74.7301 23.7464C75.2206 23.425 75.7874 23.2642 76.4304 23.2642C76.9276 23.2642 77.3203 23.3471 77.6087 23.5128C77.9003 23.6752 78.1224 23.8608 78.2749 24.0696C78.4306 24.2751 78.5516 24.4441 78.6378 24.5767H78.7372V20.8182H79.9105V31H78.777V29.8267H78.6378C78.5516 29.9659 78.429 30.1416 78.2699 30.3537C78.1108 30.5625 77.8838 30.7498 77.5888 30.9155C77.2938 31.0779 76.901 31.1591 76.4105 31.1591ZM76.5696 30.1051C77.0402 30.1051 77.438 29.9825 77.7628 29.7372C78.0876 29.4886 78.3345 29.1456 78.5036 28.7081C78.6726 28.2673 78.7571 27.7585 78.7571 27.1818C78.7571 26.6117 78.6742 26.1129 78.5085 25.6854C78.3428 25.2545 78.0975 24.9197 77.7727 24.6811C77.4479 24.4392 77.0469 24.3182 76.5696 24.3182C76.0724 24.3182 75.6581 24.4458 75.3267 24.701C74.9986 24.9529 74.7517 25.2959 74.5859 25.7301C74.4235 26.161 74.3423 26.6449 74.3423 27.1818C74.3423 27.7254 74.4252 28.2192 74.5909 28.6634C74.7599 29.1042 75.0085 29.4555 75.3366 29.7173C75.6681 29.9759 76.0791 30.1051 76.5696 30.1051ZM86.3189 31V20.8182H92.4638V21.9119H87.5518V25.3523H92.1456V26.446H87.5518V29.9062H92.5433V31H86.3189ZM95.7003 26.4062V31H94.527V23.3636H95.6605V24.5568H95.7599C95.9389 24.169 96.2107 23.8575 96.5753 23.6222C96.9399 23.3835 97.4105 23.2642 97.9872 23.2642C98.5043 23.2642 98.9567 23.3703 99.3445 23.5824C99.7322 23.7912 100.034 24.1094 100.249 24.5369C100.465 24.9612 100.572 25.4981 100.572 26.1477V31H99.3991V26.2273C99.3991 25.6274 99.2434 25.16 98.9318 24.8253C98.6203 24.4872 98.1927 24.3182 97.6491 24.3182C97.2746 24.3182 96.9399 24.3994 96.6449 24.5618C96.3532 24.7242 96.1229 24.9612 95.9538 25.2727C95.7848 25.5843 95.7003 25.9621 95.7003 26.4062ZM105.799 34.0227C105.232 34.0227 104.745 33.9498 104.337 33.804C103.93 33.6615 103.59 33.4725 103.318 33.2372C103.05 33.0052 102.836 32.7566 102.677 32.4915L103.611 31.8352C103.717 31.9744 103.852 32.1335 104.014 32.3125C104.176 32.4948 104.398 32.6522 104.68 32.7848C104.965 32.9207 105.338 32.9886 105.799 32.9886C106.415 32.9886 106.924 32.8395 107.325 32.5412C107.726 32.2429 107.927 31.7756 107.927 31.1392V29.5881H107.827C107.741 29.7273 107.618 29.8996 107.459 30.1051C107.304 30.3073 107.078 30.4879 106.783 30.647C106.492 30.8028 106.097 30.8807 105.6 30.8807C104.983 30.8807 104.43 30.7348 103.939 30.4432C103.452 30.1515 103.066 29.7273 102.781 29.1705C102.499 28.6136 102.358 27.9375 102.358 27.142C102.358 26.3598 102.496 25.6787 102.771 25.0987C103.046 24.5154 103.429 24.0646 103.92 23.7464C104.41 23.425 104.977 23.2642 105.62 23.2642C106.117 23.2642 106.511 23.3471 106.803 23.5128C107.098 23.6752 107.323 23.8608 107.479 24.0696C107.638 24.2751 107.761 24.4441 107.847 24.5767H107.966V23.3636H109.1V31.2188C109.1 31.875 108.951 32.4086 108.653 32.8196C108.358 33.2339 107.96 33.5372 107.459 33.7294C106.962 33.925 106.409 34.0227 105.799 34.0227ZM105.759 29.8267C106.23 29.8267 106.627 29.719 106.952 29.5036C107.277 29.2881 107.524 28.9782 107.693 28.5739C107.862 28.1695 107.947 27.6856 107.947 27.1222C107.947 26.572 107.864 26.0864 107.698 25.6655C107.532 25.2446 107.287 24.9148 106.962 24.6761C106.637 24.4375 106.236 24.3182 105.759 24.3182C105.262 24.3182 104.848 24.4441 104.516 24.696C104.188 24.9479 103.941 25.286 103.775 25.7102C103.613 26.1345 103.532 26.6051 103.532 27.1222C103.532 27.6525 103.615 28.1214 103.78 28.5291C103.949 28.9335 104.198 29.2517 104.526 29.4837C104.858 29.7124 105.269 29.8267 105.759 29.8267ZM111.248 31V23.3636H112.421V31H111.248ZM111.844 22.0909C111.616 22.0909 111.418 22.013 111.253 21.8572C111.09 21.7015 111.009 21.5142 111.009 21.2955C111.009 21.0767 111.09 20.8894 111.253 20.7337C111.418 20.5779 111.616 20.5 111.844 20.5C112.073 20.5 112.269 20.5779 112.431 20.7337C112.597 20.8894 112.68 21.0767 112.68 21.2955C112.68 21.5142 112.597 21.7015 112.431 21.8572C112.269 22.013 112.073 22.0909 111.844 22.0909ZM115.743 26.4062V31H114.57V23.3636H115.703V24.5568H115.803C115.982 24.169 116.254 23.8575 116.618 23.6222C116.983 23.3835 117.453 23.2642 118.03 23.2642C118.547 23.2642 119 23.3703 119.387 23.5824C119.775 23.7912 120.077 24.1094 120.292 24.5369C120.508 24.9612 120.615 25.4981 120.615 26.1477V31H119.442V26.2273C119.442 25.6274 119.286 25.16 118.975 24.8253C118.663 24.4872 118.236 24.3182 117.692 24.3182C117.318 24.3182 116.983 24.3994 116.688 24.5618C116.396 24.7242 116.166 24.9612 115.997 25.2727C115.828 25.5843 115.743 25.9621 115.743 26.4062ZM125.961 31.1591C125.225 31.1591 124.591 30.9967 124.057 30.6719C123.527 30.3438 123.117 29.8864 122.829 29.2997C122.544 28.7098 122.401 28.0237 122.401 27.2415C122.401 26.4593 122.544 25.7699 122.829 25.1733C123.117 24.5734 123.518 24.1061 124.032 23.7713C124.549 23.4332 125.152 23.2642 125.842 23.2642C126.24 23.2642 126.632 23.3305 127.02 23.4631C127.408 23.5956 127.761 23.8111 128.079 24.1094C128.397 24.4044 128.651 24.7955 128.84 25.2827C129.029 25.7699 129.123 26.3698 129.123 27.0824V27.5795H123.237V26.5653H127.93C127.93 26.1345 127.844 25.75 127.671 25.4119C127.502 25.0739 127.26 24.8071 126.945 24.6115C126.634 24.416 126.266 24.3182 125.842 24.3182C125.374 24.3182 124.97 24.4342 124.629 24.6662C124.291 24.8949 124.03 25.1932 123.848 25.5611C123.666 25.929 123.575 26.3234 123.575 26.7443V27.4205C123.575 27.9972 123.674 28.486 123.873 28.8871C124.075 29.2848 124.355 29.5881 124.713 29.7969C125.071 30.0024 125.487 30.1051 125.961 30.1051C126.269 30.1051 126.548 30.062 126.796 29.9759C127.048 29.8864 127.265 29.7538 127.448 29.5781C127.63 29.3991 127.771 29.1771 127.87 28.9119L129.004 29.2301C128.884 29.6146 128.684 29.9527 128.402 30.2443C128.12 30.5327 127.772 30.758 127.358 30.9205C126.944 31.0795 126.478 31.1591 125.961 31.1591ZM134.11 31.1591C133.374 31.1591 132.739 30.9967 132.205 30.6719C131.675 30.3438 131.266 29.8864 130.977 29.2997C130.692 28.7098 130.55 28.0237 130.55 27.2415C130.55 26.4593 130.692 25.7699 130.977 25.1733C131.266 24.5734 131.667 24.1061 132.181 23.7713C132.698 23.4332 133.301 23.2642 133.99 23.2642C134.388 23.2642 134.781 23.3305 135.169 23.4631C135.556 23.5956 135.909 23.8111 136.227 24.1094C136.546 24.4044 136.799 24.7955 136.988 25.2827C137.177 25.7699 137.271 26.3698 137.271 27.0824V27.5795H131.385V26.5653H136.078C136.078 26.1345 135.992 25.75 135.82 25.4119C135.651 25.0739 135.409 24.8071 135.094 24.6115C134.782 24.416 134.414 24.3182 133.99 24.3182C133.523 24.3182 133.119 24.4342 132.777 24.6662C132.439 24.8949 132.179 25.1932 131.997 25.5611C131.814 25.929 131.723 26.3234 131.723 26.7443V27.4205C131.723 27.9972 131.823 28.486 132.021 28.8871C132.224 29.2848 132.504 29.5881 132.862 29.7969C133.22 30.0024 133.636 30.1051 134.11 30.1051C134.418 30.1051 134.696 30.062 134.945 29.9759C135.197 29.8864 135.414 29.7538 135.596 29.5781C135.778 29.3991 135.919 29.1771 136.019 28.9119L137.152 29.2301C137.033 29.6146 136.832 29.9527 136.551 30.2443C136.269 30.5327 135.921 30.758 135.507 30.9205C135.092 31.0795 134.627 31.1591 134.11 31.1591ZM139.056 31V23.3636H140.19V24.517H140.269C140.409 24.1392 140.66 23.8326 141.025 23.5973C141.39 23.362 141.801 23.2443 142.258 23.2443C142.344 23.2443 142.452 23.246 142.581 23.2493C142.71 23.2526 142.808 23.2576 142.874 23.2642V24.4574C142.835 24.4474 142.744 24.4325 142.601 24.4126C142.462 24.3894 142.314 24.3778 142.159 24.3778C141.787 24.3778 141.456 24.4557 141.164 24.6115C140.876 24.764 140.647 24.9761 140.478 25.2479C140.312 25.5163 140.23 25.8229 140.23 26.1676V31H139.056Z" fill="#42526D"/>
<path d="M25.056 41.504H27.576C27.968 41.504 28.34 41.544 28.692 41.624C29.052 41.696 29.368 41.824 29.64 42.008C29.92 42.184 30.14 42.424 30.3 42.728C30.468 43.024 30.552 43.392 30.552 43.832C30.552 44.296 30.464 44.68 30.288 44.984C30.112 45.288 29.884 45.528 29.604 45.704C29.332 45.88 29.032 46.004 28.704 46.076C28.376 46.148 28.064 46.184 27.768 46.184H26.064V50H25.056V41.504ZM26.064 45.248H27.768C28.272 45.248 28.68 45.136 28.992 44.912C29.312 44.68 29.472 44.324 29.472 43.844C29.472 43.364 29.312 43.012 28.992 42.788C28.68 42.556 28.272 42.44 27.768 42.44H26.064V45.248ZM31.9293 45.104C32.2173 44.808 32.5573 44.592 32.9493 44.456C33.3493 44.312 33.7533 44.24 34.1613 44.24C34.9933 44.24 35.5933 44.436 35.9613 44.828C36.3293 45.22 36.5133 45.816 36.5133 46.616V49.028C36.5133 49.188 36.5213 49.356 36.5373 49.532C36.5533 49.7 36.5733 49.856 36.5973 50H35.6973C35.6653 49.872 35.6453 49.732 35.6373 49.58C35.6373 49.42 35.6373 49.28 35.6373 49.16H35.6133C35.4293 49.448 35.1813 49.684 34.8693 49.868C34.5653 50.052 34.1973 50.144 33.7653 50.144C33.4773 50.144 33.2053 50.108 32.9493 50.036C32.7013 49.964 32.4813 49.86 32.2893 49.724C32.1053 49.58 31.9573 49.404 31.8453 49.196C31.7333 48.988 31.6773 48.748 31.6773 48.476C31.6773 48.012 31.7973 47.648 32.0373 47.384C32.2773 47.12 32.5733 46.924 32.9253 46.796C33.2853 46.668 33.6693 46.588 34.0773 46.556C34.4933 46.524 34.8733 46.508 35.2173 46.508H35.5773V46.34C35.5773 45.932 35.4533 45.624 35.2053 45.416C34.9653 45.208 34.6253 45.104 34.1853 45.104C33.8813 45.104 33.5813 45.156 33.2853 45.26C32.9973 45.356 32.7413 45.508 32.5173 45.716L31.9293 45.104ZM34.6413 47.3C34.0413 47.3 33.5653 47.384 33.2133 47.552C32.8613 47.72 32.6853 47.996 32.6853 48.38C32.6853 48.732 32.8013 48.984 33.0333 49.136C33.2733 49.28 33.5693 49.352 33.9213 49.352C34.1933 49.352 34.4293 49.308 34.6293 49.22C34.8373 49.124 35.0093 49 35.1453 48.848C35.2813 48.696 35.3853 48.52 35.4573 48.32C35.5293 48.112 35.5693 47.892 35.5773 47.66V47.3H34.6413ZM38.2239 45.716C38.2239 45.46 38.2159 45.22 38.1999 44.996C38.1839 44.772 38.1759 44.568 38.1759 44.384H39.0639C39.0639 44.536 39.0679 44.688 39.0759 44.84C39.0839 44.992 39.0879 45.148 39.0879 45.308H39.1119C39.1759 45.172 39.2639 45.04 39.3759 44.912C39.4959 44.784 39.6359 44.672 39.7959 44.576C39.9559 44.472 40.1359 44.392 40.3359 44.336C40.5359 44.272 40.7519 44.24 40.9839 44.24C41.0479 44.24 41.1119 44.244 41.1759 44.252C41.2399 44.26 41.3039 44.276 41.3679 44.3L41.3079 45.248C41.1479 45.2 40.9799 45.176 40.8039 45.176C40.2279 45.176 39.8079 45.364 39.5439 45.74C39.2879 46.108 39.1599 46.616 39.1599 47.264V50H38.2239V45.716ZM45.5147 45.176H43.8587V47.984C43.8587 48.168 43.8627 48.34 43.8707 48.5C43.8787 48.652 43.9107 48.788 43.9667 48.908C44.0227 49.02 44.1067 49.112 44.2187 49.184C44.3307 49.248 44.4907 49.28 44.6987 49.28C44.8347 49.28 44.9747 49.264 45.1187 49.232C45.2627 49.2 45.3987 49.152 45.5267 49.088L45.5627 49.94C45.4027 50.012 45.2227 50.064 45.0227 50.096C44.8307 50.128 44.6467 50.144 44.4707 50.144C44.1347 50.144 43.8667 50.1 43.6667 50.012C43.4667 49.924 43.3107 49.8 43.1987 49.64C43.0867 49.48 43.0107 49.284 42.9707 49.052C42.9387 48.812 42.9227 48.548 42.9227 48.26V45.176H41.6987V44.384H42.9227V42.788H43.8587V44.384H45.5147V45.176ZM53.0733 45.176H51.4173V47.984C51.4173 48.168 51.4213 48.34 51.4293 48.5C51.4373 48.652 51.4693 48.788 51.5253 48.908C51.5813 49.02 51.6653 49.112 51.7773 49.184C51.8893 49.248 52.0493 49.28 52.2573 49.28C52.3933 49.28 52.5333 49.264 52.6773 49.232C52.8213 49.2 52.9573 49.152 53.0853 49.088L53.1213 49.94C52.9613 50.012 52.7813 50.064 52.5813 50.096C52.3893 50.128 52.2053 50.144 52.0293 50.144C51.6933 50.144 51.4253 50.1 51.2253 50.012C51.0253 49.924 50.8693 49.8 50.7573 49.64C50.6453 49.48 50.5693 49.284 50.5293 49.052C50.4973 48.812 50.4813 48.548 50.4813 48.26V45.176H49.2573V44.384H50.4813V42.788H51.4173V44.384H53.0733V45.176ZM54.3158 44.384H55.2518V50H54.3158V44.384ZM54.0998 42.188C54.0998 42.004 54.1638 41.844 54.2918 41.708C54.4278 41.572 54.5918 41.504 54.7838 41.504C54.9758 41.504 55.1358 41.572 55.2638 41.708C55.3998 41.844 55.4678 42.004 55.4678 42.188C55.4678 42.388 55.4038 42.552 55.2758 42.68C55.1478 42.808 54.9838 42.872 54.7838 42.872C54.5838 42.872 54.4198 42.808 54.2918 42.68C54.1638 42.552 54.0998 42.388 54.0998 42.188ZM57.1146 45.716C57.1146 45.46 57.1066 45.22 57.0906 44.996C57.0746 44.772 57.0666 44.568 57.0666 44.384H57.9546C57.9546 44.536 57.9586 44.688 57.9666 44.84C57.9746 44.992 57.9786 45.148 57.9786 45.308H58.0026C58.0666 45.172 58.1546 45.04 58.2666 44.912C58.3866 44.784 58.5266 44.672 58.6866 44.576C58.8466 44.472 59.0266 44.392 59.2266 44.336C59.4266 44.272 59.6426 44.24 59.8746 44.24C60.1786 44.24 60.4306 44.28 60.6306 44.36C60.8386 44.432 61.0106 44.524 61.1466 44.636C61.2826 44.74 61.3866 44.856 61.4586 44.984C61.5386 45.104 61.6026 45.212 61.6506 45.308C61.8586 44.972 62.0986 44.712 62.3706 44.528C62.6426 44.336 62.9946 44.24 63.4266 44.24C63.8266 44.24 64.1626 44.296 64.4346 44.408C64.7066 44.512 64.9266 44.668 65.0946 44.876C65.2626 45.076 65.3826 45.324 65.4546 45.62C65.5266 45.908 65.5626 46.232 65.5626 46.592V50H64.6266V46.64C64.6266 46.448 64.6066 46.26 64.5666 46.076C64.5266 45.892 64.4546 45.728 64.3506 45.584C64.2466 45.44 64.1066 45.324 63.9306 45.236C63.7546 45.148 63.5306 45.104 63.2586 45.104C63.0586 45.104 62.8706 45.144 62.6946 45.224C62.5186 45.304 62.3626 45.416 62.2266 45.56C62.0986 45.704 61.9946 45.88 61.9146 46.088C61.8426 46.288 61.8066 46.512 61.8066 46.76V50H60.8706V46.82C60.8706 46.196 60.7866 45.756 60.6186 45.5C60.4506 45.236 60.1746 45.104 59.7906 45.104C59.4866 45.104 59.2226 45.156 58.9986 45.26C58.7826 45.364 58.6026 45.512 58.4586 45.704C58.3226 45.896 58.2186 46.124 58.1466 46.388C58.0826 46.652 58.0506 46.944 58.0506 47.264V50H57.1146V45.716ZM72.3493 48.98C72.0133 49.412 71.6453 49.716 71.2453 49.892C70.8453 50.06 70.3813 50.144 69.8533 50.144C69.4133 50.144 69.0173 50.068 68.6653 49.916C68.3133 49.756 68.0133 49.544 67.7653 49.28C67.5253 49.016 67.3373 48.704 67.2013 48.344C67.0733 47.984 67.0093 47.6 67.0093 47.192C67.0093 46.76 67.0813 46.364 67.2253 46.004C67.3693 45.636 67.5693 45.324 67.8253 45.068C68.0813 44.804 68.3853 44.6 68.7373 44.456C69.0893 44.312 69.4733 44.24 69.8893 44.24C70.2813 44.24 70.6413 44.308 70.9693 44.444C71.2973 44.572 71.5773 44.764 71.8093 45.02C72.0493 45.268 72.2333 45.576 72.3613 45.944C72.4893 46.304 72.5533 46.716 72.5533 47.18V47.48H68.0173C68.0333 47.72 68.0893 47.952 68.1853 48.176C68.2893 48.392 68.4213 48.584 68.5813 48.752C68.7413 48.912 68.9293 49.04 69.1453 49.136C69.3613 49.232 69.5973 49.28 69.8533 49.28C70.2613 49.28 70.6053 49.208 70.8853 49.064C71.1653 48.92 71.4173 48.708 71.6413 48.428L72.3493 48.98ZM71.5453 46.688C71.5293 46.208 71.3733 45.824 71.0773 45.536C70.7813 45.248 70.3733 45.104 69.8533 45.104C69.3333 45.104 68.9133 45.248 68.5933 45.536C68.2733 45.824 68.0813 46.208 68.0173 46.688H71.5453Z" fill="#8993A4"/>
</svg>
