<svg width="176" height="72" viewBox="0 0 176 72" fill="none" xmlns="http://www.w3.org/2000/svg">
<mask id="path-1-inside-1_1_6415" fill="white">
<path d="M0 0H176V72H0V0Z"/>
</mask>
<path d="M176 71H0V73H176V71Z" fill="#EAECF0" mask="url(#path-1-inside-1_1_6415)"/>
<path d="M30.8011 23.3636C30.7415 22.8598 30.4995 22.4688 30.0753 22.1903C29.651 21.9119 29.1307 21.7727 28.5142 21.7727C28.0634 21.7727 27.669 21.8456 27.331 21.9915C26.9962 22.1373 26.7344 22.3378 26.5455 22.593C26.3598 22.8482 26.267 23.1383 26.267 23.4631C26.267 23.7348 26.3317 23.9685 26.4609 24.1641C26.5935 24.3563 26.7625 24.517 26.968 24.6463C27.1735 24.7723 27.389 24.8767 27.6143 24.9595C27.8397 25.0391 28.0469 25.1037 28.2358 25.1534L29.2699 25.4318C29.535 25.5014 29.83 25.5975 30.1548 25.7202C30.483 25.8428 30.7962 26.0102 31.0945 26.2223C31.3961 26.4311 31.6446 26.6996 31.8402 27.0277C32.0357 27.3558 32.1335 27.7585 32.1335 28.2358C32.1335 28.786 31.9893 29.2831 31.701 29.7273C31.416 30.1714 30.9983 30.5244 30.4482 30.7862C29.9013 31.0481 29.2367 31.179 28.4545 31.179C27.7254 31.179 27.094 31.0613 26.5604 30.826C26.0301 30.5907 25.6125 30.2625 25.3075 29.8416C25.0059 29.4207 24.8352 28.9318 24.7955 28.375H26.0682C26.1013 28.7595 26.2306 29.0777 26.456 29.3295C26.6847 29.5781 26.973 29.7637 27.321 29.8864C27.6723 30.0057 28.0502 30.0653 28.4545 30.0653C28.9252 30.0653 29.3478 29.9891 29.7223 29.8366C30.0968 29.6809 30.3935 29.4654 30.6122 29.1903C30.831 28.9119 30.9403 28.5871 30.9403 28.2159C30.9403 27.8778 30.8459 27.6027 30.657 27.3906C30.468 27.1785 30.2195 27.0062 29.9112 26.8736C29.603 26.741 29.2699 26.625 28.9119 26.5256L27.6591 26.1676C26.8636 25.9389 26.2339 25.6125 25.7699 25.1882C25.3059 24.764 25.0739 24.2088 25.0739 23.5227C25.0739 22.9527 25.228 22.4555 25.5362 22.0312C25.8478 21.6037 26.2654 21.2723 26.7891 21.0369C27.3161 20.7983 27.9044 20.679 28.554 20.679C29.2102 20.679 29.7936 20.7966 30.304 21.032C30.8144 21.264 31.2188 21.5821 31.517 21.9865C31.8187 22.3909 31.9777 22.8499 31.9943 23.3636H30.8011ZM36.2488 31.179C35.7649 31.179 35.3257 31.0878 34.9313 30.9055C34.5369 30.7199 34.2237 30.4531 33.9917 30.1051C33.7596 29.7538 33.6436 29.3295 33.6436 28.8324C33.6436 28.3949 33.7298 28.0402 33.9022 27.7685C34.0745 27.4934 34.3049 27.2779 34.5932 27.1222C34.8816 26.9664 35.1998 26.8504 35.5478 26.7741C35.8991 26.6946 36.2521 26.6316 36.6067 26.5852C37.0707 26.5256 37.4469 26.4808 37.7353 26.451C38.0269 26.4179 38.2391 26.3632 38.3716 26.2869C38.5075 26.2107 38.5755 26.0781 38.5755 25.8892V25.8494C38.5755 25.3589 38.4412 24.9777 38.1728 24.706C37.9076 24.4342 37.5049 24.2983 36.9647 24.2983C36.4045 24.2983 35.9654 24.4209 35.6472 24.6662C35.329 24.9115 35.1053 25.1733 34.976 25.4517L33.8624 25.054C34.0613 24.59 34.3264 24.2287 34.6578 23.9702C34.9926 23.7083 35.3572 23.526 35.7516 23.4233C36.1493 23.3172 36.5404 23.2642 36.9249 23.2642C37.1702 23.2642 37.4519 23.294 37.7701 23.3537C38.0916 23.41 38.4015 23.5277 38.6998 23.7067C39.0014 23.8857 39.2516 24.1558 39.4505 24.517C39.6493 24.8783 39.7488 25.3622 39.7488 25.9688V31H38.5755V29.9659H38.5158C38.4363 30.1316 38.3037 30.3089 38.1181 30.4979C37.9325 30.6868 37.6855 30.8475 37.3773 30.9801C37.0691 31.1127 36.6929 31.179 36.2488 31.179ZM36.4277 30.125C36.8917 30.125 37.2828 30.0339 37.601 29.8516C37.9225 29.6693 38.1645 29.4339 38.3269 29.1456C38.4926 28.8572 38.5755 28.554 38.5755 28.2358V27.1619C38.5257 27.2216 38.4164 27.2763 38.2473 27.326C38.0816 27.3724 37.8894 27.4138 37.6706 27.4503C37.4552 27.4834 37.2447 27.5133 37.0392 27.5398C36.8371 27.563 36.673 27.5829 36.5471 27.5994C36.2421 27.6392 35.9571 27.7038 35.6919 27.7933C35.4301 27.8795 35.218 28.0104 35.0556 28.1861C34.8965 28.3584 34.8169 28.5937 34.8169 28.892C34.8169 29.2997 34.9677 29.608 35.2694 29.8168C35.5743 30.0223 35.9604 30.125 36.4277 30.125ZM43.0636 20.8182V31H41.8903V20.8182H43.0636ZM48.4142 31.1591C47.6784 31.1591 47.0437 30.9967 46.5101 30.6719C45.9798 30.3438 45.5705 29.8864 45.2821 29.2997C44.9971 28.7098 44.8546 28.0237 44.8546 27.2415C44.8546 26.4593 44.9971 25.7699 45.2821 25.1733C45.5705 24.5734 45.9715 24.1061 46.4853 23.7713C47.0023 23.4332 47.6055 23.2642 48.2949 23.2642C48.6926 23.2642 49.0854 23.3305 49.4732 23.4631C49.861 23.5956 50.214 23.8111 50.5321 24.1094C50.8503 24.4044 51.1039 24.7955 51.2928 25.2827C51.4817 25.7699 51.5762 26.3698 51.5762 27.0824V27.5795H45.6898V26.5653H50.383C50.383 26.1345 50.2968 25.75 50.1245 25.4119C49.9554 25.0739 49.7135 24.8071 49.3986 24.6115C49.0871 24.416 48.7192 24.3182 48.2949 24.3182C47.8276 24.3182 47.4232 24.4342 47.0819 24.6662C46.7438 24.8949 46.4836 25.1932 46.3013 25.5611C46.119 25.929 46.0279 26.3234 46.0279 26.7443V27.4205C46.0279 27.9972 46.1273 28.486 46.3262 28.8871C46.5283 29.2848 46.8084 29.5881 47.1664 29.7969C47.5243 30.0024 47.9403 30.1051 48.4142 30.1051C48.7225 30.1051 49.0009 30.062 49.2495 29.9759C49.5014 29.8864 49.7185 29.7538 49.9007 29.5781C50.083 29.3991 50.2239 29.1771 50.3233 28.9119L51.4569 29.2301C51.3375 29.6146 51.137 29.9527 50.8553 30.2443C50.5736 30.5327 50.2256 30.758 49.8113 30.9205C49.397 31.0795 48.9313 31.1591 48.4142 31.1591ZM58.7701 25.0739L57.7161 25.3722C57.6498 25.1965 57.552 25.0258 57.4228 24.8601C57.2968 24.6911 57.1245 24.5518 56.9057 24.4425C56.687 24.3331 56.4069 24.2784 56.0655 24.2784C55.5982 24.2784 55.2087 24.3861 54.8972 24.6016C54.589 24.8137 54.4348 25.0838 54.4348 25.4119C54.4348 25.7036 54.5409 25.9339 54.753 26.103C54.9651 26.272 55.2966 26.4129 55.7473 26.5256L56.8809 26.804C57.5636 26.9697 58.0724 27.2232 58.4071 27.5646C58.7419 27.9027 58.9093 28.3385 58.9093 28.8722C58.9093 29.3097 58.7833 29.7008 58.5314 30.0455C58.2828 30.3902 57.9348 30.6619 57.4874 30.8608C57.04 31.0597 56.5196 31.1591 55.9263 31.1591C55.1474 31.1591 54.5028 30.9901 53.9924 30.652C53.4819 30.3139 53.1588 29.8201 53.0229 29.1705L54.1365 28.892C54.2426 29.303 54.4431 29.6113 54.7381 29.8168C55.0364 30.0223 55.4258 30.125 55.9064 30.125C56.4533 30.125 56.8875 30.009 57.209 29.777C57.5338 29.5417 57.6962 29.2599 57.6962 28.9318C57.6962 28.6667 57.6034 28.4446 57.4178 28.2656C57.2322 28.0833 56.9471 27.9474 56.5627 27.858L55.29 27.5597C54.5906 27.3939 54.0769 27.1371 53.7488 26.7891C53.4239 26.4377 53.2615 25.9986 53.2615 25.4716C53.2615 25.0407 53.3825 24.6596 53.6245 24.3281C53.8697 23.9967 54.2028 23.7365 54.6238 23.5476C55.048 23.3587 55.5286 23.2642 56.0655 23.2642C56.8212 23.2642 57.4145 23.4299 57.8453 23.7614C58.2795 24.0928 58.5878 24.5303 58.7701 25.0739ZM70.022 25.0739L68.968 25.3722C68.9018 25.1965 68.804 25.0258 68.6747 24.8601C68.5488 24.6911 68.3764 24.5518 68.1577 24.4425C67.9389 24.3331 67.6589 24.2784 67.3175 24.2784C66.8501 24.2784 66.4607 24.3861 66.1491 24.6016C65.8409 24.8137 65.6868 25.0838 65.6868 25.4119C65.6868 25.7036 65.7929 25.9339 66.005 26.103C66.2171 26.272 66.5485 26.4129 66.9993 26.5256L68.1328 26.804C68.8156 26.9697 69.3243 27.2232 69.6591 27.5646C69.9938 27.9027 70.1612 28.3385 70.1612 28.8722C70.1612 29.3097 70.0353 29.7008 69.7834 30.0455C69.5348 30.3902 69.1868 30.6619 68.7393 30.8608C68.2919 31.0597 67.7715 31.1591 67.1783 31.1591C66.3994 31.1591 65.7547 30.9901 65.2443 30.652C64.7339 30.3139 64.4107 29.8201 64.2749 29.1705L65.3885 28.892C65.4946 29.303 65.6951 29.6113 65.9901 29.8168C66.2884 30.0223 66.6778 30.125 67.1584 30.125C67.7053 30.125 68.1394 30.009 68.4609 29.777C68.7857 29.5417 68.9482 29.2599 68.9482 28.9318C68.9482 28.6667 68.8554 28.4446 68.6697 28.2656C68.4841 28.0833 68.1991 27.9474 67.8146 27.858L66.5419 27.5597C65.8426 27.3939 65.3288 27.1371 65.0007 26.7891C64.6759 26.4377 64.5135 25.9986 64.5135 25.4716C64.5135 25.0407 64.6345 24.6596 64.8764 24.3281C65.1217 23.9967 65.4548 23.7365 65.8757 23.5476C66.3 23.3587 66.7805 23.2642 67.3175 23.2642C68.0732 23.2642 68.6664 23.4299 69.0973 23.7614C69.5315 24.0928 69.8397 24.5303 70.022 25.0739ZM71.9274 33.8636V23.3636H73.0609V24.5767H73.2001C73.2863 24.4441 73.4056 24.2751 73.5581 24.0696C73.7138 23.8608 73.9359 23.6752 74.2243 23.5128C74.5159 23.3471 74.9103 23.2642 75.4075 23.2642C76.0505 23.2642 76.6172 23.425 77.1078 23.7464C77.5983 24.0679 77.9811 24.5237 78.2562 25.1136C78.5313 25.7036 78.6689 26.3996 78.6689 27.2017C78.6689 28.0104 78.5313 28.7114 78.2562 29.3047C77.9811 29.8946 77.6 30.352 77.1127 30.6768C76.6255 30.9983 76.0637 31.1591 75.4274 31.1591C74.9368 31.1591 74.5441 31.0779 74.2491 30.9155C73.9541 30.7498 73.7271 30.5625 73.568 30.3537C73.4089 30.1416 73.2863 29.9659 73.2001 29.8267H73.1007V33.8636H71.9274ZM73.0808 27.1818C73.0808 27.7585 73.1653 28.2673 73.3343 28.7081C73.5034 29.1456 73.7503 29.4886 74.0751 29.7372C74.3999 29.9825 74.7976 30.1051 75.2683 30.1051C75.7588 30.1051 76.1681 29.9759 76.4963 29.7173C76.8277 29.4555 77.0763 29.1042 77.242 28.6634C77.411 28.2192 77.4956 27.7254 77.4956 27.1818C77.4956 26.6449 77.4127 26.161 77.247 25.7301C77.0846 25.2959 76.8377 24.9529 76.5062 24.701C76.1781 24.4458 75.7654 24.3182 75.2683 24.3182C74.791 24.3182 74.39 24.4392 74.0652 24.6811C73.7404 24.9197 73.4951 25.2545 73.3294 25.6854C73.1636 26.1129 73.0808 26.6117 73.0808 27.1818ZM83.6603 31.1591C82.9245 31.1591 82.2898 30.9967 81.7562 30.6719C81.2259 30.3438 80.8166 29.8864 80.5282 29.2997C80.2432 28.7098 80.1007 28.0237 80.1007 27.2415C80.1007 26.4593 80.2432 25.7699 80.5282 25.1733C80.8166 24.5734 81.2176 24.1061 81.7314 23.7713C82.2484 23.4332 82.8516 23.2642 83.541 23.2642C83.9387 23.2642 84.3315 23.3305 84.7193 23.4631C85.1071 23.5956 85.4601 23.8111 85.7782 24.1094C86.0964 24.4044 86.35 24.7955 86.5389 25.2827C86.7278 25.7699 86.8223 26.3698 86.8223 27.0824V27.5795H80.9359V26.5653H85.6291C85.6291 26.1345 85.5429 25.75 85.3706 25.4119C85.2015 25.0739 84.9596 24.8071 84.6447 24.6115C84.3332 24.416 83.9653 24.3182 83.541 24.3182C83.0737 24.3182 82.6693 24.4342 82.3279 24.6662C81.9899 24.8949 81.7297 25.1932 81.5474 25.5611C81.3651 25.929 81.274 26.3234 81.274 26.7443V27.4205C81.274 27.9972 81.3734 28.486 81.5723 28.8871C81.7744 29.2848 82.0545 29.5881 82.4125 29.7969C82.7704 30.0024 83.1864 30.1051 83.6603 30.1051C83.9686 30.1051 84.247 30.062 84.4956 29.9759C84.7475 29.8864 84.9645 29.7538 85.1468 29.5781C85.3291 29.3991 85.47 29.1771 85.5694 28.9119L86.7029 29.2301C86.5836 29.6146 86.3831 29.9527 86.1014 30.2443C85.8197 30.5327 85.4717 30.758 85.0574 30.9205C84.6431 31.0795 84.1774 31.1591 83.6603 31.1591ZM91.7093 31.1591C90.9934 31.1591 90.377 30.9901 89.8599 30.652C89.3429 30.3139 88.9451 29.8482 88.6667 29.255C88.3883 28.6617 88.2491 27.9839 88.2491 27.2216C88.2491 26.446 88.3916 25.7616 88.6767 25.1683C88.965 24.5717 89.3661 24.1061 89.8798 23.7713C90.3968 23.4332 91.0001 23.2642 91.6895 23.2642C92.2264 23.2642 92.7103 23.3636 93.1412 23.5625C93.572 23.7614 93.925 24.0398 94.2001 24.3977C94.4752 24.7557 94.6459 25.1733 94.7122 25.6506H93.5389C93.4494 25.3026 93.2505 24.9943 92.9423 24.7259C92.6374 24.4541 92.2264 24.3182 91.7093 24.3182C91.252 24.3182 90.8509 24.4375 90.5062 24.6761C90.1648 24.9115 89.898 25.2446 89.7058 25.6754C89.5169 26.103 89.4224 26.6051 89.4224 27.1818C89.4224 27.7718 89.5152 28.2855 89.7008 28.723C89.8897 29.1605 90.1549 29.5002 90.4963 29.7422C90.841 29.9841 91.2453 30.1051 91.7093 30.1051C92.0143 30.1051 92.291 30.0521 92.5396 29.946C92.7882 29.84 92.9986 29.6875 93.171 29.4886C93.3433 29.2898 93.466 29.0511 93.5389 28.7727H94.7122C94.6459 29.2235 94.4818 29.6295 94.22 29.9908C93.9615 30.3487 93.6184 30.6338 93.1909 30.8459C92.7666 31.0547 92.2728 31.1591 91.7093 31.1591ZM96.4274 31V23.3636H97.6007V31H96.4274ZM97.024 22.0909C96.7953 22.0909 96.5981 22.013 96.4324 21.8572C96.2699 21.7015 96.1887 21.5142 96.1887 21.2955C96.1887 21.0767 96.2699 20.8894 96.4324 20.7337C96.5981 20.5779 96.7953 20.5 97.024 20.5C97.2527 20.5 97.4482 20.5779 97.6106 20.7337C97.7763 20.8894 97.8592 21.0767 97.8592 21.2955C97.8592 21.5142 97.7763 21.7015 97.6106 21.8572C97.4482 22.013 97.2527 22.0909 97.024 22.0909ZM101.997 31.179C101.513 31.179 101.074 31.0878 100.679 30.9055C100.285 30.7199 99.9717 30.4531 99.7397 30.1051C99.5077 29.7538 99.3917 29.3295 99.3917 28.8324C99.3917 28.3949 99.4779 28.0402 99.6502 27.7685C99.8226 27.4934 100.053 27.2779 100.341 27.1222C100.63 26.9664 100.948 26.8504 101.296 26.7741C101.647 26.6946 102 26.6316 102.355 26.5852C102.819 26.5256 103.195 26.4808 103.483 26.451C103.775 26.4179 103.987 26.3632 104.12 26.2869C104.256 26.2107 104.324 26.0781 104.324 25.8892V25.8494C104.324 25.3589 104.189 24.9777 103.921 24.706C103.656 24.4342 103.253 24.2983 102.713 24.2983C102.153 24.2983 101.713 24.4209 101.395 24.6662C101.077 24.9115 100.853 25.1733 100.724 25.4517L99.6104 25.054C99.8093 24.59 100.074 24.2287 100.406 23.9702C100.741 23.7083 101.105 23.526 101.5 23.4233C101.897 23.3172 102.288 23.2642 102.673 23.2642C102.918 23.2642 103.2 23.294 103.518 23.3537C103.84 23.41 104.15 23.5277 104.448 23.7067C104.749 23.8857 105 24.1558 105.199 24.517C105.397 24.8783 105.497 25.3622 105.497 25.9688V31H104.324V29.9659H104.264C104.184 30.1316 104.052 30.3089 103.866 30.4979C103.681 30.6868 103.434 30.8475 103.125 30.9801C102.817 31.1127 102.441 31.179 101.997 31.179ZM102.176 30.125C102.64 30.125 103.031 30.0339 103.349 29.8516C103.671 29.6693 103.913 29.4339 104.075 29.1456C104.241 28.8572 104.324 28.554 104.324 28.2358V27.1619C104.274 27.2216 104.164 27.2763 103.995 27.326C103.83 27.3724 103.637 27.4138 103.419 27.4503C103.203 27.4834 102.993 27.5133 102.787 27.5398C102.585 27.563 102.421 27.5829 102.295 27.5994C101.99 27.6392 101.705 27.7038 101.44 27.7933C101.178 27.8795 100.966 28.0104 100.804 28.1861C100.645 28.3584 100.565 28.5937 100.565 28.892C100.565 29.2997 100.716 29.608 101.017 29.8168C101.322 30.0223 101.708 30.125 102.176 30.125ZM108.812 20.8182V31H107.638V20.8182H108.812ZM110.961 31V23.3636H112.134V31H110.961ZM111.557 22.0909C111.328 22.0909 111.131 22.013 110.966 21.8572C110.803 21.7015 110.722 21.5142 110.722 21.2955C110.722 21.0767 110.803 20.8894 110.966 20.7337C111.131 20.5779 111.328 20.5 111.557 20.5C111.786 20.5 111.981 20.5779 112.144 20.7337C112.31 20.8894 112.392 21.0767 112.392 21.2955C112.392 21.5142 112.31 21.7015 112.144 21.8572C111.981 22.013 111.786 22.0909 111.557 22.0909ZM119.692 25.0739L118.638 25.3722C118.572 25.1965 118.474 25.0258 118.345 24.8601C118.219 24.6911 118.046 24.5518 117.828 24.4425C117.609 24.3331 117.329 24.2784 116.987 24.2784C116.52 24.2784 116.131 24.3861 115.819 24.6016C115.511 24.8137 115.357 25.0838 115.357 25.4119C115.357 25.7036 115.463 25.9339 115.675 26.103C115.887 26.272 116.218 26.4129 116.669 26.5256L117.803 26.804C118.485 26.9697 118.994 27.2232 119.329 27.5646C119.664 27.9027 119.831 28.3385 119.831 28.8722C119.831 29.3097 119.705 29.7008 119.453 30.0455C119.205 30.3902 118.857 30.6619 118.409 30.8608C117.962 31.0597 117.441 31.1591 116.848 31.1591C116.069 31.1591 115.425 30.9901 114.914 30.652C114.404 30.3139 114.081 29.8201 113.945 29.1705L115.058 28.892C115.164 29.303 115.365 29.6113 115.66 29.8168C115.958 30.0223 116.348 30.125 116.828 30.125C117.375 30.125 117.809 30.009 118.131 29.777C118.456 29.5417 118.618 29.2599 118.618 28.9318C118.618 28.6667 118.525 28.4446 118.34 28.2656C118.154 28.0833 117.869 27.9474 117.485 27.858L116.212 27.5597C115.512 27.3939 114.999 27.1371 114.671 26.7891C114.346 26.4377 114.183 25.9986 114.183 25.4716C114.183 25.0407 114.304 24.6596 114.546 24.3281C114.792 23.9967 115.125 23.7365 115.546 23.5476C115.97 23.3587 116.45 23.2642 116.987 23.2642C117.743 23.2642 118.336 23.4299 118.767 23.7614C119.201 24.0928 119.51 24.5303 119.692 25.0739ZM124.918 23.3636V24.358H120.961V23.3636H124.918ZM122.114 21.5341H123.288V28.8125C123.288 29.1439 123.336 29.3925 123.432 29.5582C123.531 29.7206 123.657 29.83 123.81 29.8864C123.965 29.9394 124.129 29.9659 124.302 29.9659C124.431 29.9659 124.537 29.9593 124.62 29.946C124.703 29.9295 124.769 29.9162 124.819 29.9062L125.058 30.9602C124.978 30.9901 124.867 31.0199 124.724 31.0497C124.582 31.0829 124.401 31.0994 124.183 31.0994C123.851 31.0994 123.526 31.0282 123.208 30.8857C122.893 30.7431 122.631 30.526 122.423 30.2344C122.217 29.9427 122.114 29.5748 122.114 29.1307V21.5341Z" fill="#42526D"/>
<path d="M25.056 41.504H27.576C27.968 41.504 28.34 41.544 28.692 41.624C29.052 41.696 29.368 41.824 29.64 42.008C29.92 42.184 30.14 42.424 30.3 42.728C30.468 43.024 30.552 43.392 30.552 43.832C30.552 44.296 30.464 44.68 30.288 44.984C30.112 45.288 29.884 45.528 29.604 45.704C29.332 45.88 29.032 46.004 28.704 46.076C28.376 46.148 28.064 46.184 27.768 46.184H26.064V50H25.056V41.504ZM26.064 45.248H27.768C28.272 45.248 28.68 45.136 28.992 44.912C29.312 44.68 29.472 44.324 29.472 43.844C29.472 43.364 29.312 43.012 28.992 42.788C28.68 42.556 28.272 42.44 27.768 42.44H26.064V45.248ZM31.9293 45.104C32.2173 44.808 32.5573 44.592 32.9493 44.456C33.3493 44.312 33.7533 44.24 34.1613 44.24C34.9933 44.24 35.5933 44.436 35.9613 44.828C36.3293 45.22 36.5133 45.816 36.5133 46.616V49.028C36.5133 49.188 36.5213 49.356 36.5373 49.532C36.5533 49.7 36.5733 49.856 36.5973 50H35.6973C35.6653 49.872 35.6453 49.732 35.6373 49.58C35.6373 49.42 35.6373 49.28 35.6373 49.16H35.6133C35.4293 49.448 35.1813 49.684 34.8693 49.868C34.5653 50.052 34.1973 50.144 33.7653 50.144C33.4773 50.144 33.2053 50.108 32.9493 50.036C32.7013 49.964 32.4813 49.86 32.2893 49.724C32.1053 49.58 31.9573 49.404 31.8453 49.196C31.7333 48.988 31.6773 48.748 31.6773 48.476C31.6773 48.012 31.7973 47.648 32.0373 47.384C32.2773 47.12 32.5733 46.924 32.9253 46.796C33.2853 46.668 33.6693 46.588 34.0773 46.556C34.4933 46.524 34.8733 46.508 35.2173 46.508H35.5773V46.34C35.5773 45.932 35.4533 45.624 35.2053 45.416C34.9653 45.208 34.6253 45.104 34.1853 45.104C33.8813 45.104 33.5813 45.156 33.2853 45.26C32.9973 45.356 32.7413 45.508 32.5173 45.716L31.9293 45.104ZM34.6413 47.3C34.0413 47.3 33.5653 47.384 33.2133 47.552C32.8613 47.72 32.6853 47.996 32.6853 48.38C32.6853 48.732 32.8013 48.984 33.0333 49.136C33.2733 49.28 33.5693 49.352 33.9213 49.352C34.1933 49.352 34.4293 49.308 34.6293 49.22C34.8373 49.124 35.0093 49 35.1453 48.848C35.2813 48.696 35.3853 48.52 35.4573 48.32C35.5293 48.112 35.5693 47.892 35.5773 47.66V47.3H34.6413ZM38.2239 45.716C38.2239 45.46 38.2159 45.22 38.1999 44.996C38.1839 44.772 38.1759 44.568 38.1759 44.384H39.0639C39.0639 44.536 39.0679 44.688 39.0759 44.84C39.0839 44.992 39.0879 45.148 39.0879 45.308H39.1119C39.1759 45.172 39.2639 45.04 39.3759 44.912C39.4959 44.784 39.6359 44.672 39.7959 44.576C39.9559 44.472 40.1359 44.392 40.3359 44.336C40.5359 44.272 40.7519 44.24 40.9839 44.24C41.0479 44.24 41.1119 44.244 41.1759 44.252C41.2399 44.26 41.3039 44.276 41.3679 44.3L41.3079 45.248C41.1479 45.2 40.9799 45.176 40.8039 45.176C40.2279 45.176 39.8079 45.364 39.5439 45.74C39.2879 46.108 39.1599 46.616 39.1599 47.264V50H38.2239V45.716ZM45.5147 45.176H43.8587V47.984C43.8587 48.168 43.8627 48.34 43.8707 48.5C43.8787 48.652 43.9107 48.788 43.9667 48.908C44.0227 49.02 44.1067 49.112 44.2187 49.184C44.3307 49.248 44.4907 49.28 44.6987 49.28C44.8347 49.28 44.9747 49.264 45.1187 49.232C45.2627 49.2 45.3987 49.152 45.5267 49.088L45.5627 49.94C45.4027 50.012 45.2227 50.064 45.0227 50.096C44.8307 50.128 44.6467 50.144 44.4707 50.144C44.1347 50.144 43.8667 50.1 43.6667 50.012C43.4667 49.924 43.3107 49.8 43.1987 49.64C43.0867 49.48 43.0107 49.284 42.9707 49.052C42.9387 48.812 42.9227 48.548 42.9227 48.26V45.176H41.6987V44.384H42.9227V42.788H43.8587V44.384H45.5147V45.176ZM53.0733 45.176H51.4173V47.984C51.4173 48.168 51.4213 48.34 51.4293 48.5C51.4373 48.652 51.4693 48.788 51.5253 48.908C51.5813 49.02 51.6653 49.112 51.7773 49.184C51.8893 49.248 52.0493 49.28 52.2573 49.28C52.3933 49.28 52.5333 49.264 52.6773 49.232C52.8213 49.2 52.9573 49.152 53.0853 49.088L53.1213 49.94C52.9613 50.012 52.7813 50.064 52.5813 50.096C52.3893 50.128 52.2053 50.144 52.0293 50.144C51.6933 50.144 51.4253 50.1 51.2253 50.012C51.0253 49.924 50.8693 49.8 50.7573 49.64C50.6453 49.48 50.5693 49.284 50.5293 49.052C50.4973 48.812 50.4813 48.548 50.4813 48.26V45.176H49.2573V44.384H50.4813V42.788H51.4173V44.384H53.0733V45.176ZM54.3158 44.384H55.2518V50H54.3158V44.384ZM54.0998 42.188C54.0998 42.004 54.1638 41.844 54.2918 41.708C54.4278 41.572 54.5918 41.504 54.7838 41.504C54.9758 41.504 55.1358 41.572 55.2638 41.708C55.3998 41.844 55.4678 42.004 55.4678 42.188C55.4678 42.388 55.4038 42.552 55.2758 42.68C55.1478 42.808 54.9838 42.872 54.7838 42.872C54.5838 42.872 54.4198 42.808 54.2918 42.68C54.1638 42.552 54.0998 42.388 54.0998 42.188ZM57.1146 45.716C57.1146 45.46 57.1066 45.22 57.0906 44.996C57.0746 44.772 57.0666 44.568 57.0666 44.384H57.9546C57.9546 44.536 57.9586 44.688 57.9666 44.84C57.9746 44.992 57.9786 45.148 57.9786 45.308H58.0026C58.0666 45.172 58.1546 45.04 58.2666 44.912C58.3866 44.784 58.5266 44.672 58.6866 44.576C58.8466 44.472 59.0266 44.392 59.2266 44.336C59.4266 44.272 59.6426 44.24 59.8746 44.24C60.1786 44.24 60.4306 44.28 60.6306 44.36C60.8386 44.432 61.0106 44.524 61.1466 44.636C61.2826 44.74 61.3866 44.856 61.4586 44.984C61.5386 45.104 61.6026 45.212 61.6506 45.308C61.8586 44.972 62.0986 44.712 62.3706 44.528C62.6426 44.336 62.9946 44.24 63.4266 44.24C63.8266 44.24 64.1626 44.296 64.4346 44.408C64.7066 44.512 64.9266 44.668 65.0946 44.876C65.2626 45.076 65.3826 45.324 65.4546 45.62C65.5266 45.908 65.5626 46.232 65.5626 46.592V50H64.6266V46.64C64.6266 46.448 64.6066 46.26 64.5666 46.076C64.5266 45.892 64.4546 45.728 64.3506 45.584C64.2466 45.44 64.1066 45.324 63.9306 45.236C63.7546 45.148 63.5306 45.104 63.2586 45.104C63.0586 45.104 62.8706 45.144 62.6946 45.224C62.5186 45.304 62.3626 45.416 62.2266 45.56C62.0986 45.704 61.9946 45.88 61.9146 46.088C61.8426 46.288 61.8066 46.512 61.8066 46.76V50H60.8706V46.82C60.8706 46.196 60.7866 45.756 60.6186 45.5C60.4506 45.236 60.1746 45.104 59.7906 45.104C59.4866 45.104 59.2226 45.156 58.9986 45.26C58.7826 45.364 58.6026 45.512 58.4586 45.704C58.3226 45.896 58.2186 46.124 58.1466 46.388C58.0826 46.652 58.0506 46.944 58.0506 47.264V50H57.1146V45.716ZM72.3493 48.98C72.0133 49.412 71.6453 49.716 71.2453 49.892C70.8453 50.06 70.3813 50.144 69.8533 50.144C69.4133 50.144 69.0173 50.068 68.6653 49.916C68.3133 49.756 68.0133 49.544 67.7653 49.28C67.5253 49.016 67.3373 48.704 67.2013 48.344C67.0733 47.984 67.0093 47.6 67.0093 47.192C67.0093 46.76 67.0813 46.364 67.2253 46.004C67.3693 45.636 67.5693 45.324 67.8253 45.068C68.0813 44.804 68.3853 44.6 68.7373 44.456C69.0893 44.312 69.4733 44.24 69.8893 44.24C70.2813 44.24 70.6413 44.308 70.9693 44.444C71.2973 44.572 71.5773 44.764 71.8093 45.02C72.0493 45.268 72.2333 45.576 72.3613 45.944C72.4893 46.304 72.5533 46.716 72.5533 47.18V47.48H68.0173C68.0333 47.72 68.0893 47.952 68.1853 48.176C68.2893 48.392 68.4213 48.584 68.5813 48.752C68.7413 48.912 68.9293 49.04 69.1453 49.136C69.3613 49.232 69.5973 49.28 69.8533 49.28C70.2613 49.28 70.6053 49.208 70.8853 49.064C71.1653 48.92 71.4173 48.708 71.6413 48.428L72.3493 48.98ZM71.5453 46.688C71.5293 46.208 71.3733 45.824 71.0773 45.536C70.7813 45.248 70.3733 45.104 69.8533 45.104C69.3333 45.104 68.9133 45.248 68.5933 45.536C68.2733 45.824 68.0813 46.208 68.0173 46.688H71.5453Z" fill="#8993A4"/>
</svg>
