<svg width="176" height="72" viewBox="0 0 176 72" fill="none" xmlns="http://www.w3.org/2000/svg">
<mask id="path-1-inside-1_1_6400" fill="white">
<path d="M0 0H176V72H0V0Z"/>
</mask>
<path d="M176 71H0V73H176V71Z" fill="#EAECF0" mask="url(#path-1-inside-1_1_6400)"/>
<path d="M25.233 31V20.8182H28.6733C29.4721 20.8182 30.125 20.9624 30.6321 21.2507C31.1425 21.5357 31.5204 21.9219 31.7656 22.4091C32.0109 22.8963 32.1335 23.4399 32.1335 24.0398C32.1335 24.6397 32.0109 25.1849 31.7656 25.6754C31.5237 26.166 31.1491 26.5571 30.642 26.8487C30.1349 27.1371 29.4853 27.2812 28.6932 27.2812H26.2273V26.1875H28.6534C29.2003 26.1875 29.6394 26.093 29.9709 25.9041C30.3023 25.7152 30.5426 25.46 30.6918 25.1385C30.8442 24.8137 30.9205 24.4474 30.9205 24.0398C30.9205 23.6321 30.8442 23.2675 30.6918 22.946C30.5426 22.6245 30.3007 22.3726 29.9659 22.1903C29.6312 22.0047 29.187 21.9119 28.6335 21.9119H26.4659V31H25.233ZM33.9606 31V23.3636H35.0941V24.517H35.1737C35.3129 24.1392 35.5647 23.8326 35.9293 23.5973C36.2939 23.362 36.7049 23.2443 37.1623 23.2443C37.2485 23.2443 37.3562 23.246 37.4854 23.2493C37.6147 23.2526 37.7125 23.2576 37.7788 23.2642V24.4574C37.739 24.4474 37.6478 24.4325 37.5053 24.4126C37.3661 24.3894 37.2186 24.3778 37.0629 24.3778C36.6916 24.3778 36.3602 24.4557 36.0685 24.6115C35.7802 24.764 35.5515 24.9761 35.3825 25.2479C35.2167 25.5163 35.1339 25.8229 35.1339 26.1676V31H33.9606ZM42.0394 31.1591C41.35 31.1591 40.7451 30.995 40.2248 30.6669C39.7077 30.3388 39.3034 29.8797 39.0117 29.2898C38.7234 28.6998 38.5792 28.0104 38.5792 27.2216C38.5792 26.4261 38.7234 25.7318 39.0117 25.1385C39.3034 24.5452 39.7077 24.0845 40.2248 23.7564C40.7451 23.4283 41.35 23.2642 42.0394 23.2642C42.7288 23.2642 43.332 23.4283 43.8491 23.7564C44.3694 24.0845 44.7738 24.5452 45.0621 25.1385C45.3538 25.7318 45.4996 26.4261 45.4996 27.2216C45.4996 28.0104 45.3538 28.6998 45.0621 29.2898C44.7738 29.8797 44.3694 30.3388 43.8491 30.6669C43.332 30.995 42.7288 31.1591 42.0394 31.1591ZM42.0394 30.1051C42.5631 30.1051 42.994 29.9709 43.332 29.7024C43.6701 29.4339 43.9203 29.081 44.0827 28.6435C44.2451 28.206 44.3263 27.732 44.3263 27.2216C44.3263 26.7112 44.2451 26.2356 44.0827 25.7947C43.9203 25.3539 43.6701 24.9976 43.332 24.7259C42.994 24.4541 42.5631 24.3182 42.0394 24.3182C41.5157 24.3182 41.0849 24.4541 40.7468 24.7259C40.4087 24.9976 40.1585 25.3539 39.9961 25.7947C39.8337 26.2356 39.7525 26.7112 39.7525 27.2216C39.7525 27.732 39.8337 28.206 39.9961 28.6435C40.1585 29.081 40.4087 29.4339 40.7468 29.7024C41.0849 29.9709 41.5157 30.1051 42.0394 30.1051ZM50.1742 31.1591C49.5378 31.1591 48.976 30.9983 48.4888 30.6768C48.0016 30.352 47.6204 29.8946 47.3453 29.3047C47.0703 28.7114 46.9327 28.0104 46.9327 27.2017C46.9327 26.3996 47.0703 25.7036 47.3453 25.1136C47.6204 24.5237 48.0033 24.0679 48.4938 23.7464C48.9843 23.425 49.5511 23.2642 50.1941 23.2642C50.6912 23.2642 51.084 23.3471 51.3723 23.5128C51.664 23.6752 51.8861 23.8608 52.0385 24.0696C52.1943 24.2751 52.3153 24.4441 52.4015 24.5767H52.5009V20.8182H53.6742V31H52.5407V29.8267H52.4015C52.3153 29.9659 52.1926 30.1416 52.0336 30.3537C51.8745 30.5625 51.6474 30.7498 51.3525 30.9155C51.0575 31.0779 50.6647 31.1591 50.1742 31.1591ZM50.3333 30.1051C50.8039 30.1051 51.2016 29.9825 51.5265 29.7372C51.8513 29.4886 52.0982 29.1456 52.2672 28.7081C52.4363 28.2673 52.5208 27.7585 52.5208 27.1818C52.5208 26.6117 52.4379 26.1129 52.2722 25.6854C52.1065 25.2545 51.8612 24.9197 51.5364 24.6811C51.2116 24.4392 50.8105 24.3182 50.3333 24.3182C49.8361 24.3182 49.4218 24.4458 49.0904 24.701C48.7623 24.9529 48.5153 25.2959 48.3496 25.7301C48.1872 26.161 48.106 26.6449 48.106 27.1818C48.106 27.7254 48.1889 28.2192 48.3546 28.6634C48.5236 29.1042 48.7722 29.4555 49.1003 29.7173C49.4318 29.9759 49.8427 30.1051 50.3333 30.1051ZM60.7985 27.8778V23.3636H61.9718V31H60.7985V29.7074H60.7189C60.54 30.0952 60.2615 30.425 59.8837 30.6967C59.5059 30.9652 59.0286 31.0994 58.4519 31.0994C57.9746 31.0994 57.5504 30.995 57.1792 30.7862C56.8079 30.5741 56.5163 30.2559 56.3042 29.8317C56.092 29.4041 55.986 28.8655 55.986 28.2159V23.3636H57.1593V28.1364C57.1593 28.6932 57.315 29.1373 57.6266 29.4688C57.9415 29.8002 58.3425 29.9659 58.8297 29.9659C59.1214 29.9659 59.418 29.8913 59.7196 29.7422C60.0246 29.593 60.2798 29.3643 60.4853 29.0561C60.6941 28.7479 60.7985 28.3551 60.7985 27.8778ZM67.223 31.1591C66.5071 31.1591 65.8906 30.9901 65.3736 30.652C64.8565 30.3139 64.4588 29.8482 64.1804 29.255C63.902 28.6617 63.7628 27.9839 63.7628 27.2216C63.7628 26.446 63.9053 25.7616 64.1903 25.1683C64.4787 24.5717 64.8797 24.1061 65.3935 23.7713C65.9105 23.4332 66.5137 23.2642 67.2031 23.2642C67.7401 23.2642 68.224 23.3636 68.6548 23.5625C69.0857 23.7614 69.4387 24.0398 69.7138 24.3977C69.9889 24.7557 70.1596 25.1733 70.2259 25.6506H69.0526C68.9631 25.3026 68.7642 24.9943 68.456 24.7259C68.151 24.4541 67.7401 24.3182 67.223 24.3182C66.7656 24.3182 66.3646 24.4375 66.0199 24.6761C65.6785 24.9115 65.4117 25.2446 65.2195 25.6754C65.0305 26.103 64.9361 26.6051 64.9361 27.1818C64.9361 27.7718 65.0289 28.2855 65.2145 28.723C65.4034 29.1605 65.6686 29.5002 66.0099 29.7422C66.3546 29.9841 66.759 30.1051 67.223 30.1051C67.5279 30.1051 67.8047 30.0521 68.0533 29.946C68.3018 29.84 68.5123 29.6875 68.6847 29.4886C68.857 29.2898 68.9796 29.0511 69.0526 28.7727H70.2259C70.1596 29.2235 69.9955 29.6295 69.7337 29.9908C69.4751 30.3487 69.1321 30.6338 68.7045 30.8459C68.2803 31.0547 67.7865 31.1591 67.223 31.1591ZM75.2621 23.3636V24.358H71.3047V23.3636H75.2621ZM72.4581 21.5341H73.6314V28.8125C73.6314 29.1439 73.6795 29.3925 73.7756 29.5582C73.875 29.7206 74.0009 29.83 74.1534 29.8864C74.3092 29.9394 74.4732 29.9659 74.6456 29.9659C74.7749 29.9659 74.8809 29.9593 74.9638 29.946C75.0466 29.9295 75.1129 29.9162 75.1626 29.9062L75.4013 30.9602C75.3217 30.9901 75.2107 31.0199 75.0682 31.0497C74.9257 31.0829 74.745 31.0994 74.5263 31.0994C74.1948 31.0994 73.87 31.0282 73.5518 30.8857C73.237 30.7431 72.9751 30.526 72.7663 30.2344C72.5608 29.9427 72.4581 29.5748 72.4581 29.1307V21.5341ZM84.2656 31H81.1236V20.8182H84.4048C85.3925 20.8182 86.2377 21.022 86.9403 21.4297C87.643 21.834 88.1816 22.4157 88.5561 23.1747C88.9306 23.9304 89.1179 24.8352 89.1179 25.8892C89.1179 26.9498 88.929 27.8629 88.5511 28.6286C88.1733 29.3909 87.6231 29.9775 86.9006 30.3885C86.178 30.7962 85.2997 31 84.2656 31ZM82.3565 29.9062H84.1861C85.0279 29.9062 85.7256 29.7438 86.2791 29.419C86.8326 29.0942 87.2453 28.6319 87.517 28.032C87.7888 27.4321 87.9247 26.7178 87.9247 25.8892C87.9247 25.0672 87.7905 24.3596 87.522 23.7663C87.2536 23.1697 86.8525 22.7124 86.3189 22.3942C85.7853 22.0727 85.1207 21.9119 84.3253 21.9119H82.3565V29.9062ZM94.2287 31.1591C93.4929 31.1591 92.8582 30.9967 92.3246 30.6719C91.7943 30.3438 91.3849 29.8864 91.0966 29.2997C90.8116 28.7098 90.669 28.0237 90.669 27.2415C90.669 26.4593 90.8116 25.7699 91.0966 25.1733C91.3849 24.5734 91.786 24.1061 92.2997 23.7713C92.8168 23.4332 93.42 23.2642 94.1094 23.2642C94.5071 23.2642 94.8999 23.3305 95.2876 23.4631C95.6754 23.5956 96.0284 23.8111 96.3466 24.1094C96.6648 24.4044 96.9183 24.7955 97.1072 25.2827C97.2962 25.7699 97.3906 26.3698 97.3906 27.0824V27.5795H91.5043V26.5653H96.1974C96.1974 26.1345 96.1113 25.75 95.9389 25.4119C95.7699 25.0739 95.5279 24.8071 95.2131 24.6115C94.9015 24.416 94.5336 24.3182 94.1094 24.3182C93.642 24.3182 93.2377 24.4342 92.8963 24.6662C92.5582 24.8949 92.2981 25.1932 92.1158 25.5611C91.9335 25.929 91.8423 26.3234 91.8423 26.7443V27.4205C91.8423 27.9972 91.9418 28.486 92.1406 28.8871C92.3428 29.2848 92.6229 29.5881 92.9808 29.7969C93.3388 30.0024 93.7547 30.1051 94.2287 30.1051C94.5369 30.1051 94.8153 30.062 95.0639 29.9759C95.3158 29.8864 95.5329 29.7538 95.7152 29.5781C95.8975 29.3991 96.0384 29.1771 96.1378 28.9119L97.2713 29.2301C97.152 29.6146 96.9515 29.9527 96.6697 30.2443C96.388 30.5327 96.04 30.758 95.6257 30.9205C95.2114 31.0795 94.7457 31.1591 94.2287 31.1591ZM104.585 25.0739L103.531 25.3722C103.464 25.1965 103.366 25.0258 103.237 24.8601C103.111 24.6911 102.939 24.5518 102.72 24.4425C102.501 24.3331 102.221 24.2784 101.88 24.2784C101.413 24.2784 101.023 24.3861 100.712 24.6016C100.403 24.8137 100.249 25.0838 100.249 25.4119C100.249 25.7036 100.355 25.9339 100.567 26.103C100.78 26.272 101.111 26.4129 101.562 26.5256L102.695 26.804C103.378 26.9697 103.887 27.2232 104.222 27.5646C104.556 27.9027 104.724 28.3385 104.724 28.8722C104.724 29.3097 104.598 29.7008 104.346 30.0455C104.097 30.3902 103.749 30.6619 103.302 30.8608C102.854 31.0597 102.334 31.1591 101.741 31.1591C100.962 31.1591 100.317 30.9901 99.8068 30.652C99.2964 30.3139 98.9732 29.8201 98.8374 29.1705L99.951 28.892C100.057 29.303 100.258 29.6113 100.553 29.8168C100.851 30.0223 101.24 30.125 101.721 30.125C102.268 30.125 102.702 30.009 103.023 29.777C103.348 29.5417 103.511 29.2599 103.511 28.9318C103.511 28.6667 103.418 28.4446 103.232 28.2656C103.047 28.0833 102.762 27.9474 102.377 27.858L101.104 27.5597C100.405 27.3939 99.8913 27.1371 99.5632 26.7891C99.2384 26.4377 99.076 25.9986 99.076 25.4716C99.076 25.0407 99.197 24.6596 99.4389 24.3281C99.6842 23.9967 100.017 23.7365 100.438 23.5476C100.862 23.3587 101.343 23.2642 101.88 23.2642C102.636 23.2642 103.229 23.4299 103.66 23.7614C104.094 24.0928 104.402 24.5303 104.585 25.0739ZM106.49 31V23.3636H107.663V31H106.49ZM107.086 22.0909C106.858 22.0909 106.661 22.013 106.495 21.8572C106.332 21.7015 106.251 21.5142 106.251 21.2955C106.251 21.0767 106.332 20.8894 106.495 20.7337C106.661 20.5779 106.858 20.5 107.086 20.5C107.315 20.5 107.511 20.5779 107.673 20.7337C107.839 20.8894 107.922 21.0767 107.922 21.2955C107.922 21.5142 107.839 21.7015 107.673 21.8572C107.511 22.013 107.315 22.0909 107.086 22.0909ZM112.895 34.0227C112.328 34.0227 111.841 33.9498 111.433 33.804C111.025 33.6615 110.685 33.4725 110.414 33.2372C110.145 33.0052 109.931 32.7566 109.772 32.4915L110.707 31.8352C110.813 31.9744 110.947 32.1335 111.11 32.3125C111.272 32.4948 111.494 32.6522 111.776 32.7848C112.061 32.9207 112.434 32.9886 112.895 32.9886C113.511 32.9886 114.02 32.8395 114.421 32.5412C114.822 32.2429 115.022 31.7756 115.022 31.1392V29.5881H114.923C114.837 29.7273 114.714 29.8996 114.555 30.1051C114.399 30.3073 114.174 30.4879 113.879 30.647C113.587 30.8028 113.193 30.8807 112.696 30.8807C112.079 30.8807 111.526 30.7348 111.035 30.4432C110.548 30.1515 110.162 29.7273 109.877 29.1705C109.595 28.6136 109.454 27.9375 109.454 27.142C109.454 26.3598 109.592 25.6787 109.867 25.0987C110.142 24.5154 110.525 24.0646 111.015 23.7464C111.506 23.425 112.073 23.2642 112.716 23.2642C113.213 23.2642 113.607 23.3471 113.899 23.5128C114.194 23.6752 114.419 23.8608 114.575 24.0696C114.734 24.2751 114.857 24.4441 114.943 24.5767H115.062V23.3636H116.196V31.2188C116.196 31.875 116.047 32.4086 115.748 32.8196C115.453 33.2339 115.056 33.5372 114.555 33.7294C114.058 33.925 113.504 34.0227 112.895 34.0227ZM112.855 29.8267C113.325 29.8267 113.723 29.719 114.048 29.5036C114.373 29.2881 114.62 28.9782 114.789 28.5739C114.958 28.1695 115.042 27.6856 115.042 27.1222C115.042 26.572 114.959 26.0864 114.794 25.6655C114.628 25.2446 114.383 24.9148 114.058 24.6761C113.733 24.4375 113.332 24.3182 112.855 24.3182C112.358 24.3182 111.943 24.4441 111.612 24.696C111.284 24.9479 111.037 25.286 110.871 25.7102C110.709 26.1345 110.627 26.6051 110.627 27.1222C110.627 27.6525 110.71 28.1214 110.876 28.5291C111.045 28.9335 111.294 29.2517 111.622 29.4837C111.953 29.7124 112.364 29.8267 112.855 29.8267ZM119.517 26.4062V31H118.343V23.3636H119.477V24.5568H119.576C119.755 24.169 120.027 23.8575 120.392 23.6222C120.756 23.3835 121.227 23.2642 121.804 23.2642C122.321 23.2642 122.773 23.3703 123.161 23.5824C123.549 23.7912 123.85 24.1094 124.066 24.5369C124.281 24.9612 124.389 25.4981 124.389 26.1477V31H123.216V26.2273C123.216 25.6274 123.06 25.16 122.748 24.8253C122.437 24.4872 122.009 24.3182 121.466 24.3182C121.091 24.3182 120.756 24.3994 120.461 24.5618C120.17 24.7242 119.939 24.9612 119.77 25.2727C119.601 25.5843 119.517 25.9621 119.517 26.4062ZM129.735 31.1591C128.999 31.1591 128.364 30.9967 127.83 30.6719C127.3 30.3438 126.891 29.8864 126.602 29.2997C126.317 28.7098 126.175 28.0237 126.175 27.2415C126.175 26.4593 126.317 25.7699 126.602 25.1733C126.891 24.5734 127.292 24.1061 127.806 23.7713C128.323 23.4332 128.926 23.2642 129.615 23.2642C130.013 23.2642 130.406 23.3305 130.794 23.4631C131.181 23.5956 131.534 23.8111 131.852 24.1094C132.171 24.4044 132.424 24.7955 132.613 25.2827C132.802 25.7699 132.896 26.3698 132.896 27.0824V27.5795H127.01V26.5653H131.703C131.703 26.1345 131.617 25.75 131.445 25.4119C131.276 25.0739 131.034 24.8071 130.719 24.6115C130.407 24.416 130.039 24.3182 129.615 24.3182C129.148 24.3182 128.744 24.4342 128.402 24.6662C128.064 24.8949 127.804 25.1932 127.622 25.5611C127.439 25.929 127.348 26.3234 127.348 26.7443V27.4205C127.348 27.9972 127.448 28.486 127.646 28.8871C127.849 29.2848 128.129 29.5881 128.487 29.7969C128.845 30.0024 129.261 30.1051 129.735 30.1051C130.043 30.1051 130.321 30.062 130.57 29.9759C130.822 29.8864 131.039 29.7538 131.221 29.5781C131.403 29.3991 131.544 29.1771 131.644 28.9119L132.777 29.2301C132.658 29.6146 132.457 29.9527 132.176 30.2443C131.894 30.5327 131.546 30.758 131.132 30.9205C130.717 31.0795 130.252 31.1591 129.735 31.1591ZM134.681 31V23.3636H135.815V24.517H135.894C136.034 24.1392 136.285 23.8326 136.65 23.5973C137.015 23.362 137.426 23.2443 137.883 23.2443C137.969 23.2443 138.077 23.246 138.206 23.2493C138.335 23.2526 138.433 23.2576 138.499 23.2642V24.4574C138.46 24.4474 138.369 24.4325 138.226 24.4126C138.087 24.3894 137.939 24.3778 137.784 24.3778C137.412 24.3778 137.081 24.4557 136.789 24.6115C136.501 24.764 136.272 24.9761 136.103 25.2479C135.937 25.5163 135.855 25.8229 135.855 26.1676V31H134.681Z" fill="#42526D"/>
<path d="M27.816 41.504H28.764L32.376 50H31.2L30.336 47.912H26.088L25.212 50H24.072L27.816 41.504ZM28.272 42.8H28.248L26.484 46.976H29.952L28.272 42.8ZM33.4572 48.524C33.6412 48.756 33.8412 48.94 34.0572 49.076C34.2812 49.212 34.5612 49.28 34.8972 49.28C35.0412 49.28 35.1852 49.264 35.3292 49.232C35.4812 49.2 35.6172 49.148 35.7372 49.076C35.8572 49.004 35.9532 48.916 36.0252 48.812C36.0972 48.7 36.1332 48.568 36.1332 48.416C36.1332 48.264 36.0972 48.14 36.0252 48.044C35.9612 47.948 35.8732 47.868 35.7612 47.804C35.6492 47.732 35.5212 47.676 35.3772 47.636C35.2332 47.596 35.0852 47.56 34.9332 47.528C34.6692 47.472 34.4172 47.408 34.1772 47.336C33.9372 47.264 33.7252 47.172 33.5412 47.06C33.3652 46.94 33.2212 46.788 33.1092 46.604C33.0052 46.42 32.9532 46.184 32.9532 45.896C32.9532 45.624 33.0132 45.384 33.1332 45.176C33.2532 44.968 33.4132 44.796 33.6132 44.66C33.8132 44.524 34.0372 44.42 34.2852 44.348C34.5332 44.276 34.7892 44.24 35.0532 44.24C35.4532 44.24 35.8212 44.32 36.1572 44.48C36.5012 44.64 36.7692 44.9 36.9612 45.26L36.1812 45.776C36.0612 45.576 35.9012 45.416 35.7012 45.296C35.5092 45.168 35.2732 45.104 34.9932 45.104C34.8652 45.104 34.7332 45.12 34.5972 45.152C34.4692 45.184 34.3532 45.232 34.2492 45.296C34.1452 45.36 34.0572 45.444 33.9852 45.548C33.9212 45.644 33.8892 45.756 33.8892 45.884C33.8892 46.004 33.9252 46.108 33.9972 46.196C34.0772 46.276 34.1812 46.348 34.3092 46.412C34.4452 46.476 34.5972 46.532 34.7652 46.58C34.9412 46.628 35.1212 46.668 35.3052 46.7C35.5532 46.748 35.7892 46.812 36.0132 46.892C36.2372 46.964 36.4332 47.064 36.6012 47.192C36.7692 47.32 36.9012 47.48 36.9972 47.672C37.0932 47.864 37.1412 48.1 37.1412 48.38C37.1412 48.7 37.0772 48.972 36.9492 49.196C36.8212 49.42 36.6492 49.604 36.4332 49.748C36.2252 49.884 35.9852 49.984 35.7132 50.048C35.4492 50.112 35.1772 50.144 34.8972 50.144C34.4172 50.144 34.0012 50.072 33.6492 49.928C33.3052 49.776 32.9932 49.5 32.7132 49.1L33.4572 48.524ZM38.5666 48.524C38.7506 48.756 38.9506 48.94 39.1666 49.076C39.3906 49.212 39.6706 49.28 40.0066 49.28C40.1506 49.28 40.2946 49.264 40.4386 49.232C40.5906 49.2 40.7266 49.148 40.8466 49.076C40.9666 49.004 41.0626 48.916 41.1346 48.812C41.2066 48.7 41.2426 48.568 41.2426 48.416C41.2426 48.264 41.2066 48.14 41.1346 48.044C41.0706 47.948 40.9826 47.868 40.8706 47.804C40.7586 47.732 40.6306 47.676 40.4866 47.636C40.3426 47.596 40.1946 47.56 40.0426 47.528C39.7786 47.472 39.5266 47.408 39.2866 47.336C39.0466 47.264 38.8346 47.172 38.6506 47.06C38.4746 46.94 38.3306 46.788 38.2186 46.604C38.1146 46.42 38.0626 46.184 38.0626 45.896C38.0626 45.624 38.1226 45.384 38.2426 45.176C38.3626 44.968 38.5226 44.796 38.7226 44.66C38.9226 44.524 39.1466 44.42 39.3946 44.348C39.6426 44.276 39.8986 44.24 40.1626 44.24C40.5626 44.24 40.9306 44.32 41.2666 44.48C41.6106 44.64 41.8786 44.9 42.0706 45.26L41.2906 45.776C41.1706 45.576 41.0106 45.416 40.8106 45.296C40.6186 45.168 40.3826 45.104 40.1026 45.104C39.9746 45.104 39.8426 45.12 39.7066 45.152C39.5786 45.184 39.4626 45.232 39.3586 45.296C39.2546 45.36 39.1666 45.444 39.0946 45.548C39.0306 45.644 38.9986 45.756 38.9986 45.884C38.9986 46.004 39.0346 46.108 39.1066 46.196C39.1866 46.276 39.2906 46.348 39.4186 46.412C39.5546 46.476 39.7066 46.532 39.8746 46.58C40.0506 46.628 40.2306 46.668 40.4146 46.7C40.6626 46.748 40.8986 46.812 41.1226 46.892C41.3466 46.964 41.5426 47.064 41.7106 47.192C41.8786 47.32 42.0106 47.48 42.1066 47.672C42.2026 47.864 42.2506 48.1 42.2506 48.38C42.2506 48.7 42.1866 48.972 42.0586 49.196C41.9306 49.42 41.7586 49.604 41.5426 49.748C41.3346 49.884 41.0946 49.984 40.8226 50.048C40.5586 50.112 40.2866 50.144 40.0066 50.144C39.5266 50.144 39.1106 50.072 38.7586 49.928C38.4146 49.776 38.1026 49.5 37.8226 49.1L38.5666 48.524ZM43.232 47.192C43.232 46.752 43.308 46.352 43.46 45.992C43.612 45.632 43.82 45.324 44.084 45.068C44.348 44.804 44.664 44.6 45.032 44.456C45.4 44.312 45.8 44.24 46.232 44.24C46.664 44.24 47.064 44.312 47.432 44.456C47.8 44.6 48.116 44.804 48.38 45.068C48.644 45.324 48.852 45.632 49.004 45.992C49.156 46.352 49.232 46.752 49.232 47.192C49.232 47.632 49.156 48.032 49.004 48.392C48.852 48.752 48.644 49.064 48.38 49.328C48.116 49.584 47.8 49.784 47.432 49.928C47.064 50.072 46.664 50.144 46.232 50.144C45.8 50.144 45.4 50.072 45.032 49.928C44.664 49.784 44.348 49.584 44.084 49.328C43.82 49.064 43.612 48.752 43.46 48.392C43.308 48.032 43.232 47.632 43.232 47.192ZM44.24 47.192C44.24 47.488 44.284 47.764 44.372 48.02C44.468 48.268 44.604 48.488 44.78 48.68C44.956 48.864 45.164 49.012 45.404 49.124C45.652 49.228 45.928 49.28 46.232 49.28C46.536 49.28 46.808 49.228 47.048 49.124C47.296 49.012 47.508 48.864 47.684 48.68C47.86 48.488 47.992 48.268 48.08 48.02C48.176 47.764 48.224 47.488 48.224 47.192C48.224 46.896 48.176 46.624 48.08 46.376C47.992 46.12 47.86 45.9 47.684 45.716C47.508 45.524 47.296 45.376 47.048 45.272C46.808 45.16 46.536 45.104 46.232 45.104C45.928 45.104 45.652 45.16 45.404 45.272C45.164 45.376 44.956 45.524 44.78 45.716C44.604 45.9 44.468 46.12 44.372 46.376C44.284 46.624 44.24 46.896 44.24 47.192ZM54.677 45.788C54.477 45.548 54.261 45.376 54.029 45.272C53.797 45.16 53.541 45.104 53.261 45.104C52.949 45.104 52.673 45.16 52.433 45.272C52.193 45.376 51.993 45.524 51.833 45.716C51.681 45.908 51.565 46.132 51.485 46.388C51.405 46.636 51.365 46.904 51.365 47.192C51.365 47.48 51.409 47.752 51.497 48.008C51.593 48.256 51.721 48.476 51.881 48.668C52.049 48.86 52.249 49.012 52.481 49.124C52.713 49.228 52.973 49.28 53.261 49.28C53.877 49.28 54.353 49.048 54.689 48.584L55.385 49.244C55.113 49.556 54.793 49.784 54.425 49.928C54.057 50.072 53.669 50.144 53.261 50.144C52.829 50.144 52.433 50.072 52.073 49.928C51.713 49.784 51.405 49.58 51.149 49.316C50.901 49.052 50.705 48.74 50.561 48.38C50.425 48.02 50.357 47.624 50.357 47.192C50.357 46.768 50.425 46.376 50.561 46.016C50.705 45.656 50.905 45.344 51.161 45.08C51.417 44.816 51.721 44.612 52.073 44.468C52.433 44.316 52.829 44.24 53.261 44.24C53.677 44.24 54.069 44.312 54.437 44.456C54.813 44.6 55.141 44.824 55.421 45.128L54.677 45.788ZM56.554 44.384H57.49V50H56.554V44.384ZM56.338 42.188C56.338 42.004 56.402 41.844 56.53 41.708C56.666 41.572 56.83 41.504 57.022 41.504C57.214 41.504 57.374 41.572 57.502 41.708C57.638 41.844 57.706 42.004 57.706 42.188C57.706 42.388 57.642 42.552 57.514 42.68C57.386 42.808 57.222 42.872 57.022 42.872C56.822 42.872 56.658 42.808 56.53 42.68C56.402 42.552 56.338 42.388 56.338 42.188ZM59.2808 45.104C59.5688 44.808 59.9088 44.592 60.3008 44.456C60.7008 44.312 61.1048 44.24 61.5128 44.24C62.3448 44.24 62.9448 44.436 63.3128 44.828C63.6808 45.22 63.8648 45.816 63.8648 46.616V49.028C63.8648 49.188 63.8728 49.356 63.8888 49.532C63.9048 49.7 63.9248 49.856 63.9488 50H63.0488C63.0168 49.872 62.9968 49.732 62.9888 49.58C62.9888 49.42 62.9888 49.28 62.9888 49.16H62.9648C62.7808 49.448 62.5328 49.684 62.2208 49.868C61.9168 50.052 61.5488 50.144 61.1168 50.144C60.8288 50.144 60.5568 50.108 60.3008 50.036C60.0528 49.964 59.8328 49.86 59.6408 49.724C59.4568 49.58 59.3088 49.404 59.1968 49.196C59.0848 48.988 59.0288 48.748 59.0288 48.476C59.0288 48.012 59.1488 47.648 59.3888 47.384C59.6288 47.12 59.9248 46.924 60.2768 46.796C60.6368 46.668 61.0208 46.588 61.4288 46.556C61.8448 46.524 62.2248 46.508 62.5688 46.508H62.9288V46.34C62.9288 45.932 62.8048 45.624 62.5568 45.416C62.3168 45.208 61.9768 45.104 61.5368 45.104C61.2328 45.104 60.9328 45.156 60.6368 45.26C60.3488 45.356 60.0928 45.508 59.8688 45.716L59.2808 45.104ZM61.9928 47.3C61.3928 47.3 60.9168 47.384 60.5648 47.552C60.2128 47.72 60.0368 47.996 60.0368 48.38C60.0368 48.732 60.1528 48.984 60.3848 49.136C60.6248 49.28 60.9208 49.352 61.2728 49.352C61.5448 49.352 61.7808 49.308 61.9808 49.22C62.1888 49.124 62.3608 49 62.4968 48.848C62.6328 48.696 62.7368 48.52 62.8088 48.32C62.8808 48.112 62.9208 47.892 62.9288 47.66V47.3H61.9928ZM68.6475 45.176H66.9915V47.984C66.9915 48.168 66.9955 48.34 67.0035 48.5C67.0115 48.652 67.0435 48.788 67.0995 48.908C67.1555 49.02 67.2395 49.112 67.3515 49.184C67.4635 49.248 67.6235 49.28 67.8315 49.28C67.9675 49.28 68.1075 49.264 68.2515 49.232C68.3955 49.2 68.5315 49.152 68.6595 49.088L68.6955 49.94C68.5355 50.012 68.3555 50.064 68.1555 50.096C67.9635 50.128 67.7795 50.144 67.6035 50.144C67.2675 50.144 66.9995 50.1 66.7995 50.012C66.5995 49.924 66.4435 49.8 66.3315 49.64C66.2195 49.48 66.1435 49.284 66.1035 49.052C66.0715 48.812 66.0555 48.548 66.0555 48.26V45.176H64.8315V44.384H66.0555V42.788H66.9915V44.384H68.6475V45.176ZM74.8103 48.98C74.4743 49.412 74.1063 49.716 73.7063 49.892C73.3063 50.06 72.8423 50.144 72.3143 50.144C71.8743 50.144 71.4783 50.068 71.1263 49.916C70.7743 49.756 70.4743 49.544 70.2263 49.28C69.9863 49.016 69.7983 48.704 69.6623 48.344C69.5343 47.984 69.4703 47.6 69.4703 47.192C69.4703 46.76 69.5423 46.364 69.6863 46.004C69.8303 45.636 70.0303 45.324 70.2863 45.068C70.5423 44.804 70.8463 44.6 71.1983 44.456C71.5503 44.312 71.9343 44.24 72.3503 44.24C72.7423 44.24 73.1023 44.308 73.4303 44.444C73.7583 44.572 74.0383 44.764 74.2703 45.02C74.5103 45.268 74.6943 45.576 74.8223 45.944C74.9503 46.304 75.0143 46.716 75.0143 47.18V47.48H70.4783C70.4943 47.72 70.5503 47.952 70.6463 48.176C70.7503 48.392 70.8823 48.584 71.0423 48.752C71.2023 48.912 71.3903 49.04 71.6063 49.136C71.8223 49.232 72.0583 49.28 72.3143 49.28C72.7223 49.28 73.0663 49.208 73.3463 49.064C73.6263 48.92 73.8783 48.708 74.1023 48.428L74.8103 48.98ZM74.0063 46.688C73.9903 46.208 73.8343 45.824 73.5383 45.536C73.2423 45.248 72.8343 45.104 72.3143 45.104C71.7943 45.104 71.3743 45.248 71.0543 45.536C70.7343 45.824 70.5423 46.208 70.4783 46.688H74.0063Z" fill="#8993A4"/>
</svg>
