<svg width="176" height="72" viewBox="0 0 176 72" fill="none" xmlns="http://www.w3.org/2000/svg">
<mask id="path-1-inside-1_1_6403" fill="white">
<path d="M0 0H176V72H0V0Z"/>
</mask>
<path d="M176 71H0V73H176V71Z" fill="#EAECF0" mask="url(#path-1-inside-1_1_6403)"/>
<path d="M25.233 31V20.8182H28.6733C29.4721 20.8182 30.125 20.9624 30.6321 21.2507C31.1425 21.5357 31.5204 21.9219 31.7656 22.4091C32.0109 22.8963 32.1335 23.4399 32.1335 24.0398C32.1335 24.6397 32.0109 25.1849 31.7656 25.6754C31.5237 26.166 31.1491 26.5571 30.642 26.8487C30.1349 27.1371 29.4853 27.2812 28.6932 27.2812H26.2273V26.1875H28.6534C29.2003 26.1875 29.6394 26.093 29.9709 25.9041C30.3023 25.7152 30.5426 25.46 30.6918 25.1385C30.8442 24.8137 30.9205 24.4474 30.9205 24.0398C30.9205 23.6321 30.8442 23.2675 30.6918 22.946C30.5426 22.6245 30.3007 22.3726 29.9659 22.1903C29.6312 22.0047 29.187 21.9119 28.6335 21.9119H26.4659V31H25.233ZM33.9606 31V23.3636H35.0941V24.517H35.1737C35.3129 24.1392 35.5647 23.8326 35.9293 23.5973C36.2939 23.362 36.7049 23.2443 37.1623 23.2443C37.2485 23.2443 37.3562 23.246 37.4854 23.2493C37.6147 23.2526 37.7125 23.2576 37.7788 23.2642V24.4574C37.739 24.4474 37.6478 24.4325 37.5053 24.4126C37.3661 24.3894 37.2186 24.3778 37.0629 24.3778C36.6916 24.3778 36.3602 24.4557 36.0685 24.6115C35.7802 24.764 35.5515 24.9761 35.3825 25.2479C35.2167 25.5163 35.1339 25.8229 35.1339 26.1676V31H33.9606ZM42.0394 31.1591C41.35 31.1591 40.7451 30.995 40.2248 30.6669C39.7077 30.3388 39.3034 29.8797 39.0117 29.2898C38.7234 28.6998 38.5792 28.0104 38.5792 27.2216C38.5792 26.4261 38.7234 25.7318 39.0117 25.1385C39.3034 24.5452 39.7077 24.0845 40.2248 23.7564C40.7451 23.4283 41.35 23.2642 42.0394 23.2642C42.7288 23.2642 43.332 23.4283 43.8491 23.7564C44.3694 24.0845 44.7738 24.5452 45.0621 25.1385C45.3538 25.7318 45.4996 26.4261 45.4996 27.2216C45.4996 28.0104 45.3538 28.6998 45.0621 29.2898C44.7738 29.8797 44.3694 30.3388 43.8491 30.6669C43.332 30.995 42.7288 31.1591 42.0394 31.1591ZM42.0394 30.1051C42.5631 30.1051 42.994 29.9709 43.332 29.7024C43.6701 29.4339 43.9203 29.081 44.0827 28.6435C44.2451 28.206 44.3263 27.732 44.3263 27.2216C44.3263 26.7112 44.2451 26.2356 44.0827 25.7947C43.9203 25.3539 43.6701 24.9976 43.332 24.7259C42.994 24.4541 42.5631 24.3182 42.0394 24.3182C41.5157 24.3182 41.0849 24.4541 40.7468 24.7259C40.4087 24.9976 40.1585 25.3539 39.9961 25.7947C39.8337 26.2356 39.7525 26.7112 39.7525 27.2216C39.7525 27.732 39.8337 28.206 39.9961 28.6435C40.1585 29.081 40.4087 29.4339 40.7468 29.7024C41.0849 29.9709 41.5157 30.1051 42.0394 30.1051ZM50.1742 31.1591C49.5378 31.1591 48.976 30.9983 48.4888 30.6768C48.0016 30.352 47.6204 29.8946 47.3453 29.3047C47.0703 28.7114 46.9327 28.0104 46.9327 27.2017C46.9327 26.3996 47.0703 25.7036 47.3453 25.1136C47.6204 24.5237 48.0033 24.0679 48.4938 23.7464C48.9843 23.425 49.5511 23.2642 50.1941 23.2642C50.6912 23.2642 51.084 23.3471 51.3723 23.5128C51.664 23.6752 51.8861 23.8608 52.0385 24.0696C52.1943 24.2751 52.3153 24.4441 52.4015 24.5767H52.5009V20.8182H53.6742V31H52.5407V29.8267H52.4015C52.3153 29.9659 52.1926 30.1416 52.0336 30.3537C51.8745 30.5625 51.6474 30.7498 51.3525 30.9155C51.0575 31.0779 50.6647 31.1591 50.1742 31.1591ZM50.3333 30.1051C50.8039 30.1051 51.2016 29.9825 51.5265 29.7372C51.8513 29.4886 52.0982 29.1456 52.2672 28.7081C52.4363 28.2673 52.5208 27.7585 52.5208 27.1818C52.5208 26.6117 52.4379 26.1129 52.2722 25.6854C52.1065 25.2545 51.8612 24.9197 51.5364 24.6811C51.2116 24.4392 50.8105 24.3182 50.3333 24.3182C49.8361 24.3182 49.4218 24.4458 49.0904 24.701C48.7623 24.9529 48.5153 25.2959 48.3496 25.7301C48.1872 26.161 48.106 26.6449 48.106 27.1818C48.106 27.7254 48.1889 28.2192 48.3546 28.6634C48.5236 29.1042 48.7722 29.4555 49.1003 29.7173C49.4318 29.9759 49.8427 30.1051 50.3333 30.1051ZM60.7985 27.8778V23.3636H61.9718V31H60.7985V29.7074H60.7189C60.54 30.0952 60.2615 30.425 59.8837 30.6967C59.5059 30.9652 59.0286 31.0994 58.4519 31.0994C57.9746 31.0994 57.5504 30.995 57.1792 30.7862C56.8079 30.5741 56.5163 30.2559 56.3042 29.8317C56.092 29.4041 55.986 28.8655 55.986 28.2159V23.3636H57.1593V28.1364C57.1593 28.6932 57.315 29.1373 57.6266 29.4688C57.9415 29.8002 58.3425 29.9659 58.8297 29.9659C59.1214 29.9659 59.418 29.8913 59.7196 29.7422C60.0246 29.593 60.2798 29.3643 60.4853 29.0561C60.6941 28.7479 60.7985 28.3551 60.7985 27.8778ZM67.223 31.1591C66.5071 31.1591 65.8906 30.9901 65.3736 30.652C64.8565 30.3139 64.4588 29.8482 64.1804 29.255C63.902 28.6617 63.7628 27.9839 63.7628 27.2216C63.7628 26.446 63.9053 25.7616 64.1903 25.1683C64.4787 24.5717 64.8797 24.1061 65.3935 23.7713C65.9105 23.4332 66.5137 23.2642 67.2031 23.2642C67.7401 23.2642 68.224 23.3636 68.6548 23.5625C69.0857 23.7614 69.4387 24.0398 69.7138 24.3977C69.9889 24.7557 70.1596 25.1733 70.2259 25.6506H69.0526C68.9631 25.3026 68.7642 24.9943 68.456 24.7259C68.151 24.4541 67.7401 24.3182 67.223 24.3182C66.7656 24.3182 66.3646 24.4375 66.0199 24.6761C65.6785 24.9115 65.4117 25.2446 65.2195 25.6754C65.0305 26.103 64.9361 26.6051 64.9361 27.1818C64.9361 27.7718 65.0289 28.2855 65.2145 28.723C65.4034 29.1605 65.6686 29.5002 66.0099 29.7422C66.3546 29.9841 66.759 30.1051 67.223 30.1051C67.5279 30.1051 67.8047 30.0521 68.0533 29.946C68.3018 29.84 68.5123 29.6875 68.6847 29.4886C68.857 29.2898 68.9796 29.0511 69.0526 28.7727H70.2259C70.1596 29.2235 69.9955 29.6295 69.7337 29.9908C69.4751 30.3487 69.1321 30.6338 68.7045 30.8459C68.2803 31.0547 67.7865 31.1591 67.223 31.1591ZM75.2621 23.3636V24.358H71.3047V23.3636H75.2621ZM72.4581 21.5341H73.6314V28.8125C73.6314 29.1439 73.6795 29.3925 73.7756 29.5582C73.875 29.7206 74.0009 29.83 74.1534 29.8864C74.3092 29.9394 74.4732 29.9659 74.6456 29.9659C74.7749 29.9659 74.8809 29.9593 74.9638 29.946C75.0466 29.9295 75.1129 29.9162 75.1626 29.9062L75.4013 30.9602C75.3217 30.9901 75.2107 31.0199 75.0682 31.0497C74.9257 31.0829 74.745 31.0994 74.5263 31.0994C74.1948 31.0994 73.87 31.0282 73.5518 30.8857C73.237 30.7431 72.9751 30.526 72.7663 30.2344C72.5608 29.9427 72.4581 29.5748 72.4581 29.1307V21.5341ZM84.2656 31H81.1236V20.8182H84.4048C85.3925 20.8182 86.2377 21.022 86.9403 21.4297C87.643 21.834 88.1816 22.4157 88.5561 23.1747C88.9306 23.9304 89.1179 24.8352 89.1179 25.8892C89.1179 26.9498 88.929 27.8629 88.5511 28.6286C88.1733 29.3909 87.6231 29.9775 86.9006 30.3885C86.178 30.7962 85.2997 31 84.2656 31ZM82.3565 29.9062H84.1861C85.0279 29.9062 85.7256 29.7438 86.2791 29.419C86.8326 29.0942 87.2453 28.6319 87.517 28.032C87.7888 27.4321 87.9247 26.7178 87.9247 25.8892C87.9247 25.0672 87.7905 24.3596 87.522 23.7663C87.2536 23.1697 86.8525 22.7124 86.3189 22.3942C85.7853 22.0727 85.1207 21.9119 84.3253 21.9119H82.3565V29.9062ZM94.2287 31.1591C93.4929 31.1591 92.8582 30.9967 92.3246 30.6719C91.7943 30.3438 91.3849 29.8864 91.0966 29.2997C90.8116 28.7098 90.669 28.0237 90.669 27.2415C90.669 26.4593 90.8116 25.7699 91.0966 25.1733C91.3849 24.5734 91.786 24.1061 92.2997 23.7713C92.8168 23.4332 93.42 23.2642 94.1094 23.2642C94.5071 23.2642 94.8999 23.3305 95.2876 23.4631C95.6754 23.5956 96.0284 23.8111 96.3466 24.1094C96.6648 24.4044 96.9183 24.7955 97.1072 25.2827C97.2962 25.7699 97.3906 26.3698 97.3906 27.0824V27.5795H91.5043V26.5653H96.1974C96.1974 26.1345 96.1113 25.75 95.9389 25.4119C95.7699 25.0739 95.5279 24.8071 95.2131 24.6115C94.9015 24.416 94.5336 24.3182 94.1094 24.3182C93.642 24.3182 93.2377 24.4342 92.8963 24.6662C92.5582 24.8949 92.2981 25.1932 92.1158 25.5611C91.9335 25.929 91.8423 26.3234 91.8423 26.7443V27.4205C91.8423 27.9972 91.9418 28.486 92.1406 28.8871C92.3428 29.2848 92.6229 29.5881 92.9808 29.7969C93.3388 30.0024 93.7547 30.1051 94.2287 30.1051C94.5369 30.1051 94.8153 30.062 95.0639 29.9759C95.3158 29.8864 95.5329 29.7538 95.7152 29.5781C95.8975 29.3991 96.0384 29.1771 96.1378 28.9119L97.2713 29.2301C97.152 29.6146 96.9515 29.9527 96.6697 30.2443C96.388 30.5327 96.04 30.758 95.6257 30.9205C95.2114 31.0795 94.7457 31.1591 94.2287 31.1591ZM104.585 25.0739L103.531 25.3722C103.464 25.1965 103.366 25.0258 103.237 24.8601C103.111 24.6911 102.939 24.5518 102.72 24.4425C102.501 24.3331 102.221 24.2784 101.88 24.2784C101.413 24.2784 101.023 24.3861 100.712 24.6016C100.403 24.8137 100.249 25.0838 100.249 25.4119C100.249 25.7036 100.355 25.9339 100.567 26.103C100.78 26.272 101.111 26.4129 101.562 26.5256L102.695 26.804C103.378 26.9697 103.887 27.2232 104.222 27.5646C104.556 27.9027 104.724 28.3385 104.724 28.8722C104.724 29.3097 104.598 29.7008 104.346 30.0455C104.097 30.3902 103.749 30.6619 103.302 30.8608C102.854 31.0597 102.334 31.1591 101.741 31.1591C100.962 31.1591 100.317 30.9901 99.8068 30.652C99.2964 30.3139 98.9732 29.8201 98.8374 29.1705L99.951 28.892C100.057 29.303 100.258 29.6113 100.553 29.8168C100.851 30.0223 101.24 30.125 101.721 30.125C102.268 30.125 102.702 30.009 103.023 29.777C103.348 29.5417 103.511 29.2599 103.511 28.9318C103.511 28.6667 103.418 28.4446 103.232 28.2656C103.047 28.0833 102.762 27.9474 102.377 27.858L101.104 27.5597C100.405 27.3939 99.8913 27.1371 99.5632 26.7891C99.2384 26.4377 99.076 25.9986 99.076 25.4716C99.076 25.0407 99.197 24.6596 99.4389 24.3281C99.6842 23.9967 100.017 23.7365 100.438 23.5476C100.862 23.3587 101.343 23.2642 101.88 23.2642C102.636 23.2642 103.229 23.4299 103.66 23.7614C104.094 24.0928 104.402 24.5303 104.585 25.0739ZM106.49 31V23.3636H107.663V31H106.49ZM107.086 22.0909C106.858 22.0909 106.661 22.013 106.495 21.8572C106.332 21.7015 106.251 21.5142 106.251 21.2955C106.251 21.0767 106.332 20.8894 106.495 20.7337C106.661 20.5779 106.858 20.5 107.086 20.5C107.315 20.5 107.511 20.5779 107.673 20.7337C107.839 20.8894 107.922 21.0767 107.922 21.2955C107.922 21.5142 107.839 21.7015 107.673 21.8572C107.511 22.013 107.315 22.0909 107.086 22.0909ZM112.895 34.0227C112.328 34.0227 111.841 33.9498 111.433 33.804C111.025 33.6615 110.685 33.4725 110.414 33.2372C110.145 33.0052 109.931 32.7566 109.772 32.4915L110.707 31.8352C110.813 31.9744 110.947 32.1335 111.11 32.3125C111.272 32.4948 111.494 32.6522 111.776 32.7848C112.061 32.9207 112.434 32.9886 112.895 32.9886C113.511 32.9886 114.02 32.8395 114.421 32.5412C114.822 32.2429 115.022 31.7756 115.022 31.1392V29.5881H114.923C114.837 29.7273 114.714 29.8996 114.555 30.1051C114.399 30.3073 114.174 30.4879 113.879 30.647C113.587 30.8028 113.193 30.8807 112.696 30.8807C112.079 30.8807 111.526 30.7348 111.035 30.4432C110.548 30.1515 110.162 29.7273 109.877 29.1705C109.595 28.6136 109.454 27.9375 109.454 27.142C109.454 26.3598 109.592 25.6787 109.867 25.0987C110.142 24.5154 110.525 24.0646 111.015 23.7464C111.506 23.425 112.073 23.2642 112.716 23.2642C113.213 23.2642 113.607 23.3471 113.899 23.5128C114.194 23.6752 114.419 23.8608 114.575 24.0696C114.734 24.2751 114.857 24.4441 114.943 24.5767H115.062V23.3636H116.196V31.2188C116.196 31.875 116.047 32.4086 115.748 32.8196C115.453 33.2339 115.056 33.5372 114.555 33.7294C114.058 33.925 113.504 34.0227 112.895 34.0227ZM112.855 29.8267C113.325 29.8267 113.723 29.719 114.048 29.5036C114.373 29.2881 114.62 28.9782 114.789 28.5739C114.958 28.1695 115.042 27.6856 115.042 27.1222C115.042 26.572 114.959 26.0864 114.794 25.6655C114.628 25.2446 114.383 24.9148 114.058 24.6761C113.733 24.4375 113.332 24.3182 112.855 24.3182C112.358 24.3182 111.943 24.4441 111.612 24.696C111.284 24.9479 111.037 25.286 110.871 25.7102C110.709 26.1345 110.627 26.6051 110.627 27.1222C110.627 27.6525 110.71 28.1214 110.876 28.5291C111.045 28.9335 111.294 29.2517 111.622 29.4837C111.953 29.7124 112.364 29.8267 112.855 29.8267ZM119.517 26.4062V31H118.343V23.3636H119.477V24.5568H119.576C119.755 24.169 120.027 23.8575 120.392 23.6222C120.756 23.3835 121.227 23.2642 121.804 23.2642C122.321 23.2642 122.773 23.3703 123.161 23.5824C123.549 23.7912 123.85 24.1094 124.066 24.5369C124.281 24.9612 124.389 25.4981 124.389 26.1477V31H123.216V26.2273C123.216 25.6274 123.06 25.16 122.748 24.8253C122.437 24.4872 122.009 24.3182 121.466 24.3182C121.091 24.3182 120.756 24.3994 120.461 24.5618C120.17 24.7242 119.939 24.9612 119.77 25.2727C119.601 25.5843 119.517 25.9621 119.517 26.4062ZM129.735 31.1591C128.999 31.1591 128.364 30.9967 127.83 30.6719C127.3 30.3438 126.891 29.8864 126.602 29.2997C126.317 28.7098 126.175 28.0237 126.175 27.2415C126.175 26.4593 126.317 25.7699 126.602 25.1733C126.891 24.5734 127.292 24.1061 127.806 23.7713C128.323 23.4332 128.926 23.2642 129.615 23.2642C130.013 23.2642 130.406 23.3305 130.794 23.4631C131.181 23.5956 131.534 23.8111 131.852 24.1094C132.171 24.4044 132.424 24.7955 132.613 25.2827C132.802 25.7699 132.896 26.3698 132.896 27.0824V27.5795H127.01V26.5653H131.703C131.703 26.1345 131.617 25.75 131.445 25.4119C131.276 25.0739 131.034 24.8071 130.719 24.6115C130.407 24.416 130.039 24.3182 129.615 24.3182C129.148 24.3182 128.744 24.4342 128.402 24.6662C128.064 24.8949 127.804 25.1932 127.622 25.5611C127.439 25.929 127.348 26.3234 127.348 26.7443V27.4205C127.348 27.9972 127.448 28.486 127.646 28.8871C127.849 29.2848 128.129 29.5881 128.487 29.7969C128.845 30.0024 129.261 30.1051 129.735 30.1051C130.043 30.1051 130.321 30.062 130.57 29.9759C130.822 29.8864 131.039 29.7538 131.221 29.5781C131.403 29.3991 131.544 29.1771 131.644 28.9119L132.777 29.2301C132.658 29.6146 132.457 29.9527 132.176 30.2443C131.894 30.5327 131.546 30.758 131.132 30.9205C130.717 31.0795 130.252 31.1591 129.735 31.1591ZM134.681 31V23.3636H135.815V24.517H135.894C136.034 24.1392 136.285 23.8326 136.65 23.5973C137.015 23.362 137.426 23.2443 137.883 23.2443C137.969 23.2443 138.077 23.246 138.206 23.2493C138.335 23.2526 138.433 23.2576 138.499 23.2642V24.4574C138.46 24.4474 138.369 24.4325 138.226 24.4126C138.087 24.3894 137.939 24.3778 137.784 24.3778C137.412 24.3778 137.081 24.4557 136.789 24.6115C136.501 24.764 136.272 24.9761 136.103 25.2479C135.937 25.5163 135.855 25.8229 135.855 26.1676V31H134.681Z" fill="#42526D"/>
<path d="M25.056 41.504H30.324V42.44H26.064V45.248H30.024V46.184H26.064V50H25.056V41.504ZM36.452 48.668C36.452 48.924 36.46 49.164 36.476 49.388C36.492 49.612 36.5 49.816 36.5 50H35.612C35.612 49.848 35.608 49.696 35.6 49.544C35.592 49.392 35.588 49.236 35.588 49.076H35.564C35.5 49.212 35.408 49.344 35.288 49.472C35.176 49.6 35.04 49.716 34.88 49.82C34.72 49.916 34.54 49.992 34.34 50.048C34.14 50.112 33.924 50.144 33.692 50.144C33.324 50.144 33.004 50.088 32.732 49.976C32.468 49.864 32.248 49.708 32.072 49.508C31.896 49.308 31.764 49.068 31.676 48.788C31.596 48.5 31.556 48.188 31.556 47.852V44.384H32.492V47.756C32.492 48.228 32.596 48.6 32.804 48.872C33.012 49.144 33.336 49.28 33.776 49.28C34.08 49.28 34.34 49.228 34.556 49.124C34.78 49.02 34.96 48.872 35.096 48.68C35.24 48.488 35.344 48.26 35.408 47.996C35.48 47.732 35.516 47.44 35.516 47.12V44.384H36.452V48.668ZM38.3079 40.928H39.2439V50H38.3079V40.928ZM41.2025 40.928H42.1385V50H41.2025V40.928ZM50.4131 45.176H48.7571V47.984C48.7571 48.168 48.7611 48.34 48.7691 48.5C48.7771 48.652 48.8091 48.788 48.8651 48.908C48.9211 49.02 49.0051 49.112 49.1171 49.184C49.2291 49.248 49.3891 49.28 49.5971 49.28C49.7331 49.28 49.8731 49.264 50.0171 49.232C50.1611 49.2 50.2971 49.152 50.4251 49.088L50.4611 49.94C50.3011 50.012 50.1211 50.064 49.9211 50.096C49.7291 50.128 49.5451 50.144 49.3691 50.144C49.0331 50.144 48.7651 50.1 48.5651 50.012C48.3651 49.924 48.2091 49.8 48.0971 49.64C47.9851 49.48 47.9091 49.284 47.8691 49.052C47.8371 48.812 47.8211 48.548 47.8211 48.26V45.176H46.5971V44.384H47.8211V42.788H48.7571V44.384H50.4131V45.176ZM51.6556 44.384H52.5916V50H51.6556V44.384ZM51.4396 42.188C51.4396 42.004 51.5036 41.844 51.6316 41.708C51.7676 41.572 51.9316 41.504 52.1236 41.504C52.3156 41.504 52.4756 41.572 52.6036 41.708C52.7396 41.844 52.8076 42.004 52.8076 42.188C52.8076 42.388 52.7436 42.552 52.6156 42.68C52.4876 42.808 52.3236 42.872 52.1236 42.872C51.9236 42.872 51.7596 42.808 51.6316 42.68C51.5036 42.552 51.4396 42.388 51.4396 42.188ZM54.4544 45.716C54.4544 45.46 54.4464 45.22 54.4304 44.996C54.4144 44.772 54.4064 44.568 54.4064 44.384H55.2944C55.2944 44.536 55.2984 44.688 55.3064 44.84C55.3144 44.992 55.3184 45.148 55.3184 45.308H55.3424C55.4064 45.172 55.4944 45.04 55.6064 44.912C55.7264 44.784 55.8664 44.672 56.0264 44.576C56.1864 44.472 56.3664 44.392 56.5664 44.336C56.7664 44.272 56.9824 44.24 57.2144 44.24C57.5184 44.24 57.7704 44.28 57.9704 44.36C58.1784 44.432 58.3504 44.524 58.4864 44.636C58.6224 44.74 58.7264 44.856 58.7984 44.984C58.8784 45.104 58.9424 45.212 58.9904 45.308C59.1984 44.972 59.4384 44.712 59.7104 44.528C59.9824 44.336 60.3344 44.24 60.7664 44.24C61.1664 44.24 61.5024 44.296 61.7744 44.408C62.0464 44.512 62.2664 44.668 62.4344 44.876C62.6024 45.076 62.7224 45.324 62.7944 45.62C62.8664 45.908 62.9024 46.232 62.9024 46.592V50H61.9664V46.64C61.9664 46.448 61.9464 46.26 61.9064 46.076C61.8664 45.892 61.7944 45.728 61.6904 45.584C61.5864 45.44 61.4464 45.324 61.2704 45.236C61.0944 45.148 60.8704 45.104 60.5984 45.104C60.3984 45.104 60.2104 45.144 60.0344 45.224C59.8584 45.304 59.7024 45.416 59.5664 45.56C59.4384 45.704 59.3344 45.88 59.2544 46.088C59.1824 46.288 59.1464 46.512 59.1464 46.76V50H58.2104V46.82C58.2104 46.196 58.1264 45.756 57.9584 45.5C57.7904 45.236 57.5144 45.104 57.1304 45.104C56.8264 45.104 56.5624 45.156 56.3384 45.26C56.1224 45.364 55.9424 45.512 55.7984 45.704C55.6624 45.896 55.5584 46.124 55.4864 46.388C55.4224 46.652 55.3904 46.944 55.3904 47.264V50H54.4544V45.716ZM69.6892 48.98C69.3532 49.412 68.9852 49.716 68.5852 49.892C68.1852 50.06 67.7212 50.144 67.1932 50.144C66.7532 50.144 66.3572 50.068 66.0052 49.916C65.6532 49.756 65.3532 49.544 65.1052 49.28C64.8652 49.016 64.6772 48.704 64.5412 48.344C64.4132 47.984 64.3492 47.6 64.3492 47.192C64.3492 46.76 64.4212 46.364 64.5652 46.004C64.7092 45.636 64.9092 45.324 65.1652 45.068C65.4212 44.804 65.7252 44.6 66.0772 44.456C66.4292 44.312 66.8132 44.24 67.2292 44.24C67.6212 44.24 67.9812 44.308 68.3092 44.444C68.6372 44.572 68.9172 44.764 69.1492 45.02C69.3892 45.268 69.5732 45.576 69.7012 45.944C69.8292 46.304 69.8932 46.716 69.8932 47.18V47.48H65.3572C65.3732 47.72 65.4292 47.952 65.5252 48.176C65.6292 48.392 65.7612 48.584 65.9212 48.752C66.0812 48.912 66.2692 49.04 66.4852 49.136C66.7012 49.232 66.9372 49.28 67.1932 49.28C67.6012 49.28 67.9452 49.208 68.2252 49.064C68.5052 48.92 68.7572 48.708 68.9812 48.428L69.6892 48.98ZM68.8852 46.688C68.8692 46.208 68.7132 45.824 68.4172 45.536C68.1212 45.248 67.7132 45.104 67.1932 45.104C66.6732 45.104 66.2532 45.248 65.9332 45.536C65.6132 45.824 65.4212 46.208 65.3572 46.688H68.8852Z" fill="#8993A4"/>
</svg>
