<svg width="45" height="38" viewBox="0 0 45 38" fill="none" xmlns="http://www.w3.org/2000/svg">
<g clip-path="url(#clip0_1_16575)">
<path d="M5.11861 15V4.81818H8.74787C9.5367 4.81818 10.1913 4.95407 10.7116 5.22585C11.2353 5.49763 11.6264 5.87382 11.8849 6.3544C12.1435 6.83168 12.2727 7.38352 12.2727 8.00994C12.2727 8.63305 12.1418 9.18158 11.88 9.65554C11.6214 10.1262 11.2304 10.4924 10.7067 10.7543C10.1863 11.0161 9.53172 11.147 8.7429 11.147H5.99361V9.82457H8.60369C9.10085 9.82457 9.50521 9.75331 9.81676 9.6108C10.1316 9.46828 10.362 9.26113 10.5078 8.98935C10.6536 8.71757 10.7266 8.3911 10.7266 8.00994C10.7266 7.62547 10.652 7.29238 10.5028 7.01065C10.357 6.72893 10.1267 6.51349 9.81179 6.36435C9.50024 6.21188 9.09091 6.13565 8.58381 6.13565H6.65483V15H5.11861ZM10.1449 10.4062L12.6605 15H10.9105L8.4446 10.4062H10.1449ZM17.1436 15.1541C16.4277 15.1541 15.803 14.9901 15.2694 14.6619C14.7357 14.3338 14.3214 13.8748 14.0265 13.2848C13.7315 12.6948 13.584 12.0054 13.584 11.2166C13.584 10.4245 13.7315 9.73177 14.0265 9.13849C14.3214 8.54522 14.7357 8.08452 15.2694 7.75639C15.803 7.42827 16.4277 7.2642 17.1436 7.2642C17.8596 7.2642 18.4843 7.42827 19.0179 7.75639C19.5516 8.08452 19.9658 8.54522 20.2608 9.13849C20.5558 9.73177 20.7033 10.4245 20.7033 11.2166C20.7033 12.0054 20.5558 12.6948 20.2608 13.2848C19.9658 13.8748 19.5516 14.3338 19.0179 14.6619C18.4843 14.9901 17.8596 15.1541 17.1436 15.1541ZM17.1486 13.9062C17.6126 13.9062 17.9971 13.7836 18.302 13.5384C18.6069 13.2931 18.8323 12.9666 18.9782 12.5589C19.1273 12.1513 19.2019 11.7022 19.2019 11.2116C19.2019 10.7244 19.1273 10.277 18.9782 9.86932C18.8323 9.45833 18.6069 9.12855 18.302 8.87997C17.9971 8.63139 17.6126 8.5071 17.1486 8.5071C16.6813 8.5071 16.2935 8.63139 15.9853 8.87997C15.6803 9.12855 15.4533 9.45833 15.3042 9.86932C15.1583 10.277 15.0854 10.7244 15.0854 11.2116C15.0854 11.7022 15.1583 12.1513 15.3042 12.5589C15.4533 12.9666 15.6803 13.2931 15.9853 13.5384C16.2935 13.7836 16.6813 13.9062 17.1486 13.9062ZM23.8491 4.81818V15H22.3626V4.81818H23.8491ZM29.1401 15.1541C28.3877 15.1541 27.7398 14.9934 27.1962 14.6719C26.656 14.3471 26.2383 13.8913 25.9434 13.3047C25.6517 12.7147 25.5059 12.0237 25.5059 11.2315C25.5059 10.4493 25.6517 9.75994 25.9434 9.16335C26.2383 8.56676 26.6493 8.10109 27.1763 7.76633C27.7066 7.43158 28.3264 7.2642 29.0357 7.2642C29.4666 7.2642 29.8842 7.33546 30.2885 7.47798C30.6929 7.6205 31.0558 7.84422 31.3773 8.14915C31.6988 8.45407 31.9524 8.85014 32.138 9.33736C32.3236 9.82126 32.4164 10.4096 32.4164 11.1023V11.6293H26.3461V10.5156H30.9597C30.9597 10.1245 30.8801 9.77817 30.7211 9.47656C30.562 9.17164 30.3382 8.93134 30.0499 8.75568C29.7649 8.58002 29.4301 8.49219 29.0456 8.49219C28.628 8.49219 28.2634 8.59493 27.9519 8.80043C27.6436 9.0026 27.405 9.26776 27.236 9.59588C27.0703 9.92069 26.9874 10.2737 26.9874 10.6548V11.5249C26.9874 12.0353 27.0769 12.4695 27.2559 12.8274C27.4382 13.1854 27.6917 13.4588 28.0165 13.6477C28.3413 13.8333 28.7208 13.9261 29.155 13.9261C29.4367 13.9261 29.6936 13.8864 29.9256 13.8068C30.1576 13.724 30.3581 13.6013 30.5272 13.4389C30.6962 13.2765 30.8255 13.076 30.915 12.8374L32.3219 13.0909C32.2092 13.5052 32.007 13.8681 31.7154 14.1797C31.427 14.4879 31.0641 14.7282 30.6266 14.9006C30.1924 15.0696 29.6969 15.1541 29.1401 15.1541ZM39.788 9.22798L38.4407 9.46662C38.3844 9.29427 38.2949 9.13021 38.1722 8.97443C38.0529 8.81865 37.8905 8.69105 37.685 8.59162C37.4795 8.49219 37.2227 8.44247 36.9144 8.44247C36.4935 8.44247 36.1422 8.53693 35.8604 8.72585C35.5787 8.91146 35.4379 9.15175 35.4379 9.44673C35.4379 9.70194 35.5323 9.90743 35.7212 10.0632C35.9102 10.219 36.2151 10.3466 36.636 10.446L37.8491 10.7244C38.5517 10.8868 39.0754 11.1371 39.4201 11.4751C39.7648 11.8132 39.9371 12.2524 39.9371 12.7926C39.9371 13.25 39.8046 13.6577 39.5394 14.0156C39.2776 14.3703 38.9113 14.6487 38.4407 14.8509C37.9734 15.053 37.4315 15.1541 36.815 15.1541C35.9599 15.1541 35.2622 14.9718 34.7219 14.6072C34.1817 14.2393 33.8503 13.7173 33.7276 13.0412L35.1644 12.8224C35.2539 13.197 35.4379 13.4804 35.7163 13.6726C35.9947 13.8615 36.3576 13.956 36.805 13.956C37.2923 13.956 37.6817 13.8549 37.9734 13.6527C38.265 13.4472 38.4109 13.197 38.4109 12.902C38.4109 12.6634 38.3214 12.4628 38.1424 12.3004C37.9667 12.138 37.6966 12.0154 37.332 11.9325L36.0394 11.6491C35.3268 11.4867 34.7998 11.2282 34.4585 10.8736C34.1204 10.5189 33.9513 10.0698 33.9513 9.52628C33.9513 9.07552 34.0773 8.68111 34.3292 8.34304C34.5811 8.00497 34.9291 7.74148 35.3732 7.55256C35.8174 7.36032 36.3261 7.2642 36.8995 7.2642C37.7248 7.2642 38.3744 7.44318 38.8484 7.80114C39.3223 8.15578 39.6355 8.63139 39.788 9.22798Z" fill="#667085"/>
</g>
<defs>
<clipPath id="clip0_1_16575">
<rect width="45" height="38" fill="white"/>
</clipPath>
</defs>
</svg>
