<svg width="176" height="72" viewBox="0 0 176 72" fill="none" xmlns="http://www.w3.org/2000/svg">
<mask id="path-1-inside-1_1_6397" fill="white">
<path d="M0 0H176V72H0V0Z"/>
</mask>
<path d="M176 71H0V73H176V71Z" fill="#EAECF0" mask="url(#path-1-inside-1_1_6397)"/>
<path d="M25.233 31V20.8182H28.6733C29.4721 20.8182 30.125 20.9624 30.6321 21.2507C31.1425 21.5357 31.5204 21.9219 31.7656 22.4091C32.0109 22.8963 32.1335 23.4399 32.1335 24.0398C32.1335 24.6397 32.0109 25.1849 31.7656 25.6754C31.5237 26.166 31.1491 26.5571 30.642 26.8487C30.1349 27.1371 29.4853 27.2812 28.6932 27.2812H26.2273V26.1875H28.6534C29.2003 26.1875 29.6394 26.093 29.9709 25.9041C30.3023 25.7152 30.5426 25.46 30.6918 25.1385C30.8442 24.8137 30.9205 24.4474 30.9205 24.0398C30.9205 23.6321 30.8442 23.2675 30.6918 22.946C30.5426 22.6245 30.3007 22.3726 29.9659 22.1903C29.6312 22.0047 29.187 21.9119 28.6335 21.9119H26.4659V31H25.233ZM33.9606 31V23.3636H35.0941V24.517H35.1737C35.3129 24.1392 35.5647 23.8326 35.9293 23.5973C36.2939 23.362 36.7049 23.2443 37.1623 23.2443C37.2485 23.2443 37.3562 23.246 37.4854 23.2493C37.6147 23.2526 37.7125 23.2576 37.7788 23.2642V24.4574C37.739 24.4474 37.6478 24.4325 37.5053 24.4126C37.3661 24.3894 37.2186 24.3778 37.0629 24.3778C36.6916 24.3778 36.3602 24.4557 36.0685 24.6115C35.7802 24.764 35.5515 24.9761 35.3825 25.2479C35.2167 25.5163 35.1339 25.8229 35.1339 26.1676V31H33.9606ZM42.0394 31.1591C41.35 31.1591 40.7451 30.995 40.2248 30.6669C39.7077 30.3388 39.3034 29.8797 39.0117 29.2898C38.7234 28.6998 38.5792 28.0104 38.5792 27.2216C38.5792 26.4261 38.7234 25.7318 39.0117 25.1385C39.3034 24.5452 39.7077 24.0845 40.2248 23.7564C40.7451 23.4283 41.35 23.2642 42.0394 23.2642C42.7288 23.2642 43.332 23.4283 43.8491 23.7564C44.3694 24.0845 44.7738 24.5452 45.0621 25.1385C45.3538 25.7318 45.4996 26.4261 45.4996 27.2216C45.4996 28.0104 45.3538 28.6998 45.0621 29.2898C44.7738 29.8797 44.3694 30.3388 43.8491 30.6669C43.332 30.995 42.7288 31.1591 42.0394 31.1591ZM42.0394 30.1051C42.5631 30.1051 42.994 29.9709 43.332 29.7024C43.6701 29.4339 43.9203 29.081 44.0827 28.6435C44.2451 28.206 44.3263 27.732 44.3263 27.2216C44.3263 26.7112 44.2451 26.2356 44.0827 25.7947C43.9203 25.3539 43.6701 24.9976 43.332 24.7259C42.994 24.4541 42.5631 24.3182 42.0394 24.3182C41.5157 24.3182 41.0849 24.4541 40.7468 24.7259C40.4087 24.9976 40.1585 25.3539 39.9961 25.7947C39.8337 26.2356 39.7525 26.7112 39.7525 27.2216C39.7525 27.732 39.8337 28.206 39.9961 28.6435C40.1585 29.081 40.4087 29.4339 40.7468 29.7024C41.0849 29.9709 41.5157 30.1051 42.0394 30.1051ZM50.1742 31.1591C49.5378 31.1591 48.976 30.9983 48.4888 30.6768C48.0016 30.352 47.6204 29.8946 47.3453 29.3047C47.0703 28.7114 46.9327 28.0104 46.9327 27.2017C46.9327 26.3996 47.0703 25.7036 47.3453 25.1136C47.6204 24.5237 48.0033 24.0679 48.4938 23.7464C48.9843 23.425 49.5511 23.2642 50.1941 23.2642C50.6912 23.2642 51.084 23.3471 51.3723 23.5128C51.664 23.6752 51.8861 23.8608 52.0385 24.0696C52.1943 24.2751 52.3153 24.4441 52.4015 24.5767H52.5009V20.8182H53.6742V31H52.5407V29.8267H52.4015C52.3153 29.9659 52.1926 30.1416 52.0336 30.3537C51.8745 30.5625 51.6474 30.7498 51.3525 30.9155C51.0575 31.0779 50.6647 31.1591 50.1742 31.1591ZM50.3333 30.1051C50.8039 30.1051 51.2016 29.9825 51.5265 29.7372C51.8513 29.4886 52.0982 29.1456 52.2672 28.7081C52.4363 28.2673 52.5208 27.7585 52.5208 27.1818C52.5208 26.6117 52.4379 26.1129 52.2722 25.6854C52.1065 25.2545 51.8612 24.9197 51.5364 24.6811C51.2116 24.4392 50.8105 24.3182 50.3333 24.3182C49.8361 24.3182 49.4218 24.4458 49.0904 24.701C48.7623 24.9529 48.5153 25.2959 48.3496 25.7301C48.1872 26.161 48.106 26.6449 48.106 27.1818C48.106 27.7254 48.1889 28.2192 48.3546 28.6634C48.5236 29.1042 48.7722 29.4555 49.1003 29.7173C49.4318 29.9759 49.8427 30.1051 50.3333 30.1051ZM60.7985 27.8778V23.3636H61.9718V31H60.7985V29.7074H60.7189C60.54 30.0952 60.2615 30.425 59.8837 30.6967C59.5059 30.9652 59.0286 31.0994 58.4519 31.0994C57.9746 31.0994 57.5504 30.995 57.1792 30.7862C56.8079 30.5741 56.5163 30.2559 56.3042 29.8317C56.092 29.4041 55.986 28.8655 55.986 28.2159V23.3636H57.1593V28.1364C57.1593 28.6932 57.315 29.1373 57.6266 29.4688C57.9415 29.8002 58.3425 29.9659 58.8297 29.9659C59.1214 29.9659 59.418 29.8913 59.7196 29.7422C60.0246 29.593 60.2798 29.3643 60.4853 29.0561C60.6941 28.7479 60.7985 28.3551 60.7985 27.8778ZM67.223 31.1591C66.5071 31.1591 65.8906 30.9901 65.3736 30.652C64.8565 30.3139 64.4588 29.8482 64.1804 29.255C63.902 28.6617 63.7628 27.9839 63.7628 27.2216C63.7628 26.446 63.9053 25.7616 64.1903 25.1683C64.4787 24.5717 64.8797 24.1061 65.3935 23.7713C65.9105 23.4332 66.5137 23.2642 67.2031 23.2642C67.7401 23.2642 68.224 23.3636 68.6548 23.5625C69.0857 23.7614 69.4387 24.0398 69.7138 24.3977C69.9889 24.7557 70.1596 25.1733 70.2259 25.6506H69.0526C68.9631 25.3026 68.7642 24.9943 68.456 24.7259C68.151 24.4541 67.7401 24.3182 67.223 24.3182C66.7656 24.3182 66.3646 24.4375 66.0199 24.6761C65.6785 24.9115 65.4117 25.2446 65.2195 25.6754C65.0305 26.103 64.9361 26.6051 64.9361 27.1818C64.9361 27.7718 65.0289 28.2855 65.2145 28.723C65.4034 29.1605 65.6686 29.5002 66.0099 29.7422C66.3546 29.9841 66.759 30.1051 67.223 30.1051C67.5279 30.1051 67.8047 30.0521 68.0533 29.946C68.3018 29.84 68.5123 29.6875 68.6847 29.4886C68.857 29.2898 68.9796 29.0511 69.0526 28.7727H70.2259C70.1596 29.2235 69.9955 29.6295 69.7337 29.9908C69.4751 30.3487 69.1321 30.6338 68.7045 30.8459C68.2803 31.0547 67.7865 31.1591 67.223 31.1591ZM75.2621 23.3636V24.358H71.3047V23.3636H75.2621ZM72.4581 21.5341H73.6314V28.8125C73.6314 29.1439 73.6795 29.3925 73.7756 29.5582C73.875 29.7206 74.0009 29.83 74.1534 29.8864C74.3092 29.9394 74.4732 29.9659 74.6456 29.9659C74.7749 29.9659 74.8809 29.9593 74.9638 29.946C75.0466 29.9295 75.1129 29.9162 75.1626 29.9062L75.4013 30.9602C75.3217 30.9901 75.2107 31.0199 75.0682 31.0497C74.9257 31.0829 74.745 31.0994 74.5263 31.0994C74.1948 31.0994 73.87 31.0282 73.5518 30.8857C73.237 30.7431 72.9751 30.526 72.7663 30.2344C72.5608 29.9427 72.4581 29.5748 72.4581 29.1307V21.5341ZM84.2656 31H81.1236V20.8182H84.4048C85.3925 20.8182 86.2377 21.022 86.9403 21.4297C87.643 21.834 88.1816 22.4157 88.5561 23.1747C88.9306 23.9304 89.1179 24.8352 89.1179 25.8892C89.1179 26.9498 88.929 27.8629 88.5511 28.6286C88.1733 29.3909 87.6231 29.9775 86.9006 30.3885C86.178 30.7962 85.2997 31 84.2656 31ZM82.3565 29.9062H84.1861C85.0279 29.9062 85.7256 29.7438 86.2791 29.419C86.8326 29.0942 87.2453 28.6319 87.517 28.032C87.7888 27.4321 87.9247 26.7178 87.9247 25.8892C87.9247 25.0672 87.7905 24.3596 87.522 23.7663C87.2536 23.1697 86.8525 22.7124 86.3189 22.3942C85.7853 22.0727 85.1207 21.9119 84.3253 21.9119H82.3565V29.9062ZM94.2287 31.1591C93.4929 31.1591 92.8582 30.9967 92.3246 30.6719C91.7943 30.3438 91.3849 29.8864 91.0966 29.2997C90.8116 28.7098 90.669 28.0237 90.669 27.2415C90.669 26.4593 90.8116 25.7699 91.0966 25.1733C91.3849 24.5734 91.786 24.1061 92.2997 23.7713C92.8168 23.4332 93.42 23.2642 94.1094 23.2642C94.5071 23.2642 94.8999 23.3305 95.2876 23.4631C95.6754 23.5956 96.0284 23.8111 96.3466 24.1094C96.6648 24.4044 96.9183 24.7955 97.1072 25.2827C97.2962 25.7699 97.3906 26.3698 97.3906 27.0824V27.5795H91.5043V26.5653H96.1974C96.1974 26.1345 96.1113 25.75 95.9389 25.4119C95.7699 25.0739 95.5279 24.8071 95.2131 24.6115C94.9015 24.416 94.5336 24.3182 94.1094 24.3182C93.642 24.3182 93.2377 24.4342 92.8963 24.6662C92.5582 24.8949 92.2981 25.1932 92.1158 25.5611C91.9335 25.929 91.8423 26.3234 91.8423 26.7443V27.4205C91.8423 27.9972 91.9418 28.486 92.1406 28.8871C92.3428 29.2848 92.6229 29.5881 92.9808 29.7969C93.3388 30.0024 93.7547 30.1051 94.2287 30.1051C94.5369 30.1051 94.8153 30.062 95.0639 29.9759C95.3158 29.8864 95.5329 29.7538 95.7152 29.5781C95.8975 29.3991 96.0384 29.1771 96.1378 28.9119L97.2713 29.2301C97.152 29.6146 96.9515 29.9527 96.6697 30.2443C96.388 30.5327 96.04 30.758 95.6257 30.9205C95.2114 31.0795 94.7457 31.1591 94.2287 31.1591ZM104.585 25.0739L103.531 25.3722C103.464 25.1965 103.366 25.0258 103.237 24.8601C103.111 24.6911 102.939 24.5518 102.72 24.4425C102.501 24.3331 102.221 24.2784 101.88 24.2784C101.413 24.2784 101.023 24.3861 100.712 24.6016C100.403 24.8137 100.249 25.0838 100.249 25.4119C100.249 25.7036 100.355 25.9339 100.567 26.103C100.78 26.272 101.111 26.4129 101.562 26.5256L102.695 26.804C103.378 26.9697 103.887 27.2232 104.222 27.5646C104.556 27.9027 104.724 28.3385 104.724 28.8722C104.724 29.3097 104.598 29.7008 104.346 30.0455C104.097 30.3902 103.749 30.6619 103.302 30.8608C102.854 31.0597 102.334 31.1591 101.741 31.1591C100.962 31.1591 100.317 30.9901 99.8068 30.652C99.2964 30.3139 98.9732 29.8201 98.8374 29.1705L99.951 28.892C100.057 29.303 100.258 29.6113 100.553 29.8168C100.851 30.0223 101.24 30.125 101.721 30.125C102.268 30.125 102.702 30.009 103.023 29.777C103.348 29.5417 103.511 29.2599 103.511 28.9318C103.511 28.6667 103.418 28.4446 103.232 28.2656C103.047 28.0833 102.762 27.9474 102.377 27.858L101.104 27.5597C100.405 27.3939 99.8913 27.1371 99.5632 26.7891C99.2384 26.4377 99.076 25.9986 99.076 25.4716C99.076 25.0407 99.197 24.6596 99.4389 24.3281C99.6842 23.9967 100.017 23.7365 100.438 23.5476C100.862 23.3587 101.343 23.2642 101.88 23.2642C102.636 23.2642 103.229 23.4299 103.66 23.7614C104.094 24.0928 104.402 24.5303 104.585 25.0739ZM106.49 31V23.3636H107.663V31H106.49ZM107.086 22.0909C106.858 22.0909 106.661 22.013 106.495 21.8572C106.332 21.7015 106.251 21.5142 106.251 21.2955C106.251 21.0767 106.332 20.8894 106.495 20.7337C106.661 20.5779 106.858 20.5 107.086 20.5C107.315 20.5 107.511 20.5779 107.673 20.7337C107.839 20.8894 107.922 21.0767 107.922 21.2955C107.922 21.5142 107.839 21.7015 107.673 21.8572C107.511 22.013 107.315 22.0909 107.086 22.0909ZM112.895 34.0227C112.328 34.0227 111.841 33.9498 111.433 33.804C111.025 33.6615 110.685 33.4725 110.414 33.2372C110.145 33.0052 109.931 32.7566 109.772 32.4915L110.707 31.8352C110.813 31.9744 110.947 32.1335 111.11 32.3125C111.272 32.4948 111.494 32.6522 111.776 32.7848C112.061 32.9207 112.434 32.9886 112.895 32.9886C113.511 32.9886 114.02 32.8395 114.421 32.5412C114.822 32.2429 115.022 31.7756 115.022 31.1392V29.5881H114.923C114.837 29.7273 114.714 29.8996 114.555 30.1051C114.399 30.3073 114.174 30.4879 113.879 30.647C113.587 30.8028 113.193 30.8807 112.696 30.8807C112.079 30.8807 111.526 30.7348 111.035 30.4432C110.548 30.1515 110.162 29.7273 109.877 29.1705C109.595 28.6136 109.454 27.9375 109.454 27.142C109.454 26.3598 109.592 25.6787 109.867 25.0987C110.142 24.5154 110.525 24.0646 111.015 23.7464C111.506 23.425 112.073 23.2642 112.716 23.2642C113.213 23.2642 113.607 23.3471 113.899 23.5128C114.194 23.6752 114.419 23.8608 114.575 24.0696C114.734 24.2751 114.857 24.4441 114.943 24.5767H115.062V23.3636H116.196V31.2188C116.196 31.875 116.047 32.4086 115.748 32.8196C115.453 33.2339 115.056 33.5372 114.555 33.7294C114.058 33.925 113.504 34.0227 112.895 34.0227ZM112.855 29.8267C113.325 29.8267 113.723 29.719 114.048 29.5036C114.373 29.2881 114.62 28.9782 114.789 28.5739C114.958 28.1695 115.042 27.6856 115.042 27.1222C115.042 26.572 114.959 26.0864 114.794 25.6655C114.628 25.2446 114.383 24.9148 114.058 24.6761C113.733 24.4375 113.332 24.3182 112.855 24.3182C112.358 24.3182 111.943 24.4441 111.612 24.696C111.284 24.9479 111.037 25.286 110.871 25.7102C110.709 26.1345 110.627 26.6051 110.627 27.1222C110.627 27.6525 110.71 28.1214 110.876 28.5291C111.045 28.9335 111.294 29.2517 111.622 29.4837C111.953 29.7124 112.364 29.8267 112.855 29.8267ZM119.517 26.4062V31H118.343V23.3636H119.477V24.5568H119.576C119.755 24.169 120.027 23.8575 120.392 23.6222C120.756 23.3835 121.227 23.2642 121.804 23.2642C122.321 23.2642 122.773 23.3703 123.161 23.5824C123.549 23.7912 123.85 24.1094 124.066 24.5369C124.281 24.9612 124.389 25.4981 124.389 26.1477V31H123.216V26.2273C123.216 25.6274 123.06 25.16 122.748 24.8253C122.437 24.4872 122.009 24.3182 121.466 24.3182C121.091 24.3182 120.756 24.3994 120.461 24.5618C120.17 24.7242 119.939 24.9612 119.77 25.2727C119.601 25.5843 119.517 25.9621 119.517 26.4062ZM129.735 31.1591C128.999 31.1591 128.364 30.9967 127.83 30.6719C127.3 30.3438 126.891 29.8864 126.602 29.2997C126.317 28.7098 126.175 28.0237 126.175 27.2415C126.175 26.4593 126.317 25.7699 126.602 25.1733C126.891 24.5734 127.292 24.1061 127.806 23.7713C128.323 23.4332 128.926 23.2642 129.615 23.2642C130.013 23.2642 130.406 23.3305 130.794 23.4631C131.181 23.5956 131.534 23.8111 131.852 24.1094C132.171 24.4044 132.424 24.7955 132.613 25.2827C132.802 25.7699 132.896 26.3698 132.896 27.0824V27.5795H127.01V26.5653H131.703C131.703 26.1345 131.617 25.75 131.445 25.4119C131.276 25.0739 131.034 24.8071 130.719 24.6115C130.407 24.416 130.039 24.3182 129.615 24.3182C129.148 24.3182 128.744 24.4342 128.402 24.6662C128.064 24.8949 127.804 25.1932 127.622 25.5611C127.439 25.929 127.348 26.3234 127.348 26.7443V27.4205C127.348 27.9972 127.448 28.486 127.646 28.8871C127.849 29.2848 128.129 29.5881 128.487 29.7969C128.845 30.0024 129.261 30.1051 129.735 30.1051C130.043 30.1051 130.321 30.062 130.57 29.9759C130.822 29.8864 131.039 29.7538 131.221 29.5781C131.403 29.3991 131.544 29.1771 131.644 28.9119L132.777 29.2301C132.658 29.6146 132.457 29.9527 132.176 30.2443C131.894 30.5327 131.546 30.758 131.132 30.9205C130.717 31.0795 130.252 31.1591 129.735 31.1591ZM134.681 31V23.3636H135.815V24.517H135.894C136.034 24.1392 136.285 23.8326 136.65 23.5973C137.015 23.362 137.426 23.2443 137.883 23.2443C137.969 23.2443 138.077 23.246 138.206 23.2493C138.335 23.2526 138.433 23.2576 138.499 23.2642V24.4574C138.46 24.4474 138.369 24.4325 138.226 24.4126C138.087 24.3894 137.939 24.3778 137.784 24.3778C137.412 24.3778 137.081 24.4557 136.789 24.6115C136.501 24.764 136.272 24.9761 136.103 25.2479C135.937 25.5163 135.855 25.8229 135.855 26.1676V31H134.681Z" fill="#42526D"/>
<path d="M31.008 43.256C30.752 42.912 30.436 42.656 30.06 42.488C29.684 42.312 29.292 42.224 28.884 42.224C28.412 42.224 27.976 42.32 27.576 42.512C27.184 42.704 26.844 42.964 26.556 43.292C26.268 43.612 26.044 43.988 25.884 44.42C25.724 44.844 25.644 45.288 25.644 45.752C25.644 46.248 25.724 46.712 25.884 47.144C26.044 47.568 26.264 47.94 26.544 48.26C26.832 48.572 27.172 48.82 27.564 49.004C27.964 49.188 28.404 49.28 28.884 49.28C29.404 49.28 29.868 49.18 30.276 48.98C30.684 48.772 31.04 48.476 31.344 48.092L32.1 48.728C31.716 49.24 31.252 49.616 30.708 49.856C30.172 50.096 29.564 50.216 28.884 50.216C28.276 50.216 27.708 50.104 27.18 49.88C26.652 49.656 26.192 49.348 25.8 48.956C25.416 48.556 25.112 48.084 24.888 47.54C24.672 46.996 24.564 46.4 24.564 45.752C24.564 45.128 24.668 44.544 24.876 44C25.092 43.456 25.392 42.984 25.776 42.584C26.16 42.184 26.616 41.868 27.144 41.636C27.672 41.404 28.252 41.288 28.884 41.288C29.46 41.288 30.012 41.392 30.54 41.6C31.076 41.808 31.524 42.148 31.884 42.62L31.008 43.256ZM33.0132 47.192C33.0132 46.752 33.0892 46.352 33.2412 45.992C33.3932 45.632 33.6012 45.324 33.8652 45.068C34.1292 44.804 34.4452 44.6 34.8132 44.456C35.1812 44.312 35.5812 44.24 36.0132 44.24C36.4452 44.24 36.8452 44.312 37.2132 44.456C37.5812 44.6 37.8972 44.804 38.1612 45.068C38.4252 45.324 38.6332 45.632 38.7852 45.992C38.9372 46.352 39.0132 46.752 39.0132 47.192C39.0132 47.632 38.9372 48.032 38.7852 48.392C38.6332 48.752 38.4252 49.064 38.1612 49.328C37.8972 49.584 37.5812 49.784 37.2132 49.928C36.8452 50.072 36.4452 50.144 36.0132 50.144C35.5812 50.144 35.1812 50.072 34.8132 49.928C34.4452 49.784 34.1292 49.584 33.8652 49.328C33.6012 49.064 33.3932 48.752 33.2412 48.392C33.0892 48.032 33.0132 47.632 33.0132 47.192ZM34.0212 47.192C34.0212 47.488 34.0652 47.764 34.1532 48.02C34.2492 48.268 34.3852 48.488 34.5612 48.68C34.7372 48.864 34.9452 49.012 35.1852 49.124C35.4332 49.228 35.7092 49.28 36.0132 49.28C36.3172 49.28 36.5892 49.228 36.8292 49.124C37.0772 49.012 37.2892 48.864 37.4652 48.68C37.6412 48.488 37.7732 48.268 37.8612 48.02C37.9572 47.764 38.0052 47.488 38.0052 47.192C38.0052 46.896 37.9572 46.624 37.8612 46.376C37.7732 46.12 37.6412 45.9 37.4652 45.716C37.2892 45.524 37.0772 45.376 36.8292 45.272C36.5892 45.16 36.3172 45.104 36.0132 45.104C35.7092 45.104 35.4332 45.16 35.1852 45.272C34.9452 45.376 34.7372 45.524 34.5612 45.716C34.3852 45.9 34.2492 46.12 34.1532 46.376C34.0652 46.624 34.0212 46.896 34.0212 47.192ZM40.4622 45.716C40.4622 45.46 40.4542 45.22 40.4382 44.996C40.4222 44.772 40.4142 44.568 40.4142 44.384H41.3022C41.3022 44.536 41.3062 44.688 41.3142 44.84C41.3222 44.992 41.3262 45.148 41.3262 45.308H41.3502C41.4142 45.172 41.5022 45.04 41.6142 44.912C41.7342 44.784 41.8742 44.672 42.0342 44.576C42.1942 44.472 42.3742 44.392 42.5742 44.336C42.7742 44.272 42.9902 44.24 43.2222 44.24C43.5902 44.24 43.9062 44.296 44.1702 44.408C44.4422 44.52 44.6662 44.676 44.8422 44.876C45.0182 45.076 45.1462 45.32 45.2262 45.608C45.3142 45.888 45.3582 46.196 45.3582 46.532V50H44.4222V46.628C44.4222 46.156 44.3182 45.784 44.1102 45.512C43.9022 45.24 43.5782 45.104 43.1382 45.104C42.8342 45.104 42.5702 45.156 42.3462 45.26C42.1302 45.364 41.9502 45.512 41.8062 45.704C41.6702 45.896 41.5662 46.124 41.4942 46.388C41.4302 46.652 41.3982 46.944 41.3982 47.264V50H40.4622V45.716ZM50.2022 45.176H48.5462V47.984C48.5462 48.168 48.5502 48.34 48.5582 48.5C48.5662 48.652 48.5982 48.788 48.6542 48.908C48.7102 49.02 48.7942 49.112 48.9062 49.184C49.0182 49.248 49.1782 49.28 49.3862 49.28C49.5222 49.28 49.6622 49.264 49.8062 49.232C49.9502 49.2 50.0862 49.152 50.2142 49.088L50.2502 49.94C50.0902 50.012 49.9102 50.064 49.7102 50.096C49.5182 50.128 49.3342 50.144 49.1582 50.144C48.8222 50.144 48.5542 50.1 48.3542 50.012C48.1542 49.924 47.9982 49.8 47.8862 49.64C47.7742 49.48 47.6982 49.284 47.6582 49.052C47.6262 48.812 47.6102 48.548 47.6102 48.26V45.176H46.3862V44.384H47.6102V42.788H48.5462V44.384H50.2022V45.176ZM51.3489 45.716C51.3489 45.46 51.3409 45.22 51.3249 44.996C51.3089 44.772 51.3009 44.568 51.3009 44.384H52.1889C52.1889 44.536 52.1929 44.688 52.2009 44.84C52.2089 44.992 52.2129 45.148 52.2129 45.308H52.2369C52.3009 45.172 52.3889 45.04 52.5009 44.912C52.6209 44.784 52.7609 44.672 52.9209 44.576C53.0809 44.472 53.2609 44.392 53.4609 44.336C53.6609 44.272 53.8769 44.24 54.1089 44.24C54.1729 44.24 54.2369 44.244 54.3009 44.252C54.3649 44.26 54.4289 44.276 54.4929 44.3L54.4329 45.248C54.2729 45.2 54.1049 45.176 53.9289 45.176C53.3529 45.176 52.9329 45.364 52.6689 45.74C52.4129 46.108 52.2849 46.616 52.2849 47.264V50H51.3489V45.716ZM55.4957 45.104C55.7837 44.808 56.1237 44.592 56.5157 44.456C56.9157 44.312 57.3197 44.24 57.7277 44.24C58.5597 44.24 59.1597 44.436 59.5277 44.828C59.8957 45.22 60.0797 45.816 60.0797 46.616V49.028C60.0797 49.188 60.0877 49.356 60.1037 49.532C60.1197 49.7 60.1397 49.856 60.1637 50H59.2637C59.2317 49.872 59.2117 49.732 59.2037 49.58C59.2037 49.42 59.2037 49.28 59.2037 49.16H59.1797C58.9957 49.448 58.7477 49.684 58.4357 49.868C58.1317 50.052 57.7637 50.144 57.3317 50.144C57.0437 50.144 56.7717 50.108 56.5157 50.036C56.2677 49.964 56.0477 49.86 55.8557 49.724C55.6717 49.58 55.5237 49.404 55.4117 49.196C55.2997 48.988 55.2437 48.748 55.2437 48.476C55.2437 48.012 55.3637 47.648 55.6037 47.384C55.8437 47.12 56.1397 46.924 56.4917 46.796C56.8517 46.668 57.2357 46.588 57.6437 46.556C58.0597 46.524 58.4397 46.508 58.7837 46.508H59.1437V46.34C59.1437 45.932 59.0197 45.624 58.7717 45.416C58.5317 45.208 58.1917 45.104 57.7517 45.104C57.4477 45.104 57.1477 45.156 56.8517 45.26C56.5637 45.356 56.3077 45.508 56.0837 45.716L55.4957 45.104ZM58.2077 47.3C57.6077 47.3 57.1317 47.384 56.7797 47.552C56.4277 47.72 56.2517 47.996 56.2517 48.38C56.2517 48.732 56.3677 48.984 56.5997 49.136C56.8397 49.28 57.1357 49.352 57.4877 49.352C57.7597 49.352 57.9957 49.308 58.1957 49.22C58.4037 49.124 58.5757 49 58.7117 48.848C58.8477 48.696 58.9517 48.52 59.0237 48.32C59.0957 48.112 59.1357 47.892 59.1437 47.66V47.3H58.2077ZM65.7863 45.788C65.5863 45.548 65.3703 45.376 65.1383 45.272C64.9063 45.16 64.6503 45.104 64.3703 45.104C64.0583 45.104 63.7823 45.16 63.5423 45.272C63.3023 45.376 63.1023 45.524 62.9423 45.716C62.7903 45.908 62.6743 46.132 62.5943 46.388C62.5143 46.636 62.4743 46.904 62.4743 47.192C62.4743 47.48 62.5183 47.752 62.6063 48.008C62.7023 48.256 62.8303 48.476 62.9903 48.668C63.1583 48.86 63.3583 49.012 63.5903 49.124C63.8223 49.228 64.0823 49.28 64.3703 49.28C64.9863 49.28 65.4623 49.048 65.7983 48.584L66.4943 49.244C66.2223 49.556 65.9023 49.784 65.5343 49.928C65.1663 50.072 64.7783 50.144 64.3703 50.144C63.9383 50.144 63.5423 50.072 63.1823 49.928C62.8223 49.784 62.5143 49.58 62.2583 49.316C62.0103 49.052 61.8143 48.74 61.6703 48.38C61.5343 48.02 61.4663 47.624 61.4663 47.192C61.4663 46.768 61.5343 46.376 61.6703 46.016C61.8143 45.656 62.0143 45.344 62.2703 45.08C62.5263 44.816 62.8303 44.612 63.1823 44.468C63.5423 44.316 63.9383 44.24 64.3703 44.24C64.7863 44.24 65.1783 44.312 65.5463 44.456C65.9223 44.6 66.2503 44.824 66.5303 45.128L65.7863 45.788ZM70.6514 45.176H68.9954V47.984C68.9954 48.168 68.9994 48.34 69.0074 48.5C69.0154 48.652 69.0474 48.788 69.1034 48.908C69.1594 49.02 69.2434 49.112 69.3554 49.184C69.4674 49.248 69.6274 49.28 69.8354 49.28C69.9714 49.28 70.1114 49.264 70.2554 49.232C70.3994 49.2 70.5354 49.152 70.6634 49.088L70.6994 49.94C70.5394 50.012 70.3594 50.064 70.1594 50.096C69.9674 50.128 69.7834 50.144 69.6074 50.144C69.2714 50.144 69.0034 50.1 68.8034 50.012C68.6034 49.924 68.4474 49.8 68.3354 49.64C68.2234 49.48 68.1474 49.284 68.1074 49.052C68.0754 48.812 68.0594 48.548 68.0594 48.26V45.176H66.8354V44.384H68.0594V42.788H68.9954V44.384H70.6514V45.176Z" fill="#8993A4"/>
</svg>
