<svg width="176" height="44" viewBox="0 0 176 44" fill="none" xmlns="http://www.w3.org/2000/svg">
<mask id="path-1-inside-1_1_6390" fill="white">
<path d="M0 0H176V44H0V0Z"/>
</mask>
<path d="M0 0H176V44H0V0Z" fill="#FAFBFB"/>
<path d="M176 43H0V45H176V43Z" fill="#EAECF0" mask="url(#path-1-inside-1_1_6390)"/>
<path d="M24.9588 26V17.2727H28.0696C28.7457 17.2727 29.3068 17.3892 29.7528 17.6222C30.2017 17.8551 30.5369 18.1776 30.7585 18.5895C30.9801 18.9986 31.0909 19.4716 31.0909 20.0085C31.0909 20.5426 30.9787 21.0128 30.7543 21.419C30.5327 21.8224 30.1974 22.1364 29.7486 22.3608C29.3026 22.5852 28.7415 22.6974 28.0653 22.6974H25.7088V21.5639H27.946C28.3722 21.5639 28.7188 21.5028 28.9858 21.3807C29.2557 21.2585 29.4531 21.081 29.5781 20.848C29.7031 20.6151 29.7656 20.3352 29.7656 20.0085C29.7656 19.679 29.7017 19.3935 29.5739 19.152C29.4489 18.9105 29.2514 18.7259 28.9815 18.598C28.7145 18.4673 28.3636 18.402 27.929 18.402H26.2756V26H24.9588ZM29.267 22.0625L31.4233 26H29.9233L27.8097 22.0625H29.267ZM35.266 26.1321C34.6523 26.1321 34.1168 25.9915 33.6594 25.7102C33.2021 25.429 32.8469 25.0355 32.5941 24.5298C32.3413 24.0241 32.2148 23.4332 32.2148 22.7571C32.2148 22.0781 32.3413 21.4844 32.5941 20.9759C32.8469 20.4673 33.2021 20.0724 33.6594 19.7912C34.1168 19.5099 34.6523 19.3693 35.266 19.3693C35.8796 19.3693 36.4151 19.5099 36.8725 19.7912C37.3299 20.0724 37.685 20.4673 37.9379 20.9759C38.1907 21.4844 38.3171 22.0781 38.3171 22.7571C38.3171 23.4332 38.1907 24.0241 37.9379 24.5298C37.685 25.0355 37.3299 25.429 36.8725 25.7102C36.4151 25.9915 35.8796 26.1321 35.266 26.1321ZM35.2702 25.0625C35.668 25.0625 35.9975 24.9574 36.2589 24.7472C36.5202 24.5369 36.7134 24.2571 36.8384 23.9077C36.9663 23.5582 37.0302 23.1733 37.0302 22.7528C37.0302 22.3352 36.9663 21.9517 36.8384 21.6023C36.7134 21.25 36.5202 20.9673 36.2589 20.7543C35.9975 20.5412 35.668 20.4347 35.2702 20.4347C34.8697 20.4347 34.5373 20.5412 34.2731 20.7543C34.0117 20.9673 33.8171 21.25 33.6893 21.6023C33.5643 21.9517 33.5018 22.3352 33.5018 22.7528C33.5018 23.1733 33.5643 23.5582 33.6893 23.9077C33.8171 24.2571 34.0117 24.5369 34.2731 24.7472C34.5373 24.9574 34.8697 25.0625 35.2702 25.0625ZM41.0135 17.2727V26H39.7393V17.2727H41.0135ZM45.5487 26.1321C44.9038 26.1321 44.3484 25.9943 43.8825 25.7188C43.4194 25.4403 43.0614 25.0497 42.8086 24.5469C42.5586 24.0412 42.4336 23.4489 42.4336 22.7699C42.4336 22.0994 42.5586 21.5085 42.8086 20.9972C43.0614 20.4858 43.4137 20.0866 43.8654 19.7997C44.32 19.5128 44.8512 19.3693 45.4592 19.3693C45.8285 19.3693 46.1864 19.4304 46.533 19.5526C46.8796 19.6747 47.1907 19.8665 47.4663 20.1278C47.7418 20.3892 47.9592 20.7287 48.1183 21.1463C48.2773 21.5611 48.3569 22.0653 48.3569 22.6591V23.1108H43.1538V22.1562H47.1083C47.1083 21.821 47.0401 21.5241 46.9038 21.2656C46.7674 21.0043 46.5756 20.7983 46.3285 20.6477C46.0842 20.4972 45.7972 20.4219 45.4677 20.4219C45.1097 20.4219 44.7972 20.5099 44.5302 20.6861C44.266 20.8594 44.0614 21.0866 43.9165 21.3679C43.7745 21.6463 43.7035 21.9489 43.7035 22.2756V23.0213C43.7035 23.4588 43.7802 23.831 43.9336 24.1378C44.0898 24.4446 44.3072 24.679 44.5856 24.8409C44.864 25 45.1893 25.0795 45.5614 25.0795C45.8029 25.0795 46.0231 25.0455 46.2219 24.9773C46.4208 24.9062 46.5927 24.8011 46.7376 24.6619C46.8825 24.5227 46.9933 24.3509 47.07 24.1463L48.2759 24.3636C48.1793 24.7187 48.006 25.0298 47.756 25.2969C47.5089 25.5611 47.1978 25.767 46.8228 25.9148C46.4506 26.0597 46.0259 26.1321 45.5487 26.1321Z" fill="#42526D"/>
<g clip-path="url(#clip0_1_6390)">
<path d="M59.06 20C59.2167 19.5544 59.5261 19.1787 59.9333 18.9394C60.3405 18.7001 60.8192 18.6126 61.2848 18.6925C61.7503 18.7723 62.1725 19.0143 62.4767 19.3757C62.7809 19.737 62.9474 20.1943 62.9466 20.6667C62.9466 22 60.9466 22.6667 60.9466 22.6667M61 25.3333H61.0066M67.6666 22C67.6666 25.6819 64.6819 28.6667 61 28.6667C57.3181 28.6667 54.3333 25.6819 54.3333 22C54.3333 18.3181 57.3181 15.3333 61 15.3333C64.6819 15.3333 67.6666 18.3181 67.6666 22Z" stroke="#98A2B3" stroke-width="1.33333" stroke-linecap="round" stroke-linejoin="round"/>
</g>
<defs>
<clipPath id="clip0_1_6390">
<rect width="16" height="16" fill="white" transform="translate(53 14)"/>
</clipPath>
</defs>
</svg>
