<svg width="483" height="46" viewBox="0 0 483 46" fill="none" xmlns="http://www.w3.org/2000/svg">
<rect width="425" height="46" rx="10" fill="white"/>
<path d="M29.5037 27.2377L27.2121 24.9972L27.1584 24.9155C27.0586 24.8161 26.922 24.7601 26.7795 24.7601C26.637 24.7601 26.5004 24.8161 26.4005 24.9155C24.453 26.7022 21.4521 26.7993 19.388 25.1425C17.3239 23.4856 16.8372 20.5889 18.2505 18.3734C19.6638 16.158 22.5388 15.3112 24.9686 16.3948C27.3985 17.4783 28.6292 20.1559 27.8447 22.6517C27.7882 22.832 27.8344 23.0281 27.9659 23.1661C28.0973 23.3041 28.2941 23.363 28.4821 23.3207C28.67 23.2784 28.8206 23.1413 28.8771 22.961C29.815 19.9991 28.3985 16.8117 25.5441 15.4607C22.6897 14.1097 19.2539 15.0005 17.4594 17.5569C15.6649 20.1133 16.0502 23.5681 18.366 25.6863C20.6818 27.8046 24.2332 27.9506 26.7228 26.0299L28.7518 28.0137C28.9614 28.2177 29.3002 28.2177 29.5097 28.0137C29.719 27.8068 29.719 27.4737 29.5097 27.2669L29.5037 27.2377Z" fill="#667085"/>
<path d="M49.1176 17.838C48.9216 17.5207 48.6603 17.292 48.3336 17.152C48.007 17.0027 47.6663 16.928 47.3116 16.928C47.0503 16.928 46.7936 16.9607 46.5416 17.026C46.2896 17.0913 46.061 17.1893 45.8556 17.32C45.6596 17.4507 45.501 17.6233 45.3796 17.838C45.2583 18.0527 45.1976 18.3047 45.1976 18.594C45.1976 18.818 45.2303 19.0187 45.2956 19.196C45.3703 19.364 45.487 19.518 45.6456 19.658C45.8043 19.798 46.019 19.9287 46.2896 20.05C46.5603 20.1713 46.8916 20.2927 47.2836 20.414C47.6663 20.5353 48.035 20.666 48.3896 20.806C48.7536 20.946 49.071 21.1233 49.3416 21.338C49.6216 21.5527 49.841 21.8233 49.9996 22.15C50.1676 22.4673 50.2516 22.8687 50.2516 23.354C50.2516 23.8487 50.1536 24.278 49.9576 24.642C49.7616 25.006 49.5003 25.3093 49.1736 25.552C48.8563 25.7853 48.4876 25.958 48.0676 26.07C47.6476 26.1913 47.2136 26.252 46.7656 26.252C46.4763 26.252 46.187 26.224 45.8976 26.168C45.6083 26.1213 45.3283 26.0467 45.0576 25.944C44.7963 25.832 44.549 25.692 44.3156 25.524C44.0823 25.3467 43.8816 25.132 43.7136 24.88L44.7216 24.054C44.9363 24.418 45.235 24.6933 45.6176 24.88C46.0003 25.0667 46.4063 25.16 46.8356 25.16C47.0876 25.16 47.3396 25.1227 47.5916 25.048C47.853 24.9733 48.0863 24.866 48.2916 24.726C48.497 24.5767 48.665 24.3947 48.7956 24.18C48.9263 23.9653 48.9916 23.718 48.9916 23.438C48.9916 23.13 48.9403 22.8827 48.8376 22.696C48.735 22.5 48.5763 22.332 48.3616 22.192C48.147 22.052 47.8763 21.926 47.5496 21.814C47.223 21.702 46.8403 21.5713 46.4016 21.422C46.047 21.31 45.7203 21.184 45.4216 21.044C45.123 20.8947 44.8616 20.7173 44.6376 20.512C44.423 20.2973 44.2503 20.0453 44.1196 19.756C43.9983 19.4573 43.9376 19.1027 43.9376 18.692C43.9376 18.216 44.031 17.8007 44.2176 17.446C44.4043 17.0913 44.6563 16.7973 44.9736 16.564C45.291 16.3213 45.6503 16.1393 46.0516 16.018C46.453 15.8967 46.873 15.836 47.3116 15.836C47.8716 15.836 48.3803 15.9247 48.8376 16.102C49.3043 16.27 49.7196 16.5687 50.0836 16.998L49.1176 17.838ZM57.8489 24.81C57.4569 25.314 57.0276 25.6687 56.5609 25.874C56.0943 26.07 55.5529 26.168 54.9369 26.168C54.4236 26.168 53.9616 26.0793 53.5509 25.902C53.1403 25.7153 52.7903 25.468 52.5009 25.16C52.2209 24.852 52.0016 24.488 51.8429 24.068C51.6936 23.648 51.6189 23.2 51.6189 22.724C51.6189 22.22 51.7029 21.758 51.8709 21.338C52.0389 20.9087 52.2723 20.5447 52.5709 20.246C52.8696 19.938 53.2243 19.7 53.6349 19.532C54.0456 19.364 54.4936 19.28 54.9789 19.28C55.4363 19.28 55.8563 19.3593 56.2389 19.518C56.6216 19.6673 56.9483 19.8913 57.2189 20.19C57.4989 20.4793 57.7136 20.8387 57.8629 21.268C58.0123 21.688 58.0869 22.1687 58.0869 22.71V23.06H52.7949C52.8136 23.34 52.8789 23.6107 52.9909 23.872C53.1123 24.124 53.2663 24.348 53.4529 24.544C53.6396 24.7307 53.8589 24.88 54.1109 24.992C54.3629 25.104 54.6383 25.16 54.9369 25.16C55.4129 25.16 55.8143 25.076 56.1409 24.908C56.4676 24.74 56.7616 24.4927 57.0229 24.166L57.8489 24.81ZM56.9109 22.136C56.8923 21.576 56.7103 21.128 56.3649 20.792C56.0196 20.456 55.5436 20.288 54.9369 20.288C54.3303 20.288 53.8403 20.456 53.4669 20.792C53.0936 21.128 52.8696 21.576 52.7949 22.136H56.9109ZM59.6922 20.288C60.0282 19.9427 60.4249 19.6907 60.8822 19.532C61.3489 19.364 61.8202 19.28 62.2962 19.28C63.2669 19.28 63.9669 19.5087 64.3962 19.966C64.8256 20.4233 65.0402 21.1187 65.0402 22.052V24.866C65.0402 25.0527 65.0496 25.2487 65.0682 25.454C65.0869 25.65 65.1102 25.832 65.1382 26H64.0882C64.0509 25.8507 64.0276 25.6873 64.0182 25.51C64.0182 25.3233 64.0182 25.16 64.0182 25.02H63.9902C63.7756 25.356 63.4862 25.6313 63.1222 25.846C62.7676 26.0607 62.3382 26.168 61.8342 26.168C61.4982 26.168 61.1809 26.126 60.8822 26.042C60.5929 25.958 60.3362 25.8367 60.1122 25.678C59.8976 25.51 59.7249 25.3047 59.5942 25.062C59.4636 24.8193 59.3982 24.5393 59.3982 24.222C59.3982 23.6807 59.5382 23.256 59.8182 22.948C60.0982 22.64 60.4436 22.4113 60.8542 22.262C61.2742 22.1127 61.7222 22.0193 62.1982 21.982C62.6836 21.9447 63.1269 21.926 63.5282 21.926H63.9482V21.73C63.9482 21.254 63.8036 20.8947 63.5142 20.652C63.2342 20.4093 62.8376 20.288 62.3242 20.288C61.9696 20.288 61.6196 20.3487 61.2742 20.47C60.9382 20.582 60.6396 20.7593 60.3782 21.002L59.6922 20.288ZM62.8562 22.85C62.1562 22.85 61.6009 22.948 61.1902 23.144C60.7796 23.34 60.5742 23.662 60.5742 24.11C60.5742 24.5207 60.7096 24.8147 60.9802 24.992C61.2602 25.16 61.6056 25.244 62.0162 25.244C62.3336 25.244 62.6089 25.1927 62.8422 25.09C63.0849 24.978 63.2856 24.8333 63.4442 24.656C63.6029 24.4787 63.7242 24.2733 63.8082 24.04C63.8922 23.7973 63.9389 23.5407 63.9482 23.27V22.85H62.8562ZM67.036 21.002C67.036 20.7033 67.0267 20.4233 67.008 20.162C66.9893 19.9007 66.98 19.6627 66.98 19.448H68.016C68.016 19.6253 68.0207 19.8027 68.03 19.98C68.0393 20.1573 68.044 20.3393 68.044 20.526H68.072C68.1467 20.3673 68.2493 20.2133 68.38 20.064C68.52 19.9147 68.6833 19.784 68.87 19.672C69.0567 19.5507 69.2667 19.4573 69.5 19.392C69.7333 19.3173 69.9853 19.28 70.256 19.28C70.3307 19.28 70.4053 19.2847 70.48 19.294C70.5547 19.3033 70.6293 19.322 70.704 19.35L70.634 20.456C70.4473 20.4 70.2513 20.372 70.046 20.372C69.374 20.372 68.884 20.5913 68.576 21.03C68.2773 21.4593 68.128 22.052 68.128 22.808V26H67.036V21.002ZM76.3738 21.086C76.1404 20.806 75.8884 20.6053 75.6178 20.484C75.3471 20.3533 75.0484 20.288 74.7218 20.288C74.3578 20.288 74.0358 20.3533 73.7558 20.484C73.4758 20.6053 73.2424 20.778 73.0558 21.002C72.8784 21.226 72.7431 21.4873 72.6498 21.786C72.5564 22.0753 72.5098 22.388 72.5098 22.724C72.5098 23.06 72.5611 23.3773 72.6638 23.676C72.7758 23.9653 72.9251 24.222 73.1118 24.446C73.3078 24.67 73.5411 24.8473 73.8118 24.978C74.0824 25.0993 74.3858 25.16 74.7218 25.16C75.4404 25.16 75.9958 24.8893 76.3878 24.348L77.1998 25.118C76.8824 25.482 76.5091 25.748 76.0798 25.916C75.6504 26.084 75.1978 26.168 74.7218 26.168C74.2178 26.168 73.7558 26.084 73.3358 25.916C72.9158 25.748 72.5564 25.51 72.2578 25.202C71.9684 24.894 71.7398 24.53 71.5718 24.11C71.4131 23.69 71.3338 23.228 71.3338 22.724C71.3338 22.2293 71.4131 21.772 71.5718 21.352C71.7398 20.932 71.9731 20.568 72.2718 20.26C72.5704 19.952 72.9251 19.714 73.3358 19.546C73.7558 19.3687 74.2178 19.28 74.7218 19.28C75.2071 19.28 75.6644 19.364 76.0938 19.532C76.5324 19.7 76.9151 19.9613 77.2418 20.316L76.3738 21.086ZM78.4657 15.416H79.5577V20.358H79.5857C79.6604 20.2273 79.763 20.1013 79.8937 19.98C80.0244 19.8493 80.1784 19.7327 80.3557 19.63C80.5424 19.5273 80.7477 19.4433 80.9717 19.378C81.1957 19.3127 81.4337 19.28 81.6857 19.28C82.115 19.28 82.4837 19.3453 82.7917 19.476C83.109 19.6067 83.3704 19.7887 83.5757 20.022C83.781 20.2553 83.9304 20.54 84.0237 20.876C84.1264 21.2027 84.1777 21.562 84.1777 21.954V26H83.0857V22.066C83.0857 21.5153 82.9644 21.0813 82.7217 20.764C82.479 20.4467 82.101 20.288 81.5877 20.288C81.233 20.288 80.925 20.3487 80.6637 20.47C80.4117 20.5913 80.2017 20.764 80.0337 20.988C79.875 21.212 79.7537 21.478 79.6697 21.786C79.595 22.094 79.5577 22.4347 79.5577 22.808V26H78.4657V15.416ZM90.3375 16.088H96.5675V17.18H91.5135V20.288H96.2315V21.38H91.5135V24.908H96.8195V26H90.3375V16.088ZM98.4403 21.002C98.4403 20.7033 98.431 20.4233 98.4123 20.162C98.3936 19.9007 98.3843 19.6627 98.3843 19.448H99.4203C99.4203 19.6253 99.425 19.8027 99.4343 19.98C99.4436 20.1573 99.4483 20.3393 99.4483 20.526H99.4763C99.551 20.3673 99.6536 20.2133 99.7843 20.064C99.9243 19.9147 100.088 19.784 100.274 19.672C100.461 19.5507 100.671 19.4573 100.904 19.392C101.138 19.3173 101.39 19.28 101.66 19.28C102.015 19.28 102.309 19.3267 102.542 19.42C102.785 19.504 102.986 19.6113 103.144 19.742C103.303 19.8633 103.424 19.9987 103.508 20.148C103.602 20.288 103.676 20.414 103.732 20.526C103.975 20.134 104.255 19.8307 104.572 19.616C104.89 19.392 105.3 19.28 105.804 19.28C106.271 19.28 106.663 19.3453 106.98 19.476C107.298 19.5973 107.554 19.7793 107.75 20.022C107.946 20.2553 108.086 20.5447 108.17 20.89C108.254 21.226 108.296 21.604 108.296 22.024V26H107.204V22.08C107.204 21.856 107.181 21.6367 107.134 21.422C107.088 21.2073 107.004 21.016 106.882 20.848C106.761 20.68 106.598 20.5447 106.392 20.442C106.187 20.3393 105.926 20.288 105.608 20.288C105.375 20.288 105.156 20.3347 104.95 20.428C104.745 20.5213 104.563 20.652 104.404 20.82C104.255 20.988 104.134 21.1933 104.04 21.436C103.956 21.6693 103.914 21.9307 103.914 22.22V26H102.822V22.29C102.822 21.562 102.724 21.0487 102.528 20.75C102.332 20.442 102.01 20.288 101.562 20.288C101.208 20.288 100.9 20.3487 100.638 20.47C100.386 20.5913 100.176 20.764 100.008 20.988C99.8496 21.212 99.7283 21.478 99.6443 21.786C99.5696 22.094 99.5323 22.4347 99.5323 22.808V26H98.4403V21.002ZM110.306 19.448H111.398V20.4H111.426C111.725 20.0453 112.07 19.77 112.462 19.574C112.864 19.378 113.302 19.28 113.778 19.28C114.292 19.28 114.758 19.3687 115.178 19.546C115.608 19.714 115.972 19.952 116.27 20.26C116.569 20.568 116.802 20.932 116.97 21.352C117.138 21.772 117.222 22.2293 117.222 22.724C117.222 23.2187 117.138 23.676 116.97 24.096C116.802 24.516 116.569 24.88 116.27 25.188C115.981 25.496 115.636 25.7387 115.234 25.916C114.833 26.084 114.404 26.168 113.946 26.168C113.358 26.168 112.84 26.042 112.392 25.79C111.954 25.5287 111.632 25.2113 111.426 24.838H111.398V29.192H110.306V19.448ZM111.398 22.724C111.398 23.0693 111.45 23.3913 111.552 23.69C111.664 23.9793 111.823 24.236 112.028 24.46C112.234 24.6747 112.476 24.8473 112.756 24.978C113.046 25.0993 113.368 25.16 113.722 25.16C114.077 25.16 114.394 25.0993 114.674 24.978C114.964 24.8473 115.211 24.6747 115.416 24.46C115.622 24.236 115.776 23.9793 115.878 23.69C115.99 23.3913 116.046 23.0693 116.046 22.724C116.046 22.3787 115.99 22.0613 115.878 21.772C115.776 21.4733 115.622 21.2167 115.416 21.002C115.211 20.778 114.964 20.6053 114.674 20.484C114.394 20.3533 114.077 20.288 113.722 20.288C113.368 20.288 113.046 20.3533 112.756 20.484C112.476 20.6053 112.234 20.778 112.028 21.002C111.823 21.2167 111.664 21.4733 111.552 21.772C111.45 22.0613 111.398 22.3787 111.398 22.724ZM119.019 15.416H120.111V26H119.019V15.416ZM121.906 22.724C121.906 22.2107 121.995 21.744 122.172 21.324C122.349 20.904 122.592 20.5447 122.9 20.246C123.208 19.938 123.577 19.7 124.006 19.532C124.435 19.364 124.902 19.28 125.406 19.28C125.91 19.28 126.377 19.364 126.806 19.532C127.235 19.7 127.604 19.938 127.912 20.246C128.22 20.5447 128.463 20.904 128.64 21.324C128.817 21.744 128.906 22.2107 128.906 22.724C128.906 23.2373 128.817 23.704 128.64 24.124C128.463 24.544 128.22 24.908 127.912 25.216C127.604 25.5147 127.235 25.748 126.806 25.916C126.377 26.084 125.91 26.168 125.406 26.168C124.902 26.168 124.435 26.084 124.006 25.916C123.577 25.748 123.208 25.5147 122.9 25.216C122.592 24.908 122.349 24.544 122.172 24.124C121.995 23.704 121.906 23.2373 121.906 22.724ZM123.082 22.724C123.082 23.0693 123.133 23.3913 123.236 23.69C123.348 23.9793 123.507 24.236 123.712 24.46C123.917 24.6747 124.16 24.8473 124.44 24.978C124.729 25.0993 125.051 25.16 125.406 25.16C125.761 25.16 126.078 25.0993 126.358 24.978C126.647 24.8473 126.895 24.6747 127.1 24.46C127.305 24.236 127.459 23.9793 127.562 23.69C127.674 23.3913 127.73 23.0693 127.73 22.724C127.73 22.3787 127.674 22.0613 127.562 21.772C127.459 21.4733 127.305 21.2167 127.1 21.002C126.895 20.778 126.647 20.6053 126.358 20.484C126.078 20.3533 125.761 20.288 125.406 20.288C125.051 20.288 124.729 20.3533 124.44 20.484C124.16 20.6053 123.917 20.778 123.712 21.002C123.507 21.2167 123.348 21.4733 123.236 21.772C123.133 22.0613 123.082 22.3787 123.082 22.724ZM133.005 27.498C132.893 27.778 132.776 28.03 132.655 28.254C132.543 28.4873 132.403 28.6833 132.235 28.842C132.076 29.01 131.88 29.136 131.647 29.22C131.423 29.3133 131.147 29.36 130.821 29.36C130.662 29.36 130.494 29.3507 130.317 29.332C130.149 29.3133 129.99 29.2667 129.841 29.192L129.981 28.24C130.093 28.2867 130.209 28.3147 130.331 28.324C130.452 28.3427 130.592 28.352 130.751 28.352C131.105 28.352 131.367 28.254 131.535 28.058C131.703 27.862 131.847 27.6007 131.969 27.274L132.417 26.042L129.701 19.448H130.975L133.005 24.586H133.033L134.979 19.448H136.169L133.005 27.498ZM143.202 24.81C142.81 25.314 142.381 25.6687 141.914 25.874C141.448 26.07 140.906 26.168 140.29 26.168C139.777 26.168 139.315 26.0793 138.904 25.902C138.494 25.7153 138.144 25.468 137.854 25.16C137.574 24.852 137.355 24.488 137.196 24.068C137.047 23.648 136.972 23.2 136.972 22.724C136.972 22.22 137.056 21.758 137.224 21.338C137.392 20.9087 137.626 20.5447 137.924 20.246C138.223 19.938 138.578 19.7 138.988 19.532C139.399 19.364 139.847 19.28 140.332 19.28C140.79 19.28 141.21 19.3593 141.592 19.518C141.975 19.6673 142.302 19.8913 142.572 20.19C142.852 20.4793 143.067 20.8387 143.216 21.268C143.366 21.688 143.44 22.1687 143.44 22.71V23.06H138.148C138.167 23.34 138.232 23.6107 138.344 23.872C138.466 24.124 138.62 24.348 138.806 24.544C138.993 24.7307 139.212 24.88 139.464 24.992C139.716 25.104 139.992 25.16 140.29 25.16C140.766 25.16 141.168 25.076 141.494 24.908C141.821 24.74 142.115 24.4927 142.376 24.166L143.202 24.81ZM142.264 22.136C142.246 21.576 142.064 21.128 141.718 20.792C141.373 20.456 140.897 20.288 140.29 20.288C139.684 20.288 139.194 20.456 138.82 20.792C138.447 21.128 138.223 21.576 138.148 22.136H142.264ZM150.982 24.81C150.59 25.314 150.16 25.6687 149.694 25.874C149.227 26.07 148.686 26.168 148.07 26.168C147.556 26.168 147.094 26.0793 146.684 25.902C146.273 25.7153 145.923 25.468 145.634 25.16C145.354 24.852 145.134 24.488 144.976 24.068C144.826 23.648 144.752 23.2 144.752 22.724C144.752 22.22 144.836 21.758 145.004 21.338C145.172 20.9087 145.405 20.5447 145.704 20.246C146.002 19.938 146.357 19.7 146.768 19.532C147.178 19.364 147.626 19.28 148.112 19.28C148.569 19.28 148.989 19.3593 149.372 19.518C149.754 19.6673 150.081 19.8913 150.352 20.19C150.632 20.4793 150.846 20.8387 150.996 21.268C151.145 21.688 151.22 22.1687 151.22 22.71V23.06H145.928C145.946 23.34 146.012 23.6107 146.124 23.872C146.245 24.124 146.399 24.348 146.586 24.544C146.772 24.7307 146.992 24.88 147.244 24.992C147.496 25.104 147.771 25.16 148.07 25.16C148.546 25.16 148.947 25.076 149.274 24.908C149.6 24.74 149.894 24.4927 150.156 24.166L150.982 24.81ZM150.044 22.136C150.025 21.576 149.843 21.128 149.498 20.792C149.152 20.456 148.676 20.288 148.07 20.288C147.463 20.288 146.973 20.456 146.6 20.792C146.226 21.128 146.002 21.576 145.928 22.136H150.044ZM156.75 15.416H157.842V20.4H157.87C158.168 20.0453 158.514 19.77 158.906 19.574C159.307 19.378 159.746 19.28 160.222 19.28C160.735 19.28 161.202 19.3687 161.622 19.546C162.051 19.714 162.415 19.952 162.714 20.26C163.012 20.568 163.246 20.932 163.414 21.352C163.582 21.772 163.666 22.2293 163.666 22.724C163.666 23.2187 163.582 23.676 163.414 24.096C163.246 24.516 163.012 24.88 162.714 25.188C162.424 25.496 162.079 25.7387 161.678 25.916C161.276 26.084 160.847 26.168 160.39 26.168C159.802 26.168 159.284 26.042 158.836 25.79C158.397 25.5287 158.075 25.2113 157.87 24.838H157.842V26H156.75V15.416ZM157.842 22.724C157.842 23.0693 157.893 23.3913 157.996 23.69C158.108 23.9793 158.266 24.236 158.472 24.46C158.677 24.6747 158.92 24.8473 159.2 24.978C159.489 25.0993 159.811 25.16 160.166 25.16C160.52 25.16 160.838 25.0993 161.118 24.978C161.407 24.8473 161.654 24.6747 161.86 24.46C162.065 24.236 162.219 23.9793 162.322 23.69C162.434 23.3913 162.49 23.0693 162.49 22.724C162.49 22.3787 162.434 22.0613 162.322 21.772C162.219 21.4733 162.065 21.2167 161.86 21.002C161.654 20.778 161.407 20.6053 161.118 20.484C160.838 20.3533 160.52 20.288 160.166 20.288C159.811 20.288 159.489 20.3533 159.2 20.484C158.92 20.6053 158.677 20.778 158.472 21.002C158.266 21.2167 158.108 21.4733 157.996 21.772C157.893 22.0613 157.842 22.3787 157.842 22.724ZM167.772 27.498C167.66 27.778 167.543 28.03 167.422 28.254C167.31 28.4873 167.17 28.6833 167.002 28.842C166.843 29.01 166.647 29.136 166.414 29.22C166.19 29.3133 165.915 29.36 165.588 29.36C165.429 29.36 165.261 29.3507 165.084 29.332C164.916 29.3133 164.757 29.2667 164.608 29.192L164.748 28.24C164.86 28.2867 164.977 28.3147 165.098 28.324C165.219 28.3427 165.359 28.352 165.518 28.352C165.873 28.352 166.134 28.254 166.302 28.058C166.47 27.862 166.615 27.6007 166.736 27.274L167.184 26.042L164.468 19.448H165.742L167.772 24.586H167.8L169.746 19.448H170.936L167.772 27.498ZM176.015 21.002C176.015 20.7033 176.005 20.4233 175.987 20.162C175.968 19.9007 175.959 19.6627 175.959 19.448H176.995C176.995 19.6253 176.999 19.8027 177.009 19.98C177.018 20.1573 177.023 20.3393 177.023 20.526H177.051C177.125 20.3673 177.228 20.2133 177.359 20.064C177.499 19.9147 177.662 19.784 177.849 19.672C178.035 19.5507 178.245 19.4573 178.479 19.392C178.712 19.3173 178.964 19.28 179.235 19.28C179.664 19.28 180.033 19.3453 180.341 19.476C180.658 19.6067 180.919 19.7887 181.125 20.022C181.33 20.2553 181.479 20.54 181.573 20.876C181.675 21.2027 181.727 21.562 181.727 21.954V26H180.635V22.066C180.635 21.5153 180.513 21.0813 180.271 20.764C180.028 20.4467 179.65 20.288 179.137 20.288C178.782 20.288 178.474 20.3487 178.213 20.47C177.961 20.5913 177.751 20.764 177.583 20.988C177.424 21.212 177.303 21.478 177.219 21.786C177.144 22.094 177.107 22.4347 177.107 22.808V26H176.015V21.002ZM183.71 20.288C184.046 19.9427 184.442 19.6907 184.9 19.532C185.366 19.364 185.838 19.28 186.314 19.28C187.284 19.28 187.984 19.5087 188.414 19.966C188.843 20.4233 189.058 21.1187 189.058 22.052V24.866C189.058 25.0527 189.067 25.2487 189.086 25.454C189.104 25.65 189.128 25.832 189.156 26H188.106C188.068 25.8507 188.045 25.6873 188.036 25.51C188.036 25.3233 188.036 25.16 188.036 25.02H188.008C187.793 25.356 187.504 25.6313 187.14 25.846C186.785 26.0607 186.356 26.168 185.852 26.168C185.516 26.168 185.198 26.126 184.9 26.042C184.61 25.958 184.354 25.8367 184.13 25.678C183.915 25.51 183.742 25.3047 183.612 25.062C183.481 24.8193 183.416 24.5393 183.416 24.222C183.416 23.6807 183.556 23.256 183.836 22.948C184.116 22.64 184.461 22.4113 184.872 22.262C185.292 22.1127 185.74 22.0193 186.216 21.982C186.701 21.9447 187.144 21.926 187.546 21.926H187.966V21.73C187.966 21.254 187.821 20.8947 187.532 20.652C187.252 20.4093 186.855 20.288 186.342 20.288C185.987 20.288 185.637 20.3487 185.292 20.47C184.956 20.582 184.657 20.7593 184.396 21.002L183.71 20.288ZM186.874 22.85C186.174 22.85 185.618 22.948 185.208 23.144C184.797 23.34 184.592 23.662 184.592 24.11C184.592 24.5207 184.727 24.8147 184.998 24.992C185.278 25.16 185.623 25.244 186.034 25.244C186.351 25.244 186.626 25.1927 186.86 25.09C187.102 24.978 187.303 24.8333 187.462 24.656C187.62 24.4787 187.742 24.2733 187.826 24.04C187.91 23.7973 187.956 23.5407 187.966 23.27V22.85H186.874ZM191.054 21.002C191.054 20.7033 191.044 20.4233 191.026 20.162C191.007 19.9007 190.998 19.6627 190.998 19.448H192.034C192.034 19.6253 192.038 19.8027 192.048 19.98C192.057 20.1573 192.062 20.3393 192.062 20.526H192.09C192.164 20.3673 192.267 20.2133 192.398 20.064C192.538 19.9147 192.701 19.784 192.888 19.672C193.074 19.5507 193.284 19.4573 193.518 19.392C193.751 19.3173 194.003 19.28 194.274 19.28C194.628 19.28 194.922 19.3267 195.156 19.42C195.398 19.504 195.599 19.6113 195.758 19.742C195.916 19.8633 196.038 19.9987 196.122 20.148C196.215 20.288 196.29 20.414 196.346 20.526C196.588 20.134 196.868 19.8307 197.186 19.616C197.503 19.392 197.914 19.28 198.418 19.28C198.884 19.28 199.276 19.3453 199.594 19.476C199.911 19.5973 200.168 19.7793 200.364 20.022C200.56 20.2553 200.7 20.5447 200.784 20.89C200.868 21.226 200.91 21.604 200.91 22.024V26H199.818V22.08C199.818 21.856 199.794 21.6367 199.748 21.422C199.701 21.2073 199.617 21.016 199.496 20.848C199.374 20.68 199.211 20.5447 199.006 20.442C198.8 20.3393 198.539 20.288 198.222 20.288C197.988 20.288 197.769 20.3347 197.564 20.428C197.358 20.5213 197.176 20.652 197.018 20.82C196.868 20.988 196.747 21.1933 196.654 21.436C196.57 21.6693 196.528 21.9307 196.528 22.22V26H195.436V22.29C195.436 21.562 195.338 21.0487 195.142 20.75C194.946 20.442 194.624 20.288 194.176 20.288C193.821 20.288 193.513 20.3487 193.252 20.47C193 20.5913 192.79 20.764 192.622 20.988C192.463 21.212 192.342 21.478 192.258 21.786C192.183 22.094 192.146 22.4347 192.146 22.808V26H191.054V21.002ZM208.827 24.81C208.435 25.314 208.006 25.6687 207.539 25.874C207.073 26.07 206.531 26.168 205.915 26.168C205.402 26.168 204.94 26.0793 204.529 25.902C204.119 25.7153 203.769 25.468 203.479 25.16C203.199 24.852 202.98 24.488 202.821 24.068C202.672 23.648 202.597 23.2 202.597 22.724C202.597 22.22 202.681 21.758 202.849 21.338C203.017 20.9087 203.251 20.5447 203.549 20.246C203.848 19.938 204.203 19.7 204.613 19.532C205.024 19.364 205.472 19.28 205.957 19.28C206.415 19.28 206.835 19.3593 207.217 19.518C207.6 19.6673 207.927 19.8913 208.197 20.19C208.477 20.4793 208.692 20.8387 208.841 21.268C208.991 21.688 209.065 22.1687 209.065 22.71V23.06H203.773C203.792 23.34 203.857 23.6107 203.969 23.872C204.091 24.124 204.245 24.348 204.431 24.544C204.618 24.7307 204.837 24.88 205.089 24.992C205.341 25.104 205.617 25.16 205.915 25.16C206.391 25.16 206.793 25.076 207.119 24.908C207.446 24.74 207.74 24.4927 208.001 24.166L208.827 24.81ZM207.889 22.136C207.871 21.576 207.689 21.128 207.343 20.792C206.998 20.456 206.522 20.288 205.915 20.288C205.309 20.288 204.819 20.456 204.445 20.792C204.072 21.128 203.848 21.576 203.773 22.136H207.889ZM211.525 27.932H210.447L211.399 24.572H212.673L211.525 27.932ZM218.548 21.002C218.548 20.7033 218.538 20.4233 218.52 20.162C218.501 19.9007 218.492 19.6627 218.492 19.448H219.528C219.528 19.6253 219.532 19.8027 219.542 19.98C219.551 20.1573 219.556 20.3393 219.556 20.526H219.584C219.658 20.3673 219.761 20.2133 219.892 20.064C220.032 19.9147 220.195 19.784 220.382 19.672C220.568 19.5507 220.778 19.4573 221.012 19.392C221.245 19.3173 221.497 19.28 221.768 19.28C221.842 19.28 221.917 19.2847 221.992 19.294C222.066 19.3033 222.141 19.322 222.216 19.35L222.146 20.456C221.959 20.4 221.763 20.372 221.558 20.372C220.886 20.372 220.396 20.5913 220.088 21.03C219.789 21.4593 219.64 22.052 219.64 22.808V26H218.548V21.002ZM222.846 22.724C222.846 22.2107 222.934 21.744 223.111 21.324C223.289 20.904 223.532 20.5447 223.84 20.246C224.148 19.938 224.516 19.7 224.946 19.532C225.375 19.364 225.842 19.28 226.346 19.28C226.85 19.28 227.316 19.364 227.746 19.532C228.175 19.7 228.544 19.938 228.852 20.246C229.16 20.5447 229.402 20.904 229.579 21.324C229.757 21.744 229.846 22.2107 229.846 22.724C229.846 23.2373 229.757 23.704 229.579 24.124C229.402 24.544 229.16 24.908 228.852 25.216C228.544 25.5147 228.175 25.748 227.746 25.916C227.316 26.084 226.85 26.168 226.346 26.168C225.842 26.168 225.375 26.084 224.946 25.916C224.516 25.748 224.148 25.5147 223.84 25.216C223.532 24.908 223.289 24.544 223.111 24.124C222.934 23.704 222.846 23.2373 222.846 22.724ZM224.022 22.724C224.022 23.0693 224.073 23.3913 224.176 23.69C224.288 23.9793 224.446 24.236 224.652 24.46C224.857 24.6747 225.1 24.8473 225.38 24.978C225.669 25.0993 225.991 25.16 226.346 25.16C226.7 25.16 227.018 25.0993 227.298 24.978C227.587 24.8473 227.834 24.6747 228.04 24.46C228.245 24.236 228.399 23.9793 228.502 23.69C228.614 23.3913 228.67 23.0693 228.67 22.724C228.67 22.3787 228.614 22.0613 228.502 21.772C228.399 21.4733 228.245 21.2167 228.04 21.002C227.834 20.778 227.587 20.6053 227.298 20.484C227.018 20.3533 226.7 20.288 226.346 20.288C225.991 20.288 225.669 20.3533 225.38 20.484C225.1 20.6053 224.857 20.778 224.652 21.002C224.446 21.2167 224.288 21.4733 224.176 21.772C224.073 22.0613 224.022 22.3787 224.022 22.724ZM231.634 15.416H232.726V26H231.634V15.416ZM240.751 24.81C240.359 25.314 239.93 25.6687 239.463 25.874C238.997 26.07 238.455 26.168 237.839 26.168C237.326 26.168 236.864 26.0793 236.453 25.902C236.043 25.7153 235.693 25.468 235.403 25.16C235.123 24.852 234.904 24.488 234.745 24.068C234.596 23.648 234.521 23.2 234.521 22.724C234.521 22.22 234.605 21.758 234.773 21.338C234.941 20.9087 235.175 20.5447 235.473 20.246C235.772 19.938 236.127 19.7 236.537 19.532C236.948 19.364 237.396 19.28 237.881 19.28C238.339 19.28 238.759 19.3593 239.141 19.518C239.524 19.6673 239.851 19.8913 240.121 20.19C240.401 20.4793 240.616 20.8387 240.765 21.268C240.915 21.688 240.989 22.1687 240.989 22.71V23.06H235.697C235.716 23.34 235.781 23.6107 235.893 23.872C236.015 24.124 236.169 24.348 236.355 24.544C236.542 24.7307 236.761 24.88 237.013 24.992C237.265 25.104 237.541 25.16 237.839 25.16C238.315 25.16 238.717 25.076 239.043 24.908C239.37 24.74 239.664 24.4927 239.925 24.166L240.751 24.81ZM239.813 22.136C239.795 21.576 239.613 21.128 239.267 20.792C238.922 20.456 238.446 20.288 237.839 20.288C237.233 20.288 236.743 20.456 236.369 20.792C235.996 21.128 235.772 21.576 235.697 22.136H239.813ZM243.449 27.932H242.371L243.323 24.572H244.597L243.449 27.932ZM250.668 16.088H251.844V26H250.668V16.088ZM254.122 16.088H257.93C258.257 16.088 258.602 16.1253 258.966 16.2C259.33 16.2747 259.69 16.396 260.044 16.564C260.408 16.7227 260.754 16.9327 261.08 17.194C261.416 17.4553 261.71 17.7727 261.962 18.146C262.214 18.51 262.415 18.9347 262.564 19.42C262.714 19.896 262.788 20.4373 262.788 21.044C262.788 21.6507 262.714 22.1967 262.564 22.682C262.415 23.158 262.214 23.5827 261.962 23.956C261.71 24.32 261.416 24.6327 261.08 24.894C260.754 25.1553 260.408 25.37 260.044 25.538C259.69 25.6967 259.33 25.8133 258.966 25.888C258.602 25.9627 258.257 26 257.93 26H254.122V16.088ZM255.298 24.908H257.538C258.108 24.908 258.635 24.8333 259.12 24.684C259.606 24.5347 260.026 24.306 260.38 23.998C260.735 23.6807 261.015 23.2793 261.22 22.794C261.426 22.3087 261.528 21.7253 261.528 21.044C261.528 20.3627 261.426 19.7793 261.22 19.294C261.015 18.8087 260.735 18.412 260.38 18.104C260.026 17.7867 259.606 17.5533 259.12 17.404C258.635 17.2547 258.108 17.18 257.538 17.18H255.298V24.908ZM268.004 22.724C268.004 22.2107 268.092 21.744 268.27 21.324C268.447 20.904 268.69 20.5447 268.998 20.246C269.306 19.938 269.674 19.7 270.104 19.532C270.533 19.364 271 19.28 271.504 19.28C272.008 19.28 272.474 19.364 272.904 19.532C273.333 19.7 273.702 19.938 274.01 20.246C274.318 20.5447 274.56 20.904 274.738 21.324C274.915 21.744 275.004 22.2107 275.004 22.724C275.004 23.2373 274.915 23.704 274.738 24.124C274.56 24.544 274.318 24.908 274.01 25.216C273.702 25.5147 273.333 25.748 272.904 25.916C272.474 26.084 272.008 26.168 271.504 26.168C271 26.168 270.533 26.084 270.104 25.916C269.674 25.748 269.306 25.5147 268.998 25.216C268.69 24.908 268.447 24.544 268.27 24.124C268.092 23.704 268.004 23.2373 268.004 22.724ZM269.18 22.724C269.18 23.0693 269.231 23.3913 269.334 23.69C269.446 23.9793 269.604 24.236 269.81 24.46C270.015 24.6747 270.258 24.8473 270.538 24.978C270.827 25.0993 271.149 25.16 271.504 25.16C271.858 25.16 272.176 25.0993 272.456 24.978C272.745 24.8473 272.992 24.6747 273.198 24.46C273.403 24.236 273.557 23.9793 273.66 23.69C273.772 23.3913 273.828 23.0693 273.828 22.724C273.828 22.3787 273.772 22.0613 273.66 21.772C273.557 21.4733 273.403 21.2167 273.198 21.002C272.992 20.778 272.745 20.6053 272.456 20.484C272.176 20.3533 271.858 20.288 271.504 20.288C271.149 20.288 270.827 20.3533 270.538 20.484C270.258 20.6053 270.015 20.778 269.81 21.002C269.604 21.2167 269.446 21.4733 269.334 21.772C269.231 22.0613 269.18 22.3787 269.18 22.724ZM276.694 21.002C276.694 20.7033 276.685 20.4233 276.666 20.162C276.648 19.9007 276.638 19.6627 276.638 19.448H277.674C277.674 19.6253 277.679 19.8027 277.688 19.98C277.698 20.1573 277.702 20.3393 277.702 20.526H277.73C277.805 20.3673 277.908 20.2133 278.038 20.064C278.178 19.9147 278.342 19.784 278.528 19.672C278.715 19.5507 278.925 19.4573 279.158 19.392C279.392 19.3173 279.644 19.28 279.914 19.28C279.989 19.28 280.064 19.2847 280.138 19.294C280.213 19.3033 280.288 19.322 280.362 19.35L280.292 20.456C280.106 20.4 279.91 20.372 279.704 20.372C279.032 20.372 278.542 20.5913 278.234 21.03C277.936 21.4593 277.786 22.052 277.786 22.808V26H276.694V21.002ZM285.429 20.288C285.765 19.9427 286.161 19.6907 286.619 19.532C287.085 19.364 287.557 19.28 288.033 19.28C289.003 19.28 289.703 19.5087 290.133 19.966C290.562 20.4233 290.777 21.1187 290.777 22.052V24.866C290.777 25.0527 290.786 25.2487 290.805 25.454C290.823 25.65 290.847 25.832 290.875 26H289.825C289.787 25.8507 289.764 25.6873 289.755 25.51C289.755 25.3233 289.755 25.16 289.755 25.02H289.727C289.512 25.356 289.223 25.6313 288.859 25.846C288.504 26.0607 288.075 26.168 287.571 26.168C287.235 26.168 286.917 26.126 286.619 26.042C286.329 25.958 286.073 25.8367 285.849 25.678C285.634 25.51 285.461 25.3047 285.331 25.062C285.2 24.8193 285.135 24.5393 285.135 24.222C285.135 23.6807 285.275 23.256 285.555 22.948C285.835 22.64 286.18 22.4113 286.591 22.262C287.011 22.1127 287.459 22.0193 287.935 21.982C288.42 21.9447 288.863 21.926 289.265 21.926H289.685V21.73C289.685 21.254 289.54 20.8947 289.251 20.652C288.971 20.4093 288.574 20.288 288.061 20.288C287.706 20.288 287.356 20.3487 287.011 20.47C286.675 20.582 286.376 20.7593 286.115 21.002L285.429 20.288ZM288.593 22.85C287.893 22.85 287.337 22.948 286.927 23.144C286.516 23.34 286.311 23.662 286.311 24.11C286.311 24.5207 286.446 24.8147 286.717 24.992C286.997 25.16 287.342 25.244 287.753 25.244C288.07 25.244 288.345 25.1927 288.579 25.09C288.821 24.978 289.022 24.8333 289.181 24.656C289.339 24.4787 289.461 24.2733 289.545 24.04C289.629 23.7973 289.675 23.5407 289.685 23.27V22.85H288.593ZM292.772 21.002C292.772 20.7033 292.763 20.4233 292.744 20.162C292.726 19.9007 292.716 19.6627 292.716 19.448H293.752C293.752 19.6253 293.757 19.8027 293.766 19.98C293.776 20.1573 293.78 20.3393 293.78 20.526H293.808C293.883 20.3673 293.986 20.2133 294.116 20.064C294.256 19.9147 294.42 19.784 294.606 19.672C294.793 19.5507 295.003 19.4573 295.236 19.392C295.47 19.3173 295.722 19.28 295.992 19.28C296.422 19.28 296.79 19.3453 297.098 19.476C297.416 19.6067 297.677 19.7887 297.882 20.022C298.088 20.2553 298.237 20.54 298.33 20.876C298.433 21.2027 298.484 21.562 298.484 21.954V26H297.392V22.066C297.392 21.5153 297.271 21.0813 297.028 20.764C296.786 20.4467 296.408 20.288 295.894 20.288C295.54 20.288 295.232 20.3487 294.97 20.47C294.718 20.5913 294.508 20.764 294.34 20.988C294.182 21.212 294.06 21.478 293.976 21.786C293.902 22.094 293.864 22.4347 293.864 22.808V26H292.772V21.002ZM302.96 27.498C302.848 27.778 302.731 28.03 302.61 28.254C302.498 28.4873 302.358 28.6833 302.19 28.842C302.031 29.01 301.835 29.136 301.602 29.22C301.378 29.3133 301.102 29.36 300.776 29.36C300.617 29.36 300.449 29.3507 300.272 29.332C300.104 29.3133 299.945 29.2667 299.796 29.192L299.936 28.24C300.048 28.2867 300.164 28.3147 300.286 28.324C300.407 28.3427 300.547 28.352 300.706 28.352C301.06 28.352 301.322 28.254 301.49 28.058C301.658 27.862 301.802 27.6007 301.924 27.274L302.372 26.042L299.656 19.448H300.93L302.96 24.586H302.988L304.934 19.448H306.124L302.96 27.498ZM311.202 21.002C311.202 20.7033 311.193 20.4233 311.174 20.162C311.155 19.9007 311.146 19.6627 311.146 19.448H312.182C312.182 19.6253 312.187 19.8027 312.196 19.98C312.205 20.1573 312.21 20.3393 312.21 20.526H312.238C312.313 20.3673 312.415 20.2133 312.546 20.064C312.686 19.9147 312.849 19.784 313.036 19.672C313.223 19.5507 313.433 19.4573 313.666 19.392C313.899 19.3173 314.151 19.28 314.422 19.28C314.497 19.28 314.571 19.2847 314.646 19.294C314.721 19.3033 314.795 19.322 314.87 19.35L314.8 20.456C314.613 20.4 314.417 20.372 314.212 20.372C313.54 20.372 313.05 20.5913 312.742 21.03C312.443 21.4593 312.294 22.052 312.294 22.808V26H311.202V21.002ZM321.73 24.81C321.338 25.314 320.908 25.6687 320.442 25.874C319.975 26.07 319.434 26.168 318.818 26.168C318.304 26.168 317.842 26.0793 317.432 25.902C317.021 25.7153 316.671 25.468 316.382 25.16C316.102 24.852 315.882 24.488 315.724 24.068C315.574 23.648 315.5 23.2 315.5 22.724C315.5 22.22 315.584 21.758 315.752 21.338C315.92 20.9087 316.153 20.5447 316.452 20.246C316.75 19.938 317.105 19.7 317.516 19.532C317.926 19.364 318.374 19.28 318.86 19.28C319.317 19.28 319.737 19.3593 320.12 19.518C320.502 19.6673 320.829 19.8913 321.1 20.19C321.38 20.4793 321.594 20.8387 321.744 21.268C321.893 21.688 321.968 22.1687 321.968 22.71V23.06H316.676C316.694 23.34 316.76 23.6107 316.872 23.872C316.993 24.124 317.147 24.348 317.334 24.544C317.52 24.7307 317.74 24.88 317.992 24.992C318.244 25.104 318.519 25.16 318.818 25.16C319.294 25.16 319.695 25.076 320.022 24.908C320.348 24.74 320.642 24.4927 320.904 24.166L321.73 24.81ZM320.792 22.136C320.773 21.576 320.591 21.128 320.246 20.792C319.9 20.456 319.424 20.288 318.818 20.288C318.211 20.288 317.721 20.456 317.348 20.792C316.974 21.128 316.75 21.576 316.676 22.136H320.792ZM323.755 15.416H324.847V26H323.755V15.416ZM326.936 20.288C327.272 19.9427 327.669 19.6907 328.126 19.532C328.593 19.364 329.064 19.28 329.54 19.28C330.511 19.28 331.211 19.5087 331.64 19.966C332.07 20.4233 332.284 21.1187 332.284 22.052V24.866C332.284 25.0527 332.294 25.2487 332.312 25.454C332.331 25.65 332.354 25.832 332.382 26H331.332C331.295 25.8507 331.272 25.6873 331.262 25.51C331.262 25.3233 331.262 25.16 331.262 25.02H331.234C331.02 25.356 330.73 25.6313 330.366 25.846C330.012 26.0607 329.582 26.168 329.078 26.168C328.742 26.168 328.425 26.126 328.126 26.042C327.837 25.958 327.58 25.8367 327.356 25.678C327.142 25.51 326.969 25.3047 326.838 25.062C326.708 24.8193 326.642 24.5393 326.642 24.222C326.642 23.6807 326.782 23.256 327.062 22.948C327.342 22.64 327.688 22.4113 328.098 22.262C328.518 22.1127 328.966 22.0193 329.442 21.982C329.928 21.9447 330.371 21.926 330.772 21.926H331.192V21.73C331.192 21.254 331.048 20.8947 330.758 20.652C330.478 20.4093 330.082 20.288 329.568 20.288C329.214 20.288 328.864 20.3487 328.518 20.47C328.182 20.582 327.884 20.7593 327.622 21.002L326.936 20.288ZM330.1 22.85C329.4 22.85 328.845 22.948 328.434 23.144C328.024 23.34 327.818 23.662 327.818 24.11C327.818 24.5207 327.954 24.8147 328.224 24.992C328.504 25.16 328.85 25.244 329.26 25.244C329.578 25.244 329.853 25.1927 330.086 25.09C330.329 24.978 330.53 24.8333 330.688 24.656C330.847 24.4787 330.968 24.2733 331.052 24.04C331.136 23.7973 331.183 23.5407 331.192 23.27V22.85H330.1ZM337.864 20.372H335.932V23.648C335.932 23.8627 335.937 24.0633 335.946 24.25C335.955 24.4273 335.993 24.586 336.058 24.726C336.123 24.8567 336.221 24.964 336.352 25.048C336.483 25.1227 336.669 25.16 336.912 25.16C337.071 25.16 337.234 25.1413 337.402 25.104C337.57 25.0667 337.729 25.0107 337.878 24.936L337.92 25.93C337.733 26.014 337.523 26.0747 337.29 26.112C337.066 26.1493 336.851 26.168 336.646 26.168C336.254 26.168 335.941 26.1167 335.708 26.014C335.475 25.9113 335.293 25.7667 335.162 25.58C335.031 25.3933 334.943 25.1647 334.896 24.894C334.859 24.614 334.84 24.306 334.84 23.97V20.372H333.412V19.448H334.84V17.586H335.932V19.448H337.864V20.372ZM345.054 24.81C344.662 25.314 344.233 25.6687 343.766 25.874C343.299 26.07 342.758 26.168 342.142 26.168C341.629 26.168 341.167 26.0793 340.756 25.902C340.345 25.7153 339.995 25.468 339.706 25.16C339.426 24.852 339.207 24.488 339.048 24.068C338.899 23.648 338.824 23.2 338.824 22.724C338.824 22.22 338.908 21.758 339.076 21.338C339.244 20.9087 339.477 20.5447 339.776 20.246C340.075 19.938 340.429 19.7 340.84 19.532C341.251 19.364 341.699 19.28 342.184 19.28C342.641 19.28 343.061 19.3593 343.444 19.518C343.827 19.6673 344.153 19.8913 344.424 20.19C344.704 20.4793 344.919 20.8387 345.068 21.268C345.217 21.688 345.292 22.1687 345.292 22.71V23.06H340C340.019 23.34 340.084 23.6107 340.196 23.872C340.317 24.124 340.471 24.348 340.658 24.544C340.845 24.7307 341.064 24.88 341.316 24.992C341.568 25.104 341.843 25.16 342.142 25.16C342.618 25.16 343.019 25.076 343.346 24.908C343.673 24.74 343.967 24.4927 344.228 24.166L345.054 24.81ZM344.116 22.136C344.097 21.576 343.915 21.128 343.57 20.792C343.225 20.456 342.749 20.288 342.142 20.288C341.535 20.288 341.045 20.456 340.672 20.792C340.299 21.128 340.075 21.576 340 22.136H344.116ZM352.427 24.838H352.399C352.194 25.2113 351.867 25.5287 351.419 25.79C350.981 26.042 350.467 26.168 349.879 26.168C349.422 26.168 348.993 26.084 348.591 25.916C348.19 25.7387 347.84 25.496 347.541 25.188C347.252 24.88 347.023 24.516 346.855 24.096C346.687 23.676 346.603 23.2187 346.603 22.724C346.603 22.2293 346.687 21.772 346.855 21.352C347.023 20.932 347.257 20.568 347.555 20.26C347.854 19.952 348.213 19.714 348.633 19.546C349.063 19.3687 349.534 19.28 350.047 19.28C350.523 19.28 350.957 19.378 351.349 19.574C351.751 19.77 352.101 20.0453 352.399 20.4H352.427V15.416H353.519V26H352.427V24.838ZM352.427 22.724C352.427 22.3787 352.371 22.0613 352.259 21.772C352.157 21.4733 352.003 21.2167 351.797 21.002C351.592 20.778 351.345 20.6053 351.055 20.484C350.775 20.3533 350.458 20.288 350.103 20.288C349.749 20.288 349.427 20.3533 349.137 20.484C348.857 20.6053 348.615 20.778 348.409 21.002C348.204 21.2167 348.045 21.4733 347.933 21.772C347.831 22.0613 347.779 22.3787 347.779 22.724C347.779 23.0693 347.831 23.3913 347.933 23.69C348.045 23.9793 348.204 24.236 348.409 24.46C348.615 24.6747 348.857 24.8473 349.137 24.978C349.427 25.0993 349.749 25.16 350.103 25.16C350.458 25.16 350.775 25.0993 351.055 24.978C351.345 24.8473 351.592 24.6747 351.797 24.46C352.003 24.236 352.157 23.9793 352.259 23.69C352.371 23.3913 352.427 23.0693 352.427 22.724ZM359.436 15.416H360.528V22.332L363.51 19.448H365.064L361.9 22.43L365.386 26H363.776L360.528 22.556V26H359.436V15.416ZM372.288 24.81C371.896 25.314 371.467 25.6687 371 25.874C370.534 26.07 369.992 26.168 369.376 26.168C368.863 26.168 368.401 26.0793 367.99 25.902C367.58 25.7153 367.23 25.468 366.94 25.16C366.66 24.852 366.441 24.488 366.282 24.068C366.133 23.648 366.058 23.2 366.058 22.724C366.058 22.22 366.142 21.758 366.31 21.338C366.478 20.9087 366.712 20.5447 367.01 20.246C367.309 19.938 367.664 19.7 368.074 19.532C368.485 19.364 368.933 19.28 369.418 19.28C369.876 19.28 370.296 19.3593 370.678 19.518C371.061 19.6673 371.388 19.8913 371.658 20.19C371.938 20.4793 372.153 20.8387 372.302 21.268C372.452 21.688 372.526 22.1687 372.526 22.71V23.06H367.234C367.253 23.34 367.318 23.6107 367.43 23.872C367.552 24.124 367.706 24.348 367.892 24.544C368.079 24.7307 368.298 24.88 368.55 24.992C368.802 25.104 369.078 25.16 369.376 25.16C369.852 25.16 370.254 25.076 370.58 24.908C370.907 24.74 371.201 24.4927 371.462 24.166L372.288 24.81ZM371.35 22.136C371.332 21.576 371.15 21.128 370.804 20.792C370.459 20.456 369.983 20.288 369.376 20.288C368.77 20.288 368.28 20.456 367.906 20.792C367.533 21.128 367.309 21.576 367.234 22.136H371.35ZM376.624 27.498C376.512 27.778 376.395 28.03 376.274 28.254C376.162 28.4873 376.022 28.6833 375.854 28.842C375.695 29.01 375.499 29.136 375.266 29.22C375.042 29.3133 374.766 29.36 374.44 29.36C374.281 29.36 374.113 29.3507 373.936 29.332C373.768 29.3133 373.609 29.2667 373.46 29.192L373.6 28.24C373.712 28.2867 373.828 28.3147 373.95 28.324C374.071 28.3427 374.211 28.352 374.37 28.352C374.724 28.352 374.986 28.254 375.154 28.058C375.322 27.862 375.466 27.6007 375.588 27.274L376.036 26.042L373.32 19.448H374.594L376.624 24.586H376.652L378.598 19.448H379.788L376.624 27.498ZM387.998 26H386.92L385.058 20.96H385.03L383.378 26H382.258L380.13 19.448H381.334L382.832 24.488H382.86L384.554 19.448H385.702L387.424 24.488H387.452L388.936 19.448H390.112L387.998 26ZM390.969 22.724C390.969 22.2107 391.057 21.744 391.235 21.324C391.412 20.904 391.655 20.5447 391.963 20.246C392.271 19.938 392.639 19.7 393.069 19.532C393.498 19.364 393.965 19.28 394.469 19.28C394.973 19.28 395.439 19.364 395.869 19.532C396.298 19.7 396.667 19.938 396.975 20.246C397.283 20.5447 397.525 20.904 397.703 21.324C397.88 21.744 397.969 22.2107 397.969 22.724C397.969 23.2373 397.88 23.704 397.703 24.124C397.525 24.544 397.283 24.908 396.975 25.216C396.667 25.5147 396.298 25.748 395.869 25.916C395.439 26.084 394.973 26.168 394.469 26.168C393.965 26.168 393.498 26.084 393.069 25.916C392.639 25.748 392.271 25.5147 391.963 25.216C391.655 24.908 391.412 24.544 391.235 24.124C391.057 23.704 390.969 23.2373 390.969 22.724ZM392.145 22.724C392.145 23.0693 392.196 23.3913 392.299 23.69C392.411 23.9793 392.569 24.236 392.775 24.46C392.98 24.6747 393.223 24.8473 393.503 24.978C393.792 25.0993 394.114 25.16 394.469 25.16C394.823 25.16 395.141 25.0993 395.421 24.978C395.71 24.8473 395.957 24.6747 396.163 24.46C396.368 24.236 396.522 23.9793 396.625 23.69C396.737 23.3913 396.793 23.0693 396.793 22.724C396.793 22.3787 396.737 22.0613 396.625 21.772C396.522 21.4733 396.368 21.2167 396.163 21.002C395.957 20.778 395.71 20.6053 395.421 20.484C395.141 20.3533 394.823 20.288 394.469 20.288C394.114 20.288 393.792 20.3533 393.503 20.484C393.223 20.6053 392.98 20.778 392.775 21.002C392.569 21.2167 392.411 21.4733 392.299 21.772C392.196 22.0613 392.145 22.3787 392.145 22.724ZM399.659 21.002C399.659 20.7033 399.65 20.4233 399.631 20.162C399.612 19.9007 399.603 19.6627 399.603 19.448H400.639C400.639 19.6253 400.644 19.8027 400.653 19.98C400.662 20.1573 400.667 20.3393 400.667 20.526H400.695C400.77 20.3673 400.872 20.2133 401.003 20.064C401.143 19.9147 401.306 19.784 401.493 19.672C401.68 19.5507 401.89 19.4573 402.123 19.392C402.356 19.3173 402.608 19.28 402.879 19.28C402.954 19.28 403.028 19.2847 403.103 19.294C403.178 19.3033 403.252 19.322 403.327 19.35L403.257 20.456C403.07 20.4 402.874 20.372 402.669 20.372C401.997 20.372 401.507 20.5913 401.199 21.03C400.9 21.4593 400.751 22.052 400.751 22.808V26H399.659V21.002ZM409.781 24.838H409.753C409.547 25.2113 409.221 25.5287 408.773 25.79C408.334 26.042 407.821 26.168 407.233 26.168C406.775 26.168 406.346 26.084 405.945 25.916C405.543 25.7387 405.193 25.496 404.895 25.188C404.605 24.88 404.377 24.516 404.209 24.096C404.041 23.676 403.957 23.2187 403.957 22.724C403.957 22.2293 404.041 21.772 404.209 21.352C404.377 20.932 404.61 20.568 404.909 20.26C405.207 19.952 405.567 19.714 405.987 19.546C406.416 19.3687 406.887 19.28 407.401 19.28C407.877 19.28 408.311 19.378 408.703 19.574C409.104 19.77 409.454 20.0453 409.753 20.4H409.781V15.416H410.873V26H409.781V24.838ZM409.781 22.724C409.781 22.3787 409.725 22.0613 409.613 21.772C409.51 21.4733 409.356 21.2167 409.151 21.002C408.945 20.778 408.698 20.6053 408.409 20.484C408.129 20.3533 407.811 20.288 407.457 20.288C407.102 20.288 406.78 20.3533 406.491 20.484C406.211 20.6053 405.968 20.778 405.763 21.002C405.557 21.2167 405.399 21.4733 405.287 21.772C405.184 22.0613 405.133 22.3787 405.133 22.724C405.133 23.0693 405.184 23.3913 405.287 23.69C405.399 23.9793 405.557 24.236 405.763 24.46C405.968 24.6747 406.211 24.8473 406.491 24.978C406.78 25.0993 407.102 25.16 407.457 25.16C407.811 25.16 408.129 25.0993 408.409 24.978C408.698 24.8473 408.945 24.6747 409.151 24.46C409.356 24.236 409.51 23.9793 409.613 23.69C409.725 23.3913 409.781 23.0693 409.781 22.724ZM413.033 24.278C413.248 24.5487 413.481 24.7633 413.733 24.922C413.995 25.0807 414.321 25.16 414.713 25.16C414.881 25.16 415.049 25.1413 415.217 25.104C415.395 25.0667 415.553 25.006 415.693 24.922C415.833 24.838 415.945 24.7353 416.029 24.614C416.113 24.4833 416.155 24.3293 416.155 24.152C416.155 23.9747 416.113 23.83 416.029 23.718C415.955 23.606 415.852 23.5127 415.721 23.438C415.591 23.354 415.441 23.2887 415.273 23.242C415.105 23.1953 414.933 23.1533 414.755 23.116C414.447 23.0507 414.153 22.976 413.873 22.892C413.593 22.808 413.346 22.7007 413.131 22.57C412.926 22.43 412.758 22.2527 412.627 22.038C412.506 21.8233 412.445 21.548 412.445 21.212C412.445 20.8947 412.515 20.6147 412.655 20.372C412.795 20.1293 412.982 19.9287 413.215 19.77C413.449 19.6113 413.71 19.49 413.999 19.406C414.289 19.322 414.587 19.28 414.895 19.28C415.362 19.28 415.791 19.3733 416.183 19.56C416.585 19.7467 416.897 20.05 417.121 20.47L416.211 21.072C416.071 20.8387 415.885 20.652 415.651 20.512C415.427 20.3627 415.152 20.288 414.825 20.288C414.676 20.288 414.522 20.3067 414.363 20.344C414.214 20.3813 414.079 20.4373 413.957 20.512C413.836 20.5867 413.733 20.6847 413.649 20.806C413.575 20.918 413.537 21.0487 413.537 21.198C413.537 21.338 413.579 21.4593 413.663 21.562C413.757 21.6553 413.878 21.7393 414.027 21.814C414.186 21.8887 414.363 21.954 414.559 22.01C414.765 22.066 414.975 22.1127 415.189 22.15C415.479 22.206 415.754 22.2807 416.015 22.374C416.277 22.458 416.505 22.5747 416.701 22.724C416.897 22.8733 417.051 23.06 417.163 23.284C417.275 23.508 417.331 23.7833 417.331 24.11C417.331 24.4833 417.257 24.8007 417.107 25.062C416.958 25.3233 416.757 25.538 416.505 25.706C416.263 25.8647 415.983 25.9813 415.665 26.056C415.357 26.1307 415.04 26.168 414.713 26.168C414.153 26.168 413.668 26.084 413.257 25.916C412.856 25.7387 412.492 25.4167 412.165 24.95L413.033 24.278Z" fill="#333333"/>
</svg>
