<svg width="126" height="44" viewBox="0 0 126 44" fill="none" xmlns="http://www.w3.org/2000/svg">
<mask id="path-1-inside-1_1_6419" fill="white">
<path d="M0 0H126V44H0V0Z"/>
</mask>
<path d="M0 0H126V44H0V0Z" fill="#FAFBFB"/>
<path d="M126 43H0V45H126V43Z" fill="#EAECF0" mask="url(#path-1-inside-1_1_6419)"/>
<path d="M29.7188 19.5653C29.6733 19.1619 29.4858 18.8494 29.1562 18.6278C28.8267 18.4034 28.4119 18.2912 27.9119 18.2912C27.554 18.2912 27.2443 18.348 26.983 18.4616C26.7216 18.5724 26.5185 18.7259 26.3736 18.9219C26.2315 19.1151 26.1605 19.3352 26.1605 19.5824C26.1605 19.7898 26.2088 19.9687 26.3054 20.1193C26.4048 20.2699 26.5341 20.3963 26.6932 20.4986C26.8551 20.598 27.0284 20.6818 27.2131 20.75C27.3977 20.8153 27.5753 20.8693 27.7457 20.9119L28.598 21.1335C28.8764 21.2017 29.1619 21.294 29.4545 21.4105C29.7472 21.527 30.0185 21.6804 30.2685 21.8707C30.5185 22.0611 30.7202 22.2969 30.8736 22.5781C31.0298 22.8594 31.108 23.196 31.108 23.5881C31.108 24.0824 30.9801 24.5213 30.7244 24.9048C30.4716 25.2884 30.1037 25.5909 29.6207 25.8125C29.1406 26.0341 28.5597 26.1449 27.8778 26.1449C27.2244 26.1449 26.6591 26.0412 26.1818 25.8338C25.7045 25.6264 25.331 25.3324 25.0611 24.9517C24.7912 24.5682 24.642 24.1136 24.6136 23.5881H25.9347C25.9602 23.9034 26.0625 24.1662 26.2415 24.3764C26.4233 24.5838 26.6548 24.7386 26.9361 24.8409C27.2202 24.9403 27.5312 24.9901 27.8693 24.9901C28.2415 24.9901 28.5724 24.9318 28.8622 24.8153C29.1548 24.696 29.3849 24.5312 29.5526 24.321C29.7202 24.108 29.804 23.8594 29.804 23.5753C29.804 23.3168 29.7301 23.1051 29.5824 22.9403C29.4375 22.7756 29.2401 22.6392 28.9901 22.5312C28.7429 22.4233 28.4631 22.3281 28.1506 22.2457L27.1193 21.9645C26.4205 21.7741 25.8665 21.4943 25.4574 21.125C25.0511 20.7557 24.848 20.267 24.848 19.6591C24.848 19.1562 24.9844 18.7173 25.2571 18.3423C25.5298 17.9673 25.8991 17.6761 26.3651 17.4688C26.831 17.2585 27.3565 17.1534 27.9418 17.1534C28.5327 17.1534 29.054 17.2571 29.5057 17.4645C29.9602 17.6719 30.3182 17.9574 30.5795 18.321C30.8409 18.6818 30.9773 19.0966 30.9886 19.5653H29.7188ZM35.6346 19.4545V20.4773H32.0593V19.4545H35.6346ZM33.0181 17.8864H34.2923V24.0781C34.2923 24.3253 34.3292 24.5114 34.4031 24.6364C34.4769 24.7585 34.5721 24.8423 34.6886 24.8878C34.8079 24.9304 34.9371 24.9517 35.0763 24.9517C35.1786 24.9517 35.2681 24.9446 35.3448 24.9304C35.4215 24.9162 35.4812 24.9048 35.5238 24.8963L35.7539 25.9489C35.68 25.9773 35.5749 26.0057 35.4386 26.0341C35.3022 26.0653 35.1317 26.0824 34.9272 26.0852C34.592 26.0909 34.2795 26.0312 33.9897 25.9062C33.6999 25.7812 33.4656 25.5881 33.2866 25.3267C33.1076 25.0653 33.0181 24.7372 33.0181 24.3423V17.8864ZM38.9489 26.1449C38.5341 26.1449 38.1591 26.0682 37.8239 25.9148C37.4886 25.7585 37.223 25.5327 37.027 25.2372C36.8338 24.9418 36.7372 24.5795 36.7372 24.1506C36.7372 23.7812 36.8082 23.4773 36.9503 23.2386C37.0923 23 37.2841 22.8111 37.5256 22.6719C37.767 22.5327 38.0369 22.4276 38.3352 22.3565C38.6335 22.2855 38.9375 22.2315 39.2472 22.1946C39.6392 22.1491 39.9574 22.1122 40.2017 22.0838C40.446 22.0526 40.6236 22.0028 40.7344 21.9347C40.8452 21.8665 40.9006 21.7557 40.9006 21.6023V21.5724C40.9006 21.2003 40.7955 20.9119 40.5852 20.7074C40.3778 20.5028 40.0682 20.4006 39.6562 20.4006C39.2273 20.4006 38.8892 20.4957 38.642 20.6861C38.3977 20.8736 38.2287 21.0824 38.1349 21.3125L36.9375 21.0398C37.0795 20.642 37.2869 20.321 37.5597 20.0767C37.8352 19.8295 38.152 19.6506 38.5099 19.5398C38.8679 19.4261 39.2443 19.3693 39.6392 19.3693C39.9006 19.3693 40.1776 19.4006 40.4702 19.4631C40.7656 19.5227 41.0412 19.6335 41.2969 19.7955C41.5554 19.9574 41.767 20.1889 41.9318 20.4901C42.0966 20.7884 42.179 21.1761 42.179 21.6534V26H40.9347V25.1051H40.8835C40.8011 25.2699 40.6776 25.4318 40.5128 25.5909C40.348 25.75 40.1364 25.8821 39.8778 25.9872C39.6193 26.0923 39.3097 26.1449 38.9489 26.1449ZM39.2259 25.1222C39.5781 25.1222 39.8793 25.0526 40.1293 24.9134C40.3821 24.7741 40.5739 24.5923 40.7045 24.3679C40.8381 24.1406 40.9048 23.8977 40.9048 23.6392V22.7955C40.8594 22.8409 40.7713 22.8835 40.6406 22.9233C40.5128 22.9602 40.3665 22.9929 40.2017 23.0213C40.0369 23.0469 39.8764 23.071 39.7202 23.0938C39.5639 23.1136 39.4332 23.1307 39.3281 23.1449C39.081 23.1761 38.8551 23.2287 38.6506 23.3026C38.4489 23.3764 38.2869 23.483 38.1648 23.6222C38.0455 23.7585 37.9858 23.9403 37.9858 24.1676C37.9858 24.483 38.1023 24.7216 38.3352 24.8835C38.5682 25.0426 38.8651 25.1222 39.2259 25.1222ZM46.9315 19.4545V20.4773H43.3562V19.4545H46.9315ZM44.315 17.8864H45.5891V24.0781C45.5891 24.3253 45.6261 24.5114 45.6999 24.6364C45.7738 24.7585 45.869 24.8423 45.9854 24.8878C46.1048 24.9304 46.234 24.9517 46.3732 24.9517C46.4755 24.9517 46.565 24.9446 46.6417 24.9304C46.7184 24.9162 46.7781 24.9048 46.8207 24.8963L47.0508 25.9489C46.9769 25.9773 46.8718 26.0057 46.7354 26.0341C46.5991 26.0653 46.4286 26.0824 46.2241 26.0852C45.8888 26.0909 45.5763 26.0312 45.2866 25.9062C44.9968 25.7812 44.7624 25.5881 44.5835 25.3267C44.4045 25.0653 44.315 24.7372 44.315 24.3423V17.8864ZM52.4872 23.2855V19.4545H53.7656V26H52.5128V24.8665H52.4446C52.294 25.2159 52.0526 25.5071 51.7202 25.7401C51.3906 25.9702 50.9801 26.0852 50.4886 26.0852C50.0682 26.0852 49.696 25.9929 49.3722 25.8082C49.0511 25.6207 48.7983 25.3438 48.6136 24.9773C48.4318 24.6108 48.3409 24.1577 48.3409 23.6179V19.4545H49.6151V23.4645C49.6151 23.9105 49.7386 24.2656 49.9858 24.5298C50.233 24.794 50.554 24.9261 50.9489 24.9261C51.1875 24.9261 51.4247 24.8665 51.6605 24.7472C51.8991 24.6278 52.0966 24.4474 52.2528 24.206C52.4119 23.9645 52.4901 23.6577 52.4872 23.2855ZM60.3825 21.0526L59.2276 21.2571C59.1793 21.1094 59.1026 20.9687 58.9975 20.8352C58.8952 20.7017 58.756 20.5923 58.5799 20.5071C58.4038 20.4219 58.1836 20.3793 57.9194 20.3793C57.5586 20.3793 57.2575 20.4602 57.016 20.6222C56.7745 20.7812 56.6538 20.9872 56.6538 21.2401C56.6538 21.4588 56.7347 21.6349 56.8967 21.7685C57.0586 21.902 57.32 22.0114 57.6808 22.0966L58.7205 22.3352C59.3228 22.4744 59.7717 22.6889 60.0671 22.9787C60.3626 23.2685 60.5103 23.6449 60.5103 24.108C60.5103 24.5 60.3967 24.8494 60.1694 25.1562C59.945 25.4602 59.631 25.6989 59.2276 25.8722C58.8271 26.0455 58.3626 26.1321 57.8342 26.1321C57.1012 26.1321 56.5032 25.9759 56.0401 25.6634C55.5771 25.348 55.293 24.9006 55.1879 24.321L56.4194 24.1335C56.4961 24.4545 56.6538 24.6974 56.8924 24.8622C57.131 25.0241 57.4421 25.1051 57.8256 25.1051C58.2433 25.1051 58.5771 25.0185 58.8271 24.8452C59.0771 24.669 59.2021 24.4545 59.2021 24.2017C59.2021 23.9972 59.1254 23.8253 58.9719 23.6861C58.8214 23.5469 58.5898 23.4418 58.2773 23.3707L57.1694 23.1278C56.5586 22.9886 56.1069 22.767 55.8143 22.4631C55.5245 22.1591 55.3796 21.7741 55.3796 21.3082C55.3796 20.9219 55.4876 20.5838 55.7035 20.294C55.9194 20.0043 56.2177 19.7784 56.5984 19.6165C56.979 19.4517 57.4151 19.3693 57.9066 19.3693C58.614 19.3693 59.1708 19.5227 59.5771 19.8295C59.9833 20.1335 60.2518 20.5412 60.3825 21.0526Z" fill="#42526D"/>
</svg>
