<svg width="126" height="72" viewBox="0 0 126 72" fill="none" xmlns="http://www.w3.org/2000/svg">
<mask id="path-1-inside-1_1_6426" fill="white">
<path d="M0 0H126V72H0V0Z"/>
</mask>
<path d="M126 71H0V73H126V71Z" fill="#FFF2EA" mask="url(#path-1-inside-1_1_6426)"/>
<g style="mix-blend-mode:multiply">
<rect x="24" y="25" width="74" height="22" rx="11" fill="#FFF2EA"/>
<circle cx="34" cy="36" r="3" fill="#F15046"/>
<path d="M46.717 31.2727V40H45.4002V31.2727H46.717ZM49.8065 36.1136V40H48.5323V33.4545H49.7553V34.5199H49.8363C49.9869 34.1733 50.2227 33.8949 50.5437 33.6847C50.8675 33.4744 51.2752 33.3693 51.7667 33.3693C52.2127 33.3693 52.6033 33.4631 52.9386 33.6506C53.2738 33.8352 53.5337 34.1108 53.7184 34.4773C53.9031 34.8437 53.9954 35.2969 53.9954 35.8366V40H52.7212V35.9901C52.7212 35.5156 52.5977 35.1449 52.3505 34.8778C52.1033 34.608 51.7638 34.473 51.332 34.473C51.0366 34.473 50.7738 34.5369 50.5437 34.6648C50.3164 34.7926 50.136 34.9801 50.0025 35.2273C49.8718 35.4716 49.8065 35.767 49.8065 36.1136ZM57.609 40.1449C57.1942 40.1449 56.8192 40.0682 56.484 39.9148C56.1488 39.7585 55.8832 39.5327 55.6871 39.2372C55.494 38.9418 55.3974 38.5795 55.3974 38.1506C55.3974 37.7812 55.4684 37.4773 55.6104 37.2386C55.7525 37 55.9442 36.8111 56.1857 36.6719C56.4272 36.5327 56.6971 36.4276 56.9954 36.3565C57.2937 36.2855 57.5977 36.2315 57.9073 36.1946C58.2994 36.1491 58.6175 36.1122 58.8619 36.0838C59.1062 36.0526 59.2837 36.0028 59.3945 35.9347C59.5053 35.8665 59.5607 35.7557 59.5607 35.6023V35.5724C59.5607 35.2003 59.4556 34.9119 59.2454 34.7074C59.038 34.5028 58.7283 34.4006 58.3164 34.4006C57.8874 34.4006 57.5494 34.4957 57.3022 34.6861C57.0579 34.8736 56.8888 35.0824 56.7951 35.3125L55.5977 35.0398C55.7397 34.642 55.9471 34.321 56.2198 34.0767C56.4954 33.8295 56.8121 33.6506 57.1701 33.5398C57.5281 33.4261 57.9045 33.3693 58.2994 33.3693C58.5607 33.3693 58.8377 33.4006 59.1303 33.4631C59.4258 33.5227 59.7013 33.6335 59.957 33.7955C60.2156 33.9574 60.4272 34.1889 60.592 34.4901C60.7567 34.7884 60.8391 35.1761 60.8391 35.6534V40H59.5948V39.1051H59.5437C59.4613 39.2699 59.3377 39.4318 59.1729 39.5909C59.0082 39.75 58.7965 39.8821 58.538 39.9872C58.2795 40.0923 57.9698 40.1449 57.609 40.1449ZM57.886 39.1222C58.2383 39.1222 58.5394 39.0526 58.7894 38.9134C59.0423 38.7741 59.234 38.5923 59.3647 38.3679C59.4982 38.1406 59.565 37.8977 59.565 37.6392V36.7955C59.5195 36.8409 59.4315 36.8835 59.3008 36.9233C59.1729 36.9602 59.0266 36.9929 58.8619 37.0213C58.6971 37.0469 58.5366 37.071 58.3803 37.0938C58.2241 37.1136 58.0934 37.1307 57.9883 37.1449C57.7411 37.1761 57.5153 37.2287 57.3107 37.3026C57.109 37.3764 56.9471 37.483 56.8249 37.6222C56.7056 37.7585 56.646 37.9403 56.646 38.1676C56.646 38.483 56.7624 38.7216 56.9954 38.8835C57.2283 39.0426 57.5252 39.1222 57.886 39.1222ZM65.2933 40.1321C64.6598 40.1321 64.1143 39.9886 63.657 39.7017C63.2024 39.4119 62.853 39.0128 62.6087 38.5043C62.3643 37.9957 62.2422 37.4134 62.2422 36.7571C62.2422 36.0923 62.3672 35.5057 62.6172 34.9972C62.8672 34.4858 63.2195 34.0866 63.674 33.7997C64.1286 33.5128 64.6641 33.3693 65.2805 33.3693C65.7777 33.3693 66.2209 33.4616 66.6101 33.6463C66.9993 33.8281 67.3132 34.0838 67.5518 34.4134C67.7933 34.7429 67.9368 35.1278 67.9822 35.5682H66.7422C66.674 35.2614 66.5178 34.9972 66.2734 34.7756C66.032 34.554 65.7081 34.4432 65.3018 34.4432C64.9467 34.4432 64.6357 34.5369 64.3686 34.7244C64.1044 34.9091 63.8984 35.1733 63.7507 35.517C63.603 35.858 63.5291 36.2614 63.5291 36.7273C63.5291 37.2045 63.6016 37.6165 63.7464 37.9631C63.8913 38.3097 64.0959 38.5781 64.3601 38.7685C64.6271 38.9588 64.9411 39.054 65.3018 39.054C65.5433 39.054 65.7621 39.0099 65.9581 38.9219C66.157 38.831 66.3232 38.7017 66.4567 38.5341C66.593 38.3665 66.6882 38.1648 66.7422 37.929H67.9822C67.9368 38.3523 67.799 38.7301 67.5689 39.0625C67.3388 39.3949 67.0305 39.6562 66.6442 39.8466C66.2607 40.0369 65.8104 40.1321 65.2933 40.1321ZM72.4002 33.4545V34.4773H68.8249V33.4545H72.4002ZM69.7837 31.8864H71.0579V38.0781C71.0579 38.3253 71.0948 38.5114 71.1687 38.6364C71.2425 38.7585 71.3377 38.8423 71.4542 38.8878C71.5735 38.9304 71.7028 38.9517 71.842 38.9517C71.9442 38.9517 72.0337 38.9446 72.1104 38.9304C72.1871 38.9162 72.2468 38.9048 72.2894 38.8963L72.5195 39.9489C72.4457 39.9773 72.3406 40.0057 72.2042 40.0341C72.0678 40.0653 71.8974 40.0824 71.6928 40.0852C71.3576 40.0909 71.0451 40.0312 70.7553 39.9062C70.4656 39.7812 70.2312 39.5881 70.0522 39.3267C69.8732 39.0653 69.7837 38.7372 69.7837 38.3423V31.8864ZM73.8097 40V33.4545H75.0838V40H73.8097ZM74.4531 32.4446C74.2315 32.4446 74.0412 32.3707 73.8821 32.223C73.7259 32.0724 73.6477 31.8935 73.6477 31.6861C73.6477 31.4759 73.7259 31.2969 73.8821 31.1491C74.0412 30.9986 74.2315 30.9233 74.4531 30.9233C74.6747 30.9233 74.8636 30.9986 75.0199 31.1491C75.179 31.2969 75.2585 31.4759 75.2585 31.6861C75.2585 31.8935 75.179 32.0724 75.0199 32.223C74.8636 32.3707 74.6747 32.4446 74.4531 32.4446ZM82.3974 33.4545L80.0238 40H78.6602L76.2823 33.4545H77.6502L79.3079 38.4915H79.3761L81.0295 33.4545H82.3974ZM86.1932 40.1321C85.5483 40.1321 84.9929 39.9943 84.527 39.7188C84.0639 39.4403 83.706 39.0497 83.4531 38.5469C83.2031 38.0412 83.0781 37.4489 83.0781 36.7699C83.0781 36.0994 83.2031 35.5085 83.4531 34.9972C83.706 34.4858 84.0582 34.0866 84.5099 33.7997C84.9645 33.5128 85.4957 33.3693 86.1037 33.3693C86.473 33.3693 86.831 33.4304 87.1776 33.5526C87.5241 33.6747 87.8352 33.8665 88.1108 34.1278C88.3864 34.3892 88.6037 34.7287 88.7628 35.1463C88.9219 35.5611 89.0014 36.0653 89.0014 36.6591V37.1108H83.7983V36.1562H87.7528C87.7528 35.821 87.6847 35.5241 87.5483 35.2656C87.4119 35.0043 87.2202 34.7983 86.973 34.6477C86.7287 34.4972 86.4418 34.4219 86.1122 34.4219C85.7543 34.4219 85.4418 34.5099 85.1747 34.6861C84.9105 34.8594 84.706 35.0866 84.5611 35.3679C84.419 35.6463 84.348 35.9489 84.348 36.2756V37.0213C84.348 37.4588 84.4247 37.831 84.5781 38.1378C84.7344 38.4446 84.9517 38.679 85.2301 38.8409C85.5085 39 85.8338 39.0795 86.206 39.0795C86.4474 39.0795 86.6676 39.0455 86.8665 38.9773C87.0653 38.9062 87.2372 38.8011 87.3821 38.6619C87.527 38.5227 87.6378 38.3509 87.7145 38.1463L88.9205 38.3636C88.8239 38.7187 88.6506 39.0298 88.4006 39.2969C88.1534 39.5611 87.8423 39.767 87.4673 39.9148C87.0952 40.0597 86.6705 40.1321 86.1932 40.1321Z" fill="#F15046"/>
</g>
</svg>
