<svg width="126" height="72" viewBox="0 0 126 72" fill="none" xmlns="http://www.w3.org/2000/svg">
<mask id="path-1-inside-1_1_6422" fill="white">
<path d="M0 0H126V72H0V0Z"/>
</mask>
<path d="M126 71H0V73H126V71Z" fill="#EAECF0" mask="url(#path-1-inside-1_1_6422)"/>
<g style="mix-blend-mode:multiply">
<rect x="24" y="25" width="65" height="22" rx="11" fill="#ECFDF3"/>
<circle cx="34" cy="36" r="3" fill="#12B76A"/>
<path d="M46.1081 40H44.7104L47.851 31.2727H49.3723L52.513 40H51.1152L48.6479 32.858H48.5797L46.1081 40ZM46.3425 36.5824H50.8766V37.6903H46.3425V36.5824ZM56.3226 40.1321C55.6891 40.1321 55.1436 39.9886 54.6863 39.7017C54.2317 39.4119 53.8823 39.0128 53.638 38.5043C53.3936 37.9957 53.2715 37.4134 53.2715 36.7571C53.2715 36.0923 53.3965 35.5057 53.6465 34.9972C53.8965 34.4858 54.2488 34.0866 54.7033 33.7997C55.1578 33.5128 55.6934 33.3693 56.3098 33.3693C56.807 33.3693 57.2502 33.4616 57.6394 33.6463C58.0286 33.8281 58.3425 34.0838 58.5811 34.4134C58.8226 34.7429 58.9661 35.1278 59.0115 35.5682H57.7715C57.7033 35.2614 57.5471 34.9972 57.3027 34.7756C57.0613 34.554 56.7374 34.4432 56.3311 34.4432C55.976 34.4432 55.665 34.5369 55.3979 34.7244C55.1337 34.9091 54.9277 35.1733 54.78 35.517C54.6323 35.858 54.5584 36.2614 54.5584 36.7273C54.5584 37.2045 54.6309 37.6165 54.7757 37.9631C54.9206 38.3097 55.1252 38.5781 55.3894 38.7685C55.6564 38.9588 55.9703 39.054 56.3311 39.054C56.5726 39.054 56.7914 39.0099 56.9874 38.9219C57.1863 38.831 57.3525 38.7017 57.486 38.5341C57.6223 38.3665 57.7175 38.1648 57.7715 37.929H59.0115C58.9661 38.3523 58.8283 38.7301 58.5982 39.0625C58.3681 39.3949 58.0598 39.6562 57.6735 39.8466C57.29 40.0369 56.8397 40.1321 56.3226 40.1321ZM63.4295 33.4545V34.4773H59.8542V33.4545H63.4295ZM60.813 31.8864H62.0872V38.0781C62.0872 38.3253 62.1241 38.5114 62.198 38.6364C62.2718 38.7585 62.367 38.8423 62.4835 38.8878C62.6028 38.9304 62.7321 38.9517 62.8713 38.9517C62.9735 38.9517 63.063 38.9446 63.1397 38.9304C63.2164 38.9162 63.2761 38.9048 63.3187 38.8963L63.5488 39.9489C63.475 39.9773 63.3699 40.0057 63.2335 40.0341C63.0971 40.0653 62.9267 40.0824 62.7221 40.0852C62.3869 40.0909 62.0744 40.0312 61.7846 39.9062C61.4949 39.7812 61.2605 39.5881 61.0815 39.3267C60.9025 39.0653 60.813 38.7372 60.813 38.3423V31.8864ZM64.839 40V33.4545H66.1131V40H64.839ZM65.4824 32.4446C65.2608 32.4446 65.0705 32.3707 64.9114 32.223C64.7551 32.0724 64.677 31.8935 64.677 31.6861C64.677 31.4759 64.7551 31.2969 64.9114 31.1491C65.0705 30.9986 65.2608 30.9233 65.4824 30.9233C65.704 30.9233 65.8929 30.9986 66.0492 31.1491C66.2083 31.2969 66.2878 31.4759 66.2878 31.6861C66.2878 31.8935 66.2083 32.0724 66.0492 32.223C65.8929 32.3707 65.704 32.4446 65.4824 32.4446ZM73.4267 33.4545L71.0531 40H69.6895L67.3116 33.4545H68.6795L70.3372 38.4915H70.4054L72.0588 33.4545H73.4267ZM77.2225 40.1321C76.5776 40.1321 76.0222 39.9943 75.5563 39.7188C75.0932 39.4403 74.7353 39.0497 74.4824 38.5469C74.2324 38.0412 74.1074 37.4489 74.1074 36.7699C74.1074 36.0994 74.2324 35.5085 74.4824 34.9972C74.7353 34.4858 75.0875 34.0866 75.5392 33.7997C75.9938 33.5128 76.525 33.3693 77.133 33.3693C77.5023 33.3693 77.8603 33.4304 78.2069 33.5526C78.5534 33.6747 78.8645 33.8665 79.1401 34.1278C79.4157 34.3892 79.633 34.7287 79.7921 35.1463C79.9512 35.5611 80.0307 36.0653 80.0307 36.6591V37.1108H74.8276V36.1562H78.7821C78.7821 35.821 78.714 35.5241 78.5776 35.2656C78.4412 35.0043 78.2495 34.7983 78.0023 34.6477C77.758 34.4972 77.4711 34.4219 77.1415 34.4219C76.7836 34.4219 76.4711 34.5099 76.204 34.6861C75.9398 34.8594 75.7353 35.0866 75.5904 35.3679C75.4483 35.6463 75.3773 35.9489 75.3773 36.2756V37.0213C75.3773 37.4588 75.454 37.831 75.6074 38.1378C75.7637 38.4446 75.981 38.679 76.2594 38.8409C76.5378 39 76.8631 39.0795 77.2353 39.0795C77.4767 39.0795 77.6969 39.0455 77.8958 38.9773C78.0946 38.9062 78.2665 38.8011 78.4114 38.6619C78.5563 38.5227 78.6671 38.3509 78.7438 38.1463L79.9498 38.3636C79.8532 38.7187 79.6799 39.0298 79.4299 39.2969C79.1827 39.5611 78.8716 39.767 78.4966 39.9148C78.1245 40.0597 77.6998 40.1321 77.2225 40.1321Z" fill="#027A48"/>
</g>
</svg>
