<svg width="345" height="44" viewBox="0 0 345 44" fill="none" xmlns="http://www.w3.org/2000/svg">
<mask id="path-1-inside-1_1_6303" fill="white">
<path d="M0 0H345V44H0V0Z"/>
</mask>
<path d="M0 0H345V44H0V0Z" fill="#FAFBFB"/>
<path d="M345 43H0V45H345V43Z" fill="#EAECF0" mask="url(#path-1-inside-1_1_6303)"/>
<rect x="24.5" y="12.5" width="19" height="19" rx="5.5" fill="white"/>
<rect x="24.5" y="12.5" width="19" height="19" rx="5.5" stroke="#D0D5DD"/>
<path d="M64.0028 17.2727V26H62.7926L58.3565 19.5994H58.2756V26H56.9588V17.2727H58.1776L62.6179 23.6818H62.6989V17.2727H64.0028ZM67.7262 26.1449C67.3114 26.1449 66.9364 26.0682 66.6012 25.9148C66.266 25.7585 66.0004 25.5327 65.8043 25.2372C65.6112 24.9418 65.5146 24.5795 65.5146 24.1506C65.5146 23.7812 65.5856 23.4773 65.7276 23.2386C65.8697 23 66.0614 22.8111 66.3029 22.6719C66.5444 22.5327 66.8143 22.4276 67.1126 22.3565C67.4109 22.2855 67.7148 22.2315 68.0245 22.1946C68.4165 22.1491 68.7347 22.1122 68.979 22.0838C69.2234 22.0526 69.4009 22.0028 69.5117 21.9347C69.6225 21.8665 69.6779 21.7557 69.6779 21.6023V21.5724C69.6779 21.2003 69.5728 20.9119 69.3626 20.7074C69.1552 20.5028 68.8455 20.4006 68.4336 20.4006C68.0046 20.4006 67.6665 20.4957 67.4194 20.6861C67.1751 20.8736 67.006 21.0824 66.9123 21.3125L65.7148 21.0398C65.8569 20.642 66.0643 20.321 66.337 20.0767C66.6126 19.8295 66.9293 19.6506 67.2873 19.5398C67.6452 19.4261 68.0217 19.3693 68.4165 19.3693C68.6779 19.3693 68.9549 19.4006 69.2475 19.4631C69.543 19.5227 69.8185 19.6335 70.0742 19.7955C70.3327 19.9574 70.5444 20.1889 70.7092 20.4901C70.8739 20.7884 70.9563 21.1761 70.9563 21.6534V26H69.712V25.1051H69.6609C69.5785 25.2699 69.4549 25.4318 69.2901 25.5909C69.1254 25.75 68.9137 25.8821 68.6552 25.9872C68.3967 26.0923 68.087 26.1449 67.7262 26.1449ZM68.0032 25.1222C68.3555 25.1222 68.6566 25.0526 68.9066 24.9134C69.1594 24.7741 69.3512 24.5923 69.4819 24.3679C69.6154 24.1406 69.6822 23.8977 69.6822 23.6392V22.7955C69.6367 22.8409 69.5487 22.8835 69.418 22.9233C69.2901 22.9602 69.1438 22.9929 68.979 23.0213C68.8143 23.0469 68.6538 23.071 68.4975 23.0938C68.3413 23.1136 68.2106 23.1307 68.1055 23.1449C67.8583 23.1761 67.6325 23.2287 67.4279 23.3026C67.2262 23.3764 67.0643 23.483 66.9421 23.6222C66.8228 23.7585 66.7631 23.9403 66.7631 24.1676C66.7631 24.483 66.8796 24.7216 67.1126 24.8835C67.3455 25.0426 67.6424 25.1222 68.0032 25.1222ZM72.6534 26V19.4545H73.8764V20.5199H73.9574C74.0938 20.1591 74.3168 19.8778 74.6264 19.6761C74.9361 19.4716 75.3068 19.3693 75.7386 19.3693C76.1761 19.3693 76.5426 19.4716 76.8381 19.6761C77.1364 19.8807 77.3565 20.1619 77.4986 20.5199H77.5668C77.723 20.1705 77.9716 19.892 78.3125 19.6847C78.6534 19.4744 79.0597 19.3693 79.5312 19.3693C80.125 19.3693 80.6094 19.5554 80.9844 19.9276C81.3622 20.2997 81.5511 20.8608 81.5511 21.6108V26H80.277V21.7301C80.277 21.2869 80.1563 20.9659 79.9148 20.767C79.6733 20.5682 79.3849 20.4688 79.0497 20.4688C78.6349 20.4688 78.3125 20.5966 78.0824 20.8523C77.8523 21.1051 77.7372 21.4304 77.7372 21.8281V26H76.4673V21.6491C76.4673 21.294 76.3565 21.0085 76.1349 20.7926C75.9134 20.5767 75.625 20.4688 75.2699 20.4688C75.0284 20.4688 74.8054 20.5327 74.6009 20.6605C74.3991 20.7855 74.2358 20.9602 74.1108 21.1847C73.9886 21.4091 73.9276 21.669 73.9276 21.9645V26H72.6534ZM86.0799 26.1321C85.435 26.1321 84.8796 25.9943 84.4137 25.7188C83.9506 25.4403 83.5927 25.0497 83.3398 24.5469C83.0898 24.0412 82.9648 23.4489 82.9648 22.7699C82.9648 22.0994 83.0898 21.5085 83.3398 20.9972C83.5927 20.4858 83.945 20.0866 84.3967 19.7997C84.8512 19.5128 85.3825 19.3693 85.9904 19.3693C86.3597 19.3693 86.7177 19.4304 87.0643 19.5526C87.4109 19.6747 87.7219 19.8665 87.9975 20.1278C88.2731 20.3892 88.4904 20.7287 88.6495 21.1463C88.8086 21.5611 88.8881 22.0653 88.8881 22.6591V23.1108H83.685V22.1562H87.6396C87.6396 21.821 87.5714 21.5241 87.435 21.2656C87.2987 21.0043 87.1069 20.7983 86.8597 20.6477C86.6154 20.4972 86.3285 20.4219 85.9989 20.4219C85.641 20.4219 85.3285 20.5099 85.0614 20.6861C84.7972 20.8594 84.5927 21.0866 84.4478 21.3679C84.3058 21.6463 84.2347 21.9489 84.2347 22.2756V23.0213C84.2347 23.4588 84.3114 23.831 84.4648 24.1378C84.6211 24.4446 84.8384 24.679 85.1168 24.8409C85.3952 25 85.7205 25.0795 86.0927 25.0795C86.3342 25.0795 86.5543 25.0455 86.7532 24.9773C86.9521 24.9062 87.1239 24.8011 87.2688 24.6619C87.4137 24.5227 87.5245 24.3509 87.6012 24.1463L88.8072 24.3636C88.7106 24.7187 88.5373 25.0298 88.2873 25.2969C88.0401 25.5611 87.729 25.767 87.354 25.9148C86.9819 26.0597 86.5572 26.1321 86.0799 26.1321Z" fill="#42526D"/>
</svg>
