<svg width="53" height="38" viewBox="0 0 53 38" fill="none" xmlns="http://www.w3.org/2000/svg">
<g clip-path="url(#clip0_1_16571)">
<path d="M4.61648 6.14062V4.81818H12.4964V6.14062H9.3196V15H7.78835V6.14062H4.61648ZM16.3022 15.1541C15.5498 15.1541 14.9019 14.9934 14.3583 14.6719C13.8181 14.3471 13.4004 13.8913 13.1055 13.3047C12.8138 12.7147 12.668 12.0237 12.668 11.2315C12.668 10.4493 12.8138 9.75994 13.1055 9.16335C13.4004 8.56676 13.8114 8.10109 14.3384 7.76633C14.8687 7.43158 15.4885 7.2642 16.1978 7.2642C16.6287 7.2642 17.0463 7.33546 17.4506 7.47798C17.855 7.6205 18.2179 7.84422 18.5394 8.14915C18.8609 8.45407 19.1145 8.85014 19.3001 9.33736C19.4857 9.82126 19.5785 10.4096 19.5785 11.1023V11.6293H13.5082V10.5156H18.1218C18.1218 10.1245 18.0423 9.77817 17.8832 9.47656C17.7241 9.17164 17.5004 8.93134 17.212 8.75568C16.927 8.58002 16.5922 8.49219 16.2077 8.49219C15.7901 8.49219 15.4255 8.59493 15.114 8.80043C14.8058 9.0026 14.5671 9.26776 14.3981 9.59588C14.2324 9.92069 14.1495 10.2737 14.1495 10.6548V11.5249C14.1495 12.0353 14.239 12.4695 14.418 12.8274C14.6003 13.1854 14.8538 13.4588 15.1786 13.6477C15.5034 13.8333 15.8829 13.9261 16.3171 13.9261C16.5988 13.9261 16.8557 13.8864 17.0877 13.8068C17.3197 13.724 17.5202 13.6013 17.6893 13.4389C17.8583 13.2765 17.9876 13.076 18.0771 12.8374L19.484 13.0909C19.3713 13.5052 19.1692 13.8681 18.8775 14.1797C18.5891 14.4879 18.2262 14.7282 17.7887 14.9006C17.3545 15.0696 16.859 15.1541 16.3022 15.1541ZM23.4501 15.169C22.9662 15.169 22.5287 15.0795 22.1376 14.9006C21.7465 14.7183 21.4366 14.4548 21.2079 14.1101C20.9825 13.7654 20.8699 13.3428 20.8699 12.8423C20.8699 12.4115 20.9527 12.0568 21.1184 11.7784C21.2842 11.5 21.5079 11.2796 21.7896 11.1172C22.0713 10.9548 22.3862 10.8321 22.7342 10.7493C23.0822 10.6664 23.4368 10.6035 23.7981 10.5604C24.2555 10.5073 24.6267 10.4643 24.9118 10.4311C25.1968 10.3946 25.4039 10.3366 25.5332 10.2571C25.6625 10.1776 25.7271 10.0483 25.7271 9.86932V9.83452C25.7271 9.40033 25.6045 9.06392 25.3592 8.82528C25.1172 8.58665 24.756 8.46733 24.2754 8.46733C23.7749 8.46733 23.3805 8.57836 23.0922 8.80043C22.8071 9.01918 22.6099 9.26278 22.5005 9.53125L21.1035 9.21307C21.2692 8.74905 21.5112 8.37453 21.8294 8.08949C22.1509 7.80114 22.5204 7.59233 22.938 7.46307C23.3556 7.33049 23.7948 7.2642 24.2555 7.2642C24.5604 7.2642 24.8836 7.30066 25.225 7.37358C25.5697 7.44318 25.8912 7.57244 26.1895 7.76136C26.4911 7.95028 26.738 8.22041 26.9302 8.57173C27.1225 8.91974 27.2186 9.37216 27.2186 9.92898V15H25.7669V13.956H25.7072C25.6111 14.1482 25.4669 14.3371 25.2747 14.5227C25.0824 14.7083 24.8355 14.8625 24.5339 14.9851C24.2323 15.1077 23.871 15.169 23.4501 15.169ZM23.7733 13.9759C24.1842 13.9759 24.5356 13.8946 24.8272 13.7322C25.1222 13.5698 25.3459 13.3577 25.4984 13.0959C25.6542 12.8307 25.7321 12.5473 25.7321 12.2457V11.2614C25.679 11.3144 25.5763 11.3641 25.4238 11.4105C25.2747 11.4536 25.104 11.4917 24.9118 11.5249C24.7195 11.5547 24.5323 11.5829 24.35 11.6094C24.1677 11.6326 24.0152 11.6525 23.8926 11.669C23.6042 11.7055 23.3407 11.7668 23.1021 11.853C22.8668 11.9392 22.6779 12.0634 22.5353 12.2259C22.3961 12.3849 22.3265 12.5971 22.3265 12.8622C22.3265 13.2301 22.4624 13.5085 22.7342 13.6974C23.006 13.883 23.3523 13.9759 23.7733 13.9759ZM29.1985 15V7.36364H30.6254V8.60653H30.7198C30.8789 8.18561 31.1391 7.85748 31.5004 7.62216C31.8616 7.38352 32.2942 7.2642 32.7979 7.2642C33.3084 7.2642 33.7359 7.38352 34.0806 7.62216C34.4286 7.8608 34.6855 8.18892 34.8512 8.60653H34.9308C35.113 8.19886 35.4031 7.87405 35.8008 7.6321C36.1985 7.38684 36.6725 7.2642 37.2227 7.2642C37.9154 7.2642 38.4805 7.4813 38.918 7.91548C39.3588 8.34967 39.5792 9.00426 39.5792 9.87926V15H38.0927V10.0185C38.0927 9.50142 37.9518 9.12689 37.6701 8.89489C37.3884 8.66288 37.052 8.54688 36.6609 8.54688C36.177 8.54688 35.8008 8.69602 35.5323 8.99432C35.2638 9.2893 35.1296 9.6688 35.1296 10.1328V15H33.6481V9.92401C33.6481 9.50971 33.5188 9.17661 33.2603 8.92472C33.0018 8.67282 32.6654 8.54688 32.2511 8.54688C31.9693 8.54688 31.7092 8.62145 31.4705 8.7706C31.2352 8.91643 31.0446 9.12026 30.8988 9.3821C30.7563 9.64394 30.685 9.94721 30.685 10.2919V15H29.1985ZM47.2939 9.22798L45.9466 9.46662C45.8902 9.29427 45.8007 9.13021 45.6781 8.97443C45.5588 8.81865 45.3964 8.69105 45.1909 8.59162C44.9854 8.49219 44.7285 8.44247 44.4203 8.44247C43.9993 8.44247 43.648 8.53693 43.3663 8.72585C43.0846 8.91146 42.9437 9.15175 42.9437 9.44673C42.9437 9.70194 43.0382 9.90743 43.2271 10.0632C43.416 10.219 43.7209 10.3466 44.1419 10.446L45.3549 10.7244C46.0576 10.8868 46.5813 11.1371 46.926 11.4751C47.2707 11.8132 47.443 12.2524 47.443 12.7926C47.443 13.25 47.3104 13.6577 47.0453 14.0156C46.7834 14.3703 46.4172 14.6487 45.9466 14.8509C45.4792 15.053 44.9373 15.1541 44.3208 15.1541C43.4657 15.1541 42.7681 14.9718 42.2278 14.6072C41.6876 14.2393 41.3561 13.7173 41.2335 13.0412L42.6703 12.8224C42.7598 13.197 42.9437 13.4804 43.2221 13.6726C43.5005 13.8615 43.8635 13.956 44.3109 13.956C44.7981 13.956 45.1876 13.8549 45.4792 13.6527C45.7709 13.4472 45.9167 13.197 45.9167 12.902C45.9167 12.6634 45.8272 12.4628 45.6483 12.3004C45.4726 12.138 45.2025 12.0154 44.8379 11.9325L43.5453 11.6491C42.8327 11.4867 42.3057 11.2282 41.9643 10.8736C41.6262 10.5189 41.4572 10.0698 41.4572 9.52628C41.4572 9.07552 41.5832 8.68111 41.835 8.34304C42.0869 8.00497 42.435 7.74148 42.8791 7.55256C43.3232 7.36032 43.832 7.2642 44.4054 7.2642C45.2306 7.2642 45.8803 7.44318 46.3542 7.80114C46.8282 8.15578 47.1414 8.63139 47.2939 9.22798Z" fill="#667085"/>
</g>
<defs>
<clipPath id="clip0_1_16571">
<rect width="53" height="38" fill="white"/>
</clipPath>
</defs>
</svg>
