<svg width="208" height="72" viewBox="0 0 208 72" fill="none" xmlns="http://www.w3.org/2000/svg">
<mask id="path-1-inside-1_1_6441" fill="white">
<path d="M0 0H208V72H0V0Z"/>
</mask>
<path d="M208 71H0V73H208V71Z" fill="#EAECF0" mask="url(#path-1-inside-1_1_6441)"/>
<g style="mix-blend-mode:multiply">
<rect x="24" y="25" width="74" height="22" rx="11" fill="#F5F6F7"/>
<path d="M33.1131 31.2727H34.7111L37.4895 38.0568H37.5918L40.3702 31.2727H41.9682V40H40.7154V33.6847H40.6344L38.0605 39.9872H37.0208L34.4469 33.6804H34.3659V40H33.1131V31.2727ZM45.6852 40.1449C45.2704 40.1449 44.8954 40.0682 44.5602 39.9148C44.225 39.7585 43.9593 39.5327 43.7633 39.2372C43.5701 38.9418 43.4735 38.5795 43.4735 38.1506C43.4735 37.7812 43.5446 37.4773 43.6866 37.2386C43.8287 37 44.0204 36.8111 44.2619 36.6719C44.5034 36.5327 44.7733 36.4276 45.0716 36.3565C45.3699 36.2855 45.6738 36.2315 45.9835 36.1946C46.3755 36.1491 46.6937 36.1122 46.938 36.0838C47.1824 36.0526 47.3599 36.0028 47.4707 35.9347C47.5815 35.8665 47.6369 35.7557 47.6369 35.6023V35.5724C47.6369 35.2003 47.5318 34.9119 47.3216 34.7074C47.1142 34.5028 46.8045 34.4006 46.3926 34.4006C45.9636 34.4006 45.6255 34.4957 45.3784 34.6861C45.1341 34.8736 44.965 35.0824 44.8713 35.3125L43.6738 35.0398C43.8159 34.642 44.0233 34.321 44.296 34.0767C44.5716 33.8295 44.8883 33.6506 45.2463 33.5398C45.6042 33.4261 45.9806 33.3693 46.3755 33.3693C46.6369 33.3693 46.9139 33.4006 47.2065 33.4631C47.502 33.5227 47.7775 33.6335 48.0332 33.7955C48.2917 33.9574 48.5034 34.1889 48.6681 34.4901C48.8329 34.7884 48.9153 35.1761 48.9153 35.6534V40H47.671V39.1051H47.6199C47.5375 39.2699 47.4139 39.4318 47.2491 39.5909C47.0843 39.75 46.8727 39.8821 46.6142 39.9872C46.3556 40.0923 46.046 40.1449 45.6852 40.1449ZM45.9622 39.1222C46.3145 39.1222 46.6156 39.0526 46.8656 38.9134C47.1184 38.7741 47.3102 38.5923 47.4409 38.3679C47.5744 38.1406 47.6412 37.8977 47.6412 37.6392V36.7955C47.5957 36.8409 47.5076 36.8835 47.377 36.9233C47.2491 36.9602 47.1028 36.9929 46.938 37.0213C46.7733 37.0469 46.6127 37.071 46.4565 37.0938C46.3002 37.1136 46.1696 37.1307 46.0645 37.1449C45.8173 37.1761 45.5914 37.2287 45.3869 37.3026C45.1852 37.3764 45.0233 37.483 44.9011 37.6222C44.7818 37.7585 44.7221 37.9403 44.7221 38.1676C44.7221 38.483 44.8386 38.7216 45.0716 38.8835C45.3045 39.0426 45.6014 39.1222 45.9622 39.1222ZM50.6124 40V33.4545H51.8439V34.4943H51.9121C52.0314 34.142 52.2417 33.8651 52.5428 33.6634C52.8468 33.4588 53.1905 33.3565 53.574 33.3565C53.6536 33.3565 53.7473 33.3594 53.8553 33.3651C53.9661 33.3707 54.0527 33.3778 54.1152 33.3864V34.6051C54.0641 34.5909 53.9732 34.5753 53.8425 34.5582C53.7118 34.5384 53.5811 34.5284 53.4505 34.5284C53.1493 34.5284 52.8809 34.5923 52.6451 34.7202C52.4121 34.8452 52.2275 35.0199 52.0911 35.2443C51.9547 35.4659 51.8865 35.7187 51.8865 36.0028V40H50.6124ZM56.3897 37.7798L56.3812 36.2244H56.6028L59.2108 33.4545H60.7363L57.7619 36.608H57.5616L56.3897 37.7798ZM55.2179 40V31.2727H56.492V40H55.2179ZM59.3514 40L57.0076 36.8892L57.8855 35.9986L60.9153 40H59.3514ZM64.449 40.1321C63.8042 40.1321 63.2488 39.9943 62.7828 39.7188C62.3198 39.4403 61.9618 39.0497 61.709 38.5469C61.459 38.0412 61.334 37.4489 61.334 36.7699C61.334 36.0994 61.459 35.5085 61.709 34.9972C61.9618 34.4858 62.3141 34.0866 62.7658 33.7997C63.2203 33.5128 63.7516 33.3693 64.3596 33.3693C64.7289 33.3693 65.0868 33.4304 65.4334 33.5526C65.78 33.6747 66.0911 33.8665 66.3667 34.1278C66.6422 34.3892 66.8596 34.7287 67.0186 35.1463C67.1777 35.5611 67.2573 36.0653 67.2573 36.6591V37.1108H62.0542V36.1562H66.0087C66.0087 35.821 65.9405 35.5241 65.8042 35.2656C65.6678 35.0043 65.476 34.7983 65.2289 34.6477C64.9846 34.4972 64.6976 34.4219 64.3681 34.4219C64.0101 34.4219 63.6976 34.5099 63.4306 34.6861C63.1664 34.8594 62.9618 35.0866 62.8169 35.3679C62.6749 35.6463 62.6039 35.9489 62.6039 36.2756V37.0213C62.6039 37.4588 62.6806 37.831 62.834 38.1378C62.9902 38.4446 63.2076 38.679 63.486 38.8409C63.7644 39 64.0897 39.0795 64.4618 39.0795C64.7033 39.0795 64.9235 39.0455 65.1223 38.9773C65.3212 38.9062 65.4931 38.8011 65.638 38.6619C65.7828 38.5227 65.8936 38.3509 65.9703 38.1463L67.1763 38.3636C67.0797 38.7187 66.9064 39.0298 66.6564 39.2969C66.4093 39.5611 66.0982 39.767 65.7232 39.9148C65.351 40.0597 64.9263 40.1321 64.449 40.1321ZM71.7264 33.4545V34.4773H68.1511V33.4545H71.7264ZM69.1099 31.8864H70.3841V38.0781C70.3841 38.3253 70.421 38.5114 70.4949 38.6364C70.5687 38.7585 70.6639 38.8423 70.7804 38.8878C70.8997 38.9304 71.0289 38.9517 71.1681 38.9517C71.2704 38.9517 71.3599 38.9446 71.4366 38.9304C71.5133 38.9162 71.573 38.9048 71.6156 38.8963L71.8457 39.9489C71.7718 39.9773 71.6667 40.0057 71.5304 40.0341C71.394 40.0653 71.2235 40.0824 71.019 40.0852C70.6838 40.0909 70.3713 40.0312 70.0815 39.9062C69.7917 39.7812 69.5574 39.5881 69.3784 39.3267C69.1994 39.0653 69.1099 38.7372 69.1099 38.3423V31.8864ZM73.1358 40V33.4545H74.41V40H73.1358ZM73.7793 32.4446C73.5577 32.4446 73.3674 32.3707 73.2083 32.223C73.052 32.0724 72.9739 31.8935 72.9739 31.6861C72.9739 31.4759 73.052 31.2969 73.2083 31.1491C73.3674 30.9986 73.5577 30.9233 73.7793 30.9233C74.0009 30.9233 74.1898 30.9986 74.3461 31.1491C74.5051 31.2969 74.5847 31.4759 74.5847 31.6861C74.5847 31.8935 74.5051 32.0724 74.3461 32.223C74.1898 32.3707 74.0009 32.4446 73.7793 32.4446ZM77.3983 36.1136V40H76.1241V33.4545H77.3471V34.5199H77.4281C77.5787 34.1733 77.8145 33.8949 78.1355 33.6847C78.4593 33.4744 78.867 33.3693 79.3585 33.3693C79.8045 33.3693 80.1951 33.4631 80.5304 33.6506C80.8656 33.8352 81.1255 34.1108 81.3102 34.4773C81.4949 34.8437 81.5872 35.2969 81.5872 35.8366V40H80.313V35.9901C80.313 35.5156 80.1895 35.1449 79.9423 34.8778C79.6951 34.608 79.3556 34.473 78.9238 34.473C78.6284 34.473 78.3656 34.5369 78.1355 34.6648C77.9082 34.7926 77.7278 34.9801 77.5943 35.2273C77.4636 35.4716 77.3983 35.767 77.3983 36.1136ZM86.0403 42.5909C85.5204 42.5909 85.073 42.5227 84.698 42.3864C84.3258 42.25 84.0218 42.0696 83.786 41.8452C83.5502 41.6207 83.3741 41.375 83.2576 41.108L84.3528 40.6562C84.4295 40.7812 84.5318 40.9134 84.6596 41.0526C84.7903 41.1946 84.9664 41.3153 85.188 41.4148C85.4125 41.5142 85.7008 41.5639 86.0531 41.5639C86.536 41.5639 86.9352 41.446 87.2505 41.2102C87.5659 40.9773 87.7235 40.6051 87.7235 40.0938V38.8068H87.6426C87.5659 38.946 87.4551 39.1009 87.3102 39.2713C87.1681 39.4418 86.9721 39.5895 86.7221 39.7145C86.4721 39.8395 86.1468 39.902 85.7463 39.902C85.2292 39.902 84.7633 39.7812 84.3485 39.5398C83.9366 39.2955 83.6099 38.9361 83.3684 38.4616C83.1298 37.9844 83.0105 37.3977 83.0105 36.7017C83.0105 36.0057 83.1284 35.4091 83.3642 34.9119C83.6028 34.4148 83.9295 34.0341 84.3443 33.7699C84.7591 33.5028 85.2292 33.3693 85.7548 33.3693C86.161 33.3693 86.4892 33.4375 86.7392 33.5739C86.9892 33.7074 87.1838 33.8636 87.323 34.0426C87.465 34.2216 87.5744 34.3793 87.6511 34.5156H87.7449V33.4545H88.9934V40.1449C88.9934 40.7074 88.8627 41.169 88.6014 41.5298C88.34 41.8906 87.9863 42.1577 87.5403 42.331C87.0971 42.5043 86.5971 42.5909 86.0403 42.5909ZM86.0275 38.8452C86.394 38.8452 86.7037 38.7599 86.9565 38.5895C87.2122 38.4162 87.4054 38.169 87.536 37.848C87.6696 37.5241 87.7363 37.1364 87.7363 36.6847C87.7363 36.2443 87.671 35.8565 87.5403 35.5213C87.4096 35.1861 87.2179 34.9247 86.965 34.7372C86.7122 34.5469 86.3997 34.4517 86.0275 34.4517C85.644 34.4517 85.3244 34.5511 85.0687 34.75C84.813 34.946 84.6199 35.2131 84.4892 35.5511C84.3613 35.8892 84.2974 36.267 84.2974 36.6847C84.2974 37.1136 84.3627 37.4901 84.4934 37.8139C84.6241 38.1378 84.8173 38.3906 85.073 38.5724C85.3315 38.7543 85.6497 38.8452 86.0275 38.8452Z" fill="#091E42"/>
</g>
<g style="mix-blend-mode:multiply">
<rect x="102" y="25" width="56" height="22" rx="11" fill="#F7E8EF"/>
<path d="M113.933 40H111.107V31.2727H114.022C114.877 31.2727 115.612 31.4474 116.225 31.7969C116.839 32.1435 117.309 32.642 117.636 33.2926C117.965 33.9403 118.13 34.7173 118.13 35.6236C118.13 36.5327 117.964 37.3139 117.631 37.9673C117.302 38.6207 116.825 39.1236 116.2 39.4759C115.575 39.8253 114.819 40 113.933 40ZM112.424 38.8494H113.86C114.525 38.8494 115.077 38.7244 115.518 38.4744C115.958 38.2216 116.288 37.8565 116.506 37.3793C116.725 36.8991 116.835 36.3139 116.835 35.6236C116.835 34.9389 116.725 34.358 116.506 33.8807C116.29 33.4034 115.968 33.0412 115.539 32.794C115.11 32.5469 114.577 32.4233 113.941 32.4233H112.424V38.8494ZM122.486 40.1321C121.841 40.1321 121.286 39.9943 120.82 39.7188C120.357 39.4403 119.999 39.0497 119.746 38.5469C119.496 38.0412 119.371 37.4489 119.371 36.7699C119.371 36.0994 119.496 35.5085 119.746 34.9972C119.999 34.4858 120.351 34.0866 120.803 33.7997C121.257 33.5128 121.789 33.3693 122.397 33.3693C122.766 33.3693 123.124 33.4304 123.471 33.5526C123.817 33.6747 124.128 33.8665 124.404 34.1278C124.679 34.3892 124.897 34.7287 125.056 35.1463C125.215 35.5611 125.294 36.0653 125.294 36.6591V37.1108H120.091V36.1562H124.046C124.046 35.821 123.978 35.5241 123.841 35.2656C123.705 35.0043 123.513 34.7983 123.266 34.6477C123.022 34.4972 122.735 34.4219 122.405 34.4219C122.047 34.4219 121.735 34.5099 121.468 34.6861C121.203 34.8594 120.999 35.0866 120.854 35.3679C120.712 35.6463 120.641 35.9489 120.641 36.2756V37.0213C120.641 37.4588 120.718 37.831 120.871 38.1378C121.027 38.4446 121.245 38.679 121.523 38.8409C121.801 39 122.127 39.0795 122.499 39.0795C122.74 39.0795 122.961 39.0455 123.159 38.9773C123.358 38.9062 123.53 38.8011 123.675 38.6619C123.82 38.5227 123.931 38.3509 124.007 38.1463L125.213 38.3636C125.117 38.7187 124.944 39.0298 124.694 39.2969C124.446 39.5611 124.135 39.767 123.76 39.9148C123.388 40.0597 122.963 40.1321 122.486 40.1321ZM131.613 35.0526L130.458 35.2571C130.41 35.1094 130.333 34.9687 130.228 34.8352C130.126 34.7017 129.987 34.5923 129.81 34.5071C129.634 34.4219 129.414 34.3793 129.15 34.3793C128.789 34.3793 128.488 34.4602 128.246 34.6222C128.005 34.7812 127.884 34.9872 127.884 35.2401C127.884 35.4588 127.965 35.6349 128.127 35.7685C128.289 35.902 128.55 36.0114 128.911 36.0966L129.951 36.3352C130.553 36.4744 131.002 36.6889 131.298 36.9787C131.593 37.2685 131.741 37.6449 131.741 38.108C131.741 38.5 131.627 38.8494 131.4 39.1562C131.175 39.4602 130.862 39.6989 130.458 39.8722C130.058 40.0455 129.593 40.1321 129.065 40.1321C128.332 40.1321 127.734 39.9759 127.271 39.6634C126.808 39.348 126.523 38.9006 126.418 38.321L127.65 38.1335C127.727 38.4545 127.884 38.6974 128.123 38.8622C128.362 39.0241 128.673 39.1051 129.056 39.1051C129.474 39.1051 129.808 39.0185 130.058 38.8452C130.308 38.669 130.433 38.4545 130.433 38.2017C130.433 37.9972 130.356 37.8253 130.202 37.6861C130.052 37.5469 129.82 37.4418 129.508 37.3707L128.4 37.1278C127.789 36.9886 127.337 36.767 127.045 36.4631C126.755 36.1591 126.61 35.7741 126.61 35.3082C126.61 34.9219 126.718 34.5838 126.934 34.294C127.15 34.0043 127.448 33.7784 127.829 33.6165C128.21 33.4517 128.646 33.3693 129.137 33.3693C129.844 33.3693 130.401 33.5227 130.808 33.8295C131.214 34.1335 131.482 34.5412 131.613 35.0526ZM133.142 40V33.4545H134.416V40H133.142ZM133.785 32.4446C133.564 32.4446 133.373 32.3707 133.214 32.223C133.058 32.0724 132.98 31.8935 132.98 31.6861C132.98 31.4759 133.058 31.2969 133.214 31.1491C133.373 30.9986 133.564 30.9233 133.785 30.9233C134.007 30.9233 134.196 30.9986 134.352 31.1491C134.511 31.2969 134.591 31.4759 134.591 31.6861C134.591 31.8935 134.511 32.0724 134.352 32.223C134.196 32.3707 134.007 32.4446 133.785 32.4446ZM138.874 42.5909C138.354 42.5909 137.907 42.5227 137.532 42.3864C137.16 42.25 136.856 42.0696 136.62 41.8452C136.384 41.6207 136.208 41.375 136.092 41.108L137.187 40.6562C137.263 40.7812 137.366 40.9134 137.494 41.0526C137.624 41.1946 137.8 41.3153 138.022 41.4148C138.246 41.5142 138.535 41.5639 138.887 41.5639C139.37 41.5639 139.769 41.446 140.085 41.2102C140.4 40.9773 140.558 40.6051 140.558 40.0938V38.8068H140.477C140.4 38.946 140.289 39.1009 140.144 39.2713C140.002 39.4418 139.806 39.5895 139.556 39.7145C139.306 39.8395 138.981 39.902 138.58 39.902C138.063 39.902 137.597 39.7812 137.183 39.5398C136.771 39.2955 136.444 38.9361 136.202 38.4616C135.964 37.9844 135.844 37.3977 135.844 36.7017C135.844 36.0057 135.962 35.4091 136.198 34.9119C136.437 34.4148 136.763 34.0341 137.178 33.7699C137.593 33.5028 138.063 33.3693 138.589 33.3693C138.995 33.3693 139.323 33.4375 139.573 33.5739C139.823 33.7074 140.018 33.8636 140.157 34.0426C140.299 34.2216 140.408 34.3793 140.485 34.5156H140.579V33.4545H141.827V40.1449C141.827 40.7074 141.697 41.169 141.435 41.5298C141.174 41.8906 140.82 42.1577 140.374 42.331C139.931 42.5043 139.431 42.5909 138.874 42.5909ZM138.862 38.8452C139.228 38.8452 139.538 38.7599 139.79 38.5895C140.046 38.4162 140.239 38.169 140.37 37.848C140.504 37.5241 140.57 37.1364 140.57 36.6847C140.57 36.2443 140.505 35.8565 140.374 35.5213C140.244 35.1861 140.052 34.9247 139.799 34.7372C139.546 34.5469 139.234 34.4517 138.862 34.4517C138.478 34.4517 138.158 34.5511 137.903 34.75C137.647 34.946 137.454 35.2131 137.323 35.5511C137.195 35.8892 137.131 36.267 137.131 36.6847C137.131 37.1136 137.197 37.4901 137.327 37.8139C137.458 38.1378 137.651 38.3906 137.907 38.5724C138.165 38.7543 138.484 38.8452 138.862 38.8452ZM144.81 36.1136V40H143.536V33.4545H144.759V34.5199H144.84C144.991 34.1733 145.227 33.8949 145.548 33.6847C145.871 33.4744 146.279 33.3693 146.771 33.3693C147.217 33.3693 147.607 33.4631 147.942 33.6506C148.278 33.8352 148.538 34.1108 148.722 34.4773C148.907 34.8437 148.999 35.2969 148.999 35.8366V40H147.725V35.9901C147.725 35.5156 147.602 35.1449 147.354 34.8778C147.107 34.608 146.768 34.473 146.336 34.473C146.04 34.473 145.778 34.5369 145.548 34.6648C145.32 34.7926 145.14 34.9801 145.006 35.2273C144.876 35.4716 144.81 35.767 144.81 36.1136Z" fill="#6A1039"/>
</g>
<g style="mix-blend-mode:multiply">
<rect x="162" y="25" width="30" height="22" rx="11" fill="#F2F4F7"/>
<path d="M173.59 38.5341V32.7727H174.736V38.5341H173.59ZM171.284 36.2244V35.0824H177.046V36.2244H171.284ZM182.311 31.2727V40H180.99V32.5938H180.939L178.85 33.9574V32.696L181.028 31.2727H182.311Z" fill="#344054"/>
</g>
</svg>
