<svg width="208" height="72" viewBox="0 0 208 72" fill="none" xmlns="http://www.w3.org/2000/svg">
<mask id="path-1-inside-1_1_6478" fill="white">
<path d="M0 0H208V72H0V0Z"/>
</mask>
<path d="M208 71H0V73H208V71Z" fill="#EAECF0" mask="url(#path-1-inside-1_1_6478)"/>
<g style="mix-blend-mode:multiply">
<rect x="24" y="25" width="85" height="22" rx="11" fill="#F5F6F7"/>
<path d="M33.3455 40V31.2727H38.8171V32.4062H34.6623V35.0653H38.5316V36.1946H34.6623V38.8665H38.8683V40H33.3455ZM41.7479 36.1136V40H40.4737V33.4545H41.6967V34.5199H41.7777C41.9283 34.1733 42.1641 33.8949 42.4851 33.6847C42.8089 33.4744 43.2166 33.3693 43.7081 33.3693C44.1541 33.3693 44.5447 33.4631 44.88 33.6506C45.2152 33.8352 45.4751 34.1108 45.6598 34.4773C45.8445 34.8437 45.9368 35.2969 45.9368 35.8366V40H44.6626V35.9901C44.6626 35.5156 44.5391 35.1449 44.2919 34.8778C44.0447 34.608 43.7053 34.473 43.2734 34.473C42.978 34.473 42.7152 34.5369 42.4851 34.6648C42.2578 34.7926 42.0774 34.9801 41.9439 35.2273C41.8132 35.4716 41.7479 35.767 41.7479 36.1136ZM50.3899 42.5909C49.87 42.5909 49.4226 42.5227 49.0476 42.3864C48.6754 42.25 48.3714 42.0696 48.1357 41.8452C47.8999 41.6207 47.7237 41.375 47.6072 41.108L48.7024 40.6562C48.7791 40.7812 48.8814 40.9134 49.0092 41.0526C49.1399 41.1946 49.3161 41.3153 49.5376 41.4148C49.7621 41.5142 50.0504 41.5639 50.4027 41.5639C50.8857 41.5639 51.2848 41.446 51.6001 41.2102C51.9155 40.9773 52.0732 40.6051 52.0732 40.0938V38.8068H51.9922C51.9155 38.946 51.8047 39.1009 51.6598 39.2713C51.5178 39.4418 51.3217 39.5895 51.0717 39.7145C50.8217 39.8395 50.4964 39.902 50.0959 39.902C49.5788 39.902 49.1129 39.7812 48.6982 39.5398C48.2862 39.2955 47.9595 38.9361 47.718 38.4616C47.4794 37.9844 47.3601 37.3977 47.3601 36.7017C47.3601 36.0057 47.478 35.4091 47.7138 34.9119C47.9524 34.4148 48.2791 34.0341 48.6939 33.7699C49.1087 33.5028 49.5788 33.3693 50.1044 33.3693C50.5107 33.3693 50.8388 33.4375 51.0888 33.5739C51.3388 33.7074 51.5334 33.8636 51.6726 34.0426C51.8146 34.2216 51.924 34.3793 52.0007 34.5156H52.0945V33.4545H53.343V40.1449C53.343 40.7074 53.2124 41.169 52.951 41.5298C52.6896 41.8906 52.3359 42.1577 51.8899 42.331C51.4467 42.5043 50.9467 42.5909 50.3899 42.5909ZM50.3771 38.8452C50.7436 38.8452 51.0533 38.7599 51.3061 38.5895C51.5618 38.4162 51.755 38.169 51.8857 37.848C52.0192 37.5241 52.0859 37.1364 52.0859 36.6847C52.0859 36.2443 52.0206 35.8565 51.8899 35.5213C51.7592 35.1861 51.5675 34.9247 51.3146 34.7372C51.0618 34.5469 50.7493 34.4517 50.3771 34.4517C49.9936 34.4517 49.674 34.5511 49.4183 34.75C49.1626 34.946 48.9695 35.2131 48.8388 35.5511C48.7109 35.8892 48.647 36.267 48.647 36.6847C48.647 37.1136 48.7124 37.4901 48.843 37.8139C48.9737 38.1378 49.1669 38.3906 49.4226 38.5724C49.6811 38.7543 49.9993 38.8452 50.3771 38.8452ZM55.0518 40V33.4545H56.326V40H55.0518ZM55.6953 32.4446C55.4737 32.4446 55.2834 32.3707 55.1243 32.223C54.968 32.0724 54.8899 31.8935 54.8899 31.6861C54.8899 31.4759 54.968 31.2969 55.1243 31.1491C55.2834 30.9986 55.4737 30.9233 55.6953 30.9233C55.9169 30.9233 56.1058 30.9986 56.2621 31.1491C56.4212 31.2969 56.5007 31.4759 56.5007 31.6861C56.5007 31.8935 56.4212 32.0724 56.2621 32.223C56.1058 32.3707 55.9169 32.4446 55.6953 32.4446ZM59.3143 36.1136V40H58.0401V33.4545H59.2631V34.5199H59.3441C59.4947 34.1733 59.7305 33.8949 60.0515 33.6847C60.3754 33.4744 60.783 33.3693 61.2745 33.3693C61.7205 33.3693 62.1112 33.4631 62.4464 33.6506C62.7816 33.8352 63.0415 34.1108 63.2262 34.4773C63.4109 34.8437 63.5032 35.2969 63.5032 35.8366V40H62.229V35.9901C62.229 35.5156 62.1055 35.1449 61.8583 34.8778C61.6112 34.608 61.2717 34.473 60.8398 34.473C60.5444 34.473 60.2816 34.5369 60.0515 34.6648C59.8242 34.7926 59.6438 34.9801 59.5103 35.2273C59.3796 35.4716 59.3143 35.767 59.3143 36.1136ZM68.033 40.1321C67.3881 40.1321 66.8327 39.9943 66.3668 39.7188C65.9038 39.4403 65.5458 39.0497 65.293 38.5469C65.043 38.0412 64.918 37.4489 64.918 36.7699C64.918 36.0994 65.043 35.5085 65.293 34.9972C65.5458 34.4858 65.8981 34.0866 66.3498 33.7997C66.8043 33.5128 67.3356 33.3693 67.9435 33.3693C68.3129 33.3693 68.6708 33.4304 69.0174 33.5526C69.364 33.6747 69.6751 33.8665 69.9506 34.1278C70.2262 34.3892 70.4435 34.7287 70.6026 35.1463C70.7617 35.5611 70.8413 36.0653 70.8413 36.6591V37.1108H65.6381V36.1562H69.5927C69.5927 35.821 69.5245 35.5241 69.3881 35.2656C69.2518 35.0043 69.06 34.7983 68.8129 34.6477C68.5685 34.4972 68.2816 34.4219 67.9521 34.4219C67.5941 34.4219 67.2816 34.5099 67.0146 34.6861C66.7504 34.8594 66.5458 35.0866 66.4009 35.3679C66.2589 35.6463 66.1879 35.9489 66.1879 36.2756V37.0213C66.1879 37.4588 66.2646 37.831 66.418 38.1378C66.5742 38.4446 66.7915 38.679 67.07 38.8409C67.3484 39 67.6737 39.0795 68.0458 39.0795C68.2873 39.0795 68.5075 39.0455 68.7063 38.9773C68.9052 38.9062 69.0771 38.8011 69.2219 38.6619C69.3668 38.5227 69.4776 38.3509 69.5543 38.1463L70.7603 38.3636C70.6637 38.7187 70.4904 39.0298 70.2404 39.2969C69.9933 39.5611 69.6822 39.767 69.3072 39.9148C68.935 40.0597 68.5103 40.1321 68.033 40.1321ZM75.076 40.1321C74.4311 40.1321 73.8757 39.9943 73.4098 39.7188C72.9467 39.4403 72.5888 39.0497 72.3359 38.5469C72.0859 38.0412 71.9609 37.4489 71.9609 36.7699C71.9609 36.0994 72.0859 35.5085 72.3359 34.9972C72.5888 34.4858 72.9411 34.0866 73.3928 33.7997C73.8473 33.5128 74.3786 33.3693 74.9865 33.3693C75.3558 33.3693 75.7138 33.4304 76.0604 33.5526C76.407 33.6747 76.718 33.8665 76.9936 34.1278C77.2692 34.3892 77.4865 34.7287 77.6456 35.1463C77.8047 35.5611 77.8842 36.0653 77.8842 36.6591V37.1108H72.6811V36.1562H76.6357C76.6357 35.821 76.5675 35.5241 76.4311 35.2656C76.2947 35.0043 76.103 34.7983 75.8558 34.6477C75.6115 34.4972 75.3246 34.4219 74.995 34.4219C74.6371 34.4219 74.3246 34.5099 74.0575 34.6861C73.7933 34.8594 73.5888 35.0866 73.4439 35.3679C73.3018 35.6463 73.2308 35.9489 73.2308 36.2756V37.0213C73.2308 37.4588 73.3075 37.831 73.4609 38.1378C73.6172 38.4446 73.8345 38.679 74.1129 38.8409C74.3913 39 74.7166 39.0795 75.0888 39.0795C75.3303 39.0795 75.5504 39.0455 75.7493 38.9773C75.9482 38.9062 76.12 38.8011 76.2649 38.6619C76.4098 38.5227 76.5206 38.3509 76.5973 38.1463L77.8033 38.3636C77.7067 38.7187 77.5334 39.0298 77.2834 39.2969C77.0362 39.5611 76.7251 39.767 76.3501 39.9148C75.978 40.0597 75.5533 40.1321 75.076 40.1321ZM79.2979 40V33.4545H80.5295V34.4943H80.5977C80.717 34.142 80.9272 33.8651 81.2283 33.6634C81.5323 33.4588 81.8761 33.3565 82.2596 33.3565C82.3391 33.3565 82.4329 33.3594 82.5408 33.3651C82.6516 33.3707 82.7383 33.3778 82.8008 33.3864V34.6051C82.7496 34.5909 82.6587 34.5753 82.5281 34.5582C82.3974 34.5384 82.2667 34.5284 82.136 34.5284C81.8349 34.5284 81.5664 34.5923 81.3306 34.7202C81.0977 34.8452 80.913 35.0199 80.7766 35.2443C80.6403 35.4659 80.5721 35.7187 80.5721 36.0028V40H79.2979ZM83.9034 40V33.4545H85.1776V40H83.9034ZM84.5469 32.4446C84.3253 32.4446 84.1349 32.3707 83.9759 32.223C83.8196 32.0724 83.7415 31.8935 83.7415 31.6861C83.7415 31.4759 83.8196 31.2969 83.9759 31.1491C84.1349 30.9986 84.3253 30.9233 84.5469 30.9233C84.7685 30.9233 84.9574 30.9986 85.1136 31.1491C85.2727 31.2969 85.3523 31.4759 85.3523 31.6861C85.3523 31.8935 85.2727 32.0724 85.1136 32.223C84.9574 32.3707 84.7685 32.4446 84.5469 32.4446ZM88.1658 36.1136V40H86.8917V33.4545H88.1147V34.5199H88.1957C88.3462 34.1733 88.582 33.8949 88.9031 33.6847C89.2269 33.4744 89.6346 33.3693 90.1261 33.3693C90.5721 33.3693 90.9627 33.4631 91.2979 33.6506C91.6332 33.8352 91.8931 34.1108 92.0778 34.4773C92.2624 34.8437 92.3548 35.2969 92.3548 35.8366V40H91.0806V35.9901C91.0806 35.5156 90.957 35.1449 90.7099 34.8778C90.4627 34.608 90.1232 34.473 89.6914 34.473C89.396 34.473 89.1332 34.5369 88.9031 34.6648C88.6758 34.7926 88.4954 34.9801 88.3619 35.2273C88.2312 35.4716 88.1658 35.767 88.1658 36.1136ZM96.8079 42.5909C96.288 42.5909 95.8406 42.5227 95.4656 42.3864C95.0934 42.25 94.7894 42.0696 94.5536 41.8452C94.3178 41.6207 94.1417 41.375 94.0252 41.108L95.1204 40.6562C95.1971 40.7812 95.2994 40.9134 95.4272 41.0526C95.5579 41.1946 95.734 41.3153 95.9556 41.4148C96.18 41.5142 96.4684 41.5639 96.8207 41.5639C97.3036 41.5639 97.7028 41.446 98.0181 41.2102C98.3335 40.9773 98.4911 40.6051 98.4911 40.0938V38.8068H98.4102C98.3335 38.946 98.2227 39.1009 98.0778 39.2713C97.9357 39.4418 97.7397 39.5895 97.4897 39.7145C97.2397 39.8395 96.9144 39.902 96.5138 39.902C95.9968 39.902 95.5309 39.7812 95.1161 39.5398C94.7042 39.2955 94.3775 38.9361 94.136 38.4616C93.8974 37.9844 93.7781 37.3977 93.7781 36.7017C93.7781 36.0057 93.896 35.4091 94.1317 34.9119C94.3704 34.4148 94.6971 34.0341 95.1119 33.7699C95.5266 33.5028 95.9968 33.3693 96.5224 33.3693C96.9286 33.3693 97.2567 33.4375 97.5067 33.5739C97.7567 33.7074 97.9513 33.8636 98.0906 34.0426C98.2326 34.2216 98.342 34.3793 98.4187 34.5156H98.5124V33.4545H99.761V40.1449C99.761 40.7074 99.6303 41.169 99.369 41.5298C99.1076 41.8906 98.7539 42.1577 98.3079 42.331C97.8647 42.5043 97.3647 42.5909 96.8079 42.5909ZM96.7951 38.8452C97.1616 38.8452 97.4712 38.7599 97.7241 38.5895C97.9798 38.4162 98.1729 38.169 98.3036 37.848C98.4371 37.5241 98.5039 37.1364 98.5039 36.6847C98.5039 36.2443 98.4386 35.8565 98.3079 35.5213C98.1772 35.1861 97.9854 34.9247 97.7326 34.7372C97.4798 34.5469 97.1673 34.4517 96.7951 34.4517C96.4116 34.4517 96.092 34.5511 95.8363 34.75C95.5806 34.946 95.3874 35.2131 95.2567 35.5511C95.1289 35.8892 95.065 36.267 95.065 36.6847C95.065 37.1136 95.1303 37.4901 95.261 37.8139C95.3917 38.1378 95.5849 38.3906 95.8406 38.5724C96.0991 38.7543 96.4173 38.8452 96.7951 38.8452Z" fill="#15294B"/>
</g>
<g style="mix-blend-mode:multiply">
<rect x="113" y="25" width="56" height="22" rx="11" fill="#F7E8EF"/>
<path d="M124.933 40H122.107V31.2727H125.022C125.877 31.2727 126.612 31.4474 127.225 31.7969C127.839 32.1435 128.309 32.642 128.636 33.2926C128.965 33.9403 129.13 34.7173 129.13 35.6236C129.13 36.5327 128.964 37.3139 128.631 37.9673C128.302 38.6207 127.825 39.1236 127.2 39.4759C126.575 39.8253 125.819 40 124.933 40ZM123.424 38.8494H124.86C125.525 38.8494 126.077 38.7244 126.518 38.4744C126.958 38.2216 127.288 37.8565 127.506 37.3793C127.725 36.8991 127.835 36.3139 127.835 35.6236C127.835 34.9389 127.725 34.358 127.506 33.8807C127.29 33.4034 126.968 33.0412 126.539 32.794C126.11 32.5469 125.577 32.4233 124.941 32.4233H123.424V38.8494ZM133.486 40.1321C132.841 40.1321 132.286 39.9943 131.82 39.7188C131.357 39.4403 130.999 39.0497 130.746 38.5469C130.496 38.0412 130.371 37.4489 130.371 36.7699C130.371 36.0994 130.496 35.5085 130.746 34.9972C130.999 34.4858 131.351 34.0866 131.803 33.7997C132.257 33.5128 132.789 33.3693 133.397 33.3693C133.766 33.3693 134.124 33.4304 134.471 33.5526C134.817 33.6747 135.128 33.8665 135.404 34.1278C135.679 34.3892 135.897 34.7287 136.056 35.1463C136.215 35.5611 136.294 36.0653 136.294 36.6591V37.1108H131.091V36.1562H135.046C135.046 35.821 134.978 35.5241 134.841 35.2656C134.705 35.0043 134.513 34.7983 134.266 34.6477C134.022 34.4972 133.735 34.4219 133.405 34.4219C133.047 34.4219 132.735 34.5099 132.468 34.6861C132.203 34.8594 131.999 35.0866 131.854 35.3679C131.712 35.6463 131.641 35.9489 131.641 36.2756V37.0213C131.641 37.4588 131.718 37.831 131.871 38.1378C132.027 38.4446 132.245 38.679 132.523 38.8409C132.801 39 133.127 39.0795 133.499 39.0795C133.74 39.0795 133.961 39.0455 134.159 38.9773C134.358 38.9062 134.53 38.8011 134.675 38.6619C134.82 38.5227 134.931 38.3509 135.007 38.1463L136.213 38.3636C136.117 38.7187 135.944 39.0298 135.694 39.2969C135.446 39.5611 135.135 39.767 134.76 39.9148C134.388 40.0597 133.963 40.1321 133.486 40.1321ZM142.613 35.0526L141.458 35.2571C141.41 35.1094 141.333 34.9687 141.228 34.8352C141.126 34.7017 140.987 34.5923 140.81 34.5071C140.634 34.4219 140.414 34.3793 140.15 34.3793C139.789 34.3793 139.488 34.4602 139.246 34.6222C139.005 34.7812 138.884 34.9872 138.884 35.2401C138.884 35.4588 138.965 35.6349 139.127 35.7685C139.289 35.902 139.55 36.0114 139.911 36.0966L140.951 36.3352C141.553 36.4744 142.002 36.6889 142.298 36.9787C142.593 37.2685 142.741 37.6449 142.741 38.108C142.741 38.5 142.627 38.8494 142.4 39.1562C142.175 39.4602 141.862 39.6989 141.458 39.8722C141.058 40.0455 140.593 40.1321 140.065 40.1321C139.332 40.1321 138.734 39.9759 138.271 39.6634C137.808 39.348 137.523 38.9006 137.418 38.321L138.65 38.1335C138.727 38.4545 138.884 38.6974 139.123 38.8622C139.362 39.0241 139.673 39.1051 140.056 39.1051C140.474 39.1051 140.808 39.0185 141.058 38.8452C141.308 38.669 141.433 38.4545 141.433 38.2017C141.433 37.9972 141.356 37.8253 141.202 37.6861C141.052 37.5469 140.82 37.4418 140.508 37.3707L139.4 37.1278C138.789 36.9886 138.337 36.767 138.045 36.4631C137.755 36.1591 137.61 35.7741 137.61 35.3082C137.61 34.9219 137.718 34.5838 137.934 34.294C138.15 34.0043 138.448 33.7784 138.829 33.6165C139.21 33.4517 139.646 33.3693 140.137 33.3693C140.844 33.3693 141.401 33.5227 141.808 33.8295C142.214 34.1335 142.482 34.5412 142.613 35.0526ZM144.142 40V33.4545H145.416V40H144.142ZM144.785 32.4446C144.564 32.4446 144.373 32.3707 144.214 32.223C144.058 32.0724 143.98 31.8935 143.98 31.6861C143.98 31.4759 144.058 31.2969 144.214 31.1491C144.373 30.9986 144.564 30.9233 144.785 30.9233C145.007 30.9233 145.196 30.9986 145.352 31.1491C145.511 31.2969 145.591 31.4759 145.591 31.6861C145.591 31.8935 145.511 32.0724 145.352 32.223C145.196 32.3707 145.007 32.4446 144.785 32.4446ZM149.874 42.5909C149.354 42.5909 148.907 42.5227 148.532 42.3864C148.16 42.25 147.856 42.0696 147.62 41.8452C147.384 41.6207 147.208 41.375 147.092 41.108L148.187 40.6562C148.263 40.7812 148.366 40.9134 148.494 41.0526C148.624 41.1946 148.8 41.3153 149.022 41.4148C149.246 41.5142 149.535 41.5639 149.887 41.5639C150.37 41.5639 150.769 41.446 151.085 41.2102C151.4 40.9773 151.558 40.6051 151.558 40.0938V38.8068H151.477C151.4 38.946 151.289 39.1009 151.144 39.2713C151.002 39.4418 150.806 39.5895 150.556 39.7145C150.306 39.8395 149.981 39.902 149.58 39.902C149.063 39.902 148.597 39.7812 148.183 39.5398C147.771 39.2955 147.444 38.9361 147.202 38.4616C146.964 37.9844 146.844 37.3977 146.844 36.7017C146.844 36.0057 146.962 35.4091 147.198 34.9119C147.437 34.4148 147.763 34.0341 148.178 33.7699C148.593 33.5028 149.063 33.3693 149.589 33.3693C149.995 33.3693 150.323 33.4375 150.573 33.5739C150.823 33.7074 151.018 33.8636 151.157 34.0426C151.299 34.2216 151.408 34.3793 151.485 34.5156H151.579V33.4545H152.827V40.1449C152.827 40.7074 152.697 41.169 152.435 41.5298C152.174 41.8906 151.82 42.1577 151.374 42.331C150.931 42.5043 150.431 42.5909 149.874 42.5909ZM149.862 38.8452C150.228 38.8452 150.538 38.7599 150.79 38.5895C151.046 38.4162 151.239 38.169 151.37 37.848C151.504 37.5241 151.57 37.1364 151.57 36.6847C151.57 36.2443 151.505 35.8565 151.374 35.5213C151.244 35.1861 151.052 34.9247 150.799 34.7372C150.546 34.5469 150.234 34.4517 149.862 34.4517C149.478 34.4517 149.158 34.5511 148.903 34.75C148.647 34.946 148.454 35.2131 148.323 35.5511C148.195 35.8892 148.131 36.267 148.131 36.6847C148.131 37.1136 148.197 37.4901 148.327 37.8139C148.458 38.1378 148.651 38.3906 148.907 38.5724C149.165 38.7543 149.484 38.8452 149.862 38.8452ZM155.81 36.1136V40H154.536V33.4545H155.759V34.5199H155.84C155.991 34.1733 156.227 33.8949 156.548 33.6847C156.871 33.4744 157.279 33.3693 157.771 33.3693C158.217 33.3693 158.607 33.4631 158.942 33.6506C159.278 33.8352 159.538 34.1108 159.722 34.4773C159.907 34.8437 159.999 35.2969 159.999 35.8366V40H158.725V35.9901C158.725 35.5156 158.602 35.1449 158.354 34.8778C158.107 34.608 157.768 34.473 157.336 34.473C157.04 34.473 156.778 34.5369 156.548 34.6648C156.32 34.7926 156.14 34.9801 156.006 35.2273C155.876 35.4716 155.81 35.767 155.81 36.1136Z" fill="#6A1039"/>
</g>
</svg>
