<svg width="208" height="44" viewBox="0 0 208 44" fill="none" xmlns="http://www.w3.org/2000/svg">
<mask id="path-1-inside-1_1_6439" fill="white">
<path d="M0 0H208V44H0V0Z"/>
</mask>
<path d="M0 0H208V44H0V0Z" fill="#FAFBFB"/>
<path d="M208 43H0V45H208V43Z" fill="#EAECF0" mask="url(#path-1-inside-1_1_6439)"/>
<path d="M24.5284 18.4062V17.2727H31.2827V18.4062H28.5597V26H27.2472V18.4062H24.5284ZM34.5447 26.1321C33.8999 26.1321 33.3445 25.9943 32.8786 25.7188C32.4155 25.4403 32.0575 25.0497 31.8047 24.5469C31.5547 24.0412 31.4297 23.4489 31.4297 22.7699C31.4297 22.0994 31.5547 21.5085 31.8047 20.9972C32.0575 20.4858 32.4098 20.0866 32.8615 19.7997C33.3161 19.5128 33.8473 19.3693 34.4553 19.3693C34.8246 19.3693 35.1825 19.4304 35.5291 19.5526C35.8757 19.6747 36.1868 19.8665 36.4624 20.1278C36.7379 20.3892 36.9553 20.7287 37.1143 21.1463C37.2734 21.5611 37.353 22.0653 37.353 22.6591V23.1108H32.1499V22.1562H36.1044C36.1044 21.821 36.0362 21.5241 35.8999 21.2656C35.7635 21.0043 35.5717 20.7983 35.3246 20.6477C35.0803 20.4972 34.7933 20.4219 34.4638 20.4219C34.1058 20.4219 33.7933 20.5099 33.5263 20.6861C33.2621 20.8594 33.0575 21.0866 32.9126 21.3679C32.7706 21.6463 32.6996 21.9489 32.6996 22.2756V23.0213C32.6996 23.4588 32.7763 23.831 32.9297 24.1378C33.0859 24.4446 33.3033 24.679 33.5817 24.8409C33.8601 25 34.1854 25.0795 34.5575 25.0795C34.799 25.0795 35.0192 25.0455 35.218 24.9773C35.4169 24.9062 35.5888 24.8011 35.7337 24.6619C35.8786 24.5227 35.9893 24.3509 36.0661 24.1463L37.272 24.3636C37.1754 24.7187 37.0021 25.0298 36.7521 25.2969C36.505 25.5611 36.1939 25.767 35.8189 25.9148C35.4467 26.0597 35.022 26.1321 34.5447 26.1321ZM40.6715 26.1449C40.2567 26.1449 39.8817 26.0682 39.5465 25.9148C39.2113 25.7585 38.9457 25.5327 38.7496 25.2372C38.5565 24.9418 38.4599 24.5795 38.4599 24.1506C38.4599 23.7812 38.5309 23.4773 38.6729 23.2386C38.815 23 39.0067 22.8111 39.2482 22.6719C39.4897 22.5327 39.7596 22.4276 40.0579 22.3565C40.3562 22.2855 40.6602 22.2315 40.9698 22.1946C41.3619 22.1491 41.68 22.1122 41.9244 22.0838C42.1687 22.0526 42.3462 22.0028 42.457 21.9347C42.5678 21.8665 42.6232 21.7557 42.6232 21.6023V21.5724C42.6232 21.2003 42.5181 20.9119 42.3079 20.7074C42.1005 20.5028 41.7908 20.4006 41.3789 20.4006C40.9499 20.4006 40.6119 20.4957 40.3647 20.6861C40.1204 20.8736 39.9513 21.0824 39.8576 21.3125L38.6602 21.0398C38.8022 20.642 39.0096 20.321 39.2823 20.0767C39.5579 19.8295 39.8746 19.6506 40.2326 19.5398C40.5906 19.4261 40.967 19.3693 41.3619 19.3693C41.6232 19.3693 41.9002 19.4006 42.1928 19.4631C42.4883 19.5227 42.7638 19.6335 43.0195 19.7955C43.2781 19.9574 43.4897 20.1889 43.6545 20.4901C43.8192 20.7884 43.9016 21.1761 43.9016 21.6534V26H42.6573V25.1051H42.6062C42.5238 25.2699 42.4002 25.4318 42.2354 25.5909C42.0707 25.75 41.859 25.8821 41.6005 25.9872C41.342 26.0923 41.0323 26.1449 40.6715 26.1449ZM40.9485 25.1222C41.3008 25.1222 41.6019 25.0526 41.8519 24.9134C42.1048 24.7741 42.2965 24.5923 42.4272 24.3679C42.5607 24.1406 42.6275 23.8977 42.6275 23.6392V22.7955C42.582 22.8409 42.494 22.8835 42.3633 22.9233C42.2354 22.9602 42.0891 22.9929 41.9244 23.0213C41.7596 23.0469 41.5991 23.071 41.4428 23.0938C41.2866 23.1136 41.1559 23.1307 41.0508 23.1449C40.8036 23.1761 40.5778 23.2287 40.3732 23.3026C40.1715 23.3764 40.0096 23.483 39.8874 23.6222C39.7681 23.7585 39.7085 23.9403 39.7085 24.1676C39.7085 24.483 39.8249 24.7216 40.0579 24.8835C40.2908 25.0426 40.5877 25.1222 40.9485 25.1222ZM45.5987 26V19.4545H46.8217V20.5199H46.9027C47.0391 20.1591 47.2621 19.8778 47.5717 19.6761C47.8814 19.4716 48.2521 19.3693 48.6839 19.3693C49.1214 19.3693 49.4879 19.4716 49.7834 19.6761C50.0817 19.8807 50.3018 20.1619 50.4439 20.5199H50.5121C50.6683 20.1705 50.9169 19.892 51.2578 19.6847C51.5987 19.4744 52.005 19.3693 52.4766 19.3693C53.0703 19.3693 53.5547 19.5554 53.9297 19.9276C54.3075 20.2997 54.4964 20.8608 54.4964 21.6108V26H53.2223V21.7301C53.2223 21.2869 53.1016 20.9659 52.8601 20.767C52.6186 20.5682 52.3303 20.4688 51.995 20.4688C51.5803 20.4688 51.2578 20.5966 51.0277 20.8523C50.7976 21.1051 50.6825 21.4304 50.6825 21.8281V26H49.4126V21.6491C49.4126 21.294 49.3018 21.0085 49.0803 20.7926C48.8587 20.5767 48.5703 20.4688 48.2152 20.4688C47.9737 20.4688 47.7507 20.5327 47.5462 20.6605C47.3445 20.7855 47.1811 20.9602 47.0561 21.1847C46.9339 21.4091 46.8729 21.669 46.8729 21.9645V26H45.5987ZM61.109 21.0526L59.9542 21.2571C59.9059 21.1094 59.8292 20.9687 59.7241 20.8352C59.6218 20.7017 59.4826 20.5923 59.3065 20.5071C59.1303 20.4219 58.9102 20.3793 58.646 20.3793C58.2852 20.3793 57.984 20.4602 57.7425 20.6222C57.5011 20.7812 57.3803 20.9872 57.3803 21.2401C57.3803 21.4588 57.4613 21.6349 57.6232 21.7685C57.7852 21.902 58.0465 22.0114 58.4073 22.0966L59.4471 22.3352C60.0494 22.4744 60.4982 22.6889 60.7937 22.9787C61.0891 23.2685 61.2369 23.6449 61.2369 24.108C61.2369 24.5 61.1232 24.8494 60.896 25.1562C60.6715 25.4602 60.3576 25.6989 59.9542 25.8722C59.5536 26.0455 59.0891 26.1321 58.5607 26.1321C57.8278 26.1321 57.2298 25.9759 56.7667 25.6634C56.3036 25.348 56.0195 24.9006 55.9144 24.321L57.146 24.1335C57.2227 24.4545 57.3803 24.6974 57.619 24.8622C57.8576 25.0241 58.1687 25.1051 58.5522 25.1051C58.9698 25.1051 59.3036 25.0185 59.5536 24.8452C59.8036 24.669 59.9286 24.4545 59.9286 24.2017C59.9286 23.9972 59.8519 23.8253 59.6985 23.6861C59.5479 23.5469 59.3164 23.4418 59.0039 23.3707L57.896 23.1278C57.2852 22.9886 56.8335 22.767 56.5408 22.4631C56.2511 22.1591 56.1062 21.7741 56.1062 21.3082C56.1062 20.9219 56.2141 20.5838 56.43 20.294C56.646 20.0043 56.9442 19.7784 57.3249 19.6165C57.7056 19.4517 58.1417 19.3693 58.6332 19.3693C59.3406 19.3693 59.8974 19.5227 60.3036 19.8295C60.7099 20.1335 60.9783 20.5412 61.109 21.0526Z" fill="#42526D"/>
</svg>
