<svg width="208" height="72" viewBox="0 0 208 72" fill="none" xmlns="http://www.w3.org/2000/svg">
<mask id="path-1-inside-1_1_6470" fill="white">
<path d="M0 0H208V72H0V0Z"/>
</mask>
<path d="M208 71H0V73H208V71Z" fill="#EAECF0" mask="url(#path-1-inside-1_1_6470)"/>
<g style="mix-blend-mode:multiply">
<rect x="24" y="25" width="62" height="22" rx="11" fill="#F5F6F7"/>
<path d="M33.3592 40V31.2727H36.47C37.149 31.2727 37.7115 31.3963 38.1575 31.6435C38.6035 31.8906 38.9373 32.2287 39.1589 32.6577C39.3805 33.0838 39.4913 33.5639 39.4913 34.098C39.4913 34.6349 39.3791 35.1179 39.1547 35.5469C38.9331 35.973 38.5978 36.3111 38.149 36.5611C37.7029 36.8082 37.1419 36.9318 36.4657 36.9318H34.3265V35.8153H36.3464C36.7754 35.8153 37.1234 35.7415 37.3904 35.5938C37.6575 35.4432 37.8535 35.2386 37.9785 34.9801C38.1035 34.7216 38.166 34.4276 38.166 34.098C38.166 33.7685 38.1035 33.4759 37.9785 33.2202C37.8535 32.9645 37.6561 32.7642 37.3862 32.6193C37.1191 32.4744 36.7669 32.402 36.3294 32.402H34.676V40H33.3592ZM40.9327 40V33.4545H42.1642V34.4943H42.2324C42.3517 34.142 42.562 33.8651 42.8631 33.6634C43.1671 33.4588 43.5108 33.3565 43.8944 33.3565C43.9739 33.3565 44.0676 33.3594 44.1756 33.3651C44.2864 33.3707 44.373 33.3778 44.4355 33.3864V34.6051C44.3844 34.5909 44.2935 34.5753 44.1628 34.5582C44.0321 34.5384 43.9015 34.5284 43.7708 34.5284C43.4696 34.5284 43.2012 34.5923 42.9654 34.7202C42.7324 34.8452 42.5478 35.0199 42.4114 35.2443C42.275 35.4659 42.2069 35.7187 42.2069 36.0028V40H40.9327ZM48.0609 40.1321C47.4473 40.1321 46.9118 39.9915 46.4544 39.7102C45.997 39.429 45.6419 39.0355 45.389 38.5298C45.1362 38.0241 45.0098 37.4332 45.0098 36.7571C45.0098 36.0781 45.1362 35.4844 45.389 34.9759C45.6419 34.4673 45.997 34.0724 46.4544 33.7912C46.9118 33.5099 47.4473 33.3693 48.0609 33.3693C48.6745 33.3693 49.21 33.5099 49.6674 33.7912C50.1248 34.0724 50.4799 34.4673 50.7328 34.9759C50.9856 35.4844 51.112 36.0781 51.112 36.7571C51.112 37.4332 50.9856 38.0241 50.7328 38.5298C50.4799 39.0355 50.1248 39.429 49.6674 39.7102C49.21 39.9915 48.6745 40.1321 48.0609 40.1321ZM48.0652 39.0625C48.4629 39.0625 48.7924 38.9574 49.0538 38.7472C49.3152 38.5369 49.5083 38.2571 49.6333 37.9077C49.7612 37.5582 49.8251 37.1733 49.8251 36.7528C49.8251 36.3352 49.7612 35.9517 49.6333 35.6023C49.5083 35.25 49.3152 34.9673 49.0538 34.7543C48.7924 34.5412 48.4629 34.4347 48.0652 34.4347C47.6646 34.4347 47.3322 34.5412 47.068 34.7543C46.8066 34.9673 46.612 35.25 46.4842 35.6023C46.3592 35.9517 46.2967 36.3352 46.2967 36.7528C46.2967 37.1733 46.3592 37.5582 46.4842 37.9077C46.612 38.2571 46.8066 38.5369 47.068 38.7472C47.3322 38.9574 47.6646 39.0625 48.0652 39.0625ZM54.9846 40.1278C54.4561 40.1278 53.9846 39.9929 53.5698 39.723C53.1578 39.4503 52.834 39.0625 52.5982 38.5597C52.3652 38.054 52.2488 37.4474 52.2488 36.7401C52.2488 36.0327 52.3667 35.4276 52.6025 34.9247C52.8411 34.4219 53.1678 34.0369 53.5826 33.7699C53.9973 33.5028 54.4675 33.3693 54.9931 33.3693C55.3993 33.3693 55.726 33.4375 55.9732 33.5739C56.2232 33.7074 56.4164 33.8636 56.5527 34.0426C56.6919 34.2216 56.7999 34.3793 56.8766 34.5156H56.9533V31.2727H58.2275V40H56.9831V38.9815H56.8766C56.7999 39.1207 56.6891 39.2798 56.5442 39.4588C56.4022 39.6378 56.2061 39.794 55.9561 39.9276C55.7061 40.0611 55.3823 40.1278 54.9846 40.1278ZM55.2658 39.0412C55.6323 39.0412 55.9419 38.9446 56.1948 38.7514C56.4505 38.5554 56.6436 38.2841 56.7743 37.9375C56.9078 37.5909 56.9746 37.1875 56.9746 36.7273C56.9746 36.2727 56.9093 35.875 56.7786 35.5341C56.6479 35.1932 56.4561 34.9276 56.2033 34.7372C55.9505 34.5469 55.638 34.4517 55.2658 34.4517C54.8823 34.4517 54.5627 34.5511 54.307 34.75C54.0513 34.9489 53.8581 35.2202 53.7275 35.5639C53.5996 35.9077 53.5357 36.2955 53.5357 36.7273C53.5357 37.1648 53.601 37.5582 53.7317 37.9077C53.8624 38.2571 54.0556 38.5341 54.3113 38.7386C54.5698 38.9403 54.888 39.0412 55.2658 39.0412ZM64.1923 37.2855V33.4545H65.4707V40H64.2179V38.8665H64.1497C63.9991 39.2159 63.7576 39.5071 63.4252 39.7401C63.0957 39.9702 62.6852 40.0852 62.1937 40.0852C61.7733 40.0852 61.4011 39.9929 61.0772 39.8082C60.7562 39.6207 60.5034 39.3438 60.3187 38.9773C60.1369 38.6108 60.046 38.1577 60.046 37.6179V33.4545H61.3201V37.4645C61.3201 37.9105 61.4437 38.2656 61.6909 38.5298C61.938 38.794 62.2591 38.9261 62.6539 38.9261C62.8926 38.9261 63.1298 38.8665 63.3656 38.7472C63.6042 38.6278 63.8017 38.4474 63.9579 38.206C64.117 37.9645 64.1951 37.6577 64.1923 37.2855ZM69.9398 40.1321C69.3063 40.1321 68.7608 39.9886 68.3034 39.7017C67.8489 39.4119 67.4995 39.0128 67.2551 38.5043C67.0108 37.9957 66.8887 37.4134 66.8887 36.7571C66.8887 36.0923 67.0137 35.5057 67.2637 34.9972C67.5137 34.4858 67.8659 34.0866 68.3205 33.7997C68.775 33.5128 69.3105 33.3693 69.927 33.3693C70.4242 33.3693 70.8674 33.4616 71.2566 33.6463C71.6458 33.8281 71.9597 34.0838 72.1983 34.4134C72.4398 34.7429 72.5833 35.1278 72.6287 35.5682H71.3887C71.3205 35.2614 71.1642 34.9972 70.9199 34.7756C70.6784 34.554 70.3546 34.4432 69.9483 34.4432C69.5932 34.4432 69.2821 34.5369 69.0151 34.7244C68.7509 34.9091 68.5449 35.1733 68.3972 35.517C68.2495 35.858 68.1756 36.2614 68.1756 36.7273C68.1756 37.2045 68.248 37.6165 68.3929 37.9631C68.5378 38.3097 68.7424 38.5781 69.0066 38.7685C69.2736 38.9588 69.5875 39.054 69.9483 39.054C70.1898 39.054 70.4086 39.0099 70.6046 38.9219C70.8034 38.831 70.9696 38.7017 71.1032 38.5341C71.2395 38.3665 71.3347 38.1648 71.3887 37.929H72.6287C72.5833 38.3523 72.4455 38.7301 72.2154 39.0625C71.9853 39.3949 71.677 39.6562 71.2907 39.8466C70.9071 40.0369 70.4569 40.1321 69.9398 40.1321ZM77.0467 33.4545V34.4773H73.4714V33.4545H77.0467ZM74.4302 31.8864H75.7044V38.0781C75.7044 38.3253 75.7413 38.5114 75.8152 38.6364C75.889 38.7585 75.9842 38.8423 76.1007 38.8878C76.22 38.9304 76.3493 38.9517 76.4885 38.9517C76.5907 38.9517 76.6802 38.9446 76.7569 38.9304C76.8336 38.9162 76.8933 38.9048 76.9359 38.8963L77.166 39.9489C77.0922 39.9773 76.987 40.0057 76.8507 40.0341C76.7143 40.0653 76.5439 40.0824 76.3393 40.0852C76.0041 40.0909 75.6916 40.0312 75.4018 39.9062C75.112 39.7812 74.8777 39.5881 74.6987 39.3267C74.5197 39.0653 74.4302 38.7372 74.4302 38.3423V31.8864Z" fill="#15294B"/>
</g>
</svg>
