<svg width="208" height="72" viewBox="0 0 208 72" fill="none" xmlns="http://www.w3.org/2000/svg">
<mask id="path-1-inside-1_1_6457" fill="white">
<path d="M0 0H208V72H0V0Z"/>
</mask>
<path d="M208 71H0V73H208V71Z" fill="#EAECF0" mask="url(#path-1-inside-1_1_6457)"/>
<g style="mix-blend-mode:multiply">
<rect x="24" y="25" width="62" height="22" rx="11" fill="#F5F6F7"/>
<path d="M33.3592 40V31.2727H36.47C37.149 31.2727 37.7115 31.3963 38.1575 31.6435C38.6035 31.8906 38.9373 32.2287 39.1589 32.6577C39.3805 33.0838 39.4913 33.5639 39.4913 34.098C39.4913 34.6349 39.3791 35.1179 39.1547 35.5469C38.9331 35.973 38.5978 36.3111 38.149 36.5611C37.7029 36.8082 37.1419 36.9318 36.4657 36.9318H34.3265V35.8153H36.3464C36.7754 35.8153 37.1234 35.7415 37.3904 35.5938C37.6575 35.4432 37.8535 35.2386 37.9785 34.9801C38.1035 34.7216 38.166 34.4276 38.166 34.098C38.166 33.7685 38.1035 33.4759 37.9785 33.2202C37.8535 32.9645 37.6561 32.7642 37.3862 32.6193C37.1191 32.4744 36.7669 32.402 36.3294 32.402H34.676V40H33.3592ZM40.9327 40V33.4545H42.1642V34.4943H42.2324C42.3517 34.142 42.562 33.8651 42.8631 33.6634C43.1671 33.4588 43.5108 33.3565 43.8944 33.3565C43.9739 33.3565 44.0676 33.3594 44.1756 33.3651C44.2864 33.3707 44.373 33.3778 44.4355 33.3864V34.6051C44.3844 34.5909 44.2935 34.5753 44.1628 34.5582C44.0321 34.5384 43.9015 34.5284 43.7708 34.5284C43.4696 34.5284 43.2012 34.5923 42.9654 34.7202C42.7324 34.8452 42.5478 35.0199 42.4114 35.2443C42.275 35.4659 42.2069 35.7187 42.2069 36.0028V40H40.9327ZM48.0609 40.1321C47.4473 40.1321 46.9118 39.9915 46.4544 39.7102C45.997 39.429 45.6419 39.0355 45.389 38.5298C45.1362 38.0241 45.0098 37.4332 45.0098 36.7571C45.0098 36.0781 45.1362 35.4844 45.389 34.9759C45.6419 34.4673 45.997 34.0724 46.4544 33.7912C46.9118 33.5099 47.4473 33.3693 48.0609 33.3693C48.6745 33.3693 49.21 33.5099 49.6674 33.7912C50.1248 34.0724 50.4799 34.4673 50.7328 34.9759C50.9856 35.4844 51.112 36.0781 51.112 36.7571C51.112 37.4332 50.9856 38.0241 50.7328 38.5298C50.4799 39.0355 50.1248 39.429 49.6674 39.7102C49.21 39.9915 48.6745 40.1321 48.0609 40.1321ZM48.0652 39.0625C48.4629 39.0625 48.7924 38.9574 49.0538 38.7472C49.3152 38.5369 49.5083 38.2571 49.6333 37.9077C49.7612 37.5582 49.8251 37.1733 49.8251 36.7528C49.8251 36.3352 49.7612 35.9517 49.6333 35.6023C49.5083 35.25 49.3152 34.9673 49.0538 34.7543C48.7924 34.5412 48.4629 34.4347 48.0652 34.4347C47.6646 34.4347 47.3322 34.5412 47.068 34.7543C46.8066 34.9673 46.612 35.25 46.4842 35.6023C46.3592 35.9517 46.2967 36.3352 46.2967 36.7528C46.2967 37.1733 46.3592 37.5582 46.4842 37.9077C46.612 38.2571 46.8066 38.5369 47.068 38.7472C47.3322 38.9574 47.6646 39.0625 48.0652 39.0625ZM54.9846 40.1278C54.4561 40.1278 53.9846 39.9929 53.5698 39.723C53.1578 39.4503 52.834 39.0625 52.5982 38.5597C52.3652 38.054 52.2488 37.4474 52.2488 36.7401C52.2488 36.0327 52.3667 35.4276 52.6025 34.9247C52.8411 34.4219 53.1678 34.0369 53.5826 33.7699C53.9973 33.5028 54.4675 33.3693 54.9931 33.3693C55.3993 33.3693 55.726 33.4375 55.9732 33.5739C56.2232 33.7074 56.4164 33.8636 56.5527 34.0426C56.6919 34.2216 56.7999 34.3793 56.8766 34.5156H56.9533V31.2727H58.2275V40H56.9831V38.9815H56.8766C56.7999 39.1207 56.6891 39.2798 56.5442 39.4588C56.4022 39.6378 56.2061 39.794 55.9561 39.9276C55.7061 40.0611 55.3823 40.1278 54.9846 40.1278ZM55.2658 39.0412C55.6323 39.0412 55.9419 38.9446 56.1948 38.7514C56.4505 38.5554 56.6436 38.2841 56.7743 37.9375C56.9078 37.5909 56.9746 37.1875 56.9746 36.7273C56.9746 36.2727 56.9093 35.875 56.7786 35.5341C56.6479 35.1932 56.4561 34.9276 56.2033 34.7372C55.9505 34.5469 55.638 34.4517 55.2658 34.4517C54.8823 34.4517 54.5627 34.5511 54.307 34.75C54.0513 34.9489 53.8581 35.2202 53.7275 35.5639C53.5996 35.9077 53.5357 36.2955 53.5357 36.7273C53.5357 37.1648 53.601 37.5582 53.7317 37.9077C53.8624 38.2571 54.0556 38.5341 54.3113 38.7386C54.5698 38.9403 54.888 39.0412 55.2658 39.0412ZM64.1923 37.2855V33.4545H65.4707V40H64.2179V38.8665H64.1497C63.9991 39.2159 63.7576 39.5071 63.4252 39.7401C63.0957 39.9702 62.6852 40.0852 62.1937 40.0852C61.7733 40.0852 61.4011 39.9929 61.0772 39.8082C60.7562 39.6207 60.5034 39.3438 60.3187 38.9773C60.1369 38.6108 60.046 38.1577 60.046 37.6179V33.4545H61.3201V37.4645C61.3201 37.9105 61.4437 38.2656 61.6909 38.5298C61.938 38.794 62.2591 38.9261 62.6539 38.9261C62.8926 38.9261 63.1298 38.8665 63.3656 38.7472C63.6042 38.6278 63.8017 38.4474 63.9579 38.206C64.117 37.9645 64.1951 37.6577 64.1923 37.2855ZM69.9398 40.1321C69.3063 40.1321 68.7608 39.9886 68.3034 39.7017C67.8489 39.4119 67.4995 39.0128 67.2551 38.5043C67.0108 37.9957 66.8887 37.4134 66.8887 36.7571C66.8887 36.0923 67.0137 35.5057 67.2637 34.9972C67.5137 34.4858 67.8659 34.0866 68.3205 33.7997C68.775 33.5128 69.3105 33.3693 69.927 33.3693C70.4242 33.3693 70.8674 33.4616 71.2566 33.6463C71.6458 33.8281 71.9597 34.0838 72.1983 34.4134C72.4398 34.7429 72.5833 35.1278 72.6287 35.5682H71.3887C71.3205 35.2614 71.1642 34.9972 70.9199 34.7756C70.6784 34.554 70.3546 34.4432 69.9483 34.4432C69.5932 34.4432 69.2821 34.5369 69.0151 34.7244C68.7509 34.9091 68.5449 35.1733 68.3972 35.517C68.2495 35.858 68.1756 36.2614 68.1756 36.7273C68.1756 37.2045 68.248 37.6165 68.3929 37.9631C68.5378 38.3097 68.7424 38.5781 69.0066 38.7685C69.2736 38.9588 69.5875 39.054 69.9483 39.054C70.1898 39.054 70.4086 39.0099 70.6046 38.9219C70.8034 38.831 70.9696 38.7017 71.1032 38.5341C71.2395 38.3665 71.3347 38.1648 71.3887 37.929H72.6287C72.5833 38.3523 72.4455 38.7301 72.2154 39.0625C71.9853 39.3949 71.677 39.6562 71.2907 39.8466C70.9071 40.0369 70.4569 40.1321 69.9398 40.1321ZM77.0467 33.4545V34.4773H73.4714V33.4545H77.0467ZM74.4302 31.8864H75.7044V38.0781C75.7044 38.3253 75.7413 38.5114 75.8152 38.6364C75.889 38.7585 75.9842 38.8423 76.1007 38.8878C76.22 38.9304 76.3493 38.9517 76.4885 38.9517C76.5907 38.9517 76.6802 38.9446 76.7569 38.9304C76.8336 38.9162 76.8933 38.9048 76.9359 38.8963L77.166 39.9489C77.0922 39.9773 76.987 40.0057 76.8507 40.0341C76.7143 40.0653 76.5439 40.0824 76.3393 40.0852C76.0041 40.0909 75.6916 40.0312 75.4018 39.9062C75.112 39.7812 74.8777 39.5881 74.6987 39.3267C74.5197 39.0653 74.4302 38.7372 74.4302 38.3423V31.8864Z" fill="#15294B"/>
</g>
<g style="mix-blend-mode:multiply">
<rect x="90" y="25" width="56" height="22" rx="11" fill="#F7E8EF"/>
<path d="M101.933 40H99.1072V31.2727H102.022C102.877 31.2727 103.612 31.4474 104.225 31.7969C104.839 32.1435 105.309 32.642 105.636 33.2926C105.965 33.9403 106.13 34.7173 106.13 35.6236C106.13 36.5327 105.964 37.3139 105.631 37.9673C105.302 38.6207 104.825 39.1236 104.2 39.4759C103.575 39.8253 102.819 40 101.933 40ZM100.424 38.8494H101.86C102.525 38.8494 103.077 38.7244 103.518 38.4744C103.958 38.2216 104.288 37.8565 104.506 37.3793C104.725 36.8991 104.835 36.3139 104.835 35.6236C104.835 34.9389 104.725 34.358 104.506 33.8807C104.29 33.4034 103.968 33.0412 103.539 32.794C103.11 32.5469 102.577 32.4233 101.941 32.4233H100.424V38.8494ZM110.486 40.1321C109.841 40.1321 109.286 39.9943 108.82 39.7188C108.357 39.4403 107.999 39.0497 107.746 38.5469C107.496 38.0412 107.371 37.4489 107.371 36.7699C107.371 36.0994 107.496 35.5085 107.746 34.9972C107.999 34.4858 108.351 34.0866 108.803 33.7997C109.257 33.5128 109.789 33.3693 110.397 33.3693C110.766 33.3693 111.124 33.4304 111.471 33.5526C111.817 33.6747 112.128 33.8665 112.404 34.1278C112.679 34.3892 112.897 34.7287 113.056 35.1463C113.215 35.5611 113.294 36.0653 113.294 36.6591V37.1108H108.091V36.1562H112.046C112.046 35.821 111.978 35.5241 111.841 35.2656C111.705 35.0043 111.513 34.7983 111.266 34.6477C111.022 34.4972 110.735 34.4219 110.405 34.4219C110.047 34.4219 109.735 34.5099 109.468 34.6861C109.203 34.8594 108.999 35.0866 108.854 35.3679C108.712 35.6463 108.641 35.9489 108.641 36.2756V37.0213C108.641 37.4588 108.718 37.831 108.871 38.1378C109.027 38.4446 109.245 38.679 109.523 38.8409C109.801 39 110.127 39.0795 110.499 39.0795C110.74 39.0795 110.961 39.0455 111.159 38.9773C111.358 38.9062 111.53 38.8011 111.675 38.6619C111.82 38.5227 111.931 38.3509 112.007 38.1463L113.213 38.3636C113.117 38.7187 112.944 39.0298 112.694 39.2969C112.446 39.5611 112.135 39.767 111.76 39.9148C111.388 40.0597 110.963 40.1321 110.486 40.1321ZM119.613 35.0526L118.458 35.2571C118.41 35.1094 118.333 34.9687 118.228 34.8352C118.126 34.7017 117.987 34.5923 117.81 34.5071C117.634 34.4219 117.414 34.3793 117.15 34.3793C116.789 34.3793 116.488 34.4602 116.246 34.6222C116.005 34.7812 115.884 34.9872 115.884 35.2401C115.884 35.4588 115.965 35.6349 116.127 35.7685C116.289 35.902 116.55 36.0114 116.911 36.0966L117.951 36.3352C118.553 36.4744 119.002 36.6889 119.298 36.9787C119.593 37.2685 119.741 37.6449 119.741 38.108C119.741 38.5 119.627 38.8494 119.4 39.1562C119.175 39.4602 118.862 39.6989 118.458 39.8722C118.058 40.0455 117.593 40.1321 117.065 40.1321C116.332 40.1321 115.734 39.9759 115.271 39.6634C114.808 39.348 114.523 38.9006 114.418 38.321L115.65 38.1335C115.727 38.4545 115.884 38.6974 116.123 38.8622C116.362 39.0241 116.673 39.1051 117.056 39.1051C117.474 39.1051 117.808 39.0185 118.058 38.8452C118.308 38.669 118.433 38.4545 118.433 38.2017C118.433 37.9972 118.356 37.8253 118.202 37.6861C118.052 37.5469 117.82 37.4418 117.508 37.3707L116.4 37.1278C115.789 36.9886 115.337 36.767 115.045 36.4631C114.755 36.1591 114.61 35.7741 114.61 35.3082C114.61 34.9219 114.718 34.5838 114.934 34.294C115.15 34.0043 115.448 33.7784 115.829 33.6165C116.21 33.4517 116.646 33.3693 117.137 33.3693C117.844 33.3693 118.401 33.5227 118.808 33.8295C119.214 34.1335 119.482 34.5412 119.613 35.0526ZM121.142 40V33.4545H122.416V40H121.142ZM121.785 32.4446C121.564 32.4446 121.373 32.3707 121.214 32.223C121.058 32.0724 120.98 31.8935 120.98 31.6861C120.98 31.4759 121.058 31.2969 121.214 31.1491C121.373 30.9986 121.564 30.9233 121.785 30.9233C122.007 30.9233 122.196 30.9986 122.352 31.1491C122.511 31.2969 122.591 31.4759 122.591 31.6861C122.591 31.8935 122.511 32.0724 122.352 32.223C122.196 32.3707 122.007 32.4446 121.785 32.4446ZM126.874 42.5909C126.354 42.5909 125.907 42.5227 125.532 42.3864C125.16 42.25 124.856 42.0696 124.62 41.8452C124.384 41.6207 124.208 41.375 124.092 41.108L125.187 40.6562C125.263 40.7812 125.366 40.9134 125.494 41.0526C125.624 41.1946 125.8 41.3153 126.022 41.4148C126.246 41.5142 126.535 41.5639 126.887 41.5639C127.37 41.5639 127.769 41.446 128.085 41.2102C128.4 40.9773 128.558 40.6051 128.558 40.0938V38.8068H128.477C128.4 38.946 128.289 39.1009 128.144 39.2713C128.002 39.4418 127.806 39.5895 127.556 39.7145C127.306 39.8395 126.981 39.902 126.58 39.902C126.063 39.902 125.597 39.7812 125.183 39.5398C124.771 39.2955 124.444 38.9361 124.202 38.4616C123.964 37.9844 123.844 37.3977 123.844 36.7017C123.844 36.0057 123.962 35.4091 124.198 34.9119C124.437 34.4148 124.763 34.0341 125.178 33.7699C125.593 33.5028 126.063 33.3693 126.589 33.3693C126.995 33.3693 127.323 33.4375 127.573 33.5739C127.823 33.7074 128.018 33.8636 128.157 34.0426C128.299 34.2216 128.408 34.3793 128.485 34.5156H128.579V33.4545H129.827V40.1449C129.827 40.7074 129.697 41.169 129.435 41.5298C129.174 41.8906 128.82 42.1577 128.374 42.331C127.931 42.5043 127.431 42.5909 126.874 42.5909ZM126.862 38.8452C127.228 38.8452 127.538 38.7599 127.79 38.5895C128.046 38.4162 128.239 38.169 128.37 37.848C128.504 37.5241 128.57 37.1364 128.57 36.6847C128.57 36.2443 128.505 35.8565 128.374 35.5213C128.244 35.1861 128.052 34.9247 127.799 34.7372C127.546 34.5469 127.234 34.4517 126.862 34.4517C126.478 34.4517 126.158 34.5511 125.903 34.75C125.647 34.946 125.454 35.2131 125.323 35.5511C125.195 35.8892 125.131 36.267 125.131 36.6847C125.131 37.1136 125.197 37.4901 125.327 37.8139C125.458 38.1378 125.651 38.3906 125.907 38.5724C126.165 38.7543 126.484 38.8452 126.862 38.8452ZM132.81 36.1136V40H131.536V33.4545H132.759V34.5199H132.84C132.991 34.1733 133.227 33.8949 133.548 33.6847C133.871 33.4744 134.279 33.3693 134.771 33.3693C135.217 33.3693 135.607 33.4631 135.942 33.6506C136.278 33.8352 136.538 34.1108 136.722 34.4773C136.907 34.8437 136.999 35.2969 136.999 35.8366V40H135.725V35.9901C135.725 35.5156 135.602 35.1449 135.354 34.8778C135.107 34.608 134.768 34.473 134.336 34.473C134.04 34.473 133.778 34.5369 133.548 34.6648C133.32 34.7926 133.14 34.9801 133.006 35.2273C132.876 35.4716 132.81 35.767 132.81 36.1136Z" fill="#6A1039"/>
</g>
<g style="mix-blend-mode:multiply">
<rect x="150" y="25" width="30" height="22" rx="11" fill="#F2F4F7"/>
<path d="M161.59 38.5341V32.7727H162.736V38.5341H161.59ZM159.284 36.2244V35.0824H165.046V36.2244H159.284ZM170.311 31.2727V40H168.99V32.5938H168.939L166.85 33.9574V32.696L169.028 31.2727H170.311Z" fill="#344054"/>
</g>
</svg>
