<svg width="72" height="28" viewBox="0 0 72 28" fill="none" xmlns="http://www.w3.org/2000/svg">
<path d="M0.646 22.9949L4.694 7.59487H9.754L13.802 22.9949H10.81L9.974 19.6069H4.474L3.638 22.9949H0.646ZM5.156 16.9229H9.292L7.422 9.42087H7.026L5.156 16.9229ZM26.7978 22.9949V12.0829H29.5258V13.3149H29.9218C30.0831 12.8749 30.3471 12.5522 30.7138 12.3469C31.0951 12.1415 31.5351 12.0389 32.0338 12.0389H33.3538V14.5029H31.9898C31.2858 14.5029 30.7065 14.6935 30.2518 15.0749C29.7971 15.4415 29.5698 16.0135 29.5698 16.7909V22.9949H26.7978ZM39.7005 22.9949C38.9818 22.9949 38.3951 22.7749 37.9405 22.3349C37.5005 21.8802 37.2805 21.2789 37.2805 20.5309V14.3709H34.5525V12.0829H37.2805V8.69487H40.0525V12.0829H43.0445V14.3709H40.0525V20.0469C40.0525 20.4869 40.2578 20.7069 40.6685 20.7069H42.7805V22.9949H39.7005ZM56.6181 22.9949V12.0829H59.3461V13.5129H59.7421C59.9181 13.1315 60.2481 12.7722 60.7321 12.4349C61.2161 12.0829 61.9495 11.9069 62.9321 11.9069C63.7828 11.9069 64.5235 12.1049 65.1541 12.5009C65.7995 12.8822 66.2981 13.4175 66.6501 14.1069C67.0021 14.7815 67.1781 15.5735 67.1781 16.4829V22.9949H64.4061V16.7029C64.4061 15.8815 64.2008 15.2655 63.7901 14.8549C63.3941 14.4442 62.8221 14.2389 62.0741 14.2389C61.2235 14.2389 60.5635 14.5249 60.0941 15.0969C59.6248 15.6542 59.3901 16.4389 59.3901 17.4509V22.9949H56.6181Z" fill="#1E1E1E"/>
<path d="M20.5294 11.2689C21.82 11.2689 22.832 11.6502 23.5654 12.4129C24.3134 13.1609 24.6874 14.4222 24.6874 16.1969H17.8014L17.7574 15.7789H21.4754C21.49 15.0602 21.4607 14.4002 21.3874 13.7989C21.314 13.1829 21.1967 12.6915 21.0354 12.3249C20.874 11.9582 20.654 11.7749 20.3754 11.7749C19.9794 11.7749 19.6567 12.0902 19.4074 12.7209C19.158 13.3369 18.9967 14.4002 18.9234 15.9109L19.0114 16.0869C18.9967 16.2335 18.9894 16.3802 18.9894 16.5269C18.9894 16.6735 18.9894 16.8275 18.9894 16.9889C18.9894 18.0155 19.114 18.8149 19.3634 19.3869C19.6274 19.9589 19.95 20.3549 20.3314 20.5749C20.7274 20.7949 21.1234 20.9049 21.5194 20.9049C21.7247 20.9049 21.9667 20.8755 22.2454 20.8169C22.5387 20.7582 22.854 20.6262 23.1914 20.4209C23.5287 20.2009 23.8587 19.8709 24.1814 19.4309L24.5554 19.5629C24.3794 20.1495 24.0934 20.7362 23.6974 21.3229C23.316 21.8949 22.8174 22.3715 22.2014 22.7529C21.5854 23.1195 20.8374 23.3029 19.9574 23.3029C19.0187 23.3029 18.1607 23.1122 17.3834 22.7309C16.6207 22.3495 16.012 21.7189 15.5574 20.8389C15.1027 19.9589 14.8754 18.7782 14.8754 17.2969C14.8754 15.8889 15.1247 14.7449 15.6234 13.8649C16.122 12.9702 16.7967 12.3175 17.6474 11.9069C18.5127 11.4815 19.4734 11.2689 20.5294 11.2689Z" fill="#6A1039"/>
<path d="M50.3497 11.2689C51.6403 11.2689 52.6523 11.6502 53.3857 12.4129C54.1337 13.1609 54.5077 14.4222 54.5077 16.1969H47.6217L47.5777 15.7789H51.2957C51.3103 15.0602 51.281 14.4002 51.2077 13.7989C51.1343 13.1829 51.017 12.6915 50.8557 12.3249C50.6943 11.9582 50.4743 11.7749 50.1957 11.7749C49.7997 11.7749 49.477 12.0902 49.2277 12.7209C48.9783 13.3369 48.817 14.4002 48.7437 15.9109L48.8317 16.0869C48.817 16.2335 48.8097 16.3802 48.8097 16.5269C48.8097 16.6735 48.8097 16.8275 48.8097 16.9889C48.8097 18.0155 48.9343 18.8149 49.1837 19.3869C49.4477 19.9589 49.7703 20.3549 50.1517 20.5749C50.5477 20.7949 50.9437 20.9049 51.3397 20.9049C51.545 20.9049 51.787 20.8755 52.0657 20.8169C52.359 20.7582 52.6743 20.6262 53.0117 20.4209C53.349 20.2009 53.679 19.8709 54.0017 19.4309L54.3757 19.5629C54.1997 20.1495 53.9137 20.7362 53.5177 21.3229C53.1363 21.8949 52.6377 22.3715 52.0217 22.7529C51.4057 23.1195 50.6577 23.3029 49.7777 23.3029C48.839 23.3029 47.981 23.1122 47.2037 22.7309C46.441 22.3495 45.8323 21.7189 45.3777 20.8389C44.923 19.9589 44.6957 18.7782 44.6957 17.2969C44.6957 15.8889 44.945 14.7449 45.4437 13.8649C45.9423 12.9702 46.617 12.3175 47.4677 11.9069C48.333 11.4815 49.2937 11.2689 50.3497 11.2689Z" fill="#791241"/>
</svg>
